<?xml version="1.0" encoding="UTF-8"?>
<svg width="24px" height="24px" viewBox="0 0 24 24" version="1.1" xmlns="http://www.w3.org/2000/svg" xmlns:xlink="http://www.w3.org/1999/xlink">
    <!-- Generator: Sketch 52.5 (67469) - http://www.bohemiancoding.com/sketch -->
    <title>exclamation-circle</title>
    <desc>Created with Sketch.</desc>
    <g id="Styles" stroke="none" stroke-width="1" fill="none" fill-rule="evenodd">
        <g id="UI-icons" transform="translate(-436.000000, -270.000000)" fill="#27BCBD" fill-rule="nonzero">
            <g id="exclamation-circle" transform="translate(436.000000, 270.000000)">
                <path d="M12,0 C5.371875,0 0,5.371875 0,12 C0,18.628125 5.371875,24 12,24 C18.628125,24 24,18.628125 24,12 C24,5.371875 18.628125,0 12,0 Z M11.0625,5.4140625 C11.0625,4.89609375 11.4820312,4.4765625 12,4.4765625 C12.5179688,4.4765625 12.9375,4.89609375 12.9375,5.4140625 L12.9375,14.0625 C12.9375,14.5804688 12.5179688,15 12,15 C11.4820312,15 11.0625,14.5804688 11.0625,14.0625 L11.0625,5.4140625 Z M12,18.609375 C11.4164063,18.609375 10.9453125,18.1382812 10.9453125,17.5546875 C10.9453125,16.9710938 11.4164063,16.5 12,16.5 C12.5835937,16.5 13.0546875,16.9710938 13.0546875,17.5546875 C13.0546875,18.1359375 12.5835937,18.609375 12,18.609375 Z" id="Shape"></path>
            </g>
        </g>
    </g>
</svg>