<?xml version="1.0" encoding="UTF-8"?>
<svg width="4358px" height="3687px" viewBox="0 0 4358 3687" version="1.1" xmlns="http://www.w3.org/2000/svg" xmlns:xlink="http://www.w3.org/1999/xlink">
    <!-- Generator: Sketch 51.3 (57544) - http://www.bohemiancoding.com/sketch -->
    <title>Artboard</title>
    <desc>Created with Sketch.</desc>
    <defs>
        <ellipse id="path-1" cx="544.5" cy="683.5" rx="544.5" ry="683.5"></ellipse>
        <path d="M0,537 C0,537 199.084032,478.694807 473,478.694807 C746.915968,478.694807 946,537 946,537 C946,316.334526 946.010451,0 473.005225,0 C0,0 0,316.313638 0,537 Z" id="path-3"></path>
        <path d="M435.5,546 C489.50255,512.100976 564.971609,425.182318 625.395606,406.861824 C764.091765,364.809291 871,348.144729 871,251.424091 C871,112.5664 676.020009,0 435.5,0 C194.979991,0 0,112.5664 0,251.424091 C0,348.670776 125.516179,365.039828 265.447457,406.861824 C325.322829,424.757091 378.676168,513.100585 435.5,546 Z" id="path-5"></path>
        <path d="M435.5,188 C676.020009,188 871,127.558441 871,53 C871,-21.5584412 676.020009,5.0813184 435.5,5.0813184 C194.979991,5.0813184 0,-21.5584412 0,53 C0,127.558441 194.979991,188 435.5,188 Z" id="path-7"></path>
    </defs>
    <g id="Artboard" stroke="none" stroke-width="1" fill="none" fill-rule="evenodd">
        <g id="Rectangle-6" transform="translate(2770.000000, 327.000000)">
            <mask id="mask-2" fill="white">
                <use xlink:href="#path-1"></use>
            </mask>
            <use id="Mask" fill="#57555C" xlink:href="#path-1"></use>
            <rect fill="#454449" mask="url(#mask-2)" x="547" y="-47" width="542" height="966"></rect>
        </g>
        <g id="group" transform="translate(-567.000000, -733.000000)">
            <rect id="Rectangle-path" fill="#4A4A4A" fill-rule="nonzero" x="3025" y="2373" width="423" height="346"></rect>
            <rect id="Rectangle-path" fill="#D5D5D5" fill-rule="nonzero" x="1905" y="2376" width="871" height="342"></rect>
            <path d="M2712.00523,1349 C2545.72734,1349 2157,1427.36027 2157,1921.38746 C2157,2386.26999 2157,2864 2157,2864 L3267,2864 C3267,2864 3267,2386.25953 3267,1921.38746 C3267,1427.36027 2878.28311,1349 2712.00523,1349 Z" id="Shape" fill="#C06100" fill-rule="nonzero"></path>
            <path d="M3267,1921.45274 C3267,2386.25567 3267,2864 3267,2864 L2712,2864 L2712,1349 C2878.24183,1349 3267,1427.42191 3267,1921.45274 Z" id="Shape" fill="#9A4C00" fill-rule="nonzero"></path>
            <rect id="Rectangle-path" fill="#FFC473" fill-rule="nonzero" x="2539" y="2547" width="346" height="437"></rect>
            <rect id="Rectangle-path" fill="#FFAA20" fill-rule="nonzero" x="2712" y="2547" width="173" height="437"></rect>
            <polygon id="Shape" fill="#27BCBD" fill-rule="nonzero" points="1808 2719 1808 3059.54351 2188.6434 3059.54351 2188.6434 4173 2712.5 4173 3236.3566 4173 3236.3566 3059.54351 3617 3059.54351 3617 2719"></polygon>
            <polygon id="Shape" fill="#009587" fill-rule="nonzero" points="3616 2719 3616 3059.59711 3235.52081 3059.59711 3235.52081 4173 2712 4173 2712 2719"></polygon>
            <path d="M3156.45431,1970.48477 C3137.85208,1696.5022 2904.36283,1541 2711.00421,1541 C2517.64559,1541 2284.14589,1696.5022 2265.55411,1970.48477 C2215.51622,1979.86573 2180.00479,2026.65548 2185.575,2078.10957 L2194.18637,2157.71699 C2200.0283,2211.72287 2248.96887,2251.12917 2302.94667,2245.28307 L2312.23733,2244.27908 C2422.722,2532.07686 2601.01073,2606.17284 2711.00421,2623 C2820.98724,2606.17284 2999.28642,2532.07686 3109.77109,2244.27908 L3119.06175,2245.28307 C3173.0291,2251.12917 3221.96967,2211.72287 3227.8116,2157.71699 L3236.42297,2078.10957 C3242.00364,2026.65548 3206.4922,1979.85527 3156.45431,1970.48477 Z" id="Shape" fill="#FFDBA9" fill-rule="nonzero"></path>
            <path d="M3238.42595,2078.11469 L3229.78795,2157.74533 C3223.9141,2211.75278 3174.90261,2251.1393 3120.83396,2245.30349 L3111.49445,2244.28902 C3000.82334,2532.09514 2822.19995,2606.16189 2712,2623 L2712,1541 C2903.08305,1541 3133.29362,1692.29196 3157.42767,1959.36943 C3157.78366,1963.21814 3158.05589,1966.90997 3158.28624,1970.48676 C3208.41805,1979.85754 3243.99615,2026.66956 3238.42595,2078.11469 Z" id="Shape" fill="#FFC473" fill-rule="nonzero"></path>
            <polygon id="Shape" fill="#FFA91F" fill-rule="nonzero" points="2712 2004 2712 2312 2802.28566 2312 2802.28566 2093.91466 2999 2093.91466 2999 2004"></polygon>
            <rect id="Rectangle-path" fill="#FFC473" fill-rule="nonzero" x="2419" y="2004" width="230" height="90"></rect>
            <path d="M2266,1970 C2266,1970 2525.85714,1966.1753 2711.49477,1763.77948 L2711.50523,1763.77948 C2897.1324,1966.1753 3157,1970 3157,1970 C3157,1762.07612 3157.01045,1464 2711.50523,1464 C2266,1464 2266,1762.05522 2266,1970 Z" id="Shape" fill="#E67500" fill-rule="nonzero"></path>
            <path d="M3158,1970 C3158,1970 3092.95528,1969.04905 3004.7117,1942.80907 C2916.41579,1916.53774 2804.92103,1864.98784 2712,1763.77948 L2712,1464 C3158.04186,1464.01045 3158,1762.10747 3158,1970 Z" id="Shape" fill="#C06100" fill-rule="nonzero"></path>
            <polygon id="Rectangle-4" fill="#D8D8D8" points="927.737067 1317 2087.98871 1317 2138.07813 2380.03526 1965.03965 2380.03526 848 2781.6095"></polygon>
            <rect id="Rectangle-path" fill="#9A4C00" fill-rule="nonzero" x="1321" y="2192" width="373" height="470"></rect>
            <rect id="Rectangle-path" fill="#703700" fill-rule="nonzero" x="1507" y="2192" width="187" height="470"></rect>
            <path d="M1986.32727,1572.03702 C1966.31612,1277.28638 1715.07422,1110 1507,1110 C1298.93623,1110 1047.69433,1277.28638 1027.67273,1572.03702 C973.835927,1582.12585 935.621412,1632.46545 941.619534,1687.82333 L950.888408,1773.4686 C957.179122,1831.56563 1009.83511,1873.95962 1067.91448,1867.66586 L1077.91484,1866.57857 C1196.80096,2176.1854 1388.64681,2255.89238 1507,2274 C1625.35319,2255.89238 1817.19904,2176.17495 1936.08516,1866.57857 L1946.08552,1867.66586 C2004.16489,1873.95962 2056.82088,1831.56563 2063.11159,1773.4686 L2072.38047,1687.82333 C2078.37859,1632.46545 2040.16407,1582.12585 1986.32727,1572.03702 Z" id="Shape" fill="#E67500" fill-rule="nonzero"></path>
            <path d="M2072.38438,1687.81806 L2063.10517,1773.48502 C2056.79363,1831.58256 2004.15915,1873.95603 1946.09089,1867.68312 L1936.05931,1866.59582 C1817.20591,2176.20543 1625.35182,2255.89222 1507,2274 L1507,1110 C1712.22954,1110 1959.47679,1272.75049 1985.39172,1560.07038 C1985.76791,1564.2105 1986.06049,1568.18334 1986.31128,1572.03072 C2040.15791,1582.10918 2078.36154,1632.4806 2072.38438,1687.81806 Z" id="Shape" fill="#9A4C00" fill-rule="nonzero"></path>
            <polygon id="Shape" fill="#703700" fill-rule="nonzero" points="1507 1608 1507 1940 1603.90334 1940 1603.90334 1704.92133 1815 1704.92133 1815 1608"></polygon>
            <rect id="Rectangle-path" fill="#9A4C00" fill-rule="nonzero" x="1192" y="1608" width="247" height="97"></rect>
            <path d="M2024,4171 L819,4171 L819,2693.45512 C819,2542.4408 925.962682,2415.17238 1067.90017,2383.54601 C1069.30083,2383.25337 1070.75376,2382.91892 1072.20669,2382.62628 C1073.65961,2382.33363 1075.11254,2382.04099 1076.56547,2381.7588 C1077.15082,2381.61248 1077.67346,2381.51841 1078.20655,2381.42435 L1081.6873,2380.745 C1081.97998,2380.69274 1082.22039,2380.65094 1082.4608,2380.59868 C1083.47472,2380.50461 1084.44682,2380.30604 1085.40847,2380.15971 C1087.34222,2379.86707 1089.38051,2379.53262 1091.35607,2379.23998 C1091.69056,2379.18772 1092.18183,2379.14591 1092.51632,2379.09366 C1093.04941,2378.99959 1093.48842,2378.94733 1093.96925,2378.85327 C1095.1295,2378.70695 1096.24794,2378.50837 1097.45,2378.3725 C1097.59634,2378.3725 1097.78449,2378.3725 1097.98309,2378.32024 C1098.42211,2378.32024 1098.85067,2378.22618 1099.28968,2378.22618 C1099.86458,2378.13211 1100.5022,2378.0276 1101.0771,2377.98579 C1104.02477,2377.69315 1107.0247,2377.3587 1109.98282,2377.11831 C1110.17096,2377.11831 1110.3173,2377.06606 1110.46364,2377.06606 C1111.42529,2376.97199 1112.39739,2376.91974 1113.31723,2376.82567 C1113.55765,2376.82567 1113.79806,2376.77341 1114.03847,2376.77341 C1115.67955,2376.72116 1117.33108,2376.58529 1119.02442,2376.48077 C1121.87801,2376.28219 1124.82568,2376.18813 1127.7838,2376.14632 C1130.63739,2376.05226 1133.58506,2376 1136.54318,2376 L2024,2376 L2024,4171 Z" id="Shape" fill="#F7F7F7" fill-rule="nonzero"></path>
            <g id="Group" transform="translate(992.000000, 2376.000000)" fill="#9B9B9B" fill-opacity="0.35657269" fill-rule="nonzero">
                <rect id="Rectangle-path" x="515.815723" y="0.246552475" width="517.147081" height="1795.44444"></rect>
                <rect id="Rectangle-path" x="0.132167437" y="654.028765" width="151.474857" height="1141.55768"></rect>
            </g>
            <polygon id="Rectangle-9" fill="#57555C" points="3337 1767 4426 1767 4426 2766 3629.78163 2373.83238 3337 2373.83238"></polygon>
            <rect id="Rectangle-3" stroke="#979797" fill="#454449" x="3884.5" y="1767.5" width="541" height="859"></rect>
            <path d="M4296.1574,2380.12066 C4295.65606,2380.02655 4295.15473,2379.89062 4294.6534,2379.79652 C4293.59851,2379.56648 4292.59585,2379.33645 4291.55141,2379.10641 C4289.85942,2378.74044 4288.12564,2378.4163 4286.44409,2378.10262 L4283.1541,2377.46479 C4282.88255,2377.42296 4282.65277,2377.37068 4282.42299,2377.32886 C4279.63434,2376.86879 4276.85612,2376.461 4274.02569,2376.0532 L4273.88991,2376.0532 C4273.61835,2375.9591 4273.2528,2375.9591 4272.92902,2375.91727 C4272.42769,2375.82317 4272.00992,2375.78134 4271.56081,2375.68724 C4270.46414,2375.55131 4269.4197,2375.3631 4268.27082,2375.22717 C4268.13504,2375.22717 4267.94704,2375.22717 4267.76948,2375.18534 C4267.36215,2375.18534 4266.94438,2375.09124 4266.53704,2375.09124 C4265.99393,2374.99713 4265.3986,2374.90302 4264.84505,2374.8612 C4262.05639,2374.53706 4259.27818,2374.22337 4256.44774,2374.03516 C4256.27019,2374.03516 4256.13441,2373.99334 4255.98819,2373.99334 C4255.07952,2373.89923 4254.16042,2373.85741 4253.29353,2373.7633 C4253.06375,2373.7633 4252.83397,2373.72148 4252.61464,2373.72148 C4251.05842,2373.67965 4249.51265,2373.54372 4247.91466,2373.44962 L4247.87288,2373.44962 C4246.00333,2373.31369 4244.13378,2373.21958 4242.21201,2373.21958 C4241.84645,2373.17776 4241.5749,2373.17776 4241.20934,2373.17776 C4240.70801,2373.17776 4240.20668,2373.13593 4239.65313,2373.13593 L4238.37891,2373.13593 C4236.09158,2373.04182 4233.7207,2373 4231.3916,2373 L3386,2373 L3386,4173 L4531,4173 L4531,2672.90415 C4531,2530.24003 4430.07565,2410.00442 4296.1574,2380.12066 Z" id="Shape" fill="#4A4A4A" fill-rule="nonzero"></path>
            <path d="M4533,2672.90415 L4533,4173 L3883,4173 L3883,2373 L4232.97506,2373 C4235.30732,2373 4237.68142,2373.04182 4239.97184,2373.13593 L4241.24779,2373.13593 C4241.79163,2373.13593 4242.29364,2373.17776 4242.80611,2373.17776 C4243.17216,2373.17776 4243.44409,2373.17776 4243.81014,2373.21958 C4245.73451,2373.21958 4247.6066,2373.31369 4249.47868,2373.44962 L4249.52051,2373.44962 C4251.12068,2373.54372 4252.679,2373.67965 4254.22687,2373.72148 C4254.45696,2373.72148 4254.68705,2373.7633 4254.90668,2373.7633 C4255.77474,2373.85741 4256.69509,2373.89923 4257.60499,2373.99334 C4257.74095,2373.99334 4257.87691,2374.03516 4258.06516,2374.03516 C4260.89944,2374.22337 4263.69187,2374.53706 4266.47385,2374.8612 C4267.0177,2374.91348 4267.61384,2374.99713 4268.16814,2375.09124 C4268.57603,2375.09124 4268.99437,2375.18534 4269.40225,2375.18534 C4269.58005,2375.22717 4269.7683,2375.22717 4269.90426,2375.22717 C4271.04425,2375.3631 4272.10056,2375.55131 4273.19871,2375.68724 C4273.65889,2375.78134 4274.06677,2375.82317 4274.56879,2375.91727 C4274.893,2375.9591 4275.25905,2375.9591 4275.53097,2376.0532 L4275.66693,2376.0532 C4278.50121,2376.461 4281.29364,2376.87924 4284.07562,2377.32886 C4284.30571,2377.37068 4284.5358,2377.42296 4284.80772,2377.46479 L4288.10217,2378.10262 C4289.79646,2378.42676 4291.53258,2378.74044 4293.21641,2379.10641 C4294.26227,2379.33645 4295.27675,2379.56648 4296.32261,2379.79652 C4296.82462,2379.89062 4297.32663,2380.02655 4297.82864,2380.12066 C4431.93886,2410.00442 4533,2530.24003 4533,2672.90415 Z" id="Shape" fill="#9B9B9B" fill-rule="nonzero"></path>
            <rect id="Rectangle-path" fill="#4A4A4A" fill-rule="nonzero" x="4180" y="3008" width="157" height="1165"></rect>
            <path d="M4336.14489,1612.22776 C4317.24027,1333.93931 4079.9868,1176 3883.5,1176 C3687.0132,1176 3449.74928,1333.94976 3430.85511,1612.22776 C3430.85511,1667.50925 3446.66992,1760.20935 3478.29954,1890.32805 C3590.56726,2182.64486 3771.73389,2257.90881 3883.5,2275 C4248.18364,2173.79985 4316.27298,1725.5 4336.14489,1612.22776 Z" id="Shape" fill="#FFDBA9" fill-rule="nonzero"></path>
            <path d="M4288.55473,1890.34164 C4176.20688,2182.66401 3994.86671,2257.89803 3883,2275 L3883,1176 C4076.98597,1176 4335.18416,1323.20475 4335.18416,1600.9358 C4335.18416,1683.9786 4319.64102,1780.44721 4288.55473,1890.34164 Z" id="Shape" fill="#FFC473" fill-rule="nonzero"></path>
            <polygon id="Shape" fill="#FFA91F" fill-rule="nonzero" points="3883 1647 3883 1961 3974.55068 1961 3974.55068 1738.66056 4174 1738.66056 4174 1647"></polygon>
            <rect id="Rectangle-path" fill="#FFC473" fill-rule="nonzero" x="3585" y="1647" width="233" height="91"></rect>
            <g id="Rectangle-7" transform="translate(3409.000000, 1044.000000)">
                <mask id="mask-4" fill="white">
                    <use xlink:href="#path-3"></use>
                </mask>
                <use id="Mask" fill="#57555C" fill-rule="nonzero" xlink:href="#path-3"></use>
                <rect stroke="#979797" fill="#454449" mask="url(#mask-4)" x="468.5" y="-32.5" width="513" height="599"></rect>
            </g>
        </g>
        <g id="Rectangle-8" transform="translate(504.000000, 269.000000)">
            <mask id="mask-6" fill="white">
                <use xlink:href="#path-5"></use>
            </mask>
            <use id="Mask" fill="#EFF4F5" xlink:href="#path-5"></use>
            <rect fill-opacity="0.1" fill="#000000" mask="url(#mask-6)" x="436" y="-120" width="587" height="671"></rect>
        </g>
        <path d="M599,544.002808 C934.382162,568.783356 1156.7155,568.783356 1266,544.002808 C1262.48565,543.35805 1263.24361,653.976324 1266,658.218712 C1061.57899,695.260429 839.245657,695.260429 599,658.218712 L599,544.002808 Z" id="Rectangle-5" fill="#000000"></path>
        <polygon id="Triangle" fill="#F7F7F7" points="940 815 358 587.125924 607.002708 300"></polygon>
        <polygon id="Triangle" fill="#F7F7F7" points="939 815 1271.99729 300 1521 587.125924"></polygon>
        <g id="Rectangle-2" transform="translate(2874.000000, 1591.000000)">
            <mask id="mask-8" fill="white">
                <use xlink:href="#path-7"></use>
            </mask>
            <use id="Mask" fill="#57555C" xlink:href="#path-7"></use>
            <rect fill-opacity="0.2" fill="#000000" mask="url(#mask-8)" x="441" y="-60" width="430" height="259"></rect>
        </g>
    </g>
</svg>