<?xml version="1.0" encoding="UTF-8"?>
<svg width="2140px" height="1956px" viewBox="0 0 2140 1956" version="1.1" xmlns="http://www.w3.org/2000/svg" xmlns:xlink="http://www.w3.org/1999/xlink">
    <!-- Generator: Sketch 51.3 (57544) - http://www.bohemiancoding.com/sketch -->
    <title>timetable</title>
    <desc>Created with Sketch.</desc>
    <defs></defs>
    <g id="Page-1" stroke="none" stroke-width="1" fill="none" fill-rule="evenodd">
        <g id="Artboard-4" transform="translate(-15138.000000, -10852.000000)" fill-rule="nonzero">
            <g id="timetable" transform="translate(15138.000000, 10852.000000)">
                <path d="M1175.60761,1472.04323 C1175.60761,1207.24951 1391.02244,991.822617 1655.81901,991.822617 C1772.08109,991.822617 1878.82422,1033.3686 1962,1102.39368 L1962,385 L0,385 L0,1573.14789 C51.1687619,1651.88708 112.033403,1723.74323 180.930758,1787 L1293.60363,1787 C1220.14142,1702.63405 1175.60761,1592.43457 1175.60761,1472.04323 Z" id="Shape" fill="#EEF6FF"></path>
                <path d="M0,385 L0,1573.34652 C40.5157727,1635.49894 87.192359,1693.28017 139,1746 L139,385 L0,385 Z" id="Shape" fill="#D9EAFC"></path>
                <path d="M1916.70538,108 L45.2946163,108 C20.3825774,108 0,128.395161 0,153.322581 L0,389 L1962,389 L1962,153.322581 C1962,128.395161 1941.61742,108 1916.70538,108 Z" id="Shape" fill="#EA2A3D"></path>
                <path d="M184,108 L45.340264,108 C20.4031188,108 0,128.395161 0,153.322581 L0,389 L138.659736,389 L138.659736,153.322581 C138.659736,128.395161 159.062855,108 184,108 Z" id="Shape" fill="#B7092B"></path>
                <path d="M503,717.325659 C503,729.796547 492.817341,740 480.371869,740 L158.628131,740 C146.182659,740 136,729.796547 136,717.325659 L136,525.674341 C136,513.203453 146.182659,503 158.628131,503 L480.371869,503 C492.817341,503 503,513.203453 503,525.674341 L503,717.325659 Z" id="Shape" fill="#91E0E8"></path>
                <path d="M943,717.325659 C943,729.796547 932.817341,740 920.371869,740 L598.628131,740 C586.182659,740 576,729.796547 576,717.325659 L576,525.674341 C576,513.203453 586.182659,503 598.628131,503 L920.371869,503 C932.817341,503 943,513.203453 943,525.674341 L943,717.325659 Z" id="Shape" fill="#91E0E8"></path>
                <path d="M1384,717.325659 C1384,729.796547 1373.81734,740 1361.37187,740 L1039.62813,740 C1027.18266,740 1017,729.796547 1017,717.325659 L1017,525.674341 C1017,513.203453 1027.18266,503 1039.62813,503 L1361.37187,503 C1373.81734,503 1384,513.203453 1384,525.674341 L1384,717.325659 Z" id="Shape" fill="#91E0E8"></path>
                <path d="M1825,717.325659 C1825,729.796547 1814.81734,740 1802.37187,740 L1480.62813,740 C1468.18266,740 1458,729.796547 1458,717.325659 L1458,525.674341 C1458,513.203453 1468.18266,503 1480.62813,503 L1802.37187,503 C1814.81734,503 1825,513.203453 1825,525.674341 L1825,717.325659 Z" id="Shape" fill="#FFC987"></path>
                <path d="M503,1019.32566 C503,1031.79655 492.817341,1042 480.371869,1042 L158.628131,1042 C146.182659,1042 136,1031.79655 136,1019.32566 L136,827.67434 C136,815.203453 146.182659,805 158.628131,805 L480.371869,805 C492.817341,805 503,815.203453 503,827.67434 L503,1019.32566 Z" id="Shape" fill="#91E0E8"></path>
                <path d="M943,1019.32566 C943,1031.79655 932.817341,1042 920.371869,1042 L598.628131,1042 C586.182659,1042 576,1031.79655 576,1019.32566 L576,827.67434 C576,815.203453 586.182659,805 598.628131,805 L920.371869,805 C932.817341,805 943,815.203453 943,827.67434 L943,1019.32566 Z" id="Shape" fill="#91E0E8"></path>
                <path d="M1384,1019.32566 C1384,1031.79655 1373.81734,1042 1361.37187,1042 L1039.62813,1042 C1027.18266,1042 1017,1031.79655 1017,1019.32566 L1017,827.67434 C1017,815.203453 1027.18266,805 1039.62813,805 L1361.37187,805 C1373.81734,805 1384,815.203453 1384,827.67434 L1384,1019.32566 Z" id="Shape" fill="#91E0E8"></path>
                <path d="M1655.12991,991.58478 C1714.77625,991.58478 1771.89461,1002.55412 1824.61108,1022.49677 C1824.82322,1021.26029 1825,1020.02381 1825,1018.71668 L1825,827.609914 C1825,815.174461 1814.81734,805 1802.37187,805 L1480.62813,805 C1468.18266,805 1458,815.174461 1458,827.609914 L1458,1018.71668 C1458,1023.69792 1459.67943,1028.25523 1462.41956,1032 C1521.44716,1006.03393 1586.62678,991.58478 1655.12991,991.58478 Z" id="Shape" fill="#FFC987"></path>
                <path d="M503,1321.32566 C503,1333.79655 492.817341,1344 480.371869,1344 L158.628131,1344 C146.182659,1344 136,1333.79655 136,1321.32566 L136,1129.67434 C136,1117.20345 146.182659,1107 158.628131,1107 L480.371869,1107 C492.817341,1107 503,1117.20345 503,1129.67434 L503,1321.32566 Z" id="Shape" fill="#91E0E8"></path>
                <path d="M943,1321.32566 C943,1333.79655 932.817341,1344 920.371869,1344 L598.628131,1344 C586.182659,1344 576,1333.79655 576,1321.32566 L576,1129.67434 C576,1117.20345 586.182659,1107 598.628131,1107 L920.371869,1107 C932.817341,1107 943,1117.20345 943,1129.67434 L943,1321.32566 Z" id="Shape" fill="#91E0E8"></path>
                <path d="M1343,1107 L1039.61313,1107 C1027.17591,1107 1017,1117.20345 1017,1129.67434 L1017,1321.32566 C1017,1333.79655 1027.17591,1344 1039.61313,1344 L1192.05739,1344 C1217.95649,1250.50378 1271.37999,1168.38015 1343,1107 Z" id="Shape" fill="#91E0E8"></path>
                <path d="M503,1623.32566 C503,1635.79655 492.817341,1646 480.371869,1646 L158.628131,1646 C146.182659,1646 136,1635.79655 136,1623.32566 L136,1431.67434 C136,1419.20345 146.182659,1409 158.628131,1409 L480.371869,1409 C492.817341,1409 503,1419.20345 503,1431.67434 L503,1623.32566 Z" id="Shape" fill="#91E0E8"></path>
                <path d="M943,1623.32566 C943,1635.79655 932.817341,1646 920.371869,1646 L598.628131,1646 C586.182659,1646 576,1635.79655 576,1623.32566 L576,1431.67434 C576,1419.20345 586.182659,1409 598.628131,1409 L920.371869,1409 C932.817341,1409 943,1419.20345 943,1431.67434 L943,1623.32566 Z" id="Shape" fill="#91E0E8"></path>
                <path d="M1174.56227,1472.13387 C1174.56227,1450.73496 1175.97491,1429.67262 1178.69424,1409 L1039.60223,1409 C1027.171,1409 1017,1419.20345 1017,1431.67434 L1017,1623.32566 C1017,1635.79655 1027.171,1646 1039.60223,1646 L1207,1646 C1186.07528,1592.05987 1174.56227,1533.42544 1174.56227,1472.13387 Z" id="Shape" fill="#91E0E8"></path>
                <g id="Group" transform="translate(131.000000, 0.000000)" fill="#C3DDF4">
                    <path d="M34.2340426,0.932249034 C15.4624035,0.932249034 0.26462766,16.1475608 0.26462766,34.9408697 L0.26462766,222.076847 C0.26462766,240.852439 15.4624035,256.085467 34.2340426,256.085467 C53.0056816,256.085467 68.2034574,240.852439 68.2034574,222.076847 L68.2034574,34.9408697 C68.2034574,16.1475608 53.0056816,0.932249034 34.2340426,0.932249034 Z" id="Shape"></path>
                    <path d="M197.287234,0.932249034 C178.515595,0.932249034 163.317819,16.1475608 163.317819,34.9408697 L163.317819,222.076847 C163.317819,240.852439 178.515595,256.085467 197.287234,256.085467 C216.058873,256.085467 231.256649,240.852439 231.256649,222.076847 L231.256649,34.9408697 C231.256649,16.1475608 216.058873,0.932249034 197.287234,0.932249034 Z" id="Shape"></path>
                    <path d="M360.340426,0.932249034 C341.568786,0.932249034 326.371011,16.1475608 326.371011,34.9408697 L326.371011,222.076847 C326.371011,240.852439 341.568786,256.085467 360.340426,256.085467 C379.112065,256.085467 394.30984,240.852439 394.30984,222.076847 L394.30984,34.9408697 C394.30984,16.1475608 379.112065,0.932249034 360.340426,0.932249034 Z" id="Shape"></path>
                    <path d="M523.393617,0.932249034 C504.621978,0.932249034 489.424202,16.1475608 489.424202,34.9408697 L489.424202,222.076847 C489.424202,240.852439 504.621978,256.085467 523.393617,256.085467 C542.165256,256.085467 557.363032,240.852439 557.363032,222.076847 L557.363032,34.9408697 C557.363032,16.1475608 542.165256,0.932249034 523.393617,0.932249034 Z" id="Shape"></path>
                    <path d="M686.446809,0.932249034 C667.675169,0.932249034 652.477394,16.1475608 652.477394,34.9408697 L652.477394,222.076847 C652.477394,240.852439 667.675169,256.085467 686.446809,256.085467 C705.218448,256.085467 720.416223,240.852439 720.416223,222.076847 L720.416223,34.9408697 C720.416223,16.1475608 705.218448,0.932249034 686.446809,0.932249034 Z" id="Shape"></path>
                    <path d="M849.5,0.932249034 C830.728361,0.932249034 815.530585,16.1475608 815.530585,34.9408697 L815.530585,222.076847 C815.530585,240.852439 830.728361,256.085467 849.5,256.085467 C868.271639,256.085467 883.469415,240.852439 883.469415,222.076847 L883.469415,34.9408697 C883.469415,16.1475608 868.271639,0.932249034 849.5,0.932249034 Z" id="Shape"></path>
                    <path d="M1012.55319,0.932249034 C993.781552,0.932249034 978.583777,16.1475608 978.583777,34.9408697 L978.583777,222.076847 C978.583777,240.852439 993.781552,256.085467 1012.55319,256.085467 C1031.32483,256.085467 1046.52261,240.852439 1046.52261,222.076847 L1046.52261,34.9408697 C1046.52261,16.1475608 1031.32483,0.932249034 1012.55319,0.932249034 Z" id="Shape"></path>
                    <path d="M1175.60638,0.932249034 C1156.83474,0.932249034 1141.63697,16.1475608 1141.63697,34.9408697 L1141.63697,222.076847 C1141.63697,240.852439 1156.83474,256.085467 1175.60638,256.085467 C1194.37802,256.085467 1209.5758,240.852439 1209.5758,222.076847 L1209.5758,34.9408697 C1209.5758,16.1475608 1194.37802,0.932249034 1175.60638,0.932249034 Z" id="Shape"></path>
                    <path d="M1338.65957,0.932249034 C1319.88794,0.932249034 1304.69016,16.1475608 1304.69016,34.9408697 L1304.69016,222.076847 C1304.69016,240.852439 1319.88794,256.085467 1338.65957,256.085467 C1357.43121,256.085467 1372.62899,240.852439 1372.62899,222.076847 L1372.62899,34.9408697 C1372.62899,16.1475608 1357.43121,0.932249034 1338.65957,0.932249034 Z" id="Shape"></path>
                    <path d="M1501.71277,0.932249034 C1482.94113,0.932249034 1467.74335,16.1475608 1467.74335,34.9408697 L1467.74335,222.076847 C1467.74335,240.852439 1482.94113,256.085467 1501.71277,256.085467 C1520.48441,256.085467 1535.68218,240.852439 1535.68218,222.076847 L1535.68218,34.9408697 C1535.68218,16.1475608 1520.48441,0.932249034 1501.71277,0.932249034 Z" id="Shape"></path>
                    <path d="M1664.76596,0.932249034 C1645.99432,0.932249034 1630.79654,16.1475608 1630.79654,34.9408697 L1630.79654,222.076847 C1630.79654,240.852439 1645.99432,256.085467 1664.76596,256.085467 C1683.5376,256.085467 1698.73537,240.852439 1698.73537,222.076847 L1698.73537,34.9408697 C1698.73537,16.1475608 1683.5376,0.932249034 1664.76596,0.932249034 Z" id="Shape"></path>
                </g>
                <path d="M2140,1471.49116 C2140,1739.07897 1923.07897,1956 1655.49116,1956 C1387.92103,1956 1171,1739.07897 1171,1471.49116 C1171,1203.92103 1387.92103,987 1655.49116,987 C1923.07897,987 2140,1203.92103 2140,1471.49116 Z" id="Shape" fill="#1A2B63"></path>
                <path d="M1654.99115,1830 C1457.58986,1830 1297,1669.41014 1297,1471.99115 C1297,1274.58986 1457.58986,1114 1654.99115,1114 C1852.41014,1114 2013,1274.58986 2013,1471.99115 C2013,1669.41014 1852.41014,1830 1654.99115,1830 Z" id="Shape" fill="#FFFFFF"></path>
                <path d="M1364.97923,1471.99115 C1364.97923,1286.05803 1507.46837,1132.83046 1689,1115.66359 C1677.79697,1114.60172 1666.47004,1114 1655.01923,1114 C1457.61221,1114 1297,1274.58986 1297,1472.00885 C1297,1669.41014 1457.59452,1830 1655.01923,1830 C1666.47004,1830 1677.79697,1829.39828 1689,1828.35411 C1507.46837,1811.16954 1364.97923,1657.94197 1364.97923,1471.99115 Z" id="Shape" fill="#EEF6FF"></path>
                <path d="M1655,1114 L1655,1397.89747 C1695.88293,1397.89747 1729.12023,1431.13476 1729.12023,1472 L2013,1472 C2013.0177,1274.59383 1852.42387,1114 1655,1114 Z" id="Shape" fill="#FFDD8D"></path>
                <path d="M1655,1397.6977 C1667.27187,1397.6977 1678.81771,1400.71833 1689,1406 L1689,1218.91575 C1689,1200.17376 1673.78854,1185 1655,1185 C1636.22917,1185 1621,1200.17376 1621,1218.91575 L1621,1406 C1631.2,1400.71833 1642.74583,1397.6977 1655,1397.6977 Z" id="Shape" fill="#0F9390"></path>
                <path d="M1851.13101,1438 L1721,1438 C1726.27439,1448.2 1729.29085,1459.74583 1729.29085,1472 C1729.29085,1484.27187 1726.27439,1495.81771 1721,1506 L1851.13101,1506 C1869.82952,1506 1885,1490.78854 1885,1472 C1885,1453.22917 1869.82952,1438 1851.13101,1438 Z" id="Shape" fill="#0F9390"></path>
                <path d="M1655.49117,1550 C1612.20884,1550 1577,1514.79116 1577,1471.50883 C1577,1428.20884 1612.20884,1393 1655.49117,1393 C1698.79116,1393 1734,1428.20884 1734,1471.50883 C1734,1514.79116 1698.79116,1550 1655.49117,1550 Z" id="Shape" fill="#2BB381"></path>
                <path d="M1655,1795 C1636.22917,1795 1621,1779.82744 1621,1761.08696 L1621,1724.91304 C1621,1706.17256 1636.22917,1691 1655,1691 C1673.78854,1691 1689,1706.17256 1689,1724.91304 L1689,1761.08696 C1689,1779.82744 1673.78854,1795 1655,1795 Z" id="Shape" fill="#60D882"></path>
                <path d="M1450.12264,1711 C1441.39478,1711 1432.66692,1707.67563 1425.98326,1701.00913 C1412.66928,1687.67611 1412.66928,1666.05884 1426.00104,1652.72582 L1451.74022,1626.98421 C1465.07198,1613.66897 1486.66943,1613.66897 1500.00118,1627.00199 C1513.33294,1640.335 1513.33294,1661.93449 1500.00118,1675.26751 L1474.262,1701.00913 C1467.59613,1707.67563 1458.86827,1711 1450.12264,1711 Z" id="Shape" fill="#60D882"></path>
                <path d="M1401.08696,1506 L1364.91304,1506 C1346.19022,1505.98229 1331,1490.77083 1331,1471.98229 C1331.01766,1453.21146 1346.19022,1438 1364.91304,1438 L1364.93071,1438 L1401.08696,1438 C1419.82744,1438 1435,1453.22917 1435,1472 C1435,1490.78854 1419.80978,1506 1401.08696,1506 Z" id="Shape" fill="#60D882"></path>
                <path d="M1475.87172,1327 C1467.12464,1327 1458.39534,1323.65841 1451.72836,1316.993 L1425.98492,1291.25565 C1412.66873,1277.92484 1412.66873,1256.31115 1426.00269,1242.99811 C1439.33666,1229.6673 1460.93768,1229.6673 1474.27164,1242.99811 L1500.01508,1268.73546 C1513.33127,1282.08405 1513.33127,1303.67997 1499.99731,1317.01078 C1493.3481,1323.67618 1484.60102,1327 1475.87172,1327 Z" id="Shape" fill="#60D882"></path>
                <path d="M1860.87414,1711 C1852.12768,1711 1843.399,1707.67618 1836.73249,1700.993 L1810.99088,1675.25565 C1797.65786,1661.92484 1797.67564,1640.31115 1811.00866,1626.99811 C1824.3239,1613.6673 1845.94116,1613.6673 1859.27418,1626.99811 L1885.01579,1652.75324 C1898.33103,1666.08405 1898.33103,1687.69774 1884.99801,1701.01078 C1878.33151,1707.67618 1869.60282,1711 1860.87414,1711 Z" id="Shape" fill="#60D882"></path>
                <path d="M298.64727,693 C288.337773,693 278.576468,688.307287 272.139664,680.249985 L197.444454,586.749871 C185.72028,572.087353 188.107552,550.677953 202.749511,538.95502 C217.39147,527.214384 238.753169,529.605009 250.459665,544.267526 L298.64727,604.582185 L421.530086,450.767413 C433.236582,436.104895 454.615963,433.714271 469.257922,445.454906 C483.899881,457.17784 486.269471,478.587239 474.562979,493.249757 L325.172558,680.249985 C318.718072,688.307287 308.956766,693 298.64727,693 Z" id="Shape" fill="#02AF8E"></path>
                <path d="M298.64727,1293 C288.337773,1293 278.576468,1288.30741 272.139664,1280.23262 L197.444454,1186.73506 C185.72028,1172.07294 188.107552,1150.68183 202.749511,1138.95921 C217.39147,1127.2189 238.753169,1129.59175 250.459665,1144.25387 L298.64727,1204.56689 L421.530086,1050.7563 C433.236582,1036.09418 454.615963,1033.72133 469.257922,1045.46165 C483.899881,1057.18426 486.269471,1078.57537 474.562979,1093.23749 L325.172558,1280.23262 C318.718072,1288.30741 308.956766,1293 298.64727,1293 Z" id="Shape" fill="#02AF8E"></path>
                <path d="M742.650755,995 C732.341455,995 722.580334,990.307415 716.143654,982.232625 L641.449863,888.735057 C629.725912,874.072939 632.095457,852.681829 646.754819,840.959215 C661.3965,829.218899 682.757793,831.591751 694.464066,846.25387 L742.650755,906.566886 L865.531235,752.756302 C877.255191,738.094184 898.616483,735.721331 913.258164,747.461647 C927.899845,759.184261 930.26939,780.575371 918.563121,795.23749 L769.175539,982.232625 C762.721176,990.307415 752.960056,995 742.650755,995 Z" id="Shape" fill="#02AF8E"></path>
            </g>
        </g>
    </g>
</svg>