<?xml version="1.0" encoding="UTF-8"?>
<svg width="512px" height="490px" viewBox="0 0 512 490" version="1.1" xmlns="http://www.w3.org/2000/svg" xmlns:xlink="http://www.w3.org/1999/xlink">
    <!-- Generator: Sketch 51.3 (57544) - http://www.bohemiancoding.com/sketch -->
    <title>line-chart (1)</title>
    <desc>Created with Sketch.</desc>
    <defs></defs>
    <g id="Page-1" stroke="none" stroke-width="1" fill="none" fill-rule="evenodd">
        <g id="line-chart-(1)" fill-rule="nonzero">
            <path d="M487.585,38.294 L383.998,38.292 C370.516,38.292 359.583,49.225 359.583,62.707 C359.583,76.191 370.514,87.122 383.998,87.122 L428.645,87.124 L314.944,200.822 L263.153,149.031 C258.574,144.452 252.365,141.879 245.89,141.879 C239.415,141.879 233.204,144.452 228.627,149.031 L55.982,321.674 C46.447,331.209 46.447,346.667 55.982,356.202 C60.749,360.971 66.996,363.354 73.245,363.354 C79.494,363.354 85.742,360.971 90.508,356.202 L245.886,200.826 L297.677,252.617 C302.256,257.196 308.465,259.769 314.942,259.769 C321.419,259.769 327.628,257.196 332.205,252.617 L463.168,121.654 L463.168,166.296 C463.168,179.78 474.099,190.711 487.583,190.711 C501.067,190.711 511.998,179.78 511.998,166.296 L511.998,62.709 C512,49.226 501.069,38.294 487.585,38.294 Z" id="Shape" fill="#D8143A" transform="translate(280.414375, 200.823000) scale(1, -1) translate(-280.414375, -200.823000) "></path>
            <path d="M487.585,141.294 L383.998,141.292 C370.516,141.292 359.583,152.225 359.583,165.707 C359.583,179.191 370.514,190.122 383.998,190.122 L428.645,190.124 L314.944,303.822 L284.843,273.725 L284.843,342.782 L297.679,355.618 C302.258,360.197 308.467,362.77 314.944,362.77 C321.421,362.77 327.63,360.197 332.207,355.618 L463.17,224.656 L463.17,269.298 C463.17,282.782 474.101,293.713 487.585,293.713 C501.069,293.713 512,282.782 512,269.298 L512,165.709 C512,152.226 501.069,141.294 487.585,141.294 Z" id="Shape" fill="#8D1858" transform="translate(398.421500, 252.031000) scale(1, -1) translate(-398.421500, -252.031000) "></path>
            <path d="M463.888,391.491 L97.661,391.491 L97.661,25.264 C97.661,11.78 86.73,0.849 73.246,0.849 L24.416,0.849 C10.931,0.849 0,11.78 0,25.264 C0,38.748 10.931,49.679 24.415,49.679 L48.83,49.679 L48.83,196.17 L24.415,196.17 C10.931,196.17 0,207.101 0,220.585 C0,234.069 10.931,245 24.415,245 L48.83,245 L48.83,391.491 L24.415,391.491 C10.931,391.491 0,402.422 0,415.906 C0,429.39 10.931,440.321 24.415,440.321 L48.83,440.321 L48.83,464.736 C48.83,478.22 59.761,489.151 73.245,489.151 C86.729,489.151 97.66,478.22 97.66,464.736 L97.66,440.321 L244.151,440.321 L244.151,464.736 C244.151,478.22 255.082,489.151 268.566,489.151 C282.05,489.151 292.981,478.22 292.981,464.736 L292.981,440.321 L439.472,440.321 L439.472,464.736 C439.472,478.22 450.403,489.151 463.887,489.151 C477.371,489.151 488.302,478.22 488.302,464.736 L488.302,415.906 C488.303,402.422 477.371,391.491 463.888,391.491 Z" id="Shape" fill="#1D3366"></path>
        </g>
    </g>
</svg>