<?xml version="1.0" encoding="iso-8859-1"?>
<!-- Generator: Adobe Illustrator 19.0.0, SVG Export Plug-In . SVG Version: 6.00 Build 0)  -->
<svg version="1.1" id="Layer_1" xmlns="http://www.w3.org/2000/svg" xmlns:xlink="http://www.w3.org/1999/xlink" x="0px" y="0px"
	 viewBox="0 0 512 512" style="enable-background:new 0 0 512 512;" xml:space="preserve">
<path style="fill:#D8143A;" d="M487.585,69.294l-103.587-0.002c-13.482,0-24.415,10.933-24.415,24.415
	c0,13.484,10.931,24.415,24.415,24.415l44.647,0.002L314.944,231.822l-51.791-51.791c-4.579-4.579-10.788-7.152-17.263-7.152
	c-6.475,0-12.686,2.573-17.263,7.152L55.982,352.674c-9.535,9.535-9.535,24.993,0,34.528c4.767,4.769,11.014,7.152,17.263,7.152
	s12.497-2.383,17.263-7.152l155.378-155.376l51.791,51.791c4.579,4.579,10.788,7.152,17.265,7.152s12.686-2.573,17.263-7.152
	l130.963-130.963v44.642c0,13.484,10.931,24.415,24.415,24.415c13.484,0,24.415-10.931,24.415-24.415V93.709
	C512,80.226,501.069,69.294,487.585,69.294z"/>
<path style="fill:#8D1858;" d="M487.585,69.294l-103.587-0.002c-13.482,0-24.415,10.933-24.415,24.415
	c0,13.484,10.931,24.415,24.415,24.415l44.647,0.002L314.944,231.822l-30.101-30.097v69.057l12.836,12.836
	c4.579,4.579,10.788,7.152,17.265,7.152s12.686-2.573,17.263-7.152L463.17,152.656v44.642c0,13.484,10.931,24.415,24.415,24.415
	c13.484,0,24.415-10.931,24.415-24.415V93.709C512,80.226,501.069,69.294,487.585,69.294z"/>
<path style="fill:#1D3366;" d="M463.888,402.491H97.661V36.264c0-13.484-10.931-24.415-24.415-24.415h-48.83
	C10.931,11.849,0,22.78,0,36.264s10.931,24.415,24.415,24.415H48.83V207.17H24.415C10.931,207.17,0,218.101,0,231.585
	S10.931,256,24.415,256H48.83v146.491H24.415C10.931,402.491,0,413.422,0,426.906s10.931,24.415,24.415,24.415H48.83v24.415
	c0,13.484,10.931,24.415,24.415,24.415s24.415-10.931,24.415-24.415v-24.415h146.491v24.415c0,13.484,10.931,24.415,24.415,24.415
	c13.484,0,24.415-10.931,24.415-24.415v-24.415h146.491v24.415c0,13.484,10.931,24.415,24.415,24.415
	c13.484,0,24.415-10.931,24.415-24.415v-48.83C488.303,413.422,477.371,402.491,463.888,402.491z"/>
<g>
</g>
<g>
</g>
<g>
</g>
<g>
</g>
<g>
</g>
<g>
</g>
<g>
</g>
<g>
</g>
<g>
</g>
<g>
</g>
<g>
</g>
<g>
</g>
<g>
</g>
<g>
</g>
<g>
</g>
</svg>
