<?xml version="1.0" encoding="UTF-8"?>
<svg width="1417px" height="2202px" viewBox="0 0 1417 2202" version="1.1" xmlns="http://www.w3.org/2000/svg" xmlns:xlink="http://www.w3.org/1999/xlink">
    <!-- Generator: Sketch 51.3 (57544) - http://www.bohemiancoding.com/sketch -->
    <title>doctor</title>
    <desc>Created with Sketch.</desc>
    <defs></defs>
    <g id="Page-1" stroke="none" stroke-width="1" fill="none" fill-rule="evenodd">
        <g id="Artboard-4" transform="translate(-11678.000000, -14757.000000)" fill-rule="nonzero">
            <g id="doctor" transform="translate(11678.000000, 14757.000000)">
                <polygon id="Shape" fill="#F0BA7D" points="540.800135 1047.4472 428 1086.26598 494.75472 2140 923.953741 2137.56414 944 1066.36264 871.960269 1043.68446 835.245899 871 574.4703 878.171981"></polygon>
                <path d="M402.901077,1110 C590.940895,1201.12773 784.374603,1220.25719 988,1115.159 L981.060153,2171.85499 C893.265267,2191.53668 801.98592,2202 708.254363,2202 C600.395953,2202 495.765153,2188.2233 396,2162.36535 L402.901077,1110 Z" id="Shape" fill="#21D0C3"></path>
                <path d="M908.703191,1056 L1235.94819,1145.31405 C1320.80473,1171.53074 1396.62707,1221.74506 1399.05265,1311.98453 L1417,1978.90382 C1342.42191,2031.07556 1261.8404,2075.20447 1176.50456,2110.13259 L1155.61843,1741.3015 L1098.30989,2139.10128 C975.539757,2179.90163 844.24863,2202 707.791648,2202 C704.228323,2202 700.694046,2201.89341 697.135561,2201.86434 L697,1863.74131 L908.703191,1056 Z" id="Shape" fill="#EEF3F7"></path>
                <g id="Group" transform="translate(0.000000, 1052.000000)">
                    <polygon id="Shape" fill="#FFFFFF" points="905.613684 1.81062605 948.742316 19.2170504 1095.86 240.186109 923.418105 237.410189 1030.30274 294.63387 697.006105 811.783437"></polygon>
                    <path d="M197.029684,84.2646597 C111.702105,108.986336 35.0128421,157.8435 30.9890526,248.014882 L0.667789474,928.444752 C74.6018947,979.917966 154.404632,1023.51396 238.865474,1058.09427 L266.852842,681.51866 L318.058105,1087.38919 C437.401474,1126.93516 564.792421,1148.75011 697.132,1149.8692 L696.996421,811.783437 L525.842526,0.749672269 L197.029684,84.2646597 Z" id="Shape" fill="#EEF3F7"></path>
                </g>
                <polygon id="Shape" fill="#FFFFFF" points="529.723235 1051 478.217363 1070.7004 335 1285.89874 507.748367 1286.17477 399.692733 1341.47925 698 1864"></polygon>
                <path d="M352.223599,471.806656 C346.727393,527.27921 357.836025,650.446101 425.131865,645.758825 C425.131865,645.758825 521.991,928.036458 708.469775,960 C869.462616,930.58347 967.39678,674.923559 974.829976,650.601052 C997.003657,658.174296 1059.06963,554.938012 1011.49233,470.479886 C997.846247,446.259065 959.217844,465.870085 959.217844,465.870085 L956.244566,395.343047 C701.84043,420.04809 543.20103,174 543.20103,174 C446.220833,279.487919 422.8898,339.696172 412.517224,470.896317 C412.517224,470.896317 394.304685,459.589717 374.087362,459.158759 C367.995532,459.023176 360.179781,464.330257 352.223599,471.806656 Z" id="Shape" fill="#FED298"></path>
                <path d="M540.861911,1047.45036 L573.820611,881.943369 C478.344512,787.947023 428.560165,646.17037 428.560165,646.17037 C363.504874,653.425073 337.380079,474.144804 381.149039,467.882901 C401.166424,465.015889 414.567853,471.287477 414.567853,471.287477 C424.423982,332.741057 451.1106,290.612445 542.930003,174.348326 C542.930003,174.348326 703.330624,444.196151 957.579994,419.4827 L961.217317,477.665611 C973.238404,465.848872 995.212485,454.744043 1013.52018,484.852513 C1043.30652,533.838707 1004.34212,645.167885 968.269171,651.96251 C963.159483,669.125839 923.013316,795.773191 837.979386,882.558421 L872.265152,1043.69709 C967.673445,1074.59011 1059.66236,1098.45121 1152,1123 C1105.09258,837.083348 1078.21223,527.688191 1022.20423,263.584076 C968.453217,10.1489273 674.624347,-60.7321344 505.655917,51.8223037 C505.655917,51.8223037 359.959573,110.523407 333.360134,305.204181 C306.770382,499.875268 316.946169,518.636763 316.946169,518.636763 L270,1118.08927 C357.048746,1095.991 457.842796,1075.99456 540.861911,1047.45036 Z" id="Shape" fill="#666666"></path>
                <path d="M1155.85868,1751.68792 C1107.43673,1743.32621 1074.95345,1697.29074 1083.31059,1648.86552 C1091.67257,1600.45 1137.71439,1567.95323 1186.13633,1576.3101 C1234.56798,1584.67181 1267.04641,1630.72182 1258.68927,1679.15189 C1250.32729,1727.57226 1204.28548,1760.04963 1155.85868,1751.68792 Z" id="Shape" fill="#FEFEFE"></path>
                <path d="M1157.70817,1746.76069 C1112.00365,1738.86619 1081.34451,1695.42949 1089.23884,1649.71917 C1097.13317,1604.00885 1140.57869,1573.34422 1186.29292,1581.23871 C1232.00229,1589.13806 1262.65172,1632.5942 1254.76225,1678.29966 C1246.8582,1724.00998 1203.4224,1754.65518 1157.70817,1746.76069 Z" id="Shape" fill="#0F7986"></path>
                <path d="M1163.58901,1709.3159 C1138.29885,1704.95112 1121.3156,1680.87678 1125.68536,1655.58731 C1130.05026,1630.27839 1154.11553,1613.31991 1179.40569,1617.68469 C1204.7153,1622.05433 1221.68397,1646.0995 1217.31421,1671.40842 C1212.95417,1696.70275 1188.89862,1713.68068 1163.58901,1709.3159 Z" id="Shape" fill="#EBECEC"></path>
                <polygon id="Shape" fill="#FEFEFE" points="1169 1622.48389 1189.16151 1626 1200 1562.51611 1179.84808 1559"></polygon>
                <path d="M487.40108,1768.83734 L525.580006,1761.26516 C541.797688,1758.04347 555.238105,1748.49468 563.802554,1735.69029 C572.357308,1722.88589 576.07487,1706.83075 572.846844,1690.61572 L527.95498,1464.5259 C511.010265,1379.21173 444.234709,1335.70199 367.930173,1326.06115 C338.688906,1322.35984 308.037196,1323.70665 278.345169,1329.59289 C248.628907,1335.4646 219.819013,1345.91934 194.222605,1360.49203 C127.558527,1398.44012 82.6278885,1464.06082 99.6016853,1549.51548 L144.493549,1775.61015 C147.716728,1791.82033 157.284482,1805.24483 170.08511,1813.81016 L170.114191,1813.80047 C182.929359,1822.37065 198.972554,1826.06711 215.18539,1822.85027 L253.340081,1815.27809 L250.218686,1799.55722 L212.054301,1807.1294 C200.160041,1809.48874 188.372413,1806.7709 178.988841,1800.50677 L178.993687,1800.50193 C169.600421,1794.20874 162.58213,1784.36442 160.216849,1772.49504 L115.324985,1546.40038 C99.9264267,1468.86186 141.095881,1409.09834 202.093949,1374.39616 C226.197516,1360.66644 253.38855,1350.81243 281.452023,1345.24594 C309.510649,1339.68913 338.412634,1338.43437 365.952643,1341.90798 C435.786585,1350.73007 496.862203,1390.26721 512.221987,1467.65554 L557.128391,1693.75021 C559.483978,1705.62927 556.750334,1717.39691 550.478462,1726.80037 C544.19205,1736.1796 534.333483,1743.19464 522.448917,1745.54429 L484.274839,1753.11647 L487.40108,1768.83734 Z" id="Shape" fill="#21D0C3"></path>
                <path d="M539,1498.0716 L532.147957,1463.58757 C514.705513,1375.75946 446.064024,1331.00132 367.684401,1321.09484 C337.913122,1317.34605 306.723011,1318.6811 276.501386,1324.67917 C246.270076,1330.65788 216.939458,1341.29961 190.877483,1356.11096 C122.376424,1395.08387 76.2425639,1462.54274 93.7140626,1550.51597 L100.57579,1585 L126.749141,1579.80007 L119.897099,1545.32087 C105.045356,1470.54822 144.922793,1412.82169 203.971422,1379.22769 C227.573441,1365.80944 254.182611,1356.17384 281.677947,1350.72721 C309.163597,1345.27575 337.467618,1344.05195 364.425444,1347.45246 C432.035495,1355.98519 491.137391,1394.14062 505.974606,1468.77299 L512.821807,1503.25702 L539,1498.0716 Z" id="Shape" fill="#4D4D4D"></path>
                <g id="Group" transform="translate(218.000000, 1743.000000)" fill="#076673">
                    <path d="M4.9046,81.563 L25.33765,77.5175 C30.4641,83.2546667 38.40355,86.203 46.49335,84.6031667 C58.6523,82.201 66.55295,70.4318333 64.13765,58.305 C61.73205,46.2023333 49.9223,38.324 37.76335,40.7358333 C29.659,42.3356667 23.45585,48.0921667 20.92415,55.3373333 L0.49595,59.3731667 L4.9046,81.563 Z" id="Shape"></path>
                    <path d="M285.642,26.0328333 L265.2235,30.0783333 C262.68695,37.3186667 256.4838,43.0751667 248.38915,44.675 C236.23505,47.0723333 224.43015,39.2036667 222.01485,27.0816667 C219.60925,14.979 227.50505,3.205 239.6543,0.802833333 C247.74895,-0.797 255.6981,2.161 260.80515,7.8885 L281.23335,3.843 L285.642,26.0328333 Z" id="Shape"></path>
                </g>
                <path d="M290,1322.43901 L282.158033,1283 L266.566817,1286.09784 L251,1289.1762 L258.929805,1329 C264.868619,1327.26599 270.880631,1325.79987 276.951201,1324.60165 C281.274775,1323.73952 285.627628,1323.02351 290,1322.43901 Z" id="Shape" fill="#666666"></path>
                <g id="Group" transform="translate(248.000000, 1749.000000)" fill="#0F7986">
                    <path d="M8.22102222,53.9555 C11.9028,53.2256667 14.2814222,49.6538333 13.5499111,46.0046667 C12.8232444,42.3361667 9.26257778,39.9485 5.5808,40.6783333 C1.89902222,41.4081667 -0.4796,44.9655 0.247066667,48.634 C0.978577778,52.2928333 4.54408889,54.6853333 8.22102222,53.9555 Z" id="Shape"></path>
                    <path d="M210.011511,13.9258333 C213.678756,13.2008333 216.062222,9.63866667 215.330711,5.98466667 C214.5992,2.31133333 211.043378,-0.0715 207.3616,0.6535 C203.679822,1.38333333 201.3012,4.94066667 202.032711,8.61883333 C202.754533,12.268 206.324889,14.6508333 210.011511,13.9258333 Z" id="Shape"></path>
                </g>
                <path d="M1161.5153,1709.35162 C1137.57253,1705.21797 1121.51828,1682.45374 1125.64735,1658.50777 C1129.78129,1634.57639 1152.53251,1618.51839 1176.48013,1622.64717 C1200.41804,1626.78082 1216.48201,1649.53532 1212.35294,1673.47157 C1208.21901,1697.4224 1185.4532,1713.48527 1161.5153,1709.35162 Z" id="Shape" fill="#FEFEFE"></path>
                <g id="Group" transform="translate(249.000000, 1048.000000)" fill="#4D4D4D">
                    <path d="M229.405688,22.9393426 C228.717809,22.9441852 -12.1368643,24.9441759 28.5497487,235.587269 L6.15491457,239.86812 C-39.7101709,2.39706481 228.378714,0.208212963 229.144101,0.198527778 L229.405688,22.9393426 Z" id="Shape"></path>
                    <path d="M710.010553,1.28326852 C749.30203,2.3389537 825.27395,13.0459259 883.729166,84.1448704 C940.944261,153.718398 981.054412,281.490204 951.058995,515.755463 L928.48008,512.898333 C957.511497,286.15362 919.997849,164.081546 866.154332,98.5951667 C813.54609,34.6196759 744.956764,24.9780741 709.472844,24.0240833 L710.010553,1.28326852 Z" id="Shape"></path>
                </g>
            </g>
        </g>
    </g>
</svg>