<?xml version="1.0" encoding="UTF-8"?>
<svg width="2747px" height="2753px" viewBox="0 0 2747 2753" version="1.1" xmlns="http://www.w3.org/2000/svg" xmlns:xlink="http://www.w3.org/1999/xlink">
    <!-- Generator: Sketch 51.3 (57544) - http://www.bohemiancoding.com/sketch -->
    <title>hookah</title>
    <desc>Created with Sketch.</desc>
    <defs></defs>
    <g id="Page-1" stroke="none" stroke-width="1" fill="none" fill-rule="evenodd">
        <g id="Artboard-4" transform="translate(-7378.000000, -5312.000000)" fill-rule="nonzero">
            <g id="hookah" transform="translate(7378.000000, 5312.000000)">
                <path d="M1324.07156,2753 C1239.49517,2753 1160.23263,2712.17821 1110.81526,2643.54053 C1028.3146,2528.96324 932.000916,2351.48507 1031.03946,2247 C1186.06976,2083.44109 1368.35623,1741 1368.35623,1741 L1663.64522,1741 C1663.64522,1741 1845.93169,2083.44109 2000.96199,2247 C2100.00053,2351.47752 2003.6793,2528.96324 1921.18618,2643.54053 C1871.76881,2712.18576 1792.50628,2753 1707.92988,2753 L1324.07156,2753 Z" id="Shape" fill="#31BAFD"></path>
                <path d="M2000.98602,2247.00755 C1846.04967,2083.4462 1663.87368,1741 1663.87368,1741 L1512,1741 L1512,2753 L1708.13151,2753 C1792.65664,2753 1871.87114,2712.1776 1921.25856,2643.5389 C2003.70923,2528.96745 2099.96454,2351.48663 2000.98602,2247.00755 Z" id="Shape" fill="#2B9ED8"></path>
                <rect id="Rectangle-path" fill="#FD8469" x="1409" y="315" width="215" height="1288"></rect>
                <g id="Group" transform="translate(1249.000000, 0.000000)" fill="#FC6F58">
                    <rect id="Rectangle-path" x="263.700889" y="315.394479" width="111.792" height="1288.41566"></rect>
                    <polygon id="Shape" points="356.996889 356.606085 179.003111 356.606085 0.986666667 0.87571831 535.013333 0.87571831"></polygon>
                </g>
                <polygon id="Shape" fill="#F1543F" points="1783 0 1512 0 1512 356 1605.21332 356"></polygon>
                <path d="M1731.24623,530 L1301.74623,530 C1183.13903,530 1087,433.747363 1087,315 L1946,315 C1946,433.747363 1849.85343,530 1731.24623,530 Z" id="Shape" fill="#324A5E"></path>
                <path d="M1512,315 L1512,530 L1731.16766,530 C1849.82242,530 1946,433.747363 1946,315 L1512,315 Z" id="Shape" fill="#2B3B4E"></path>
                <path d="M1682.69041,1762 L1349.30959,1762 C1312.13322,1762 1282,1731.86775 1282,1694.69258 L1282,1647.30742 C1282,1610.13225 1312.13322,1580 1349.30959,1580 L1682.69041,1580 C1719.86678,1580 1750,1610.13225 1750,1647.30742 L1750,1694.69258 C1750,1731.86775 1719.86678,1762 1682.69041,1762 Z" id="Shape" fill="#05BEA6"></path>
                <path d="M1683.49861,1580 L1512,1580 L1512,1762 L1683.49861,1762 C1720.78091,1762 1751,1731.8665 1751,1694.68979 L1751,1647.30267 C1751,1610.1335 1720.78091,1580 1683.49861,1580 Z" id="Shape" fill="#2C9984"></path>
                <path d="M1682.69041,1388 L1349.30959,1388 C1312.13322,1388 1282,1357.86775 1282,1320.69258 L1282,1273.30742 C1282,1236.13225 1312.13322,1206 1349.30959,1206 L1682.69041,1206 C1719.86678,1206 1750,1236.13225 1750,1273.30742 L1750,1320.69258 C1750,1357.86775 1719.86678,1388 1682.69041,1388 Z" id="Shape" fill="#F9B54C"></path>
                <path d="M1683.49861,1206 L1512,1206 L1512,1388 L1683.49861,1388 C1720.78091,1388 1751,1357.8665 1751,1320.68979 L1751,1273.30267 C1751,1236.1335 1720.78091,1206 1683.49861,1206 Z" id="Shape" fill="#F4A200"></path>
                <path d="M571.409295,2493 C504.889915,2493 441.518711,2481.94454 381.303233,2456.44298 C243.025062,2397.90342 136.900566,2268.55305 56.8447831,2061.0291 C0.826873594,1915.82803 0.373898584,1798.29582 0.0190681601,1703.87888 L0.0039689931,1702.15713 C-0.766088523,1508.1731 110.567619,1341.08766 290.534591,1266.11595 C472.834383,1190.15498 672.490668,1229.45321 811.606843,1368.62059 L1011.8671,1568.91771 C1034.74988,1591.79133 1034.74988,1628.87696 1011.8671,1651.75058 C989.014506,1674.63931 951.930952,1674.63931 929.055714,1651.75058 L728.795462,1451.45346 C603.381781,1326.02234 443.436305,1329.32991 335.567856,1374.25404 C200.264221,1430.62631 116.569538,1556.09519 117.143306,1701.68894 L117.158406,1703.41069 C117.513236,1796.99696 117.898265,1893.77753 166.132554,2018.83108 C234.146751,2195.1747 319.457045,2303.01829 426.963114,2348.53144 C616.344416,2428.71372 878.903831,2317.13212 1182.91046,2187.92522 C1606.12501,2008.07013 2132.8066,1784.18199 2707.68474,1984.60749 C2738.23035,1995.24006 2754.37136,2028.64808 2743.7189,2059.18652 C2733.08909,2089.75517 2699.71238,2105.90792 2669.15921,2095.23004 C2136.97397,1909.73394 1654.46499,2114.81119 1228.72133,2295.74615 C984.318665,2399.66293 764.663533,2492.99245 571.409295,2493 Z" id="Shape" fill="#324A5E"></path>
                <path d="M2707.68636,1983.9433 C2273.75014,1832.48378 1867.28656,1923.0207 1512,2053.96346 L1512,2179 C1864.88515,2043.91305 2251.72975,1949.06557 2669.13557,2094.7323 C2699.7119,2105.42552 2733.08232,2089.24201 2743.71493,2058.63702 C2754.37776,2028.04716 2738.22494,1994.59115 2707.68636,1983.9433 Z" id="Shape" fill="#2B3B4E"></path>
                <path d="M1263.35543,2007 C1238.36978,2007 1213.36903,1997.46782 1194.2899,1978.40345 L764.601695,1548.70745 C726.466102,1510.55606 726.466102,1448.73283 764.601695,1410.59655 C802.752394,1372.46782 864.574504,1372.46782 902.710097,1410.59655 L1332.39831,1840.29255 C1370.5339,1878.44394 1370.5339,1940.26717 1332.39831,1978.40345 C1313.34184,1997.46782 1288.34108,2007 1263.35543,2007 Z" id="Shape" fill="#2B9ED8"></path>
            </g>
        </g>
    </g>
</svg>