<svg height="512pt" viewBox="-31 0 512 512.00088" width="512pt" xmlns="http://www.w3.org/2000/svg"><path d="m142.566406 97.105469c11.5.019531 22.945313 1.664062 33.984375 4.890625v-31.375h-88.273437v31.375c11.039062-3.226563 22.480468-4.871094 33.984375-4.890625zm0 0" fill="#ebbf00"/><path d="m344.277344 459.035156c0 29.25 23.710937 52.964844 52.964844 52.964844v-105.929688c-29.253907 0-52.964844 23.710938-52.964844 52.964844zm0 0" fill="#ff7754"/><path d="m397.242188 406.070312v105.929688c29.25 0 52.964843-23.714844 52.964843-52.964844 0-29.253906-23.714843-52.964844-52.964843-52.964844zm0 0" fill="#ff977c"/><path d="m238.34375 70.621094v-54.273438c0-9.027344-7.320312-16.347656-16.347656-16.347656h-179.199219c-9.015625.0195312-16.3125 7.332031-16.3125 16.347656v54.273438zm0 0" fill="#27aae1"/><path d="m194.207031 476.691406c0 19.5 15.808594 35.308594 35.308594 35.308594h35.3125v-70.621094h-35.3125c-19.5 0-35.308594 15.808594-35.308594 35.3125zm0 0" fill="#5aaae7"/><path d="m300.136719 512c19.503906 0 35.3125-15.808594 35.3125-35.308594 0-19.503906-15.808594-35.3125-35.3125-35.3125h-35.308594v70.621094zm0 0" fill="#96c9ef"/><path d="m132.414062 97.105469h-10.152343c-11.5.019531-22.945313 1.664062-33.984375 4.890625-52.285156 15.117187-88.27343775 62.980468-88.277344 117.40625v45.425781h132.414062zm-79.449218 141.238281c.042968-38.984375 31.636718-70.574219 70.621094-70.621094-38.984376.046875-70.578126 31.636719-70.621094 70.621094zm0 0" fill="#ffd422"/><path d="m176.550781 101.996094c-11.039062-3.226563-22.484375-4.871094-33.984375-4.890625h-10.152344v167.722656h132.414063v-45.460937c-.019531-54.414063-36.003906-102.257813-88.277344-117.371094zm0 0" fill="#ffe57b"/><path d="m132.414062 414.898438v-52.96875h-52.964843 52.964843v-97.101563h-132.414062v203.035156h132.414062zm0 0" fill="#27aae1"/><path d="m220.691406 512h8.824219c-19.5 0-35.308594-15.808594-35.308594-35.308594v35.308594zm0 0" fill="#ffde55"/><path d="m132.414062 308.964844v158.898437h61.792969v8.828125c0-19.503906 15.808594-35.3125 35.308594-35.3125h35.3125v-176.550781h-132.414063zm0 0" fill="#6fc6eb"/><path d="m0 467.863281h132.414062v44.136719h-132.414062zm0 0" fill="#ffd422"/><path d="m132.414062 467.863281v44.136719h61.792969v-44.136719zm0 0" fill="#ffde55"/><path d="m61.792969 238.34375h-17.65625c.054687-43.855469 35.59375-79.394531 79.449219-79.445312v17.652343c-34.109376.039063-61.753907 27.683594-61.792969 61.792969zm0 0" fill="#f1f2f2"/><g fill="#1a6fb0"><path d="m52.964844 17.65625h17.65625v35.308594h-17.65625zm0 0"/><path d="m88.277344 17.65625h17.652344v35.308594h-17.652344zm0 0"/><path d="m123.585938 17.65625h17.65625v35.308594h-17.65625zm0 0"/><path d="m158.898438 17.65625h17.652343v35.308594h-17.652343zm0 0"/><path d="m194.207031 17.65625h17.65625v35.308594h-17.65625zm0 0"/></g><path d="m114.757812 308.964844h35.3125v105.933594h-35.3125zm0 0" fill="#cd2a00"/><path d="m79.449219 344.277344h105.929687v35.308594h-105.929687zm0 0" fill="#cd2a00"/></svg>