<?xml version="1.0" encoding="iso-8859-1"?>
<!-- Generator: Adobe Illustrator 19.0.0, SVG Export Plug-In . SVG Version: 6.00 Build 0)  -->
<svg version="1.1" id="Layer_1" xmlns="http://www.w3.org/2000/svg" xmlns:xlink="http://www.w3.org/1999/xlink" x="0px" y="0px"
	 viewBox="0 0 512 512" style="enable-background:new 0 0 512 512;" xml:space="preserve">
<path style="fill:#8FD9C2;" d="M231.952,0c-30.452,0-55.138,24.686-55.138,55.138V512h167.594l22.505-256L344.407,0H231.952z"/>
<path style="fill:#4BBCD6;" d="M456.862,0H344.406v512h112.455C487.314,512,512,487.314,512,456.862V55.138
	C512,24.686,487.314,0,456.862,0z"/>
<g>
	<circle style="fill:#FFFFFF;" cx="428.201" cy="82.741" r="32.757"/>
	<circle style="fill:#FFFFFF;" cx="428.201" cy="198.251" r="32.757"/>
	<circle style="fill:#FFFFFF;" cx="428.201" cy="313.749" r="32.757"/>
	<circle style="fill:#FFFFFF;" cx="428.201" cy="429.259" r="32.757"/>
	<circle style="fill:#FFFFFF;" cx="260.771" cy="82.741" r="32.757"/>
</g>
<polyline style="fill:#F23E6D;" points="268.536,192.681 268.536,147.933 29.201,147.933 29.201,192.681 "/>
<g>
	<path style="fill:#FF7226;" d="M29.201,181.428c0,0-6.57,3.762-14.6,8.361C6.57,194.387,0,206.509,0,216.727v59.294l148.868,22.505
		l148.868-22.505v-59.294c0-10.219-6.57-22.341-14.6-26.939s-14.6-8.361-14.6-8.361"/>
	<path style="fill:#FF7226;" d="M0,456.264v27.869C0,499.459,12.541,512,27.869,512h242c15.327,0,27.869-12.541,27.869-27.869
		v-27.869l-148.868-22.505L0,456.264z"/>
</g>
<rect y="276.019" style="fill:#F7EBD4;" width="297.736" height="180.246"/>
<g>
	<path style="fill:#FFD15D;" d="M23.079,89.332c-7.664,0-13.934,6.27-13.934,13.934v44.667h67.142L65.034,89.332
		C65.034,89.332,23.079,89.332,23.079,89.332z"/>
	<path style="fill:#FFD15D;" d="M288.591,103.266c0-7.664-6.27-13.934-13.934-13.934h-41.955l-11.253,58.601h67.142V103.266z"/>
	<polygon style="fill:#FFD15D;" points="120.924,89.332 109.672,147.933 188.066,147.933 176.813,89.332 	"/>
</g>
<g>
	<rect x="65.035" y="89.336" style="fill:#F7EBD4;" width="55.889" height="58.604"/>
	<rect x="176.814" y="89.336" style="fill:#F7EBD4;" width="55.889" height="58.604"/>
</g>
<path style="fill:#FFD15D;" d="M98.379,323.415c-23.598,0-42.728,19.13-42.728,42.728s19.13,42.728,42.728,42.728h50.489v-85.456
	H98.379z"/>
<path style="fill:#F56E92;" d="M199.357,323.415h-50.489v85.456h50.489c23.598,0,42.728-19.13,42.728-42.728
	S222.955,323.415,199.357,323.415z"/>
<path style="fill:#FFD15D;" d="M289.297,156.373H8.44c-4.661,0-8.44-3.779-8.44-8.44c0-4.661,3.779-8.44,8.44-8.44h280.857
	c4.661,0,8.44,3.779,8.44,8.44C297.736,152.594,293.958,156.373,289.297,156.373z"/>
<g>
</g>
<g>
</g>
<g>
</g>
<g>
</g>
<g>
</g>
<g>
</g>
<g>
</g>
<g>
</g>
<g>
</g>
<g>
</g>
<g>
</g>
<g>
</g>
<g>
</g>
<g>
</g>
<g>
</g>
</svg>
