<?xml version="1.0" encoding="UTF-8"?>
<svg width="2713px" height="2875px" viewBox="0 0 2713 2875" version="1.1" xmlns="http://www.w3.org/2000/svg" xmlns:xlink="http://www.w3.org/1999/xlink">
    <!-- Generator: Sketch 51.3 (57544) - http://www.bohemiancoding.com/sketch -->
    <title>school-material</title>
    <desc>Created with Sketch.</desc>
    <defs></defs>
    <g id="Page-1" stroke="none" stroke-width="1" fill="none" fill-rule="evenodd">
        <g id="Artboard-4" transform="translate(-14565.000000, -7381.000000)" fill-rule="nonzero">
            <g id="school-material" transform="translate(14565.000000, 7381.000000)">
                <path d="M1533.81628,2847.26947 C1516.60834,2874.85097 1479.94537,2883.30575 1452.32988,2866.04145 L34.7147653,1979.23557 C7.15840428,1961.97127 -1.29773224,1925.28462 15.9397768,1897.73268 L1186.16854,27.6891425 C1203.40605,0.137203183 1240.06902,-8.2880143 1267.65495,8.94672883 L2685.27006,895.782165 C2712.85599,913.04647 2721.28256,949.703557 2704.07462,977.285058 L1533.81628,2847.26947 Z" id="Shape" fill="#E2A752"></path>
                <circle id="Oval" fill="#233640" cx="1274.5" cy="170.5" r="36.5"></circle>
                <path d="M1285.87323,176.754994 C1280.10615,185.975014 1264.10618,186.446325 1250.29475,177.874357 L1108.66104,89.5919316 C1094.87919,80.9905074 1088.31358,66.4682398 1094.11024,57.2187631 C1099.87733,48.0282003 1115.90687,47.5568894 1129.65915,56.1288566 L1271.32243,144.411282 C1285.13386,152.98325 1291.69947,167.534974 1285.87323,176.754994 Z" id="Shape" fill="#7B3A1A"></path>
                <circle id="Oval" fill="#233640" cx="1183.5" cy="315.5" r="36.5"></circle>
                <path d="M1194.88962,321.781011 C1189.12217,330.971861 1173.09161,331.443187 1159.30888,322.870952 L1017.66619,234.585763 C1003.85388,226.013528 997.317437,211.43189 1003.11446,202.24104 C1008.85234,193.020732 1024.8829,192.549406 1038.6952,201.151099 L1180.3379,289.377372 C1194.12063,298.008523 1200.68665,312.560703 1194.88962,321.781011 Z" id="Shape" fill="#7B3A1A"></path>
                <circle id="Oval" fill="#233640" cx="1092.5" cy="461.5" r="36.5"></circle>
                <path d="M1103.90608,468.690402 C1098.13851,477.977853 1082.10764,478.482284 1068.32463,469.817952 L926.679136,380.919532 C912.866556,372.255201 906.329982,357.567378 912.097547,348.309598 C917.89469,339.022147 933.895988,338.517716 947.678991,347.182048 L1089.35406,436.080468 C1103.10749,444.774472 1109.67364,459.462295 1103.90608,468.690402 Z" id="Shape" fill="#7B3A1A"></path>
                <circle id="Oval" fill="#233640" cx="1001.5" cy="606.5" r="36.5"></circle>
                <path d="M1012.90192,612.744097 C1007.1341,621.963324 991.102525,622.464049 977.318921,613.863364 L835.667245,525.617982 C821.854063,517.017298 815.317203,502.466824 821.114599,493.218143 C826.852837,484.02837 842.884412,483.557099 856.697594,492.12833 L998.34927,580.403166 C1012.13287,589.003851 1018.66973,603.583779 1012.90192,612.744097 Z" id="Shape" fill="#7B3A1A"></path>
                <circle id="Oval" fill="#233640" cx="910.5" cy="751.5" r="36.5"></circle>
                <path d="M921.901872,758.779876 C916.163514,767.972171 900.102027,768.443571 886.318135,759.869988 L744.663506,671.57092 C730.879614,662.997336 724.313039,648.442869 730.110556,639.221111 C735.848914,630.058278 751.910402,629.527953 765.694293,638.130999 L907.348922,726.400605 C921.132814,735.033113 927.66981,749.617043 921.901872,758.779876 Z" id="Shape" fill="#7B3A1A"></path>
                <circle id="Oval" fill="#233640" cx="819.5" cy="897.5" r="36.5"></circle>
                <path d="M830.889714,903.795966 C825.122514,912.957073 809.122231,913.45784 795.340102,904.856416 L653.674013,816.632902 C639.891884,808.002021 633.326149,793.420839 639.093349,784.230276 C644.890124,775.039713 660.919982,774.538945 674.672536,783.14037 L816.338625,871.422797 C830.120754,880.024222 836.686489,894.575947 830.889714,903.795966 Z" id="Shape" fill="#7B3A1A"></path>
                <circle id="Oval" fill="#233640" cx="728.5" cy="1042.5" r="36.5"></circle>
                <path d="M739.905897,1050.70213 C734.13784,1059.98943 718.105599,1060.46418 704.321421,1051.82966 L562.663852,962.932714 C548.879674,954.268526 542.312963,939.580947 548.1106,930.293649 C553.849077,921.006351 569.881318,920.531601 583.695076,929.19579 L725.352645,1018.09273 C739.107243,1026.78659 745.673954,1041.4445 739.905897,1050.70213 Z" id="Shape" fill="#7B3A1A"></path>
                <circle id="Oval" fill="#233640" cx="637.5" cy="1188.5" r="36.5"></circle>
                <path d="M648.918496,1195.6904 C643.150944,1204.97785 627.120107,1205.48228 613.337136,1196.81795 L471.662393,1107.88986 C457.879422,1099.2552 451.313286,1084.56738 457.110415,1075.3096 C462.907544,1066.02215 478.908805,1065.51772 492.691775,1074.18205 L634.366518,1163.08047 C648.119912,1171.7448 654.656471,1186.46229 648.918496,1195.6904 Z" id="Shape" fill="#7B3A1A"></path>
                <circle id="Oval" fill="#233640" cx="546.5" cy="1333.5" r="36.5"></circle>
                <path d="M557.889303,1340.75896 C552.150562,1349.97927 536.117586,1350.45059 522.332775,1341.8489 L380.668704,1253.59317 C366.854312,1244.99148 360.316881,1230.4393 366.114784,1221.21899 C371.853525,1212.02814 387.886502,1211.55681 401.700893,1220.12905 L543.335383,1308.41424 C557.120194,1316.98647 563.687206,1331.56811 557.889303,1340.75896 Z" id="Shape" fill="#7B3A1A"></path>
                <circle id="Oval" fill="#233640" cx="455.5" cy="1479.5" r="36.5"></circle>
                <path d="M465.885535,1485.78124 C460.118084,1494.9718 444.117103,1495.44311 430.304796,1486.87114 L288.662102,1398.58872 C274.879372,1390.01675 268.31335,1375.46503 274.110378,1366.24501 C279.907406,1357.02499 295.878811,1356.55368 309.691118,1365.12564 L451.333811,1453.40807 C465.146118,1461.98004 471.682563,1476.53176 465.885535,1485.78124 Z" id="Shape" fill="#7B3A1A"></path>
                <circle id="Oval" fill="#233640" cx="364.5" cy="1624.5" r="36.5"></circle>
                <path d="M375.902313,1630.76938 C370.134362,1639.96038 354.131997,1640.46117 340.318494,1631.85934 L198.663544,1543.60214 C184.879621,1535.0003 178.313031,1520.41842 184.110561,1511.25687 C189.878511,1502.03641 205.910456,1501.53562 219.694379,1510.13746 L361.31975,1598.42412 C375.133253,1606.99649 381.670263,1621.54892 375.902313,1630.76938 Z" id="Shape" fill="#7B3A1A"></path>
                <circle id="Oval" fill="#233640" cx="273.5" cy="1770.5" r="36.5"></circle>
                <path d="M283.902051,1776.74392 C278.134605,1785.96337 262.13364,1786.46411 248.321346,1777.86322 L106.67879,1689.61572 C92.8664967,1681.01483 86.330058,1666.43455 92.0975039,1657.24456 C97.8945264,1648.02511 113.895492,1647.55383 127.678209,1656.12526 L269.350341,1744.40222 C283.133058,1752.97365 289.669497,1767.55393 283.902051,1776.74392 Z" id="Shape" fill="#7B3A1A"></path>
                <circle id="Oval" fill="#233640" cx="182.5" cy="1915.5" r="36.5"></circle>
                <path d="M193.902356,1921.75964 C188.134526,1930.97908 172.102916,1931.45037 158.31928,1922.84948 L16.6672832,1834.60199 C2.85406903,1826.03056 -3.68280533,1811.45028 2.11460361,1802.26029 C7.88243393,1793.04084 23.8844657,1792.5401 37.6681013,1801.11154 L179.320098,1889.38848 C193.133312,1897.98937 199.670187,1912.54019 193.902356,1921.75964 Z" id="Shape" fill="#7B3A1A"></path>
                <rect id="Rectangle-path" fill="#E1574C" x="1488" y="1554" width="950" height="1132"></rect>
                <rect id="Rectangle-path" fill="#AEB4AD" x="1515" y="1554" width="896" height="1101"></rect>
                <path d="M2438,1553 C2121.39528,1553 1804.79056,1553 1488.18585,1553 C1236.8888,1424.99322 970.809566,1065.97722 1222.10662,938 C1538.71133,938 1855.31605,938 2171.92077,938 C1920.62372,1066.00678 2186.70295,1424.99322 2438,1553 Z" id="Shape" fill="#AB3326"></path>
                <polygon id="Shape" fill="#D7DADA" points="1515.24194 1554 1356 2583 2323.5145 2583 2411 1554"></polygon>
                <polygon id="Shape" fill="#ECECEC" points="1515.10805 1554 1292 2477 2237.42223 2477 2411 1554"></polygon>
                <polygon id="Shape" fill="#04786C" points="1469 2086.86585 1359.83827 2154 880 1379.10459 989.250477 1312"></polygon>
                <polygon id="Shape" fill="#0EBDE1" points="1393 2133.12344 1359.14661 2154 880 1378.87656 913.971554 1358"></polygon>
                <polygon id="Shape" fill="#07AAAE" points="1393.18085 2134 1430 2111.34366 950.81915 1336 914 1358.68592"></polygon>
                <polygon id="Shape" fill="#DEBEA1" points="1469.03999 2087 1360 2154.2271 1561 2361"></polygon>
                <polygon id="Shape" fill="#F1D7B7" points="1430.68392 2111 1360 2154.51425 1561 2361"></polygon>
                <polygon id="Shape" fill="#FAF6C3" points="1394.04175 2133 1360 2153.91799 1561 2360"></polygon>
                <polygon id="Shape" fill="#39454E" points="1495 2292.06547 1561 2360 1530.77817 2270"></polygon>
                <path d="M990,1312.9519 L933.777412,1222.31279 C923.735548,1206.11246 907.384195,1197.9236 897.401575,1204.01351 L824.501792,1248.77137 C814.48955,1254.94996 814.48955,1273.21969 824.561036,1289.30177 L880.72438,1380 L990,1312.9519 Z" id="Shape" fill="#E76165"></path>
                <path d="M897.313698,1204.00699 L840,1239.10922 L914.510773,1359 L990,1312.82684 L933.724056,1222.31092 C923.672663,1206.13261 907.305792,1197.92536 897.313698,1204.00699 Z" id="Shape" fill="#A22163"></path>
                <path d="M897.213554,1204.01705 L877,1216.47864 L951.620961,1337 L990,1313.38232 L933.663252,1222.41273 C923.600998,1206.15332 907.216443,1197.90494 897.213554,1204.01705 Z" id="Shape" fill="#802149"></path>
            </g>
        </g>
    </g>
</svg>