<?xml version="1.0" encoding="UTF-8"?>
<svg width="1895px" height="1557px" viewBox="0 0 1895 1557" version="1.1" xmlns="http://www.w3.org/2000/svg" xmlns:xlink="http://www.w3.org/1999/xlink">
    <!-- Generator: Sketch 51.3 (57544) - http://www.bohemiancoding.com/sketch -->
    <title>smoking</title>
    <desc>Created with Sketch.</desc>
    <defs></defs>
    <g id="Page-1" stroke="none" stroke-width="1" fill="none" fill-rule="evenodd">
        <g id="Artboard-4" transform="translate(-13292.000000, -16745.000000)" fill-rule="nonzero">
            <g id="smoking" transform="translate(13292.000000, 16745.000000)">
                <g id="Group" transform="translate(0.000000, 456.000000)" fill="#EAEFEF">
                    <path d="M947.445358,303.609234 C424.414725,303.609234 0.416276519,481.926463 0.416276519,701.934529 C0.416276519,921.906147 424.414725,1100.24941 947.445358,1100.24941 C1470.45518,1100.24941 1894.46403,921.906147 1894.46403,701.934529 C1894.46403,481.93167 1470.45518,303.609234 947.445358,303.609234 Z" id="Shape"></path>
                    <path d="M1134.38474,0.724555837 C1134.46279,2.38031777 1134.55645,4.02566611 1134.55645,5.69184164 C1134.55645,82.6170833 1050.77039,144.978909 947.445358,144.978909 C844.099509,144.978909 760.339469,82.6170833 760.339469,5.69184164 C760.339469,4.02566611 760.427928,2.38031777 760.50598,0.724555837 C327.02163,37.2294204 0.416276519,198.19239 0.416276519,391.281307 C0.416276519,611.258132 424.414725,789.596189 947.445358,789.596189 C1470.45518,789.596189 1894.46403,611.258132 1894.46403,391.281307 C1894.46403,198.19239 1567.85348,37.2294204 1134.38474,0.724555837 Z" id="Shape"></path>
                    <rect id="Rectangle-path" x="1.65990262" y="371.063309" width="1891.35237" height="325.841453"></rect>
                </g>
                <path d="M1122.56098,507 C1096.94543,561.154336 1027.59297,599.991296 946,599.991296 C864.396623,599.991296 795.044161,561.149135 769.43902,507 C398.102019,540.968687 120,679.828893 120,846.026324 C120,1037.64696 489.812141,1193 946,1193 C1402.17745,1193 1772,1037.64176 1772,846.026324 C1772,679.828893 1493.89278,540.968687 1122.56098,507 Z" id="Shape" fill="#D7DBDB"></path>
                <g id="Group" transform="translate(163.000000, 709.000000)" fill="#CCCCCC">
                    <ellipse id="Oval" cx="783.621317" cy="481.701632" rx="187.184099" ry="139.083193"></ellipse>
                    <path d="M781.95031,0.782928035 C412.522256,0.782928035 100.590403,105.749119 0.871324909,249.610356 C111.350443,386.567085 420.070422,485.153885 783.626523,485.153885 C1145.25654,485.153885 1452.5762,387.601721 1564.54934,251.783612 C1466.49606,106.809751 1153.2576,0.782928035 781.95031,0.782928035 Z" id="Shape"></path>
                </g>
                <path d="M1056.79314,650.149113 L1006.47525,522.718263 C976.744305,519.035621 854.715336,519.113644 825,522.837897 L859.323736,661.051398 L927.191004,795.467824 L856.364165,929 L1021.57998,928.791941 L1120,721.778577 L1056.79314,650.149113 Z" id="Shape" fill="#EFEEE4"></path>
                <g id="Group" transform="translate(825.000000, 523.000000)" fill="#E2E1D9">
                    <polygon id="Shape" points="179.671255 100.388756 182.619817 0.0571246349 150.420479 115.63584 225.616631 147.506194"></polygon>
                    <polygon id="Shape" points="168.529345 362.300014 197.769683 405.486238 219.34898 360.217561"></polygon>
                    <path d="M205.477693,212.197246 L96.2400054,150.928478 L94.2464646,63.9692047 C94.2464646,63.9692047 14.5361434,-1.57352403 0.539607985,0.171373905 L72.4010145,69.8945873 L34.977765,138.163719 L173.706289,241.844931 L32.0083285,405.683577 L213.420544,253.70089 L296.523016,198.793729 L205.477693,212.197246 Z" id="Shape"></path>
                </g>
                <rect id="Rectangle-path" fill="#E79E2F" x="825" y="27" width="182" height="499"></rect>
                <polygon id="Shape" fill="#D88D2B" points="825 27 825.343603 526 1007 525.874952"></polygon>
                <polygon id="Shape" fill="#CC8127" points="825 27 825.343508 526 899 525.874952"></polygon>
                <ellipse id="Oval" fill="#EDD48E" cx="916" cy="27.5" rx="91" ry="27.5"></ellipse>
                <ellipse id="Oval" fill="#E8CB70" cx="916" cy="28" rx="58" ry="18"></ellipse>
                <g id="Group" transform="translate(832.000000, 90.000000)" fill="#E5AA5C">
                    <ellipse id="Oval" cx="153.675497" cy="404.178449" rx="10.2297777" ry="10.2387571"></ellipse>
                    <ellipse id="Oval" cx="106.141095" cy="404.178449" rx="10.2297777" ry="10.2387571"></ellipse>
                    <ellipse id="Oval" cx="58.5546862" cy="404.230501" rx="10.2297777" ry="10.2387571"></ellipse>
                    <ellipse id="Oval" cx="10.9682772" cy="404.282554" rx="10.2297777" ry="10.2387571"></ellipse>
                    <ellipse id="Oval" cx="153.62349" cy="315.9492" rx="10.2297777" ry="10.2387571"></ellipse>
                    <ellipse id="Oval" cx="106.037081" cy="316.001253" rx="10.2297777" ry="10.2387571"></ellipse>
                    <ellipse id="Oval" cx="58.5026791" cy="316.053305" rx="10.2297777" ry="10.2387571"></ellipse>
                    <ellipse id="Oval" cx="10.9162702" cy="316.053305" rx="10.2297777" ry="10.2387571"></ellipse>
                    <ellipse id="Oval" cx="153.571483" cy="227.772004" rx="10.2297777" ry="10.2387571"></ellipse>
                    <ellipse id="Oval" cx="105.985074" cy="227.824057" rx="10.2297777" ry="10.2387571"></ellipse>
                    <ellipse id="Oval" cx="58.4506721" cy="227.876109" rx="10.2297777" ry="10.2387571"></ellipse>
                    <ellipse id="Oval" cx="10.8642632" cy="227.876109" rx="10.2297777" ry="10.2387571"></ellipse>
                    <path d="M130.433567,350.434083 C124.785606,350.434083 120.193388,355.019922 120.193388,360.678046 C120.21419,366.325759 124.796008,370.906392 130.443968,370.901187 C136.091929,370.895982 140.673746,366.315348 140.673746,360.657225 C140.663345,355.009512 136.081527,350.423673 130.433567,350.434083 Z" id="Shape"></path>
                    <ellipse id="Oval" cx="82.8419572" cy="360.714482" rx="10.2297777" ry="10.2387571"></ellipse>
                    <ellipse id="Oval" cx="35.3075552" cy="360.714482" rx="10.2297777" ry="10.2387571"></ellipse>
                    <ellipse id="Oval" cx="130.376359" cy="272.485234" rx="10.2297777" ry="10.2387571"></ellipse>
                    <ellipse id="Oval" cx="82.7899502" cy="272.537286" rx="10.2297777" ry="10.2387571"></ellipse>
                    <ellipse id="Oval" cx="35.2555482" cy="272.537286" rx="10.2297777" ry="10.2387571"></ellipse>
                    <path d="M153.493473,130.52203 C147.845512,130.52203 143.268895,135.113074 143.268895,140.765993 C143.279297,146.418911 147.866315,150.999544 153.514275,150.989134 C159.151835,150.989134 163.744053,146.403295 163.733652,140.745171 C163.728451,135.092253 159.141433,130.516825 153.493473,130.52203 Z" id="Shape"></path>
                    <path d="M105.933067,130.542851 C100.285106,130.542851 95.7032893,135.133895 95.7032893,140.786814 C95.7240921,146.434527 100.295508,151.020365 105.943468,151.020365 C111.591429,151.01516 116.168046,146.424116 116.168046,140.765993 C116.157644,135.11828 111.581028,130.537646 105.933067,130.542851 Z" id="Shape"></path>
                    <ellipse id="Oval" cx="58.3986651" cy="140.797224" rx="10.224577" ry="10.2335518"></ellipse>
                    <path d="M10.8070555,130.61052 C5.15909483,130.61052 0.577277748,135.201564 0.577277748,140.859687 C0.577277748,146.5074 5.16949623,151.088034 10.8278583,151.088034 C16.4654176,151.077623 21.0368332,146.49699 21.0368332,140.844071 C21.0368332,135.191153 16.4550162,130.605314 10.8070555,130.61052 Z" id="Shape"></path>
                    <ellipse id="Oval" cx="153.415462" cy="52.5627701" rx="10.2297777" ry="10.2387571"></ellipse>
                    <ellipse id="Oval" cx="105.88106" cy="52.6148228" rx="10.2297777" ry="10.2387571"></ellipse>
                    <ellipse id="Oval" cx="58.2946511" cy="52.6148228" rx="10.2297777" ry="10.2387571"></ellipse>
                    <ellipse id="Oval" cx="10.7602492" cy="52.6668754" rx="10.2297777" ry="10.2387571"></ellipse>
                    <ellipse id="Oval" cx="130.324352" cy="185.458401" rx="10.2297777" ry="10.2387571"></ellipse>
                    <ellipse id="Oval" cx="82.7379432" cy="185.458401" rx="10.2297777" ry="10.2387571"></ellipse>
                    <ellipse id="Oval" cx="35.2035412" cy="185.505249" rx="10.2297777" ry="10.2387571"></ellipse>
                    <ellipse id="Oval" cx="130.272345" cy="97.276" rx="10.2297777" ry="10.2387571"></ellipse>
                    <ellipse id="Oval" cx="82.6859362" cy="97.276" rx="10.2297777" ry="10.2387571"></ellipse>
                    <ellipse id="Oval" cx="35.1515342" cy="97.3332579" rx="10.2297777" ry="10.2387571"></ellipse>
                    <path d="M130.189134,0.504910745 C124.551575,0.504910745 119.964557,5.1011601 119.980159,10.7488731 C119.980159,16.4122018 124.561976,20.9824249 130.209937,20.9824249 C135.863098,20.9772196 140.434514,16.3861755 140.434514,10.7332573 C140.424112,5.08554431 135.857897,0.499705479 130.189134,0.504910745 Z" id="Shape"></path>
                    <ellipse id="Oval" cx="82.6339291" cy="10.7644889" rx="10.2297777" ry="10.2387571"></ellipse>
                    <ellipse id="Oval" cx="35.0995272" cy="10.8165415" rx="10.2297777" ry="10.2387571"></ellipse>
                </g>
                <polygon id="Shape" fill="#9FA09F" points="855 929 855 957.019242 867.181047 974.703432 887.510723 969.262547 906.48404 982 944.414963 971.528268 963.388279 950.668915 1001.3192 977.873339 1023 982 1023 929"></polygon>
                <polygon id="Shape" fill="#888988" points="947.17369 929 918.775534 929 862 955.438682 873.620025 972.113958 935.553665 955.438682 947.17369 969.122947 965.22966 949.441161 1001.3468 975.110135 1022 979"></polygon>
                <polygon id="Shape" fill="#9FA09F" points="1085.32526 1017.86398 1057.3713 1007 1042 1014.15672 1047.63441 1073.98853 1075.58837 1078 1102 1052.41009"></polygon>
                <polygon id="Shape" fill="#888988" points="1082.6482 1021.57222 1043.7414 1016 1027 1057.36582 1049.40009 1077 1084.91689 1065.45605 1104 1055.00026"></polygon>
                <polygon id="Shape" fill="#9FA09F" points="768.729149 1045.72337 751.47599 1039 742 1043.44251 745.475569 1080.51697 762.713142 1083 779 1067.13761"></polygon>
                <polygon id="Shape" fill="#888988" points="764.979451 1046.36787 741.216044 1043 731 1068.09088 744.671319 1080 766.358462 1072.99525 778 1066.64751"></polygon>
                <polygon id="Shape" fill="#9FA09F" points="836.267054 1052.47976 811.585195 1043 798 1049.24814 802.987499 1101.50719 827.674574 1105 851 1082.66033"></polygon>
                <polygon id="Shape" fill="#888988" points="833.153597 1053.84085 798.786936 1049 784 1084.93757 803.794485 1102 835.149284 1091.96511 852 1082.88593"></polygon>
                <polygon id="Shape" fill="#9FA09F" points="884.717315 1029.73813 867.477321 1023 858 1027.44198 861.476057 1064.52244 878.716051 1067 895 1051.14466"></polygon>
                <polygon id="Shape" fill="#888988" points="881.980009 1030.3721 858.237368 1027 848 1052.09421 861.691125 1064 883.358414 1056.99203 895 1050.65124"></polygon>
                <polygon id="Shape" fill="#9FA09F" points="920.983597 1076.94487 895.830216 1067 882 1073.56016 887.065899 1128.33803 912.22964 1132 936 1108.57907"></polygon>
                <polygon id="Shape" fill="#888988" points="916.598169 1078.92503 881.230411 1074 866 1110.61026 886.368508 1128 918.662864 1117.78378 936 1108.52163"></polygon>
                <polygon id="Shape" fill="#9FA09F" points="969.720202 1042.73295 952.47466 1036 943 1040.44717 946.475081 1077.52244 963.715429 1080 980 1064.14984"></polygon>
                <polygon id="Shape" fill="#888988" points="966.969684 1043.37774 943.227043 1040 933 1065.08738 946.6808 1077 968.353251 1069.99623 980 1063.65455"></polygon>
                <polygon id="Shape" fill="#9FA09F" points="1022.42662 1078.18401 1004.7381 1071 995 1075.73648 998.570299 1115.34102 1016.27919 1118 1033 1101.0523"></polygon>
                <polygon id="Shape" fill="#888988" points="1020.13529 1079.47437 994.875721 1076 984 1101.76615 998.551652 1114 1021.61405 1106.80779 1034 1100.29018"></polygon>
            </g>
        </g>
    </g>
</svg>