<?xml version="1.0" encoding="UTF-8"?>
<svg width="3395px" height="3438px" viewBox="0 0 3395 3438" version="1.1" xmlns="http://www.w3.org/2000/svg" xmlns:xlink="http://www.w3.org/1999/xlink">
    <!-- Generator: Sketch 51.3 (57544) - http://www.bohemiancoding.com/sketch -->
    <title>Artboard 3</title>
    <desc>Created with Sketch.</desc>
    <defs>
        <path d="M755,1510 C1171.97499,1510 1510,1321.97499 1510,905 C1510,488.025014 1171.97499,0 755,0 C338.025014,0 0,488.025014 0,905 C0,1321.97499 338.025014,1510 755,1510 Z" id="path-1"></path>
        <path d="M590,1180 C915.848002,1180 1180,1045.848 1180,720 C1180,394.151998 915.848002,0 590,0 C264.151998,0 0,394.151998 0,720 C0,1045.848 264.151998,1180 590,1180 Z" id="path-3"></path>
    </defs>
    <g id="Artboard-3" stroke="none" stroke-width="1" fill="none" fill-rule="evenodd">
        <g id="recycle-sign" transform="translate(1666.500000, 1815.000000) rotate(-45.000000) translate(-1666.500000, -1815.000000) translate(471.000000, 617.000000)" fill="#27BCBD" fill-rule="nonzero">
            <path d="M535.923576,303.627956 C499.156483,258.340344 427.647957,256.348888 383.516346,306.312816 C270.861974,433.943556 97.177004,697.853172 178.67508,1049.20382 C178.67508,1049.20382 155.643618,1055.89933 127.239999,1064.17026 C98.8363792,1072.4079 113.476619,1117.87857 159.961324,1165.66798 L358.942054,1370.38307 C405.426758,1418.20577 451.040152,1403.48341 460.785513,1337.55455 L500.477323,1069.90055 C510.228234,1003.94395 487.646302,959.383024 450.007899,970.333262 L381.851421,990.153526 C332.497496,756.382028 437.454364,573.63398 519.046786,472.646601 C560.914099,420.757783 572.685118,348.915567 535.923576,303.627956 Z" id="Shape" transform="translate(335.344124, 833.863498) rotate(12.000000) translate(-335.344124, -833.863498) "></path>
            <path d="M1071.15773,2258.02802 C1123.66615,2268.80041 1190.93061,2278.09173 1266.66274,2278.09173 C1428.41906,2278.09173 1628.87047,2235.40156 1807.24051,2074.55902 C1807.24051,2074.55902 1830.01504,2096.46436 1858.02988,2123.49518 C1886.11127,2150.49827 1923.71948,2120.44985 1941.99678,2056.36467 L2020.41837,1781.96273 C2038.7234,1717.87755 2003.28895,1685.68796 1941.27589,1710.06729 L1689.45839,1808.99909 C1627.44533,1833.37842 1594.51181,1869.8226 1615.89447,1890.40219 L1654.62283,1927.69507 C1478.72045,2078.09805 1273.53336,2077.76522 1147.79374,2057.72924 C1081.98215,2047.22866 1013.88036,2072.81725 992.913587,2127.24499 C972.018906,2181.63946 1005.88958,2244.63187 1071.15773,2258.02802 Z" id="Shape" transform="translate(1506.000000, 1990.006448) rotate(14.000000) translate(-1506.000000, -1990.006448) "></path>
            <path d="M2387.29245,707.90108 C2349.28661,545.566632 2238.57999,259.850681 1920.67972,119.508035 C1920.67972,119.508035 1931.20578,89.1909618 1944.2053,51.7522051 C1957.17708,14.3467274 1914.34079,-7.70608686 1848.46142,2.4883479 L1566.58157,46.2057227 C1500.7022,56.4001574 1486.34395,102.075441 1534.42663,148.199989 L1729.71329,335.449237 C1777.79597,381.573785 1824.49218,396.837705 1833.95898,369.537918 L1851.09017,320.091027 C2055.36113,417.925431 2139.24794,601.131293 2173.30512,722.105622 C2191.37356,786.272878 2243.10541,837.439178 2301.32039,833.66757 C2359.47992,829.929241 2402.49922,772.761646 2387.29245,707.90108 Z" id="Shape"></path>
        </g>
        <g id="coach" transform="translate(895.000000, 1661.000000)">
            <mask id="mask-2" fill="white">
                <use xlink:href="#path-1"></use>
            </mask>
            <g id="Mask"></g>
            <g mask="url(#mask-2)">
                <g transform="translate(222.000000, 330.000000)">
                    <path d="M694.234628,704.578046 C669.4043,699.585706 651.539249,670.768176 651.539249,645.426878 L651.539249,532.507987 L533.922875,532.507987 L416.306501,532.507987 L416.306501,645.426878 C416.306501,670.765875 398.44145,699.583406 373.611122,704.578046 L344.952077,712.671617 L344.952077,902.907348 L533.922875,902.907348 L722.891374,902.907348 L722.891374,712.671617 L694.234628,704.578046 Z" id="Shape" fill="#FFC084" fill-rule="nonzero"></path>
                    <path d="M569.265176,532.512584 L569.265176,701.63144 C569.265176,725.497389 585.977425,752.523858 608.680422,759.713754 C610.060418,760.15048 610.683492,760.442398 612.111949,760.727419 L723.833866,795.463259 L723.833866,712.512823 L695.073197,704.42419 C670.154823,699.436315 652.226424,670.644552 652.226424,645.325912 L652.226424,532.507987 L569.265176,532.507987 L569.265176,532.512584 Z" id="Shape" fill="#F7B076" fill-rule="nonzero"></path>
                    <path d="M1068.78134,981.784662 C1068.78134,881.55809 1002.79766,793.30657 906.696056,764.999391 L689.936282,697.384108 C683.207858,695.286171 675.869433,696.990313 670.754633,701.840209 L534.390669,831.124702 L398.029008,701.842512 C392.911906,696.992616 385.575783,695.288474 378.847358,697.386411 L162.087584,765.001694 C65.9859788,793.308873 0,881.562696 0,981.786965 L0,1134.3376 C0,1159.03614 20.0126317,1179.05751 44.7004019,1179.05751 L1024.08554,1179.05751 C1048.77331,1179.05751 1068.78594,1159.03614 1068.78594,1134.3376 L1068.78594,981.784662 L1068.78134,981.784662 Z" id="Shape" fill="#F9C861" fill-rule="nonzero"></path>
                    <path d="M1053.92769,901.129436 C1051.78536,895.524172 1049.42673,890.01563 1046.85639,884.622232 C1039.14768,868.437435 1029.55437,853.252097 1018.31116,839.381716 C1005.19254,823.201524 989.832653,808.815293 972.599662,796.72045 C957.828855,786.355087 941.686588,777.675448 924.405272,770.997031 C918.645601,768.770125 912.757068,766.7666 906.753479,764.997971 L690.067419,697.384758 C687.545405,696.597165 684.93595,696.346149 682.393226,696.592559 C678.152286,697.004779 674.08853,698.807952 670.892293,701.840874 L608.84984,760.682332 L801.680322,820.852564 C897.749247,849.159839 963.710485,905.219391 963.710485,1005.444 L963.710485,1179.05751 L1024.10074,1179.05751 C1048.78012,1179.05751 1068.78594,1159.03608 1068.78594,1134.33745 L1068.78594,981.786288 C1068.78364,953.598763 1063.56473,926.355429 1053.92769,901.129436 Z" id="Shape" fill="#F3A656" fill-rule="nonzero"></path>
                    <path d="M770.529705,285.897862 L755.458519,285.897862 L755.458519,268.197949 L755.458519,225.887979 C755.458519,166.147322 730.935052,108.261336 685.66857,69.2810297 C650.1765,38.7203772 600.289722,12.04625 534.39067,11.3099042 C468.491619,12.04625 418.60484,38.7203772 383.115072,69.2810297 C337.84859,108.261336 313.325123,166.147322 313.325123,225.887979 L313.325123,268.197949 L313.325123,285.897862 L298.253936,285.897862 C276.157966,285.897862 258.242812,303.811775 258.242812,325.911354 L258.242812,370.250877 C258.242812,392.348155 276.155665,410.264369 298.253936,410.264369 L313.387248,410.264369 C314.63436,468.334441 339.035877,524.229992 383.117373,562.188619 C418.607141,592.749271 468.49392,619.423399 534.392971,620.159744 C600.292023,619.423399 650.178801,592.749271 685.66857,562.188619 C729.752366,524.227691 754.153883,468.334441 755.398694,410.264369 L770.532006,410.264369 C792.627977,410.264369 810.543131,392.350456 810.543131,370.250877 L810.543131,325.911354 C810.54083,303.811775 792.627977,285.897862 770.529705,285.897862 Z" id="Shape" fill="#FFC084" fill-rule="nonzero"></path>
                    <path d="M771.40865,285.898899 L756.313527,285.898899 L756.313527,268.19892 L756.313527,225.88879 C756.313527,166.147907 731.751113,108.261703 686.410436,69.2812488 C650.864304,38.7204808 600.898297,12.0462528 534.894587,11.3099042 C520.456276,11.4709804 506.785396,12.8723438 493.865815,15.2861866 C540.010797,23.9014652 576.582475,45.4051454 604.352891,69.2812488 C649.691263,108.261703 674.255982,166.147907 674.255982,225.88879 L674.255982,268.19892 L674.196063,410.265877 C672.94697,468.336168 648.5067,524.23193 604.355196,562.190701 C576.58478,586.066804 540.013101,607.570484 493.868119,616.185763 C506.7877,618.597305 520.45858,620.000969 534.896892,620.159744 C600.900602,619.425697 650.866609,592.749168 686.412741,562.1884 C730.56655,524.227328 755.00682,468.333867 756.253608,410.263576 L771.410954,410.263576 C793.542017,410.263576 811.485623,392.349595 811.485623,370.249933 L811.485623,325.910242 C811.483318,303.81288 793.542017,285.898899 771.40865,285.898899 Z" id="Shape" fill="#F7B076" fill-rule="nonzero"></path>
                    <path d="M706.166074,35.9649899 L567.455968,4.15062498 C542.880319,-1.48494408 517.337487,-1.38130672 492.807894,4.45923399 L362.687291,35.4352878 C313.611984,47.1186723 278.977636,90.9687887 278.977636,141.421756 L278.977636,288.402556 L790.750799,288.402556 L790.750799,142.15643 C790.750799,91.3672168 755.662795,47.3167348 706.166074,35.9649899 Z" id="Shape" fill="#FF4F6D" fill-rule="nonzero"></path>
                    <path d="M705.398332,35.9647027 L566.974797,4.15059183 C542.44992,-1.48493222 516.959859,-1.38129569 492.480943,4.45919838 L489.153355,5.25374509 L622.780842,35.9647027 C672.175304,47.316357 707.193115,91.3664872 707.193115,142.155295 L707.193115,288.402556 L789.808307,288.402556 L789.808307,142.155295 C789.808307,91.3664872 754.792794,47.316357 705.398332,35.9647027 Z" id="Shape" fill="#F93A5A" fill-rule="nonzero"></path>
                    <path d="M729.845928,350.665265 C600.733958,310.934513 468.994476,310.93682 339.884809,350.665265 C317.499137,357.553497 293.89067,344.326061 287.808934,321.672866 C284.865936,310.710749 281.922937,299.748632 278.977636,288.786516 C447.698036,225.445229 622.021187,225.438308 790.750799,288.786516 C787.8078,299.748632 784.864802,310.710749 781.9195,321.672866 C775.840067,344.323754 752.2316,357.553497 729.845928,350.665265 Z" id="Shape" fill="#2C5871" fill-rule="nonzero"></path>
                    <g id="Group" stroke-width="1" fill="none" fill-rule="evenodd" transform="translate(133.833866, 971.709265)">
                        <path d="M783.076937,0.928459354 C773.235614,0.928459354 765.258963,8.9113667 765.258963,18.7627121 L765.258963,207.348243 L800.897213,207.348243 L800.897213,18.7627121 C800.894911,8.9113667 792.91826,0.928459354 783.076937,0.928459354 Z" id="Shape" fill="#ED864A" fill-rule="nonzero"></path>
                        <path d="M18.0412742,0.928459354 C8.19995134,0.928459354 0.223300191,8.9113667 0.223300191,18.7627121 L0.223300191,207.348243 L35.8615503,207.348243 L35.8615503,18.7627121 C35.8615503,8.9113667 27.8848991,0.928459354 18.0412742,0.928459354 Z" id="Shape" fill="#ED864A" fill-rule="nonzero"></path>
                    </g>
                    <path d="M532.978375,969.824281 C525.912679,969.824281 519.512993,965.654356 516.659982,959.188552 L463.344628,838.424391 C459.367005,829.409147 463.446027,818.877148 472.459053,814.893936 C481.474383,810.919944 492.001487,814.993055 495.983718,824.010604 L532.978375,907.812495 L569.97764,824.010604 C573.957568,814.993055 584.493889,810.915334 593.500001,814.896241 C602.515331,818.877148 606.592049,829.409147 602.612122,838.424391 L549.294463,959.188552 C546.443757,965.652051 540.041766,969.824281 532.978375,969.824281 Z" id="Shape" fill="#2C5871" fill-rule="nonzero"></path>
                    <g id="Group" stroke-width="1" fill="none" fill-rule="evenodd" transform="translate(288.402556, 696.501597)">
                        <path d="M110.011733,5.43712022 L246.461661,134.454206 L162.309976,163.056747 C141.692421,170.063749 118.872836,163.971404 104.518171,147.627094 L0.433035442,29.1101698 L90.8176671,0.992534465 C97.5504469,-1.1033612 104.891319,0.597255897 110.011733,5.43712022 Z" id="Shape" fill="#ED864A" fill-rule="nonzero"></path>
                        <path d="M382.91159,5.43712022 L246.461661,134.454206 L330.613347,163.056747 C351.230901,170.063749 374.050487,163.971404 388.405151,147.627094 L492.490287,29.1101698 L402.105656,0.992534465 C395.372876,-1.1033612 388.032004,0.597255897 382.91159,5.43712022 Z" id="Shape" fill="#ED864A" fill-rule="nonzero"></path>
                    </g>
                    <path d="M590.942492,1003.98704 C590.942492,972.993974 566.213138,947.800714 535.487048,947.214502 C503.788701,946.609827 477.84345,973.430171 477.84345,1005.26563 L477.84345,1114.3541 C477.84345,1118.85686 481.479647,1122.50799 485.963983,1122.50799 L530.538419,1122.50799 C535.022755,1122.50799 538.658951,1118.85686 538.658951,1114.3541 L538.658951,1060.5911 C567.895626,1058.39857 590.942492,1033.90461 590.942492,1003.98704 Z" id="Shape" fill="#FF4F6D" fill-rule="nonzero"></path>
                </g>
            </g>
        </g>
        <g id="teacher" transform="translate(2100.000000, 373.000000)">
            <mask id="mask-4" fill="white">
                <use xlink:href="#path-3"></use>
            </mask>
            <g id="Mask"></g>
            <g mask="url(#mask-4)">
                <g transform="translate(103.000000, 20.000000)">
                    <path d="M931,2001.16109 C931,2014.01216 931,2026.86322 931,2039.71429 C795,2094.79027 646.135135,2126 489.918919,2126 C333.702703,2126 183,2094.79027 47,2039.71429 C47,2026.86322 47,2015.84802 47,2002.99696 C47,1949.75684 52.5135135,1898.35258 59.8648649,1848.78419 L87.4324324,1826.7538 L94.7837838,1821.2462 L475.216216,1529.34347 L486.243243,1522 L500.945946,1533.0152 L883.216216,1824.91793 L888.72973,1828.58967 L916.297297,1848.78419 L916.297297,1850.62006 C925.486486,1898.35258 931,1949.75684 931,2001.16109 Z" id="Shape" fill="#FFFFFF" fill-rule="nonzero"></path>
                    <path d="M145.004428,698.77608 C137.657999,685.905293 141.331214,669.357138 148.677643,658.325035 C156.024072,645.454248 167.043715,636.260829 176.226751,625.228726 C198.266038,601.325836 214.795503,571.906894 211.122289,540.649269 C209.285682,524.101115 200.102645,509.391644 194.592824,492.843489 C189.083002,476.295335 185.409787,457.908496 194.592824,443.199025 C198.266038,439.521658 201.939253,435.84429 203.77586,430.328239 C227.651754,399.070613 212.958896,356.780885 211.122289,318.168524 C207.449074,253.81459 238.671398,193.138023 268.057113,136.138824 C288.259793,97.5264632 310.29908,55.2367348 347.031225,31.3338449 C369.070512,16.6243741 396.619621,9.26963876 422.332122,3.75358723 C492.123197,-7.27851582 567.424094,5.59227107 624.358919,47.8819994 C668.437493,80.9783086 699.659816,128.784088 719.862496,180.267236 C740.065175,231.750384 751.084819,286.910899 760.267855,340.23273 C765.777677,371.490356 769.450891,408.264032 751.084819,434.005606 C743.73839,445.037709 732.718746,452.392445 725.372317,463.424548 C716.189281,478.134018 712.516067,494.682173 708.842852,511.230328 C705.169638,527.778482 703.333031,546.165321 708.842852,562.713475 C718.025888,584.777681 740.065175,595.809784 756.594641,612.357939 C776.79732,632.583461 784.143749,662.002403 791.490178,689.58266 C795.163393,700.614763 797,713.48555 797,724.517653 C793.326786,753.936595 765.777677,772.323433 738.228568,783.355536 C644.561599,823.806581 541.711593,833 440.698194,833 C413.149086,833 385.599977,833 359.887476,823.806581 C319.482116,812.774478 286.423186,785.19422 253.364255,757.613962 C236.83479,744.743176 157.860679,720.840286 145.004428,698.77608 Z" id="Shape" fill="#324A5E" fill-rule="nonzero"></path>
                    <polygon id="Shape" fill="#F9B54C" fill-rule="nonzero" points="610.666667 571.875502 667.647619 617.859438 667.647619 805.473896 675 978.373494 500.380952 1017 289 948.943775 289 746.614458 325.761905 606.823293 364.361905 571.875502 487.514286 559"></polygon>
                    <path d="M303,948 C303,948 439.100503,997.626761 669,948 L560.487437,1431.40141 L303,1470 L303,948 Z" id="Shape" fill="#FFFFFF" fill-rule="nonzero"></path>
                    <path d="M55.0892891,767 C55.0892891,767 -88.664418,1167.60794 88.2632215,1831 L169.355056,1628.85838 C169.355056,1628.85838 128.809139,1173.1209 197,1077.56304 L152.76809,814.778929 L55.0892891,767 Z" id="Shape" fill="#FF7058" fill-rule="nonzero"></path>
                    <g id="Group" stroke-width="1" fill="none" fill-rule="evenodd" transform="translate(56.000000, 572.000000)">
                        <path d="M308.722067,0 C308.722067,0 226.028656,121.299155 0,194.813794 C0,194.813794 308.722067,586.279249 0,1269.9654 C0,1269.9654 124.958932,1477.64425 308.722067,1507.05011 C308.722067,1507.05011 426.330473,939.149519 463.0831,913.419395 L303.209173,672.658951 L246.242601,378.600393 L271.96944,91.8932993 L308.722067,0 Z" id="Shape" fill="#F1543F" fill-rule="nonzero"></path>
                        <path d="M863.686734,194.813794 C863.686734,194.813794 1007.02198,595.468579 830.60937,1258.9382 L749.75359,1056.77294 C749.75359,1056.77294 790.18148,600.982177 722.18912,505.413146 L766.292273,242.59831 L863.686734,194.813794 Z" id="Shape" fill="#F1543F" fill-rule="nonzero"></path>
                    </g>
                    <path d="M610.666667,572 C610.666667,572 693.52381,693.37561 920,766.936585 C920,766.936585 610.666667,1158.64878 920,1842.76585 C920,1842.76585 794.793651,2050.57561 610.666667,2080 C610.666667,2080 492.825397,1511.74146 456,1485.99512 L616.190476,1245.08293 L673.269841,950.839024 L647.492063,663.95122 L610.666667,572 Z" id="Shape" fill="#FF7058" fill-rule="nonzero"></path>
                    <path d="M502.315789,589.495413 L611,571.146789 C611,571.146789 563.105263,501.422018 561.263158,395 L502.315789,395 L474.684211,395 L415.736842,395 C413.894737,501.422018 366,571.146789 366,571.146789 L474.684211,589.495413 L474.684211,595 L489.421053,593.165138 L504.157895,595 L504.157895,589.495413 L502.315789,589.495413 Z" id="Shape" fill="#F9B54C" fill-rule="nonzero"></path>
                    <ellipse id="Oval" fill="#FFD05B" fill-rule="nonzero" cx="481.5" cy="355" rx="187.5" ry="265"></ellipse>
                    <g id="Group" stroke-width="1" fill="none" fill-rule="evenodd" transform="translate(264.000000, 37.000000)">
                        <path d="M180.28226,25.785945 C180.28226,25.785945 272.244816,271.942328 458.009178,341.747869 L389.956887,75.3846191 L237.299044,0.0681139792 L180.28226,25.785945 Z" id="Shape" fill="#324A5E" fill-rule="nonzero"></path>
                        <path d="M231.781291,27.6229329 C231.781291,27.6229329 95.6767091,227.854617 0.0356513759,273.779316 L25.7851669,119.472329 L115.908471,34.9708846 L231.781291,27.6229329 Z" id="Shape" fill="#324A5E" fill-rule="nonzero"></path>
                    </g>
                    <path d="M671.666667,687 C635,738.607843 563.5,775.470588 481,775.470588 C398.5,775.470588 327,740.45098 290.333333,687 L283,687 C319.666667,742.294118 394.833333,781 481,781 C567.166667,781 640.5,742.294118 679,687 L671.666667,687 Z" id="Shape" fill="#FFFFFF" fill-rule="nonzero"></path>
                    <path d="M500,781.428571 C500,790.714286 496.285714,826 487,826 C477.714286,826 474,790.714286 474,781.428571 L474,779.571429 C474,777.714286 474,775.857143 474,774 C475.857143,764.714286 479.571429,761 487,761 C492.571429,761 498.142857,762.857143 500,772.142857 C498.142857,772.142857 496.285714,772.142857 494.428571,772.142857 C492.571429,764.714286 490.714286,764.714286 487,764.714286 C483.285714,764.714286 481.428571,764.714286 479.571429,772.142857 C479.571429,774 479.571429,775.857143 479.571429,777.714286 L479.571429,779.571429 C479.571429,798.142857 485.142857,816.714286 487,818.571429 C490.714286,816.714286 494.428571,798.142857 494.428571,779.571429 L494.428571,777.714286 C496.285714,777.714286 498.142857,777.714286 500,777.714286 C500,779.571429 500,781.428571 500,781.428571 Z" id="Shape" fill="#324A5E" fill-rule="nonzero"></path>
                    <circle id="Oval" fill="#E6E9EE" fill-rule="nonzero" cx="487" cy="850" r="37"></circle>
                    <g id="Group" stroke-width="1" fill="none" fill-rule="evenodd" transform="translate(459.000000, 821.000000)">
                        <ellipse id="Oval" fill="#CED5E0" fill-rule="nonzero" cx="29.620572" cy="14.7705931" rx="3.69076876" ry="14.7705931"></ellipse>
                        <ellipse id="Oval" fill="#CED5E0" fill-rule="nonzero" cx="29.620572" cy="44.3117792" rx="3.69076876" ry="14.7705931"></ellipse>
                        <ellipse id="Oval" fill="#CED5E0" fill-rule="nonzero" cx="46.2290314" cy="29.5411861" rx="14.763075" ry="3.69264826"></ellipse>
                        <ellipse id="Oval" fill="#CED5E0" fill-rule="nonzero" cx="14.857497" cy="29.5411861" rx="14.763075" ry="3.69264826"></ellipse>
                        <ellipse id="Oval" fill="#CED5E0" fill-rule="nonzero" transform="translate(40.909835, 18.322196) rotate(-45.008103) translate(-40.909835, -18.322196) " cx="40.9098346" cy="18.322196" rx="14.7629336" ry="3.69261289"></ellipse>
                        <ellipse id="Oval" fill="#CED5E0" fill-rule="nonzero" transform="translate(18.635562, 40.112553) rotate(-45.008103) translate(-18.635562, -40.112553) " cx="18.6355617" cy="40.1125531" rx="14.7629336" ry="3.69261289"></ellipse>
                        <ellipse id="Oval" fill="#CED5E0" fill-rule="nonzero" transform="translate(41.143000, 40.269735) rotate(45.000000) translate(-41.143000, -40.269735) " cx="41.1429998" cy="40.2697353" rx="14.7629335" ry="3.69261285"></ellipse>
                        <ellipse id="Oval" fill="#CED5E0" fill-rule="nonzero" transform="translate(20.042968, 18.628145) rotate(45.008103) translate(-20.042968, -18.628145) " cx="20.042968" cy="18.6281448" rx="14.7629336" ry="3.69261289"></ellipse>
                    </g>
                    <path d="M363.92,572 C363.92,572 233.685714,1037.27565 518,1486 C518,1486 252.028571,1331.52113 197,829.464789 L285.045714,816.591549 L224.514286,776.132797 C226.348571,776.132797 220.845714,616.136821 363.92,572 Z" id="Shape" fill="#FF7058" fill-rule="nonzero"></path>
                    <path d="M610.08,572 C610.08,572 740.314286,1037.27565 456,1486 C456,1486 721.971429,1331.52113 777,829.464789 L688.954286,816.591549 L749.485714,776.132797 C747.651429,776.132797 753.154286,616.136821 610.08,572 Z" id="Shape" fill="#F1543F" fill-rule="nonzero"></path>
                </g>
            </g>
        </g>
        <g id="nurse" transform="translate(246.000000, 297.000000)" fill-rule="nonzero">
            <path d="M156.000819,170.382807 C156.000819,170.382807 -60.708088,593.293346 183.469877,877.273338 L597.048778,852.84558 C597.048778,852.84558 726.766579,704.751302 659.622353,318.477085" id="Shape" fill="#3A3A3A"></path>
            <path d="M658.856364,318.513467 L373.915612,234.573539 L373.915612,866.178643 L596.385034,853.015608 C596.385034,853.015608 725.904522,704.884291 658.856364,318.513467 Z" id="Shape" fill="#333333"></path>
            <rect id="Rectangle-path" fill="#FCD088" x="262.216245" y="599.905977" width="226.567511" height="277.367361"></rect>
            <rect id="Rectangle-path" fill="#DDAB62" x="373.915612" y="599.905977" width="114.868143" height="277.367361"></rect>
            <path d="M618.452007,365.827528 C619.670342,354.550457 620.304725,343.432816 620.304725,332.588865 C620.304725,189.17024 510.699728,72.9079919 375.499084,72.9079919 C240.298441,72.9079919 130.693443,189.17024 130.693443,332.588865 C130.693443,343.430159 131.330481,354.5478 132.546161,365.827528 C108.803234,372.008129 97.5037766,408.573581 107.314158,447.71384 C117.156391,486.97633 144.511853,513.933419 168.411386,507.928193 C170.590586,507.383471 172.621144,506.49863 174.585343,505.464987 C218.82496,594.352968 292.307264,666.474144 375.499084,666.474144 C458.690905,666.474144 532.175862,594.360939 576.412825,505.464987 C578.377025,506.501287 580.407582,507.383471 582.586782,507.928193 C606.486315,513.933419 633.839123,486.97633 643.68401,447.71384 C653.497046,408.573581 642.200243,372.000157 618.452007,365.827528 Z" id="Shape" fill="#FFEDB5"></path>
            <path d="M618.445701,365.82884 C619.664303,354.551718 620.298825,343.434027 620.298825,332.590028 C620.298825,189.17076 510.669804,72.9079919 375.439528,72.9079919 C374.927131,72.9079919 374.428009,72.9451926 373.915612,72.950507 L373.915612,666.431629 C374.422699,666.436943 374.927131,666.474144 375.439528,666.474144 C458.649582,666.474144 532.150646,594.360617 576.397305,505.464266 C578.361935,506.500571 580.392938,507.382759 582.572615,507.927483 C606.477386,513.932737 633.83619,486.975526 643.683235,447.712861 C653.498421,408.575083 642.199143,372.001496 618.445701,365.82884 Z" id="Shape" fill="#E8CF89"></path>
            <path d="M269.345992,819.422431 C269.345992,819.422431 361.61697,884.277958 493.53692,819.422431 L374.576735,1126.90396 L269.345992,819.422431 Z" id="Shape" fill="#FF6262"></path>
            <path d="M493.53692,819.422431 C448.283475,841.688885 407.702552,848.662254 373.915612,848.226751 L373.915612,1124.67333 L374.679338,1126.90396 L493.53692,819.422431 Z" id="Shape" fill="#FF0F27"></path>
            <path d="M645.817339,781.736969 L525.698141,757.732205 L504.468759,726.768077 C500.494891,720.971261 492.974823,718.786838 486.514631,721.552535 L375.498672,1093.82014 L265.146795,721.597657 C258.73176,718.802763 251.230287,720.902251 247.205949,726.622095 L225.299203,757.726897 L105.180004,781.731661 C44.023341,793.954343 0,847.612051 0,909.930479 L0,1067.04437 C107.607889,1138.39776 236.684229,1180 375.503984,1180 C514.318427,1180 643.394767,1138.40307 751,1067.04968 L751,909.933133 C751,847.61736 706.979315,793.959652 645.817339,781.736969 Z" id="Shape" fill="#D9EDEC"></path>
            <path d="M645.802983,781.737324 L525.664355,757.732421 L504.431539,726.768114 C500.457028,720.971264 492.935744,718.786829 486.474507,721.552542 L375.440591,1093.82229 L373.915612,1088.689 L373.915612,1179.97346 C374.423053,1179.97346 374.93315,1180 375.440591,1180 C514.277487,1180 643.374705,1138.40283 751,1067.04902 L751,909.934227 C751.002657,847.618095 706.974852,793.960077 645.802983,781.737324 Z" id="Shape" fill="#BDD1CF"></path>
            <path d="M314.242247,204.140752 C314.242247,204.140752 399.661795,315.634509 521.685928,372.146863 C643.710061,428.659218 556.769525,573.754197 556.769525,573.754197 C556.769525,573.754197 817.60175,254.542585 506.433575,94.1726317 C230.31449,-48.1342062 66.3742575,263.707038 143.405807,409.564836 C143.408462,409.570152 191.456293,271.345854 314.242247,204.140752 Z" id="Shape" fill="#3A3A3A"></path>
            <path d="M506.532516,94.0737204 C458.738649,69.4624842 414.313724,58.4719602 373.915612,57.8509066 L373.915612,268.035058 C410.408936,302.633578 461.630103,343.811549 521.774984,371.644832 C643.72269,428.073118 556.835845,572.961719 556.835845,572.961719 C556.835845,572.961719 817.499034,254.212636 506.532516,94.0737204 Z" id="Shape" fill="#333333"></path>
            <path d="M569.778251,252.008059 C462.261042,132.125477 287.94411,132.125477 180.4269,252.008059 C146.16294,213.803166 111.898981,175.600926 77.6350211,137.390725 C241.922571,-45.7969084 508.285235,-45.7969084 672.572785,137.390725 C638.306171,175.595619 604.042211,213.800512 569.778251,252.008059 Z" id="Shape" fill="#D9EDEC"></path>
            <path d="M373.915612,0.0030742184 L373.915612,162.131209 C444.803865,161.695944 515.808794,191.633662 569.895792,252.008059 C604.121456,213.800312 638.34712,175.589912 672.572785,137.382165 C590.133668,45.3528776 481.962325,-0.432190471 373.915612,0.0030742184 Z" id="Shape" fill="#BDD1CF"></path>
        </g>
    </g>
</svg>