<?xml version="1.0" encoding="UTF-8" standalone="no"?>
<svg
   xmlns:dc="http://purl.org/dc/elements/1.1/"
   xmlns:cc="http://creativecommons.org/ns#"
   xmlns:rdf="http://www.w3.org/1999/02/22-rdf-syntax-ns#"
   xmlns:svg="http://www.w3.org/2000/svg"
   xmlns="http://www.w3.org/2000/svg"
   viewBox="0 0 1600 1066.6667"
   height="1066.6667"
   width="1600"
   xml:space="preserve"
   id="svg2"
   version="1.1"><metadata
     id="metadata8"><rdf:RDF><cc:Work
         rdf:about=""><dc:format>image/svg+xml</dc:format><dc:type
           rdf:resource="http://purl.org/dc/dcmitype/StillImage" /></cc:Work></rdf:RDF></metadata><defs
     id="defs6"><linearGradient
       id="linearGradient20"
       spreadMethod="pad"
       gradientTransform="matrix(3e-7,5759.79,5759.79,-3e-7,6000,2919.15)"
       gradientUnits="userSpaceOnUse"
       y2="0"
       x2="1"
       y1="0"
       x1="0"><stop
         id="stop14"
         offset="0"
         style="stop-opacity:1;stop-color:#fff8e9" /><stop
         id="stop16"
         offset="0.437494"
         style="stop-opacity:1;stop-color:#b4e6e9" /><stop
         id="stop18"
         offset="1"
         style="stop-opacity:1;stop-color:#2d5965" /></linearGradient><clipPath
       id="clipPath30"
       clipPathUnits="userSpaceOnUse"><path
         id="path28"
         d="M 0,2957.91 H 12000 V 0 H 0 Z" /></clipPath><linearGradient
       id="linearGradient38"
       spreadMethod="pad"
       gradientTransform="matrix(4e-7,7844.18,7844.18,-4e-7,6000,-883.25)"
       gradientUnits="userSpaceOnUse"
       y2="0"
       x2="1"
       y1="0"
       x1="0"><stop
         id="stop32"
         offset="0"
         style="stop-opacity:1;stop-color:#2f4441" /><stop
         id="stop34"
         offset="0.395238"
         style="stop-opacity:1;stop-color:#f2ab89" /><stop
         id="stop36"
         offset="1"
         style="stop-opacity:1;stop-color:#fce2ce" /></linearGradient><clipPath
       id="clipPath48"
       clipPathUnits="userSpaceOnUse"><path
         id="path46"
         d="M 4740,0 H 640 l 8938.32,2957.91 h 218.76 z" /></clipPath><linearGradient
       id="linearGradient56"
       spreadMethod="pad"
       gradientTransform="matrix(-324.743,-5895.74,-5895.74,-3e-7,5301.22,2980)"
       gradientUnits="userSpaceOnUse"
       y2="0"
       x2="1"
       y1="0"
       x1="0"><stop
         id="stop50"
         offset="0"
         style="stop-opacity:1;stop-color:#fce2ce" /><stop
         id="stop52"
         offset="0.658652"
         style="stop-opacity:1;stop-color:#f2ab89" /><stop
         id="stop54"
         offset="1"
         style="stop-opacity:1;stop-color:#2f4441" /></linearGradient><clipPath
       id="clipPath66"
       clipPathUnits="userSpaceOnUse"><path
         id="path64"
         d="M 196.668,2838.91 H 8210.06 L 4020.99,4320.03 Z" /></clipPath><linearGradient
       id="linearGradient74"
       spreadMethod="pad"
       gradientTransform="matrix(-1276.15,-8855.25,-8855.25,1276.15,5242.56,10049.9)"
       gradientUnits="userSpaceOnUse"
       y2="0"
       x2="1"
       y1="0"
       x1="0"><stop
         id="stop68"
         offset="0"
         style="stop-opacity:1;stop-color:#fce2ce" /><stop
         id="stop70"
         offset="0.604762"
         style="stop-opacity:1;stop-color:#f2ab89" /><stop
         id="stop72"
         offset="1"
         style="stop-opacity:1;stop-color:#2f4441" /></linearGradient><clipPath
       id="clipPath84"
       clipPathUnits="userSpaceOnUse"><path
         id="path82"
         d="M 0,5799.91 V 2566.32 h 6806.86 z" /></clipPath><linearGradient
       id="linearGradient92"
       spreadMethod="pad"
       gradientTransform="matrix(-2030.53,-14089.9,-14089.9,2030.53,4876.73,14406.4)"
       gradientUnits="userSpaceOnUse"
       y2="0"
       x2="1"
       y1="0"
       x1="0"><stop
         id="stop86"
         offset="0"
         style="stop-opacity:1;stop-color:#fce2ce" /><stop
         id="stop88"
         offset="0.604762"
         style="stop-opacity:1;stop-color:#f2ab89" /><stop
         id="stop90"
         offset="1"
         style="stop-opacity:1;stop-color:#2f4441" /></linearGradient><clipPath
       id="clipPath102"
       clipPathUnits="userSpaceOnUse"><path
         id="path100"
         d="M 0,5799.91 5224.58,3619.07 5409.53,3648.02 7760,2735 6806.86,2566.32 Z" /></clipPath><linearGradient
       id="linearGradient110"
       spreadMethod="pad"
       gradientTransform="matrix(-3332.64,-6220.92,-6220.92,3332.64,5111.74,6566.7)"
       gradientUnits="userSpaceOnUse"
       y2="0"
       x2="1"
       y1="0"
       x1="0"><stop
         id="stop104"
         offset="0"
         style="stop-opacity:1;stop-color:#fce2ce" /><stop
         id="stop106"
         offset="0.604762"
         style="stop-opacity:1;stop-color:#f2ab89" /><stop
         id="stop108"
         offset="1"
         style="stop-opacity:1;stop-color:#2f4441" /></linearGradient><clipPath
       id="clipPath120"
       clipPathUnits="userSpaceOnUse"><path
         id="path118"
         d="m 4020.99,4320.03 5068.95,-1362.12 -879.88,-119 z" /></clipPath><linearGradient
       id="linearGradient128"
       spreadMethod="pad"
       gradientTransform="matrix(-4129.49,-7708.37,-7708.37,4129.49,7852.74,6060.54)"
       gradientUnits="userSpaceOnUse"
       y2="0"
       x2="1"
       y1="0"
       x1="0"><stop
         id="stop122"
         offset="0"
         style="stop-opacity:1;stop-color:#fce2ce" /><stop
         id="stop124"
         offset="0.604762"
         style="stop-opacity:1;stop-color:#f2ab89" /><stop
         id="stop126"
         offset="1"
         style="stop-opacity:1;stop-color:#2f4441" /></linearGradient><clipPath
       id="clipPath138"
       clipPathUnits="userSpaceOnUse"><path
         id="path136"
         d="M 12000,4454.2 V 1326.76 H 8213.14 Z" /></clipPath><linearGradient
       id="linearGradient146"
       spreadMethod="pad"
       gradientTransform="matrix(1963.87,-13627.4,13627.4,1963.87,8708.27,12593.3)"
       gradientUnits="userSpaceOnUse"
       y2="0"
       x2="1"
       y1="0"
       x1="0"><stop
         id="stop140"
         offset="0"
         style="stop-opacity:1;stop-color:#fce2ce" /><stop
         id="stop142"
         offset="0.604762"
         style="stop-opacity:1;stop-color:#f2ab89" /><stop
         id="stop144"
         offset="1"
         style="stop-opacity:1;stop-color:#2f4441" /></linearGradient><clipPath
       id="clipPath156"
       clipPathUnits="userSpaceOnUse"><path
         id="path154"
         d="M 12000,2835.78 V 0 H 6970 l 2535.45,1863.59 353.97,-348.5 z" /></clipPath><linearGradient
       id="linearGradient164"
       spreadMethod="pad"
       gradientTransform="matrix(1780.72,-12356.5,12356.5,1780.72,7981.43,11851.2)"
       gradientUnits="userSpaceOnUse"
       y2="0"
       x2="1"
       y1="0"
       x1="0"><stop
         id="stop158"
         offset="0"
         style="stop-opacity:1;stop-color:#fce2ce" /><stop
         id="stop160"
         offset="0.604762"
         style="stop-opacity:1;stop-color:#f2ab89" /><stop
         id="stop162"
         offset="1"
         style="stop-opacity:1;stop-color:#2f4441" /></linearGradient><clipPath
       id="clipPath174"
       clipPathUnits="userSpaceOnUse"><path
         id="path172"
         d="m 9505.45,1863.59 353.97,-348.5 473.18,291.95 z" /></clipPath><linearGradient
       id="linearGradient182"
       spreadMethod="pad"
       gradientTransform="matrix(1641.96,-3064.99,3064.99,1641.96,9216.91,3145.96)"
       gradientUnits="userSpaceOnUse"
       y2="0"
       x2="1"
       y1="0"
       x1="0"><stop
         id="stop176"
         offset="0"
         style="stop-opacity:1;stop-color:#fce2ce" /><stop
         id="stop178"
         offset="0.291146"
         style="stop-opacity:1;stop-color:#f2ab89" /><stop
         id="stop180"
         offset="1"
         style="stop-opacity:1;stop-color:#2f4441" /></linearGradient><clipPath
       id="clipPath192"
       clipPathUnits="userSpaceOnUse"><path
         id="path190"
         d="M 0,5799.91 V 2566.32 h 6806.86 z" /></clipPath><linearGradient
       id="linearGradient200"
       spreadMethod="pad"
       gradientTransform="matrix(-2030.53,-14089.9,-14089.9,2030.53,4941.5,14855.8)"
       gradientUnits="userSpaceOnUse"
       y2="0"
       x2="1"
       y1="0"
       x1="0"><stop
         id="stop194"
         offset="0"
         style="stop-opacity:1;stop-color:#fce2ce" /><stop
         id="stop196"
         offset="0.604762"
         style="stop-opacity:1;stop-color:#f2ab89" /><stop
         id="stop198"
         offset="1"
         style="stop-opacity:1;stop-color:#2f4441" /></linearGradient><clipPath
       id="clipPath210"
       clipPathUnits="userSpaceOnUse"><path
         id="path208"
         d="m 0,3189.18 v 440.55 L 1719.88,3074.22 2155,3584.73 5074.69,2176.36 3072.04,1725.51 Z" /></clipPath><linearGradient
       id="linearGradient218"
       spreadMethod="pad"
       gradientTransform="matrix(-5204.66,-9715.37,-9715.37,5204.66,4905.79,7324.14)"
       gradientUnits="userSpaceOnUse"
       y2="0"
       x2="1"
       y1="0"
       x1="0"><stop
         id="stop212"
         offset="0"
         style="stop-opacity:1;stop-color:#fce2ce" /><stop
         id="stop214"
         offset="0.604762"
         style="stop-opacity:1;stop-color:#f2ab89" /><stop
         id="stop216"
         offset="1"
         style="stop-opacity:1;stop-color:#2f4441" /></linearGradient><clipPath
       id="clipPath228"
       clipPathUnits="userSpaceOnUse"><path
         id="path226"
         d="M 0,3189.18 V 1725.51 h 3072.04 z" /></clipPath><linearGradient
       id="linearGradient236"
       spreadMethod="pad"
       gradientTransform="matrix(-1059.09,-7349.04,-7349.04,1059.09,2157.4,6769.07)"
       gradientUnits="userSpaceOnUse"
       y2="0"
       x2="1"
       y1="0"
       x1="0"><stop
         id="stop230"
         offset="0"
         style="stop-opacity:1;stop-color:#fce2ce" /><stop
         id="stop232"
         offset="0.291146"
         style="stop-opacity:1;stop-color:#f2ab89" /><stop
         id="stop234"
         offset="1"
         style="stop-opacity:1;stop-color:#2f4441" /></linearGradient><clipPath
       id="clipPath246"
       clipPathUnits="userSpaceOnUse"><path
         id="path244"
         d="M 2155,3584.73 1719.88,3074.22 812.59,3367.26 Z" /></clipPath><linearGradient
       id="linearGradient254"
       spreadMethod="pad"
       gradientTransform="matrix(-2857.8,-5334.56,-5334.56,2857.8,2719.77,5783.15)"
       gradientUnits="userSpaceOnUse"
       y2="0"
       x2="1"
       y1="0"
       x1="0"><stop
         id="stop248"
         offset="0"
         style="stop-opacity:1;stop-color:#fce2ce" /><stop
         id="stop250"
         offset="0.291146"
         style="stop-opacity:1;stop-color:#f2ab89" /><stop
         id="stop252"
         offset="1"
         style="stop-opacity:1;stop-color:#2f4441" /></linearGradient><clipPath
       id="clipPath264"
       clipPathUnits="userSpaceOnUse"><path
         id="path262"
         d="M 5715.92,1130.14 5569.73,1168.03 2420.27,0 h 895 z" /></clipPath><linearGradient
       id="linearGradient272"
       spreadMethod="pad"
       gradientTransform="matrix(10627.4,5974.47,6395.34,-10859,-3153.83,-3494.9)"
       gradientUnits="userSpaceOnUse"
       y2="0"
       x2="1"
       y1="0"
       x1="0"><stop
         id="stop266"
         offset="0"
         style="stop-opacity:1;stop-color:#fce2ce" /><stop
         id="stop268"
         offset="0.493571"
         style="stop-opacity:1;stop-color:#f2ab89" /><stop
         id="stop270"
         offset="1"
         style="stop-opacity:1;stop-color:#2f4441" /></linearGradient><clipPath
       id="clipPath282"
       clipPathUnits="userSpaceOnUse"><path
         id="path280"
         d="m 5672.66,1487.07 c -7.51,-15.93 -14.5,-32.25 -22.5,-45.92 -3.31,-5.66 -7.08,-11.63 -10.86,-17.8 4.83,25.91 3.23,53.86 3.85,79.49 0.4,16.8 4.32,38.05 4.22,57.96 0.65,5.74 1.11,11.46 1.28,17.13 0.29,0.09 0.56,0.25 0.86,0.3 5.08,-8.21 11.26,-15.93 16.13,-22.82 3.68,-16.14 7.46,-32.24 14.14,-47.06 -2.22,-6.55 -4.62,-13.7 -7.12,-21.28 z m 181.13,236.97 c 1.57,8.35 5.18,11.07 4.91,18.37 -0.71,19.46 -5.84,46.56 -10.58,66.74 -0.63,6.95 -1.65,13.98 -3.04,21.04 -1.72,22.56 -7.29,45.62 -10.84,63.93 -4.79,24.69 -8.39,50.84 -13.32,76.65 0.43,31.85 -3.45,64.18 -8.18,93.97 -0.41,9.3 -17.74,70.26 -38.57,91.09 -12.53,12.53 -67.34,41.62 -81.95,51.35 -8.74,5.83 -8.66,29.94 -8.54,31.63 8.54,0.48 22.02,2.21 23.85,7.68 4.11,12.31 5.48,25.93 7.5,38.71 1.72,10.92 1.73,16.76 -2.4,24.9 -0.02,2.95 4.21,10.16 3.9,14.11 -0.7,6.76 0.3,3.58 -2.16,20.87 -0.41,2.9 -2.46,6.92 -4.05,11.59 0.45,1.1 0.84,2.16 1.1,3.07 1.46,5.18 0.92,9.4 -1.2,13.11 2.16,5.89 2.38,13.96 -1.45,18.47 -0.05,0.07 -0.13,0.1 -0.19,0.16 0.49,1.06 0.91,2.17 1.08,3.41 0.06,0.45 -0.34,0.94 -0.83,0.75 -1.84,-0.73 -3.59,-1.39 -5.29,-1.98 -11.67,6.97 -35.13,8.4 -52.6,2.52 -5.06,-0.55 -9.87,-1.95 -13.47,-5.09 -4.6,-0.63 -8.9,-1.8 -12.12,-3.14 -6.02,-2.5 -17.08,-8.93 -17.08,-16.73 -0.64,-0.87 -1.3,-1.72 -1.96,-2.58 -10.67,2.02 -18.66,-10.1 -23.45,-18.43 -7.14,-12.45 -12.2,-33.55 -6.78,-47.23 0.61,-1.54 1.57,-2.68 2.65,-3.64 -0.03,-0.29 -0.09,-0.58 -0.12,-0.88 6.02,-19.87 13.53,-35.58 10.45,-56.88 -5.31,-36.71 -51.45,-36.49 -83.28,-47.99 -4.12,-1.98 -8.16,-3.99 -12.26,-5.98 -0.18,-0.12 -0.3,-0.28 -0.49,-0.39 -2.25,-1.35 -4.22,-2.47 -6.52,-3.03 -2.73,-1.35 -5.51,-2.66 -8.23,-4.02 -0.53,-0.64 -1.01,-1.3 -1.5,-1.96 -1.35,-0.66 -2.62,-1.6 -3.74,-2.89 -34.36,-39.72 -37.15,-110.09 -47.51,-159.21 -6.4,-30.34 -4.05,-61.99 11.22,-89.36 15.81,-28.33 39.82,-76.95 58.71,-103.21 0,0 2.7,-24.64 12.9,-75.43 4.44,-22.08 -10.2,-32.49 0,-104.5 6.61,-40.81 22.39,-83.79 24.65,-135.3 1.42,-32.41 2.57,-66.88 -0.64,-100.48 -1.15,-82.08 -11.59,-163.27 -23.04,-244.39 0.24,-0.52 0.43,-1.06 0.69,-1.56 2.12,-4.08 4.78,-7.44 7.78,-10.29 -1.93,-9.71 -3.89,-12.7 6.23,-19.13 8.8,-5.6 23.94,-10.21 26,-10.58 4.69,-0.84 14.29,-0.79 19.35,-1.24 -0.98,-3.47 -2.85,-11.96 -1.53,-15.46 1.66,-4.44 23.72,-10.67 39.45,-8.28 20.71,3.15 24.63,-0.89 44.11,11.7 15.73,4.32 37.34,14.96 51.77,18.01 31.95,6.75 32.67,29.93 32.67,29.93 1.37,7.78 -2.28,8.6 -20.28,10.4 -29.61,2.96 -43.9,8.28 -41.63,15.02 32.65,96.97 66.4,187.83 108.44,281.17 8.29,24.24 16.87,48.44 24.65,72.78 -4.19,23.63 -9.65,47.03 -16.69,70.08 -7.73,25.31 -21.94,53.16 -27.64,80.88 0.19,10.05 -1.42,20.65 -1.93,28.86 -0.5,8.15 -7.17,29.87 -7.85,33.66 -8,44.59 -6.52,91.42 -2.96,137.66 9.96,-45.04 32.52,-88.62 42.52,-132.97 8.83,-39.13 11.76,-40.48 19.64,-42.28 -3.11,-8.96 -2.24,-30.33 -3.06,-38.13 -6.18,-3.57 -13.37,-8.23 -13.3,-15.39 0.01,-0.34 0.35,-0.7 0.71,-0.64 2.07,0.35 4.15,0.91 6.22,1.56 -2.67,-4.07 -4.88,-7.66 -3.59,-11.38 6.12,1.95 12.38,6.34 17.8,10.28 9.31,4.58 16.72,11 25.57,17.22 6,4.23 8.98,12.93 9.35,21.12 2.51,9.17 2.87,19.28 1.97,27.6 z" /></clipPath><linearGradient
       id="linearGradient290"
       spreadMethod="pad"
       gradientTransform="matrix(650,5310,5310,-650,5246.99,-1347.22)"
       gradientUnits="userSpaceOnUse"
       y2="0"
       x2="1"
       y1="0"
       x1="0"><stop
         id="stop284"
         offset="0"
         style="stop-opacity:1;stop-color:#fce2ce" /><stop
         id="stop286"
         offset="0.291146"
         style="stop-opacity:1;stop-color:#436062" /><stop
         id="stop288"
         offset="1"
         style="stop-opacity:1;stop-color:#41454d" /></linearGradient></defs><g
     transform="matrix(1.3333333,0,0,-1.3333333,0,1066.6667)"
     id="g10"><g
       transform="scale(0.1)"
       id="g12"><path
         id="path22"
         style="fill:url(#linearGradient20);fill-opacity:1;fill-rule:nonzero;stroke:none"
         d="M 12000,8000 H 0 V 0 h 12000 v 8000" /><g
         id="g24"><g
           clip-path="url(#clipPath30)"
           id="g26"><path
             id="path40"
             style="fill:url(#linearGradient38);fill-opacity:1;fill-rule:nonzero;stroke:none"
             d="M 0,2957.91 H 12000 V 0 H 0 v 2957.91" /></g></g><g
         id="g42"><g
           clip-path="url(#clipPath48)"
           id="g44"><path
             id="path58"
             style="fill:url(#linearGradient56);fill-opacity:1;fill-rule:nonzero;stroke:none"
             d="M 4740,0 H 640 l 8938.32,2957.91 h 218.76 L 4740,0" /></g></g><g
         id="g60"><g
           clip-path="url(#clipPath66)"
           id="g62"><path
             id="path76"
             style="fill:url(#linearGradient74);fill-opacity:1;fill-rule:nonzero;stroke:none"
             d="M 196.668,2838.91 H 8210.06 L 4020.99,4320.03 Z" /></g></g><g
         id="g78"><g
           clip-path="url(#clipPath84)"
           id="g80"><path
             id="path94"
             style="fill:url(#linearGradient92);fill-opacity:1;fill-rule:nonzero;stroke:none"
             d="M 0,5799.91 V 2566.32 h 6806.86 z" /></g></g><g
         id="g96"><g
           clip-path="url(#clipPath102)"
           id="g98"><path
             id="path112"
             style="fill:url(#linearGradient110);fill-opacity:1;fill-rule:nonzero;stroke:none"
             d="M 0,5799.91 5224.58,3619.07 5409.53,3648.02 7760,2735 6806.86,2566.32 0,5799.91" /></g></g><g
         id="g114"><g
           clip-path="url(#clipPath120)"
           id="g116"><path
             id="path130"
             style="fill:url(#linearGradient128);fill-opacity:1;fill-rule:nonzero;stroke:none"
             d="m 4020.99,4320.03 5068.95,-1362.12 -879.88,-119 z" /></g></g><g
         id="g132"><g
           clip-path="url(#clipPath138)"
           id="g134"><path
             id="path148"
             style="fill:url(#linearGradient146);fill-opacity:1;fill-rule:nonzero;stroke:none"
             d="M 12000,4454.2 V 1326.76 H 8213.14 Z" /></g></g><g
         id="g150"><g
           clip-path="url(#clipPath156)"
           id="g152"><path
             id="path166"
             style="fill:url(#linearGradient164);fill-opacity:1;fill-rule:nonzero;stroke:none"
             d="M 12000,2835.78 V 0 H 6970 l 2535.45,1863.59 353.97,-348.5 2140.58,1320.69" /></g></g><g
         id="g168"><g
           clip-path="url(#clipPath174)"
           id="g170"><path
             id="path184"
             style="fill:url(#linearGradient182);fill-opacity:1;fill-rule:nonzero;stroke:none"
             d="m 9505.45,1863.59 353.97,-348.5 473.18,291.95 z" /></g></g><g
         id="g186"><g
           clip-path="url(#clipPath192)"
           id="g188"><path
             id="path202"
             style="fill:url(#linearGradient200);fill-opacity:1;fill-rule:nonzero;stroke:none"
             d="M 0,5799.91 V 2566.32 h 6806.86 z" /></g></g><g
         id="g204"><g
           clip-path="url(#clipPath210)"
           id="g206"><path
             id="path220"
             style="fill:url(#linearGradient218);fill-opacity:1;fill-rule:nonzero;stroke:none"
             d="m 0,3189.18 v 440.55 L 1719.88,3074.22 2155,3584.73 5074.69,2176.36 3072.04,1725.51 0,3189.18" /></g></g><g
         id="g222"><g
           clip-path="url(#clipPath228)"
           id="g224"><path
             id="path238"
             style="fill:url(#linearGradient236);fill-opacity:1;fill-rule:nonzero;stroke:none"
             d="M 0,3189.18 V 1725.51 h 3072.04 z" /></g></g><g
         id="g240"><g
           clip-path="url(#clipPath246)"
           id="g242"><path
             id="path256"
             style="fill:url(#linearGradient254);fill-opacity:1;fill-rule:nonzero;stroke:none"
             d="M 2155,3584.73 1719.88,3074.22 812.59,3367.26 Z" /></g></g><g
         id="g258"><g
           clip-path="url(#clipPath264)"
           id="g260"><path
             id="path274"
             style="fill:url(#linearGradient272);fill-opacity:1;fill-rule:nonzero;stroke:none"
             d="M 5715.92,1130.14 5569.73,1168.03 2420.27,0 h 895 l 2400.65,1130.14" /></g></g><g
         id="g276"><g
           clip-path="url(#clipPath282)"
           id="g278"><path
             id="path292"
             style="fill:url(#linearGradient290);fill-opacity:1;fill-rule:nonzero;stroke:none"
             d="m 5672.66,1487.07 c -7.51,-15.93 -14.5,-32.25 -22.5,-45.92 -3.31,-5.66 -7.08,-11.63 -10.86,-17.8 4.83,25.91 3.23,53.86 3.85,79.49 0.4,16.8 4.32,38.05 4.22,57.96 0.65,5.74 1.11,11.46 1.28,17.13 0.29,0.09 0.56,0.25 0.86,0.3 5.08,-8.21 11.26,-15.93 16.13,-22.82 3.68,-16.14 7.46,-32.24 14.14,-47.06 -2.22,-6.55 -4.62,-13.7 -7.12,-21.28 z m 181.13,236.97 c 1.57,8.35 5.18,11.07 4.91,18.37 -0.71,19.46 -5.84,46.56 -10.58,66.74 -0.63,6.95 -1.65,13.98 -3.04,21.04 -1.72,22.56 -7.29,45.62 -10.84,63.93 -4.79,24.69 -8.39,50.84 -13.32,76.65 0.43,31.85 -3.45,64.18 -8.18,93.97 -0.41,9.3 -17.74,70.26 -38.57,91.09 -12.53,12.53 -67.34,41.62 -81.95,51.35 -8.74,5.83 -8.66,29.94 -8.54,31.63 8.54,0.48 22.02,2.21 23.85,7.68 4.11,12.31 5.48,25.93 7.5,38.71 1.72,10.92 1.73,16.76 -2.4,24.9 -0.02,2.95 4.21,10.16 3.9,14.11 -0.7,6.76 0.3,3.58 -2.16,20.87 -0.41,2.9 -2.46,6.92 -4.05,11.59 0.45,1.1 0.84,2.16 1.1,3.07 1.46,5.18 0.92,9.4 -1.2,13.11 2.16,5.89 2.38,13.96 -1.45,18.47 -0.05,0.07 -0.13,0.1 -0.19,0.16 0.49,1.06 0.91,2.17 1.08,3.41 0.06,0.45 -0.34,0.94 -0.83,0.75 -1.84,-0.73 -3.59,-1.39 -5.29,-1.98 -11.67,6.97 -35.13,8.4 -52.6,2.52 -5.06,-0.55 -9.87,-1.95 -13.47,-5.09 -4.6,-0.63 -8.9,-1.8 -12.12,-3.14 -6.02,-2.5 -17.08,-8.93 -17.08,-16.73 -0.64,-0.87 -1.3,-1.72 -1.96,-2.58 -10.67,2.02 -18.66,-10.1 -23.45,-18.43 -7.14,-12.45 -12.2,-33.55 -6.78,-47.23 0.61,-1.54 1.57,-2.68 2.65,-3.64 -0.03,-0.29 -0.09,-0.58 -0.12,-0.88 6.02,-19.87 13.53,-35.58 10.45,-56.88 -5.31,-36.71 -51.45,-36.49 -83.28,-47.99 -4.12,-1.98 -8.16,-3.99 -12.26,-5.98 -0.18,-0.12 -0.3,-0.28 -0.49,-0.39 -2.25,-1.35 -4.22,-2.47 -6.52,-3.03 -2.73,-1.35 -5.51,-2.66 -8.23,-4.02 -0.53,-0.64 -1.01,-1.3 -1.5,-1.96 -1.35,-0.66 -2.62,-1.6 -3.74,-2.89 -34.36,-39.72 -37.15,-110.09 -47.51,-159.21 -6.4,-30.34 -4.05,-61.99 11.22,-89.36 15.81,-28.33 39.82,-76.95 58.71,-103.21 0,0 2.7,-24.64 12.9,-75.43 4.44,-22.08 -10.2,-32.49 0,-104.5 6.61,-40.81 22.39,-83.79 24.65,-135.3 1.42,-32.41 2.57,-66.88 -0.64,-100.48 -1.15,-82.08 -11.59,-163.27 -23.04,-244.39 0.24,-0.52 0.43,-1.06 0.69,-1.56 2.12,-4.08 4.78,-7.44 7.78,-10.29 -1.93,-9.71 -3.89,-12.7 6.23,-19.13 8.8,-5.6 23.94,-10.21 26,-10.58 4.69,-0.84 14.29,-0.79 19.35,-1.24 -0.98,-3.47 -2.85,-11.96 -1.53,-15.46 1.66,-4.44 23.72,-10.67 39.45,-8.28 20.71,3.15 24.63,-0.89 44.11,11.7 15.73,4.32 37.34,14.96 51.77,18.01 31.95,6.75 32.67,29.93 32.67,29.93 1.37,7.78 -2.28,8.6 -20.28,10.4 -29.61,2.96 -43.9,8.28 -41.63,15.02 32.65,96.97 66.4,187.83 108.44,281.17 8.29,24.24 16.87,48.44 24.65,72.78 -4.19,23.63 -9.65,47.03 -16.69,70.08 -7.73,25.31 -21.94,53.16 -27.64,80.88 0.19,10.05 -1.42,20.65 -1.93,28.86 -0.5,8.15 -7.17,29.87 -7.85,33.66 -8,44.59 -6.52,91.42 -2.96,137.66 9.96,-45.04 32.52,-88.62 42.52,-132.97 8.83,-39.13 11.76,-40.48 19.64,-42.28 -3.11,-8.96 -2.24,-30.33 -3.06,-38.13 -6.18,-3.57 -13.37,-8.23 -13.3,-15.39 0.01,-0.34 0.35,-0.7 0.71,-0.64 2.07,0.35 4.15,0.91 6.22,1.56 -2.67,-4.07 -4.88,-7.66 -3.59,-11.38 6.12,1.95 12.38,6.34 17.8,10.28 9.31,4.58 16.72,11 25.57,17.22 6,4.23 8.98,12.93 9.35,21.12 2.51,9.17 2.87,19.28 1.97,27.6" /></g></g></g></g></svg>