<?xml version="1.0" encoding="iso-8859-1"?>
<!-- Generator: Adobe Illustrator 19.0.0, SVG Export Plug-In . SVG Version: 6.00 Build 0)  -->
<svg version="1.1" id="Layer_1" xmlns="http://www.w3.org/2000/svg" xmlns:xlink="http://www.w3.org/1999/xlink" x="0px" y="0px"
	 viewBox="0 0 508 508" style="enable-background:new 0 0 508 508;" xml:space="preserve">
<circle style="fill:#FFD778;" cx="254" cy="254" r="254"/>
<path style="fill:#BCBFC2;" d="M375.2,320.2l-17.8,1.4l-2.2-28l17.8-1.4c3.8-0.2,7,2.6,7.4,6.4l1,14.4
	C381.8,316.6,379,319.8,375.2,320.2z"/>
<path style="fill:#0B2C48;" d="M179.4,225.2c-7.6,6.8-16.8,11.8-24.2,18.8c-6.2,6-11.6,13.4-15.6,21.2c-8.4,16-12.2,34-13,51.8
	c-0.6,19.6,4,37.6,17.6,52.2c13,14,31.2,21,50,22.8c7.4,0.8,7.2-10.6,0-11.4c-16.8-1.8-33.2-9-44.2-22.2c-11.4-14-13-31-11.6-48.4
	c1.4-15,5.4-30.2,13.2-43c4-6.8,9-12.8,15-17.8c6.6-5.6,14.4-10,20.8-15.8C193,228.4,184.8,220.4,179.4,225.2L179.4,225.2z"/>
<path style="fill:#36505F;" d="M169.4,195.2c-6.2,8.6-13.6,17-18.6,26.4c-4,7.6-5.2,16.8-6.4,25.2c-2.4,16.6-2.4,34.2,6,49.4
	c18.6,33.8,62,34.2,95.4,32.2c7.4-0.4,7.4-11.8,0-11.4c-29.2,1.6-69.2,3.4-85.6-26.6c-7.6-13.8-6.6-30.6-4-45.6
	c1.2-7.4,2.4-14.6,6.6-21c5.2-7.8,10.8-15.2,16.4-22.8C183.6,195,173.8,189.2,169.4,195.2L169.4,195.2z"/>
<path style="fill:#2C424F;" d="M204.4,196.8c-6-2.2-11-6-16-9.8c-4.2-3.2-8.2-6.4-11.8-10.2c-3.8-4.2-6.6-9-9.6-13.6
	c-2-3.4-4.2-7-5-11c-2-10.4,5.8-20,13.6-27c22.2-19.8,50.2-33.4,79.6-38.6c12.6-2.2,25.2-3,38-3c15.2,0,31,1,44.8,7.8
	c5.8,2.8,11.2,6.8,14.6,12.2c4.2,7,4.2,15.6,4.2,23.8c0,19.8,0,39.8,0,59.6c-12.2-4.2-24.8-7.2-37.6-8.6c-7.4-0.8-15-1.2-22.4,0
	c-11.6,1.8-22.2,7.4-33.2,11.6c-10.8,4-22,6.8-33.6,8.2C221.4,199.6,212.6,199.8,204.4,196.8z"/>
<path style="fill:#9EA8AD;" d="M291.4,125c-0.6-0.6-1.4-1-2-1.4c-9.8-5.8-22.6-1.2-31.2,6.2c-8.6,7.4-14.8,17.4-23.4,24.8
	c-10.4,8.8-24.2,13.4-37.8,12.4s-25.6-4.6-34.6-14.8c6.8,26.8,10.6,51.6,13.4,79c0.8,8.2,2,17.2,8.2,22.4c4.8,3.8,11.4,4.6,17.4,4.4
	c28-0.4,55.4-13.2,73.8-34.4c2.4-2.8,4.6-5.8,7.8-7.6c6-3.6,13.8-2.8,20.2,0.2c0.4-1.8,0.8-3.8,1.2-5.6L291.4,125z"/>
<g>
	<path style="fill:#527F99;" d="M345.8,220.8c3.6-5.6,6.4-10.8,8-17.2c1.8-7,2.6-15.4,3-22.6c0.6-12.2,0.4-25,0-37.2
		c-0.2-12.8,2-25-3-37.2c3.4,19-7,35-22,43.2c-14.6,8.2-33,4.8-49-0.6c2.4,24.6,4.8,49,7.2,73.6c0.4,3.4,0.8,7,3,9.6
		c2,2.2,4.8,3.2,7.6,3.8C317.2,240,336.6,235.2,345.8,220.8z"/>
	<path style="fill:#527F99;" d="M375,302.6l-7,0.6c-0.8,0-1.4-0.6-1.4-1.2l0,0c0-0.8,0.6-1.4,1.2-1.4l7-0.6c0.8,0,1.4,0.6,1.4,1.2
		l0,0C376.2,301.8,375.8,302.6,375,302.6z"/>
	<path style="fill:#527F99;" d="M375.6,312.2l-7,0.6c-0.8,0-1.4-0.6-1.4-1.2l0,0c0-0.8,0.6-1.4,1.2-1.4l7-0.6c0.8,0,1.4,0.6,1.4,1.2
		l0,0C377,311.6,376.4,312.2,375.6,312.2z"/>
</g>
<path style="fill:#BCBFC2;" d="M234.2,309.4l19-3.6l4.4,27.4l-19,3.6c-2.8,0.6-5.4-1.4-6-4.2l-2.8-17.2
	C229.4,312.6,231.2,310,234.2,309.4z"/>
<g>
	<path style="fill:#527F99;" d="M237.4,326.4l7-1.2c0.8-0.2,1.4,0.4,1.6,1.2l0,0c0.2,0.8-0.4,1.4-1,1.6l-7,1.2
		c-0.8,0.2-1.4-0.4-1.6-1.2l0,0C236.2,327.2,236.6,326.6,237.4,326.4z"/>
	<path style="fill:#527F99;" d="M235.8,317l7-1.2c0.8-0.2,1.4,0.4,1.6,1.2l0,0c0.2,0.8-0.4,1.4-1,1.6l-7,1.2
		c-0.8,0.2-1.4-0.4-1.6-1.2l0,0C234.6,317.8,235.2,317.2,235.8,317z"/>
</g>
<ellipse transform="matrix(-0.0911 -0.9958 0.9958 -0.0911 21.318 645.8448)" style="fill:#0B2C48;" cx="305.388" cy="313.194" rx="35.999" ry="59.998"/>
<path style="fill:#2C424F;" d="M214.2,326c0,3,0.8,5.8,1.2,8.6c0.4,3,0.4,6,0.6,9c0.2,4.8,7.8,5,7.6,0c-0.2-3-0.2-6-0.6-9
	c-0.4-2.8-1.2-5.8-1.2-8.6C221.8,321,214.2,321,214.2,326L214.2,326z"/>
<path style="fill:#4F6673;" d="M208.2,355.2c7.2-1,13.4-4.2,21-2.4c9.6,2.4,13.6-12.4,4-14.8c-5-1.2-9.8-1.4-14.8-0.8
	c-4.8,0.6-9.4,2.4-14.2,3.2c-4,0.6-6.4,5.8-5.4,9.4C200,354.2,204.2,355.8,208.2,355.2L208.2,355.2z"/>
<path style="fill:#BCBFC2;" d="M199.8,373.6l19.4,1l-2,27.6l-19.4-1c-2.8-0.2-5-2.6-4.8-5.4l1.2-17.4
	C194.6,375.6,197,373.6,199.8,373.6z"/>
<g>
	<path style="fill:#527F99;" d="M199.2,391l7,0.4c0.8,0,1.4,0.6,1.2,1.4l0,0c0,0.8-0.6,1.2-1.4,1.2l-7-0.4c-0.8,0-1.4-0.6-1.2-1.4
		l0,0C197.8,391.4,198.4,390.8,199.2,391z"/>
	<path style="fill:#527F99;" d="M199.8,381.4l7,0.4c0.8,0,1.4,0.6,1.2,1.4l0,0c0,0.8-0.6,1.2-1.4,1.2l-7-0.4c-0.8,0-1.4-0.6-1.2-1.4
		l0,0C198.4,382,199,381.4,199.8,381.4z"/>
</g>
<circle style="fill:#929EA5;" cx="242.8" cy="389.8" r="34.4"/>
<circle style="fill:#BBC2C6;" cx="242.8" cy="389.8" r="29.6"/>
<g>
	<circle style="fill:#F7F8F9;" cx="242.8" cy="389.8" r="26"/>
</g>
<rect x="231.068" y="377.655" transform="matrix(-0.0475 -0.9989 0.9989 -0.0475 -124.2621 638.411)" style="fill:#2C424F;" width="22.401" height="1.6"/>
<g>
</g>
<g>
</g>
<g>
</g>
<g>
</g>
<g>
</g>
<g>
</g>
<g>
</g>
<g>
</g>
<g>
</g>
<g>
</g>
<g>
</g>
<g>
</g>
<g>
</g>
<g>
</g>
<g>
</g>
</svg>
