<?xml version="1.0" encoding="UTF-8"?>
<svg width="5709px" height="4421px" viewBox="0 0 5709 4421" version="1.1" xmlns="http://www.w3.org/2000/svg" xmlns:xlink="http://www.w3.org/1999/xlink">
    <!-- Generator: Sketch 51.3 (57544) - http://www.bohemiancoding.com/sketch -->
    <title>Artboard</title>
    <desc>Created with Sketch.</desc>
    <defs></defs>
    <g id="Artboard" stroke="none" stroke-width="1" fill="none" fill-rule="evenodd">
        <g id="pear-(2)" transform="translate(174.000000, 160.000000)" fill-rule="nonzero">
            <path d="M2120,2368.55425 C2120,2956.52062 1641.27883,3313.10024 1052.37333,3308.96441 C1025.12289,3308.74469 998.163242,3307.78182 971.429764,3306.08225 L971.358681,3306.08225 C423.293309,3270.33318 -7.7961363,2911.91182 0.106944017,2353.26461 C4.24265244,2063.89869 124.326824,1802.74042 315.907055,1613.89455 C398.621223,1532.43163 451.42905,1426.07618 467.235211,1311.00964 C467.752174,1307.6105 468.198055,1304.58618 468.715019,1301.92374 C524.992964,1008.05364 768.340632,787 1059.98562,787 L1063.0874,787 C1353.33013,788.550936 1595.20445,1009.0876 1651.25622,1301.92374 C1651.55348,1303.25496 1651.77319,1304.65726 1651.9929,1306.2082 C1671.04946,1425.04222 1725.62789,1535.15869 1810.62962,1620.3891 C2001.75751,1812.04604 2120,2076.46127 2120,2368.55425 Z" id="Shape" fill="#A3E261"></path>
            <path d="M1063,787 L1055.61445,1011.89133 C1055.61445,1011.89133 954.626843,1088.36937 943.364357,1277.91343 C913.82214,1775.19196 526.122534,1952.43879 526.122534,2454.64138 C526.122534,2956.84397 707.052463,3153.79351 971.426879,3305.92892 L971.355802,3306 L971.284725,3306 C423.25462,3270.25209 -7.79554115,2911.84244 0.106937441,2353.21346 C4.24233098,2063.85699 124.317359,1802.70725 315.883003,1613.86755 C398.590874,1532.40729 451.39468,1426.05531 467.199638,1310.99253 C467.716562,1307.59351 468.162409,1304.56928 468.679333,1301.90693 C524.952993,1008.04642 768.282133,787 1059.90492,787 L1063,787 Z" id="Shape" fill="#93CC52"></path>
            <path d="M1047.76084,997 C1044.56122,997 1041.32929,996.722197 1038.07797,996.153669 C1007.94989,990.843104 987.834339,962.13892 993.134709,932.026338 C994.013795,927.000037 1078.82618,427.01876 870.230767,218.530638 C848.589744,196.900746 848.589744,161.839389 870.230767,140.222419 C891.871789,118.592527 926.951188,118.592527 948.579283,140.222419 C1197.98754,389.502398 1106.29114,928.421356 1102.27062,951.233527 C1097.51968,978.096457 1074.13987,997 1047.76084,997 Z" id="Shape" fill="#B25719"></path>
            <path d="M931,911.841688 C963.655685,911.514436 985.268728,911.110185 1004.75346,909.826846 C1023.9018,908.736008 1039.62802,908.030171 1055.50303,908.010921 C1071.37157,907.901838 1087.07192,908.620507 1106.18145,909.692095 C1125.64677,910.969017 1147.24688,911.431019 1179.9996,911.854521 C1180.09663,944.56041 1162.70787,970.977938 1139.56813,989.721101 C1116.11141,1008.30385 1085.7393,1018.08289 1055.50303,1017.99947 C1025.27324,1017.94814 994.926996,1008.18193 971.502623,989.573517 C948.388764,970.811104 931.006469,944.451326 931,911.841688 Z" id="Shape" fill="#93CC52"></path>
            <path d="M1241.41481,447 C1046.96127,447 957.222443,315.76948 952.769802,309.04932 C940.363244,290.342719 945.488958,265.148579 964.218525,252.755052 C982.889844,240.413219 1008.02008,245.459801 1020.47194,264.004859 C1024.95694,270.557016 1125.32904,412.287786 1354.53647,349.447823 C1376.20427,343.490143 1398.59043,356.226139 1404.53807,377.866349 C1410.48571,399.500096 1397.74909,421.851092 1376.07483,427.789387 C1326.57156,441.35248 1281.73451,447 1241.41481,447 Z" id="Shape" fill="#B25719"></path>
            <path d="M1941.82812,496.151968 L2218,204.89403 L1852.59819,38.2755622 C1628.28208,-64.0155633 1364.27086,46.4286413 1279.95433,277.819869 L1272.33856,298.728676 C1250.65495,358.253254 1263.63021,424.872238 1306.09233,471.938033 L1321.00708,488.470128 C1486.05207,671.41412 1772.28349,674.958095 1941.82812,496.151968 Z" id="Shape" fill="#2FCC6E"></path>
        </g>
        <g id="orange-juice" transform="translate(1953.000000, 253.000000)" fill-rule="nonzero">
            <path d="M1431,119.17125 C1431,185.01075 1484.34291,238.3425 1550.19619,238.3425 L1907.7915,238.3425 L1907.7915,774.6165 L2146.18387,774.6165 L2146.18387,238.3425 L2146.18387,119.17125 C2146.18387,53.33175 2092.84771,0 2026.98768,0 L1550.19619,0 C1484.34291,0 1431,53.33175 1431,119.17125 Z" id="Shape" fill="#DD352E" transform="translate(1788.591935, 387.308250) scale(-1, 1) translate(-1788.591935, -387.308250) "></path>
            <path d="M1788.18387,3408 L119.423757,3408 C53.5704802,3408 0.227570621,3354.6075 0.227570621,3288.82875 L0.227570621,786.2055 C0.227570621,720.366 53.6312429,667.03425 119.423757,667.03425 L1788.18387,667.03425 L1788.18387,3408 Z" id="Shape" fill="#ED8A19"></path>
            <path d="M2145.77918,3408 L1788.18387,3408 L1788.18387,667.03425 L2145.77918,667.03425 C2211.63246,667.03425 2264.97537,720.42675 2264.97537,786.2055 L2264.97537,3288.82875 C2264.97537,3354.6075 2211.57169,3408 2145.77918,3408 Z" id="Shape" fill="#C5411E"></path>
            <rect id="Rectangle-path" fill="#EBBA16" x="0.200564972" y="1143.7125" width="1787.97655" height="1787.6025"></rect>
            <path d="M1358.3552,2128.50375 C1335.6502,2038.4115 1284.81206,1962.31875 1216.45401,1906.01025 L1189.45511,1885.5105 C1079.49486,1808.10825 932.584124,1777.71975 785.67339,1814.9595 C529.342514,1879.908 370.090198,2125.52025 430.049492,2363.5725 C490.008785,2601.618 746.400424,2742.0045 1002.7313,2677.056 C1259.06218,2612.1075 1418.31449,2366.54925 1358.3552,2128.50375 Z" id="Shape" fill="#DC691D"></path>
            <path d="M894.202345,2692.96575 C861.302712,2692.96575 834.600876,2666.2695 834.600876,2633.37675 C834.600876,2600.484 861.302712,2573.78775 894.202345,2573.78775 C951.771638,2573.78775 1017.15232,2568.84 1057.02616,2472.72675 C1101.84203,2364.57825 1111.13873,2219.487 1030.86444,2139.22275 C1007.55856,2115.92175 1007.55856,2078.2635 1030.86444,2054.96925 C1054.10955,2031.66825 1091.89045,2031.66825 1115.13556,2054.96925 C1242.4402,2182.24725 1222.71257,2384.12625 1167.10794,2518.3095 C1107.27017,2662.8135 1002.67054,2692.96575 894.202345,2692.96575 Z" id="Shape" fill="#B5521C"></path>
            <path d="M894.202345,1799.17125 C894.202345,1601.7 1054.28508,1441.65075 1251.79766,1441.65075 C1251.79766,1639.122 1091.71492,1799.17125 894.202345,1799.17125 Z" id="Shape" fill="#23A24D"></path>
            <g id="Group" transform="translate(1964.186441, 660.750000)" fill="#ED8A19">
                <path d="M2.79508475,6.28425 L2.79508475,304.21575 C2.79508475,337.16925 29.4969209,363.80475 62.3965537,363.80475 C95.2961864,363.80475 121.998023,337.16925 121.998023,304.21575 L121.998023,6.28425 L2.79508475,6.28425 Z" id="Shape"></path>
                <path d="M62.3898023,482.976 C29.4901695,482.976 2.78833333,509.6115 2.78833333,542.565 L2.78833333,2747.25 L121.984521,2747.25 L121.98452,542.55825 C121.991271,509.6115 95.289435,482.976 62.3898023,482.976 Z" id="Shape"></path>
            </g>
        </g>
        <g id="apple-(1)" transform="translate(3228.000000, 1008.000000)" fill-rule="nonzero">
            <path d="M912.726562,2838.79372 C1609.08398,2838.79372 2238.65332,2434.92056 2369.11817,2122.52272 C2347.62891,1960.16656 2271.84961,1848.43957 2220.24902,1789.24035 C2220.14355,1789.08214 2220.01172,1788.95029 2219.87988,1788.79207 C2193.85547,1758.49368 2157.12598,1739.50774 2117.17969,1739.50774 L187.101562,1739.50774 C154.089844,1739.50774 124.927731,1758.94195 109.872072,1788.3438 C109.792969,1788.50201 109.713865,1788.66023 109.634769,1788.81844 C39.3925815,1924.40971 4.1923845,2062.37421 0.369140625,2194.64293 C81.369144,2558.43466 413.332031,2838.79372 912.726562,2838.79372 Z" id="Shape" fill="#FEE7B5"></path>
            <path d="M1387.28321,2038.1144 C1511.68359,1943.71208 1615.22754,1829.74369 1742.42285,1739.48137 L529.268553,1739.48137 C576.597656,1783.41272 622.740231,1835.14941 650.979491,1889.62851 C728.973635,2040.1712 1041.08203,2300.85872 1387.28321,2038.1144 Z" id="Shape" fill="#FFDA79"></path>
            <path d="M790.092772,1889.62851 C761.853519,1835.17578 715.737303,1783.41272 668.381834,1739.50774 L529.268553,1739.50774 C576.597656,1783.41272 622.740231,1835.17578 650.953125,1889.62851 C710.701169,2004.889 907.611332,2184.70168 1152.00879,2144.7521 C974.030272,2115.85128 837.975584,1982.02676 790.092772,1889.62851 Z" id="Shape" fill="#FFCC3D"></path>
            <path d="M1236.14648,1790.71703 C1224.78223,1749.84453 1170.59766,1729.22368 1115.14746,1744.64976 C1059.69727,1760.10221 1023.94336,1805.72121 1035.30762,1846.59372 C1046.67188,1887.46622 1100.85645,1908.08707 1156.30664,1892.66099 C1211.75683,1877.23492 1247.51074,1831.58955 1236.14648,1790.71703 Z" id="Shape" fill="#747475"></path>
            <path d="M1174.55273,1846.54097 C1166.00977,1815.84704 1184.07129,1782.46343 1217.08301,1761.20972 C1193.93262,1741.06352 1154.96192,1733.57463 1115.25293,1744.62339 C1059.77637,1760.04946 1024.04883,1805.69483 1035.41308,1846.54097 C1046.77734,1887.41349 1100.96192,1908.03433 1156.41211,1892.60825 C1170.20215,1888.7847 1182.77929,1883.06255 1193.69531,1876.02192 C1184.5459,1868.05837 1177.76953,1858.14349 1174.55273,1846.54097 Z" id="Shape" fill="#605F5F"></path>
            <path d="M145.151366,2118.03993 C145.151366,2118.09267 145.177731,2118.14541 145.177731,2118.19815 C159.389647,1998.74494 195.908207,1892.81921 248.985353,1788.3438 C264.041019,1758.94195 293.229491,1739.50774 326.241209,1739.50774 L187.101563,1739.50774 C154.089844,1739.50774 124.927731,1758.94195 109.872072,1788.3438 C109.792969,1788.50201 109.713866,1788.66023 109.634769,1788.81844 C39.3925815,1924.40971 4.1923845,2062.37421 0.369140625,2194.64293 C35.3320313,2351.64611 117.070313,2493.09137 238.78125,2603.18346 C153.11426,2451.66511 125.428709,2280.29062 145.151366,2118.03993 Z" id="Shape" fill="#FFDA79"></path>
            <path d="M916.998044,2827.00661 C391.658207,2827.00661 54.5537093,2511.81362 6.03808425,2118.03993 C-51.416019,2599.38628 305.121094,3026.93912 916.998044,3026.93912 C1687.47363,3026.93912 2375.02442,2524.62913 2375.02442,2212.52136 C2375.02442,2167.35064 2370.7002,2125.39698 2363.37012,2086.58128 C2270.21484,2398.00346 1629.04395,2827.00661 916.998044,2827.00661 Z" id="Shape" fill="#FF6156"></path>
            <path d="M215.261719,2557.98638 C98.8769565,2437.39928 26.578125,2284.77341 6.03808425,2118.03993 C-51.416019,2599.38628 305.121094,3026.93912 916.998044,3026.93912 C942.310544,3026.93912 967.517582,3026.38536 992.592772,3025.30422 C612.95801,3006.39739 340.057616,2818.0674 215.261719,2557.98638 Z" id="Shape" fill="#ED4D4D"></path>
        </g>
    </g>
</svg>