<?xml version="1.0" encoding="UTF-8"?>
<svg width="1000px" height="500px" viewBox="0 0 1000 500" version="1.1" xmlns="http://www.w3.org/2000/svg" xmlns:xlink="http://www.w3.org/1999/xlink">
    <!-- Generator: Sketch 51.3 (57544) - http://www.bohemiancoding.com/sketch -->
    <title>shutterstock_556181722</title>
    <desc>Created with Sketch.</desc>
    <defs></defs>
    <g id="shutterstock_556181722" stroke="none" stroke-width="1" fill="none" fill-rule="evenodd">
        <path d="M800.708,382.269 L800.458,382.269 C799.63,382.269 798.958,381.598 798.958,380.769 C798.958,380.292 799.182,379.866 799.529,379.591 C799.805,379.243 800.231,379.02 800.708,379.02 C801.536,379.02 802.208,379.691 802.208,380.52 L802.208,380.769 C802.208,381.598 801.536,382.269 800.708,382.269" id="Fill-7" fill="#62BCA1"></path>
        <path d="M723.223,382.269 L722.973,382.269 C722.144,382.269 721.473,381.598 721.473,380.769 C721.473,379.941 722.144,379.269 722.973,379.269 L723.223,379.269 C724.051,379.269 724.723,379.941 724.723,380.769 C724.723,381.598 724.051,382.269 723.223,382.269" id="Fill-9" fill="#62BCA1"></path>
        <path d="M343.652,238.458 C332.628,238.458 323.66,229.489 323.66,218.466 C323.66,207.442 332.628,198.474 343.652,198.474 C354.676,198.474 363.643,207.442 363.643,218.466 C363.643,229.489 354.676,238.458 343.652,238.458 M343.652,193.791 C330.046,193.791 318.977,204.86 318.977,218.466 C318.977,232.071 330.046,243.141 343.652,243.141 C357.258,243.141 368.327,232.071 368.327,218.466 C368.327,204.86 357.258,193.791 343.652,193.791" id="Fill-10" fill="#FFFFFE"></path>
        <polygon id="Fill-11" fill="#FFFFFE" points="338.71 191.272 348.594 191.272 348.594 185.553 338.71 185.553"></polygon>
        <path d="M349.078,177.759 L338.225,177.759 C337.127,177.759 336.237,178.884 336.237,180.27 C336.237,181.657 337.127,182.781 338.225,182.781 L349.078,182.781 C350.176,182.781 351.066,181.657 351.066,180.27 C351.066,178.884 350.176,177.759 349.078,177.759" id="Fill-12" fill="#FFFFFE"></path>
        <path d="M343.652,216.765 C342.722,216.765 341.969,217.527 341.969,218.466 C341.969,219.405 342.722,220.166 343.652,220.166 C344.582,220.166 345.334,219.405 345.334,218.466 C345.334,217.527 344.582,216.765 343.652,216.765" id="Fill-13" fill="#FFFFFE"></path>
        <path d="M343.652,201.13 C343.113,201.13 342.676,201.567 342.676,202.105 L342.676,207.702 C342.676,208.241 343.113,208.678 343.652,208.678 C344.19,208.678 344.627,208.241 344.627,207.702 L344.627,202.105 C344.627,201.567 344.19,201.13 343.652,201.13" id="Fill-14" fill="#FFFFFE"></path>
        <path d="M343.652,228.255 C343.113,228.255 342.676,228.691 342.676,229.23 L342.676,234.826 C342.676,235.365 343.113,235.802 343.652,235.802 C344.19,235.802 344.627,235.365 344.627,234.826 L344.627,229.23 C344.627,228.691 344.19,228.255 343.652,228.255" id="Fill-15" fill="#FFFFFE"></path>
        <path d="M359.846,217.49 L354.307,217.49 C353.768,217.49 353.332,217.927 353.332,218.466 C353.332,219.004 353.768,219.442 354.307,219.442 L359.846,219.442 C360.384,219.442 360.821,219.004 360.821,218.466 C360.821,217.927 360.384,217.49 359.846,217.49" id="Fill-16" fill="#FFFFFE"></path>
        <path d="M332.996,217.49 L327.458,217.49 C326.919,217.49 326.482,217.927 326.482,218.466 C326.482,219.004 326.919,219.442 327.458,219.442 L332.996,219.442 C333.535,219.442 333.972,219.004 333.972,218.466 C333.972,217.927 333.535,217.49 332.996,217.49" id="Fill-17" fill="#FFFFFE"></path>
        <path d="M358.329,225.467 L353.47,222.78 C352.998,222.519 352.405,222.691 352.145,223.161 C351.884,223.632 352.055,224.226 352.526,224.487 L357.384,227.173 C357.535,227.256 357.696,227.296 357.856,227.296 C358.199,227.296 358.533,227.113 358.71,226.792 C358.971,226.321 358.8,225.727 358.329,225.467" id="Fill-18" fill="#FFFFFE"></path>
        <path d="M334.777,212.444 L329.918,209.758 C329.447,209.498 328.853,209.668 328.592,210.139 C328.332,210.612 328.503,211.205 328.974,211.465 L333.833,214.153 C333.982,214.235 334.144,214.274 334.304,214.274 C334.647,214.274 334.98,214.092 335.159,213.771 C335.419,213.299 335.249,212.705 334.777,212.444" id="Fill-19" fill="#FFFFFE"></path>
        <path d="M350.445,226.829 C350.145,226.382 349.538,226.263 349.091,226.562 C348.644,226.863 348.525,227.469 348.826,227.917 L351.937,232.547 C352.126,232.827 352.434,232.978 352.748,232.978 C352.935,232.978 353.124,232.925 353.291,232.813 C353.738,232.512 353.857,231.906 353.556,231.459 L350.445,226.829" id="Fill-20" fill="#FFFFFE"></path>
        <path d="M335.365,204.385 C335.065,203.938 334.459,203.819 334.012,204.119 C333.564,204.42 333.446,205.026 333.746,205.473 L336.858,210.104 C337.047,210.384 337.355,210.535 337.669,210.535 C337.856,210.535 338.045,210.482 338.212,210.369 C338.659,210.068 338.778,209.462 338.477,209.015 L335.365,204.385" id="Fill-21" fill="#FFFFFE"></path>
        <path d="M333.884,222.899 L329.057,225.642 C328.588,225.908 328.425,226.504 328.691,226.973 C328.871,227.289 329.2,227.466 329.54,227.466 C329.703,227.466 329.869,227.425 330.021,227.338 L334.848,224.594 C335.316,224.328 335.48,223.733 335.214,223.264 C334.947,222.796 334.353,222.631 333.884,222.899" id="Fill-22" fill="#FFFFFE"></path>
        <path d="M357.281,209.593 L352.454,212.338 C351.986,212.605 351.822,213.201 352.088,213.669 C352.268,213.984 352.598,214.161 352.938,214.161 C353.101,214.161 353.266,214.121 353.419,214.034 L358.245,211.289 C358.714,211.023 358.878,210.427 358.61,209.958 C358.344,209.49 357.749,209.327 357.281,209.593" id="Fill-23" fill="#FFFFFE"></path>
        <path d="M338.427,226.706 C337.972,226.416 337.369,226.552 337.081,227.007 L334.092,231.72 C333.805,232.175 333.939,232.778 334.395,233.066 C334.556,233.169 334.737,233.218 334.916,233.218 C335.239,233.218 335.555,233.058 335.74,232.765 L338.728,228.052 C339.017,227.596 338.882,226.994 338.427,226.706" id="Fill-24" fill="#FFFFFE"></path>
        <path d="M352.908,203.866 C352.452,203.576 351.849,203.713 351.561,204.167 L348.573,208.88 C348.285,209.336 348.421,209.938 348.875,210.226 C349.037,210.329 349.218,210.377 349.397,210.377 C349.72,210.377 350.036,210.217 350.221,209.925 L353.209,205.212 C353.497,204.756 353.362,204.154 352.908,203.866" id="Fill-25" fill="#FFFFFE"></path>
        <path d="M319.416,193.795 C318.118,195.092 318.118,197.195 319.415,198.492 L321.927,201.004 L326.624,196.307 L324.112,193.794 C322.815,192.498 320.712,192.498 319.416,193.795" id="Fill-26" fill="#FFFFFE"></path>
        <path d="M363.626,193.794 L361.114,196.307 L365.811,201.004 L368.323,198.492 C369.62,197.195 369.62,195.092 368.323,193.795 C367.025,192.498 364.922,192.498 363.626,193.794" id="Fill-27" fill="#FFFFFE"></path>
        <path d="M526.466,150.06 L521.859,150.06 L521.859,135.44 L526.466,135.44 C527.484,135.44 528.309,136.265 528.309,137.282 L528.309,148.217 C528.309,149.235 527.484,150.06 526.466,150.06" id="Fill-28" fill="#86C8B4"></path>
        <path d="M513.61,157.721 L470.737,157.721 C467.77,157.721 465.357,155.307 465.357,152.341 L465.357,133.158 C465.357,130.192 467.77,127.778 470.737,127.778 L513.61,127.778 C516.576,127.778 518.989,130.192 518.989,133.158 L518.989,152.341 C518.989,155.307 516.576,157.721 513.61,157.721 M470.737,130.647 C469.352,130.647 468.226,131.774 468.226,133.158 L468.226,152.341 C468.226,153.725 469.352,154.852 470.737,154.852 L513.61,154.852 C514.994,154.852 516.12,153.725 516.12,152.341 L516.12,133.158 C516.12,131.774 514.994,130.647 513.61,130.647 L470.737,130.647" id="Fill-29" fill="#86C8B4"></path>
        <polygon id="Fill-30" fill="#86C8B4" points="472.861 151.335 480.053 151.335 480.053 134.164 472.861 134.164"></polygon>
        <polygon id="Fill-31" fill="#86C8B4" points="483.339 151.335 490.53 151.335 490.53 134.164 483.339 134.164"></polygon>
        <polygon id="Fill-32" fill="#86C8B4" points="493.816 151.335 501.008 151.335 501.008 134.164 493.816 134.164"></polygon>
        <polygon id="Fill-33" fill="#86C8B4" points="504.294 151.335 511.485 151.335 511.485 134.164 504.294 134.164"></polygon>
        <polygon id="Fill-34" fill="#86C8B4" points="351.875 199.742 383.67 199.742 383.67 193.416 351.875 193.416"></polygon>
        <path d="M344.561,214.972 C342.027,214.972 339.972,212.918 339.972,210.383 L339.972,182.774 C339.972,180.24 342.027,178.185 344.561,178.185 C347.096,178.185 349.15,180.24 349.15,182.774 L349.15,210.383 C349.15,212.918 347.096,214.972 344.561,214.972" id="Fill-35" fill="#86C8B4"></path>
        <path d="M335.608,203.77 C334.704,203.77 333.97,203.036 333.97,202.13 L333.97,191.026 C333.97,190.122 334.704,189.388 335.608,189.388 C336.514,189.388 337.248,190.122 337.248,191.026 L337.248,202.13 C337.248,203.036 336.514,203.77 335.608,203.77" id="Fill-36" fill="#86C8B4"></path>
        <path d="M390.983,214.972 C388.449,214.972 386.394,212.918 386.394,210.383 L386.394,182.774 C386.394,180.24 388.449,178.185 390.983,178.185 C393.518,178.185 395.572,180.24 395.572,182.774 L395.572,210.383 C395.572,212.918 393.518,214.972 390.983,214.972" id="Fill-37" fill="#86C8B4"></path>
        <path d="M399.936,203.77 C399.031,203.77 398.297,203.036 398.297,202.13 L398.297,191.026 C398.297,190.122 399.031,189.388 399.936,189.388 C400.841,189.388 401.575,190.122 401.575,191.026 L401.575,202.13 C401.575,203.036 400.841,203.77 399.936,203.77" id="Fill-38" fill="#86C8B4"></path>
        <polyline id="Fill-40" fill="#FFFFFE" points="323.155 334.043 316.919 334.043 323.155 311.158 305.852 341.382 318.405 341.382 312.147 364.78 329.388 334.043 323.155 334.043"></polyline>
        <path d="M320.021,219.243 L318.989,219.243 C318.981,218.985 318.977,218.726 318.977,218.466 C318.977,218.056 318.987,217.649 319.007,217.243 L320.021,217.243 L320.021,219.243" id="Fill-50" fill="#FFFFFE"></path>
        <path d="M368.314,219.243 L366.371,219.243 L366.371,217.243 L368.297,217.243 C368.317,217.649 368.327,218.056 368.327,218.466 C368.327,218.726 368.323,218.985 368.314,219.243" id="Fill-53" fill="#FFFFFE"></path>
        <path d="M425.477,222.003 C423.747,222.003 422.289,220.834 421.851,219.243 C421.764,218.925 421.717,218.589 421.717,218.243 C421.717,217.897 421.764,217.562 421.852,217.243 C422.29,215.652 423.747,214.483 425.477,214.483 C427.553,214.483 429.237,216.167 429.237,218.243 C429.237,220.319 427.553,222.003 425.477,222.003" id="Fill-54" fill="#9BD1C0"></path>
        <path d="M572.282,358.665 C570.206,358.665 568.522,356.981 568.522,354.905 C568.522,352.829 570.206,351.145 572.282,351.145 C574.012,351.145 575.47,352.314 575.908,353.905 C575.995,354.224 576.042,354.559 576.042,354.905 C576.042,355.251 575.995,355.587 575.907,355.905 C575.469,357.496 574.012,358.665 572.282,358.665" id="Fill-66" fill="#86C8B4"></path>
        <path d="M791.381,206.147 L744.008,206.147 C742.482,206.147 741.245,204.91 741.245,203.383 L741.245,107.18 C741.245,105.654 742.482,104.417 744.008,104.417 L791.381,104.417 C792.907,104.417 794.144,105.654 794.144,107.18 L794.144,203.383 C794.144,204.91 792.907,206.147 791.381,206.147" id="Fill-67" fill="#57BCB8"></path>
        <polygon id="Fill-68" fill="#124A51" points="745.765 155.282 789.624 155.282 789.624 115.55 745.765 115.55"></polygon>
        <polyline id="Fill-69" fill="#FFFFFE" points="759.53 196.431 775.859 185.718 759.53 175.006 759.53 196.431"></polyline>
        <polyline id="Fill-70" fill="#FFFFFE" points="752.345 87.064 757.771 87.064 758.449 104.246 751.667 104.246 752.345 87.064"></polyline>
        <path d="M825.04,135.747 L822.41,136.112 L822.424,140.421 C822.861,140.571 823.298,140.663 823.785,140.663 C824.26,140.663 824.714,140.583 825.141,140.441 L825.14,138.47 L825.04,135.747" id="Fill-77" fill="#A1D6D1"></path>
        <path d="M828.081,134.766 C828.081,137.139 826.158,139.062 823.785,139.062 C821.413,139.062 819.49,137.139 819.49,134.766 C819.49,132.394 821.413,130.471 823.785,130.471 C826.158,130.471 828.081,132.394 828.081,134.766" id="Fill-78" fill="#FFFFFE"></path>
        <polyline id="Fill-79" fill="#A1D6D1" points="825.142 156.428 825.142 153.421 826.012 153.013 826.126 155.929 825.142 156.428"></polyline>
        <path d="M787.683,166.79 L772.252,166.79 C771.18,166.79 770.311,165.921 770.311,164.849 C770.311,163.777 771.18,162.908 772.252,162.908 L787.683,162.908 C788.755,162.908 789.624,163.777 789.624,164.849 C789.624,165.921 788.755,166.79 787.683,166.79" id="Fill-80" fill="#A1D6D1"></path>
        <path d="M763.137,166.79 L747.706,166.79 C746.634,166.79 745.765,165.921 745.765,164.849 C745.765,163.777 746.634,162.908 747.706,162.908 L763.137,162.908 C764.209,162.908 765.078,163.777 765.078,164.849 C765.078,165.921 764.209,166.79 763.137,166.79" id="Fill-81" fill="#A1D6D1"></path>
        <polyline id="Fill-82" fill="#FFFFFE" points="188.826 198.648 186.137 196.113 188.826 193.579 186.137 191.049 188.826 188.515 186.137 185.985 188.826 183.451 186.137 180.916 188.826 178.387 186.137 175.852 188.826 173.322 186.137 170.788 181.421 170.788 181.421 201.198 186.137 201.178 188.826 198.648"></polyline>
        <polyline id="Fill-83" fill="#FFFFFE" points="54.158 150.808 51.466 153.337 54.158 155.872 51.466 158.407 54.158 160.936 51.466 163.471 54.158 166.001 51.466 168.535 54.158 171.064 51.466 173.599 54.158 176.134 51.466 178.663 54.158 181.198 58.872 181.198 58.872 150.788 54.158 150.808"></polyline>
        <path d="M276.956,260.215 C278.168,260.215 279.556,260.109 281.199,259.831 C279.556,260.109 278.168,260.215 276.956,260.215 M260.711,260.215 C259.499,260.215 258.11,260.109 256.468,259.831 C256.46,259.829 256.451,259.828 256.443,259.827 C256.451,259.828 256.46,259.829 256.468,259.831 C258.11,260.109 259.499,260.215 260.711,260.215 C264.332,260.215 266.364,259.27 268.833,259.165 C268.853,259.166 268.872,259.167 268.891,259.168 C268.872,259.167 268.853,259.166 268.833,259.165 C266.364,259.27 264.332,260.215 260.711,260.215 M256.43,259.824 C256.426,259.824 256.421,259.823 256.417,259.822 C256.421,259.823 256.426,259.824 256.43,259.824 M256.403,259.82 C256.399,259.819 256.395,259.818 256.391,259.818 C256.395,259.818 256.399,259.819 256.403,259.82 M256.376,259.815 C256.373,259.814 256.369,259.814 256.366,259.813 C256.369,259.814 256.373,259.814 256.376,259.815 M256.349,259.81 C256.346,259.809 256.343,259.809 256.341,259.808 C256.343,259.809 256.346,259.809 256.349,259.81 M256.324,259.805 C256.321,259.805 256.318,259.804 256.315,259.804 C256.318,259.804 256.321,259.805 256.324,259.805 M256.297,259.8 C256.295,259.8 256.292,259.799 256.29,259.799 C256.292,259.799 256.295,259.8 256.297,259.8 M256.271,259.795 C256.269,259.795 256.267,259.795 256.266,259.794 C256.267,259.794 256.269,259.795 256.271,259.795 M256.244,259.79 C256.243,259.79 256.243,259.79 256.243,259.79 C256.243,259.79 256.243,259.79 256.244,259.79 M295.489,249.166 C301.581,241.356 306.589,229.809 306.177,216.229 C306.589,229.809 301.581,241.356 295.489,249.166 M306.172,216.089 C306.172,216.085 306.172,216.082 306.172,216.078 C306.172,216.082 306.172,216.085 306.172,216.089" id="Fill-90" fill="#2B9A7A"></path>
        <polygon id="Fill-109" fill="#57BCB8" points="654.158 65.839 665.98 65.839 665.98 53.883 654.158 53.883"></polygon>
        <path d="M648.416,82.591 L633.543,82.591 C629.303,82.591 625.853,78.585 625.853,73.662 C625.853,68.738 629.303,64.732 633.543,64.732 L656.081,64.732 L656.081,66.946 L633.543,66.946 C630.354,66.946 627.76,69.959 627.76,73.662 C627.76,77.365 630.354,80.377 633.543,80.377 L648.416,80.377 L648.416,82.591" id="Fill-110" fill="#A1D6D1"></path>
        <polygon id="Fill-111" fill="#57BCB8" points="641.021 84.436 679.117 84.436 679.117 76.318 641.021 76.318"></polygon>
        <path d="M680.661,78.652 L639.477,78.652 L639.477,71.399 C639.477,67.839 642.362,64.953 645.922,64.953 L674.216,64.953 C677.776,64.953 680.661,67.839 680.661,71.399 L680.661,78.652" id="Fill-112" fill="#A1D6D1"></path>
        <path d="M666.489,55.212 L653.649,55.212 C652.772,55.212 652.061,54.501 652.061,53.624 L652.061,52.815 C652.061,51.938 652.772,51.227 653.649,51.227 L666.489,51.227 C667.366,51.227 668.077,51.938 668.077,52.815 L668.077,53.624 C668.077,54.501 667.366,55.212 666.489,55.212" id="Fill-113" fill="#A1D6D1"></path>
        <path d="M688.812,130.348 C688.812,119.57 689.669,110.627 694.607,108.881 L694.607,96.417 C694.607,89.648 689.12,84.16 682.351,84.16 L637.787,84.16 C631.018,84.16 625.531,89.648 625.531,96.417 L625.531,108.881 C630.469,110.627 631.326,119.57 631.326,130.348 C631.326,141.125 630.469,150.069 625.531,151.814 L625.531,225.854 C625.531,232.623 631.018,238.11 637.787,238.11 L682.351,238.11 C689.12,238.11 694.607,232.623 694.607,225.854 L694.607,151.814 C689.669,150.069 688.812,141.125 688.812,130.348" id="Fill-114" fill="#A1D6D1"></path>
        <path d="M694.607,108.881 C694.607,108.881 629.581,108.338 625.531,108.666 L625.531,108.881 C630.469,110.627 631.326,119.57 631.326,130.348 C631.326,141.125 630.469,150.069 625.531,151.814 L694.607,151.814 C689.669,150.069 688.812,141.125 688.812,130.348 C688.812,119.57 689.669,110.627 694.607,108.881" id="Fill-115" fill="#57BCB8"></path>
        <path d="M639.141,235.961 C639.141,235.961 661.212,224.151 681.832,236.058 L639.141,235.961" id="Fill-116" fill="#57BCB8"></path>
        <path d="M682.351,238.11 L660.953,238.11 L682.351,238.11 C689.12,238.11 694.607,232.623 694.607,225.854 L694.607,151.814 C689.669,150.069 688.812,141.125 688.812,130.348 C688.812,119.57 689.669,110.627 694.607,108.881 L694.607,96.417 C694.607,89.648 689.12,84.16 682.351,84.16 C689.12,84.16 694.608,89.648 694.608,96.417 L694.608,108.881 C689.67,110.627 688.812,119.57 688.812,130.348 C688.812,141.125 689.67,150.069 694.608,151.814 L694.608,225.854 C694.608,232.623 689.12,238.11 682.351,238.11 M679.117,84.16 L679.117,78.652 L680.661,78.652 L680.661,71.399 C680.661,67.839 677.776,64.953 674.216,64.953 C677.776,64.953 680.662,67.839 680.662,71.399 L680.662,78.652 L679.117,78.652 L679.117,84.16" id="Fill-117" fill="#289E7E"></path>
        <polygon id="Fill-118" fill="#51B3AC" points="660.953 64.953 665.98 64.953 665.98 55.212 660.953 55.212"></polygon>
        <polygon id="Fill-119" fill="#51B3AC" points="660.953 84.16 679.117 84.16 679.117 78.652 660.953 78.652"></polygon>
        <path d="M680.661,78.652 L660.953,78.652 L660.953,64.953 L674.216,64.953 C677.776,64.953 680.661,67.839 680.661,71.399 L680.661,78.652" id="Fill-120" fill="#94CAC5"></path>
        <path d="M666.489,55.212 L660.953,55.212 L660.953,51.227 L666.489,51.227 C667.366,51.227 668.077,51.938 668.077,52.815 L668.077,53.624 C668.077,53.631 668.077,53.637 668.077,53.644 C668.066,54.512 667.359,55.212 666.489,55.212" id="Fill-121" fill="#94CAC5"></path>
        <path d="M682.351,238.11 L660.953,238.11 L660.953,236.011 L681.832,236.058 C674.92,232.067 667.848,230.741 661.496,230.741 C661.314,230.741 661.133,230.742 660.953,230.744 L660.953,151.814 L694.607,151.814 L694.607,225.854 C694.607,232.623 689.12,238.11 682.351,238.11 M694.607,108.881 C694.607,108.881 677.937,108.742 660.953,108.647 L660.953,84.16 L682.351,84.16 C689.12,84.16 694.607,89.648 694.607,96.417 L694.607,108.881" id="Fill-122" fill="#94CAC5"></path>
        <path d="M694.607,151.814 L660.953,151.814 L660.953,108.647 C677.937,108.742 694.607,108.881 694.607,108.881 C689.669,110.627 688.812,119.57 688.812,130.348 C688.812,141.125 689.669,150.069 694.607,151.814" id="Fill-123" fill="#51B3AC"></path>
        <path d="M681.832,236.058 L660.953,236.011 L660.953,230.744 C661.133,230.742 661.314,230.741 661.496,230.741 C667.848,230.741 674.92,232.067 681.832,236.058" id="Fill-124" fill="#51B3AC"></path>
        <polygon id="Fill-126" fill="#B4DBCC" points="379.481 160.428 381.481 160.428 381.481 159.428 379.481 159.428"></polygon>
        <path d="M569.459,101.367 C569.459,101.367 516.511,102.577 498.437,102.577 C480.73,102.577 429.313,101.367 429.313,101.367 L429.313,64.192 C429.313,64.192 480.943,62.983 498.437,62.983 C516.724,62.983 569.459,64.192 569.459,64.192 L569.459,101.367" id="Fill-127" fill="#C86358"></path>
        <path d="M498.437,102.577 C486.988,102.577 461.446,102.413 444.822,102.298 C444.835,102.105 444.843,101.909 444.848,101.714 C461.473,102.072 486.994,102.577 498.437,102.577 C510.08,102.577 536.192,102.075 553.302,101.718 C553.306,101.912 553.315,102.106 553.328,102.299 C536.218,102.414 510.085,102.577 498.437,102.577" id="Fill-128" fill="#2B9A7A"></path>
        <path d="M498.437,102.577 C486.994,102.577 461.473,102.072 444.848,101.714 C444.851,101.605 444.852,101.497 444.852,101.387 L444.852,64.216 C445.455,65.446 446.546,71.22 447.641,76.994 C448.875,83.503 450.117,90.012 450.675,90.012 C450.675,90.012 450.675,90.012 450.676,90.012 C467.006,89.902 488.372,89.772 498.437,89.772 C510.204,89.772 536.232,89.934 553.298,90.05 L553.298,101.387 C553.298,101.498 553.299,101.608 553.302,101.718 C536.192,102.075 510.08,102.577 498.437,102.577" id="Fill-129" fill="#B25C54"></path>
        <path d="M581.866,50.346 L567.257,50.346 C559.548,50.346 553.298,56.536 553.298,64.172 L553.298,101.387 C553.298,109.023 559.548,115.213 567.257,115.213 L581.866,115.213 C589.576,115.213 595.826,109.023 595.826,101.387 L595.826,64.172 C595.826,56.536 589.576,50.346 581.866,50.346" id="Fill-130" fill="#C86358"></path>
        <path d="M430.892,50.346 L416.283,50.346 C408.574,50.346 402.324,56.536 402.324,64.172 L402.324,101.387 C402.324,109.023 408.574,115.213 416.283,115.213 L430.892,115.213 C438.602,115.213 444.852,109.023 444.852,101.387 L444.852,64.172 C444.852,56.536 438.602,50.346 430.892,50.346" id="Fill-131" fill="#C86358"></path>
        <path d="M430.13,113.165 L417.045,113.165 C410.14,113.165 404.542,107.621 404.542,100.782 L404.542,95.582 L442.634,95.582 L442.634,100.782 C442.634,107.621 437.036,113.165 430.13,113.165" id="Fill-132" fill="#B25C54"></path>
        <path d="M581.104,113.165 L568.019,113.165 C561.114,113.165 555.516,107.621 555.516,100.782 L555.516,95.582 L593.608,95.582 L593.608,100.782 C593.608,107.621 588.01,113.165 581.104,113.165" id="Fill-133" fill="#B25C54"></path>
        <path d="M701.823,270.778 C707.019,270.778 711.906,272.19 715.467,274.935 C720.942,279.155 724.107,285.017 724.622,291.886 C724.996,296.883 723.906,301.694 722.588,305.025 C724.683,302.43 726.158,299.466 726.853,296.351 C728.223,290.198 726.553,283.457 722.27,277.856 C718.041,272.326 712.063,268.991 705.869,268.706 C702.011,268.529 698.05,269.603 694.494,271.698 C696.935,271.082 699.412,270.778 701.823,270.778 M687.399,278.023 C683.615,282.969 681.986,288.843 682.912,294.393 C684.31,302.772 691.049,310.038 699.301,312.059 C706.181,313.745 713.59,311.741 718.178,306.959 C719.344,305.743 722.171,299.338 721.63,292.109 C721.175,286.028 718.485,281.05 713.635,277.311 C708.439,273.306 699.444,272.656 691.761,275.732 C690.15,276.378 688.69,277.147 687.399,278.023 M747.054,329.405 C727.697,329.405 708.634,325.675 698.592,321.079 C696.119,319.947 674.537,309.377 677.985,286.939 C678.25,285.214 678.816,283.565 679.655,282.025 C681.981,274.432 686.246,269.327 693.883,264.981 C703.868,259.301 711.827,259.398 721.902,259.51 C724.098,259.536 726.368,259.563 728.796,259.53 C728.981,259.528 729.175,259.526 729.371,259.526 C743.682,259.526 787.966,265.841 801.057,268.97 C801.862,269.162 802.359,269.972 802.167,270.777 C801.974,271.583 801.166,272.082 800.359,271.888 C787.205,268.744 742.3,262.331 728.835,262.53 C726.369,262.563 724.08,262.536 721.868,262.51 C711.871,262.394 704.646,262.311 695.367,267.589 C694.167,268.272 693.064,268.967 692.049,269.687 C696.33,266.926 701.218,265.496 706.008,265.71 C713.088,266.035 719.884,269.799 724.652,276.034 C729.475,282.34 731.344,289.982 729.78,297.003 C728.338,303.478 723.97,309.357 717.796,313.134 C711.63,316.906 704.419,318.115 698.004,316.454 C696.693,316.114 695.404,315.633 694.154,315.023 C696.899,316.948 699.16,318.04 699.84,318.351 C709.781,322.9 727.773,326.137 744.609,326.404 C765.238,326.732 782.172,322.874 792.296,315.541 C792.965,315.056 793.905,315.205 794.391,315.876 C794.877,316.547 794.727,317.484 794.056,317.971 C782.536,326.315 764.673,329.405 747.054,329.405" id="Fill-136" fill="#B2B3B6"></path>
        <path d="M871.541,269.512 L816.494,261.715 C814.964,261.498 813.403,261.689 811.97,262.269 L808.615,263.626 C805.626,264.835 802.213,264.308 799.727,262.252 L796.125,259.274 C794.877,258.241 793.366,257.574 791.761,257.347 L785.304,256.432 C780.502,255.752 776.058,259.093 775.378,263.895 L774.417,270.683 C773.737,275.485 777.078,279.929 781.88,280.609 L788.336,281.523 C789.942,281.751 791.578,281.53 793.065,280.884 L797.352,279.023 C800.311,277.739 803.736,278.18 806.272,280.172 L809.118,282.407 C810.333,283.362 811.779,283.979 813.31,284.195 L868.356,291.992 C873.158,292.672 877.602,289.331 878.282,284.529 L879.003,279.438 C879.684,274.635 876.342,270.192 871.541,269.512" id="Fill-137" fill="#C86358"></path>
        <path d="M869.599,292.08 C869.189,292.08 868.774,292.051 868.356,291.992 L813.31,284.195 C811.779,283.979 810.333,283.362 809.118,282.407 L807.695,281.29 L809.118,282.407 C810.333,283.362 811.779,283.979 813.31,284.195 L868.356,291.992 C868.774,292.051 869.189,292.08 869.599,292.08 C873.903,292.08 877.661,288.913 878.282,284.529 L878.319,284.267 L878.282,284.529 C877.661,288.913 873.903,292.08 869.599,292.08 M789.569,281.61 C790.767,281.61 791.958,281.365 793.065,280.884 L797.352,279.023 C798.475,278.536 799.664,278.297 800.847,278.297 C799.664,278.297 798.475,278.536 797.352,279.023 L793.065,280.884 C791.958,281.365 790.767,281.61 789.569,281.61 M775.883,276.9 C774.899,275.474 774.332,273.755 774.329,271.939 C774.332,273.755 774.899,275.474 775.883,276.9 M774.437,270.545 L774.574,269.572 L774.882,267.401 L774.574,269.572 L774.437,270.545" id="Fill-138" fill="#2B9A7A"></path>
        <polyline id="Fill-139" fill="#DEDFD9" points="774.882 267.401 774.882 267.401 775.049 266.218 774.882 267.401"></polyline>
        <path d="M869.599,292.08 C869.189,292.08 868.774,292.051 868.356,291.992 L813.31,284.195 C811.779,283.979 810.333,283.362 809.118,282.407 L807.695,281.29 L806.272,280.172 C804.698,278.936 802.782,278.297 800.848,278.297 L800.847,278.297 C799.664,278.297 798.475,278.536 797.352,279.023 L793.065,280.884 C791.958,281.365 790.767,281.61 789.569,281.61 C789.428,281.61 789.286,281.607 789.145,281.6 C788.875,281.587 788.605,281.561 788.336,281.523 L781.88,280.609 C779.351,280.251 777.227,278.849 775.883,276.9 C774.899,275.474 774.332,273.755 774.329,271.939 C774.329,271.524 774.357,271.105 774.417,270.683 L774.437,270.545 L774.574,269.572 L774.882,267.401 L775.049,266.218 C775.48,266.475 775.946,266.705 776.459,266.894 C796.529,274.303 865.555,280.337 878.578,282.44 L878.319,284.267 L878.282,284.529 C877.661,288.913 873.903,292.08 869.599,292.08" id="Fill-140" fill="#B25C54"></path>
        <path d="M859.308,298.759 L804.266,306.589 C802.736,306.807 801.29,307.425 800.075,308.38 L797.23,310.617 C794.696,312.611 791.271,313.054 788.311,311.772 L784.023,309.913 C782.536,309.268 780.9,309.048 779.294,309.277 L772.838,310.195 C768.037,310.878 764.698,315.324 765.382,320.125 L765.539,321.236 L766.347,326.913 C767.03,331.714 771.476,335.053 776.277,334.37 L782.734,333.451 C784.339,333.223 785.849,332.555 787.097,331.521 L790.697,328.541 C793.181,326.484 796.594,325.954 799.584,327.162 L802.94,328.517 C804.373,329.095 805.934,329.285 807.464,329.068 L862.506,321.238 C867.307,320.555 870.646,316.109 869.962,311.307 L869.925,311.045 L869.275,306.479 L869.238,306.216 C868.555,301.415 864.109,298.076 859.308,298.759" id="Fill-141" fill="#C86358"></path>
        <path d="M774.927,309.898 L779.294,309.277 C779.691,309.22 780.09,309.193 780.488,309.193 C780.942,309.193 781.396,309.229 781.845,309.296 C779.543,309.549 777.237,309.747 774.927,309.898" id="Fill-142" fill="#B25C54"></path>
        <path d="M775.923,334.413 C776.041,334.401 776.159,334.386 776.277,334.37 L779.505,333.91 L776.277,334.37 C776.159,334.386 776.041,334.401 775.923,334.413 M785.946,332.328 C786.349,332.091 786.734,331.822 787.097,331.521 L788.728,330.171 L787.097,331.521 C786.734,331.822 786.349,332.091 785.946,332.328" id="Fill-143" fill="#2B9A7A"></path>
        <path d="M785.707,332.463 C785.787,332.42 785.867,332.374 785.946,332.328 C785.867,332.374 785.787,332.42 785.707,332.463" id="Fill-144" fill="#78BBA7"></path>
        <path d="M768.708,331.76 C768.688,331.739 768.668,331.718 768.648,331.697 C768.668,331.718 768.688,331.739 768.708,331.76 M768.645,331.693 C767.683,330.673 766.958,329.415 766.571,327.997 C766.958,329.415 767.683,330.673 768.645,331.693" id="Fill-145" fill="#2B9A7A"></path>
        <path d="M766.571,327.997 C766.475,327.645 766.4,327.283 766.347,326.913 L766.189,325.802 L766.347,326.913 C766.4,327.283 766.475,327.645 766.571,327.997" id="Fill-146" fill="#DEDFD9"></path>
        <path d="M806.227,329.155 C805.448,329.155 804.672,329.052 803.92,328.847 C804.672,329.052 805.448,329.155 806.227,329.155 C806.64,329.155 807.053,329.126 807.464,329.068 L862.506,321.238 L807.464,329.068 C807.053,329.126 806.64,329.155 806.227,329.155 M799.268,327.041 C798.477,326.757 797.661,326.591 796.844,326.54 C797.661,326.591 798.477,326.757 799.268,327.041" id="Fill-147" fill="#2B9A7A"></path>
        <path d="M801.262,327.839 L799.584,327.162 C799.479,327.12 799.374,327.079 799.268,327.041 C799.374,327.079 799.479,327.12 799.584,327.162 L801.262,327.839" id="Fill-148" fill="#58B095"></path>
        <path d="M867.499,318.733 C869.357,316.86 870.352,314.175 869.97,311.364 C870.352,314.175 869.357,316.86 867.499,318.733 M869.962,311.307 L869.925,311.045 L869.679,309.317 L869.925,311.045 L869.962,311.307" id="Fill-149" fill="#2B9A7A"></path>
        <path d="M775.03,334.458 C772.59,334.458 770.326,333.44 768.708,331.76 C768.688,331.739 768.668,331.718 768.648,331.697 C768.647,331.696 768.646,331.695 768.645,331.693 C767.683,330.673 766.958,329.415 766.571,327.997 C766.475,327.645 766.4,327.283 766.347,326.913 L766.189,325.802 L766.099,325.172 C794.144,320.766 852.497,313.312 869.679,309.317 L869.925,311.045 L869.962,311.307 C869.965,311.326 869.968,311.345 869.97,311.364 C870.352,314.175 869.357,316.86 867.499,318.733 C866.198,320.044 864.475,320.957 862.506,321.238 L807.464,329.068 C807.053,329.126 806.64,329.155 806.227,329.155 C805.448,329.155 804.672,329.052 803.92,328.847 C803.588,328.756 803.261,328.646 802.94,328.517 L801.262,327.839 L799.584,327.162 C799.479,327.12 799.374,327.079 799.268,327.041 C798.477,326.757 797.661,326.591 796.844,326.54 C796.662,326.529 796.48,326.523 796.298,326.523 C794.286,326.523 792.299,327.214 790.697,328.541 L787.097,331.521 C786.734,331.822 786.349,332.091 785.946,332.328 C785.867,332.374 785.787,332.42 785.707,332.463 C784.787,332.966 783.78,333.302 782.733,333.451 L779.505,333.91 L776.277,334.37 C776.159,334.386 776.041,334.401 775.923,334.413 C775.623,334.443 775.325,334.458 775.03,334.458" id="Fill-150" fill="#B25C54"></path>
        <path d="M311.446,302.213 C310.773,302.065 310.27,301.465 310.27,300.748 C310.27,300.031 310.773,299.431 311.446,299.283 L311.446,302.213" id="Fill-152" fill="#B4DBCC"></path>
        <path d="M424.37,387.5 L424.119,387.5 C423.291,387.5 422.62,386.828 422.62,386 C422.62,385.172 423.291,384.5 424.119,384.5 L424.37,384.5 C425.198,384.5 425.87,385.172 425.87,386 C425.87,386.828 425.198,387.5 424.37,387.5" id="Fill-154" fill="#86C8B4"></path>
        <path d="M420.407,429.477 L420.157,429.477 C419.328,429.477 418.657,428.805 418.657,427.976 C418.657,427.148 419.328,426.477 420.157,426.477 L420.407,426.477 C421.236,426.477 421.907,427.148 421.907,427.976 C421.907,428.805 421.236,429.477 420.407,429.477" id="Fill-157" fill="#62BCA1"></path>
        <path d="M736.453,429.477 L736.203,429.477 C735.375,429.477 734.703,428.805 734.703,427.976 C734.703,427.148 735.375,426.477 736.203,426.477 L736.453,426.477 C737.281,426.477 737.953,427.148 737.953,427.976 C737.953,428.805 737.281,429.477 736.453,429.477" id="Fill-160" fill="#62BCA1"></path>
        <path d="M444.339,429.477 L444.089,429.477 C443.26,429.477 442.589,428.805 442.589,427.976 C442.589,427.148 443.26,426.477 444.089,426.477 L444.339,426.477 C445.168,426.477 445.839,427.148 445.839,427.976 C445.839,428.805 445.168,429.477 444.339,429.477" id="Fill-162" fill="#62BCA1"></path>
        <path d="M269.54,321.553 C277.564,314.441 281.535,307.834 281.345,301.915 C281.18,296.811 277.92,294.219 277.781,294.112 L276.943,295.186 C276.971,295.209 279.854,297.53 279.983,301.994 C280.14,307.403 276.217,313.814 268.636,320.533 L269.54,321.553" id="Fill-163" fill="#124A51"></path>
        <path d="M247.442,393.912 C248.398,393.912 249.224,393.194 249.335,392.221 C250.757,379.821 256.938,368.704 266.739,360.918 C276.541,353.134 288.767,349.628 301.169,351.05 C309.889,352.05 318.117,355.465 324.961,360.925 C325.784,361.583 326.985,361.448 327.642,360.624 C328.299,359.799 328.164,358.599 327.34,357.942 C319.936,352.034 311.037,348.34 301.603,347.258 C288.19,345.72 274.965,349.511 264.365,357.93 C253.765,366.349 247.081,378.373 245.544,391.787 C245.424,392.834 246.175,393.78 247.222,393.899 L247.442,393.912" id="Fill-164" fill="#FFFFFE"></path>
        <path d="M189.284,393.912 L189.504,393.899 C190.551,393.78 191.302,392.834 191.182,391.787 C189.645,378.373 182.96,366.349 172.361,357.93 C161.761,349.511 148.535,345.72 135.123,347.258 C125.69,348.34 116.79,352.034 109.386,357.942 C108.562,358.599 108.427,359.799 109.084,360.624 C109.741,361.447 110.942,361.583 111.766,360.925 C118.609,355.465 126.836,352.05 135.558,351.05 C147.96,349.629 160.185,353.133 169.987,360.918 C179.788,368.704 185.969,379.821 187.391,392.221 C187.503,393.194 188.328,393.912 189.284,393.912" id="Fill-165" fill="#FFFFFE"></path>
        <polyline id="Fill-166" fill="#FFFFFE" points="95.722 397.641 95.786 395.71 135.716 397.026 99.517 380.121 100.334 378.371 136.276 395.156 109.444 366.496 109.165 366.197 110.574 364.878 137.881 394.044 124.377 356.876 124.237 356.492 126.052 355.832 139.599 393.116 140.891 353.878 140.904 353.469 142.834 353.534 141.519 393.465 158.424 357.264 160.174 358.082 143.391 394.023 172.347 366.912 173.667 368.322 144.501 395.628 181.668 382.124 182.052 381.985 182.712 383.799 145.43 397.345 184.667 398.638 185.075 398.651 185.012 400.582 145.08 399.267 181.281 416.172 180.463 417.922 144.522 401.138 171.353 429.797 171.633 430.095 170.223 431.414 142.917 402.248 156.42 439.416 156.56 439.8 154.745 440.46 141.199 403.177 139.906 442.415 139.893 442.823 137.963 442.759 139.279 402.827 122.373 439.028 120.623 438.212 137.407 402.27 108.749 429.1 108.451 429.38 107.13 427.97 136.297 400.664 99.129 414.169 98.745 414.309 98.085 412.493 135.368 398.947 96.131 397.654 95.722 397.641"></polyline>
        <polyline id="Fill-167" fill="#FFFFFE" points="251.637 397.641 251.701 395.71 291.631 397.026 255.432 380.121 256.249 378.371 292.192 395.156 265.08 366.197 266.49 364.878 293.796 394.044 280.292 356.876 280.152 356.492 281.967 355.832 295.514 393.116 296.806 353.878 296.82 353.469 298.749 353.534 297.434 393.465 314.34 357.264 316.089 358.082 299.306 394.023 327.963 367.192 328.263 366.912 329.582 368.322 300.415 395.628 337.583 382.124 337.968 381.985 338.628 383.799 301.345 397.345 340.582 398.638 340.991 398.651 340.927 400.582 300.996 399.267 337.196 416.172 336.379 417.922 300.438 401.138 327.268 429.797 327.548 430.095 326.138 431.414 298.831 402.248 312.336 439.416 312.476 439.8 310.661 440.46 297.115 403.177 295.822 442.415 295.809 442.823 293.879 442.759 295.193 402.827 278.288 439.028 276.538 438.212 293.322 402.27 264.664 429.1 264.366 429.38 263.046 427.97 292.211 400.664 255.045 414.169 254.66 414.309 254.001 412.493 291.283 398.947 252.046 397.654 251.637 397.641"></polyline>
        <path d="M140.181,354.4 C116.168,354.4 96.631,373.937 96.631,397.952 C96.631,421.965 116.168,441.502 140.181,441.502 C164.195,441.502 183.732,421.965 183.732,397.952 C183.732,373.937 164.195,354.4 140.181,354.4 Z M140.181,446.666 C113.319,446.666 91.466,424.813 91.466,397.952 C91.466,371.09 113.319,349.236 140.181,349.236 C167.043,349.236 188.896,371.09 188.896,397.952 C188.896,424.813 167.043,446.666 140.181,446.666 Z" id="Fill-168" fill="#124A51"></path>
        <path d="M301.071,355.375 C277.213,352.64 255.578,369.824 252.843,393.682 C250.108,417.54 267.292,439.175 291.15,441.91 C315.007,444.645 336.642,427.46 339.377,403.603 C342.113,379.745 324.928,358.11 301.071,355.375 Z M290.562,447.041 C263.875,443.981 244.652,419.781 247.712,393.094 C250.772,366.408 274.972,347.185 301.658,350.245 C328.345,353.304 347.567,377.505 344.508,404.192 C341.448,430.878 317.248,450.1 290.562,447.041 Z" id="Fill-169" fill="#124A51"></path>
        <polyline id="Fill-170" fill="#C86358" points="206.922 399.759 143.758 400.09 140.399 392.891 188.784 334.92 191.632 337.147 144.611 393.371 146.072 396.501 206.963 396.144 206.922 399.759"></polyline>
        <polyline id="Fill-171" fill="#C86358" points="220.437 388.651 216.914 384.875 268.938 340.667 268.256 339.074 187.863 339.074 187.863 333.909 271.663 333.909 275.112 341.969 220.437 388.651"></polyline>
        <path d="M268.489,321.052 C267.467,320.935 266.61,320.143 266.456,319.076 L264.909,308.387 C264.07,303.126 266.029,301.236 268.479,299.473 C268.773,299.261 269.08,299.041 269.388,298.796 C269.647,298.59 269.928,298.375 270.223,298.148 C271.906,296.857 274.451,294.906 274.01,293.397 C273.928,293.116 273.781,292.754 273.548,292.629 C273.239,292.463 272.711,292.57 272.706,292.572 C272.561,292.618 272.41,292.649 272.257,292.665 L271.595,288.062 C272.286,287.899 274.048,287.626 275.74,288.531 C276.654,289.02 277.869,290.035 278.471,292.094 C279.805,296.657 275.577,299.899 273.052,301.836 C272.779,302.046 272.519,302.245 272.279,302.435 C271.91,302.729 271.546,302.991 271.193,303.245 C269.541,304.435 269.042,304.794 269.503,307.689 L271.055,318.41 C271.239,319.681 270.358,320.86 269.089,321.043 C268.885,321.073 268.684,321.075 268.489,321.052" id="Fill-172" fill="#124A51"></path>
        <path d="M190.844,345.167 C190.125,345.109 189.481,344.621 189.258,343.89 L181.715,318.51 C181.425,317.555 181.964,316.546 182.92,316.256 C183.875,315.966 184.884,316.506 185.174,317.461 L192.718,342.839 C193.008,343.795 192.468,344.804 191.513,345.094 C191.29,345.162 191.064,345.184 190.844,345.167" id="Fill-173" fill="#124A51"></path>
        <path d="M140.009,394.078 C137.589,394.078 135.62,396.047 135.62,398.468 C135.62,400.888 137.589,402.857 140.009,402.857 C142.43,402.857 144.399,400.888 144.399,398.468 C144.399,396.047 142.43,394.078 140.009,394.078 Z M140.009,406.472 C135.596,406.472 132.005,402.882 132.005,398.468 C132.005,394.054 135.596,390.464 140.009,390.464 C144.423,390.464 148.014,394.054 148.014,398.468 C148.014,402.882 144.423,406.472 140.009,406.472 Z" id="Fill-174" fill="#124A51"></path>
        <path d="M208.003,380.769 L137.458,391.179 C136.475,391.352 135.818,392.289 135.991,393.272 C136.146,394.149 136.908,394.767 137.769,394.767 C137.873,394.767 137.978,394.758 138.084,394.739 L209.099,384.247 C208.54,383.167 208.172,381.989 208.003,380.769" id="Fill-175" fill="#124A51"></path>
        <path d="M204.059,407.598 L140.2,402.695 C139.21,402.583 138.317,403.309 138.212,404.301 C138.107,405.293 138.826,406.184 139.818,406.29 L204.916,411.325 C204.417,410.149 204.13,408.888 204.059,407.598" id="Fill-176" fill="#124A51"></path>
        <path d="M294.113,400.745 L283.903,383.525 C281.222,379.158 279.209,374.413 277.931,369.451 L265.93,317.141 L270.931,315.853 L282.011,364.59 C283.772,371.426 286.507,377.973 290.131,384.031 L298.515,398.044 L294.113,400.745" id="Fill-177" fill="#C86358"></path>
        <polyline id="Fill-178" fill="#C86358" points="199.528 383.022 184.82 332.282 189.78 330.844 204.488 381.583 199.528 383.022"></polyline>
        <path d="M208.003,412.497 C199.129,412.497 191.909,405.277 191.909,396.402 C191.909,387.528 199.129,380.307 208.003,380.307 C216.878,380.307 224.098,387.528 224.098,396.402 C224.098,405.277 216.878,412.497 208.003,412.497" id="Fill-179" fill="#A1D6D1"></path>
        <path d="M197.013,423.435 C196.604,423.112 196.353,422.602 196.384,422.042 C196.434,421.129 197.215,420.43 198.129,420.48 L211.028,421.191 C211.941,421.242 212.641,422.023 212.591,422.936 C212.541,423.849 211.759,424.549 210.846,424.498 L197.946,423.787 C197.593,423.768 197.271,423.638 197.013,423.435" id="Fill-180" fill="#124A51"></path>
        <path d="M173.121,309.695 C180.23,310.351 201.626,308.016 201.626,308.016 C203.493,307.824 204.339,310.286 202.748,311.281 L181.642,321.004 C174.313,325.332 169.374,321.274 168.958,320.259 L167.288,313.842 C166.839,312.747 167.59,309.185 173.121,309.695" id="Fill-181" fill="#A1D6D1"></path>
        <path d="M291.894,398.159 C292.17,395.751 294.347,394.023 296.755,394.298 C299.164,394.574 300.892,396.751 300.616,399.159 C300.34,401.568 298.164,403.297 295.755,403.02 C293.347,402.744 291.618,400.568 291.894,398.159" id="Fill-182" fill="#FFFFFE"></path>
        <path d="M146.207,398.468 C146.207,401.89 143.431,404.664 140.009,404.664 C136.586,404.664 133.812,401.89 133.812,398.468 C133.812,395.045 136.586,392.271 140.009,392.271 C143.431,392.271 146.207,395.045 146.207,398.468" id="Fill-183" fill="#124A51"></path>
        <path d="M204.493,424.531 C204.402,424.531 204.312,424.527 204.221,424.511 C203.121,424.366 202.347,423.352 202.496,422.252 L206.009,396.134 C206.155,395.034 207.192,394.22 208.269,394.409 C209.369,394.555 210.143,395.567 209.994,396.668 L206.481,422.786 C206.347,423.796 205.483,424.531 204.493,424.531" id="Fill-184" fill="#124A51"></path>
        <path d="M288.013,339.194 C288.061,339.796 287.612,340.323 287.009,340.371 L281.442,340.813 C278.509,341.047 275.942,338.859 275.709,335.926 C275.475,332.993 277.664,330.426 280.597,330.193 L286.164,329.75 C286.767,329.702 287.293,330.151 287.341,330.754 L288.013,339.194" id="Fill-185" fill="#FFFFFE"></path>
        <polyline id="Fill-186" fill="#FFFFFE" points="268.775 333.909 278.726 333.909 279.706 339.074 268.256 339.074 268.775 333.909"></polyline>
        <path d="M270.924,293.72 L258.537,291.007 C256.677,290.599 255.499,288.76 255.907,286.9 C256.314,285.039 258.153,283.861 260.014,284.269 L272.401,286.983 C274.262,287.391 275.44,289.23 275.031,291.091 C274.623,292.951 272.784,294.128 270.924,293.72" id="Fill-187" fill="#A1D6D1"></path>
        <path d="M173.394,342.763 L119.945,342.763 C119.786,342.763 119.658,342.634 119.658,342.476 L119.658,339.361 C119.658,339.202 119.786,339.074 119.945,339.074 L173.394,339.074 C173.552,339.074 173.681,339.202 173.681,339.361 L173.681,342.476 C173.681,342.634 173.552,342.763 173.394,342.763" id="Fill-188" fill="#FFFFFE"></path>
        <polyline id="Fill-189" fill="#FFFFFE" points="174.033 352.408 163.372 342.384 166.131 339.453 176.79 349.476 174.033 352.408"></polyline>
        <path d="M507.873,295.018 C507.873,295.018 500.129,276.863 504.417,250.579 C509.792,217.637 519.484,201.182 520.629,198.703 C521.773,196.223 525.228,192.6 528.471,191.265 C531.713,189.93 548.878,186.115 561.656,192.981 C574.435,199.847 585.688,220.827 594.461,244.476 C600.928,261.911 595.987,299.023 593.889,306.271 C591.791,313.518 589.691,327.979 589.407,331.637 C587.404,357.384 588.739,386.946 587.976,390.952 C587.213,394.957 591.981,443.782 549.927,448.073 C507.873,452.364 510.161,383.275 510.161,383.275 L510.818,349.609 L507.873,295.018" id="Fill-190" fill="#FFFFFE"></path>
        <path d="M511.878,345.083 L509.589,293.015 C509.589,293.015 503.295,264.979 510.733,234.368 C518.172,203.757 524.752,193.172 530.187,192.027 C535.623,190.883 553.932,188.022 563.373,196.319 C572.814,204.615 590.265,234.559 592.554,264.311 C594.842,294.064 589.693,314.472 588.262,331.923 C586.832,349.374 586.711,374.642 586.26,384.562 C585.401,403.444 584.868,433.173 566.234,442.637 C548.211,451.792 513.596,452.197 509.875,398.866 C508.159,374.263 511.878,345.083 511.878,345.083" id="Fill-191" fill="#C86358"></path>
        <path d="M580.211,291.694 C579.881,290.28 579.981,288.84 580.438,287.547 C580.386,287.191 580.349,286.825 580.347,286.435 C580.311,277.595 579.273,268.667 575.4,261.205 C571.833,254.335 566.534,249.408 559.283,245.945 C559.055,245.836 558.891,245.757 558.76,245.693 C558.704,245.672 558.63,245.643 558.514,245.596 C558.056,245.412 557.593,245.243 557.129,245.079 C556.326,244.796 555.514,244.538 554.695,244.307 C553.775,244.049 552.844,243.825 551.906,243.636 C551.559,243.566 551.21,243.505 550.861,243.442 C550.702,243.413 550.607,243.394 550.551,243.382 C548.74,243.164 546.905,243.1 545.083,243.165 C544.289,243.194 543.501,243.26 542.71,243.326 C541.311,243.442 542.226,243.391 542.529,243.342 C542.087,243.413 541.647,243.49 541.208,243.577 C539.468,243.922 537.753,244.398 536.085,245.002 C535.744,245.126 535.404,245.257 535.068,245.393 C534.97,245.441 534.845,245.502 534.681,245.581 C533.99,245.917 533.307,246.265 532.637,246.641 C531.778,247.124 530.939,247.643 530.125,248.2 C529.854,248.386 529.586,248.577 529.32,248.77 L529.26,248.814 L529.15,248.906 C527.878,249.964 526.678,251.103 525.573,252.337 C525.331,252.607 524.361,253.841 524.416,253.737 C523.935,254.408 523.477,255.097 523.048,255.803 C522.572,256.585 522.129,257.388 521.72,258.207 C521.565,258.518 521.416,258.832 521.27,259.148 L521.183,259.335 L521.139,259.447 C519.67,263.175 519.105,266.282 518.935,269.652 C518.876,270.796 518.569,271.885 518.061,272.847 C518.135,273.281 518.177,273.74 518.172,274.229 C518.109,279.948 516.846,285.03 513.65,289.584 C512.8,291.268 511.267,292.335 509.543,292.803 C509.573,292.941 509.589,293.015 509.589,293.015 L511.878,345.083 C511.878,345.083 508.159,374.263 509.875,398.866 C513.596,452.197 548.211,451.792 566.234,442.637 C584.868,433.173 585.401,403.444 586.26,384.562 C586.711,374.642 586.832,349.374 588.262,331.923 C588.915,323.958 590.342,315.374 591.483,305.57 C586.121,302.443 581.683,298.001 580.211,291.694" id="Fill-192" fill="#A1D6D1"></path>
        <path d="M573.525,333.725 C572.076,332.76 570.559,331.958 568.951,331.247 C565.153,329.569 562.416,325.786 560.697,321.924 C555.138,321.267 549.547,320.843 543.966,321.262 C536.002,322.751 528.413,325.606 520.805,328.372 C519.86,330.967 518.361,333.28 516.545,335.677 C517.191,334.84 517.168,334.047 517.814,333.21 C515.799,335.956 514.892,338.847 513.511,341.936 C512.925,343.347 512.339,344.757 511.747,346.164 C511.103,351.651 508.353,377.055 509.875,398.866 C513.596,452.197 548.211,451.792 566.234,442.637 C584.868,433.173 585.401,403.444 586.26,384.562 C586.615,376.751 583.542,338.789 573.525,333.725" id="Fill-193" fill="#C86358"></path>
        <path d="M570.905,332.543 C569.581,331.605 560.865,325.659 559.295,321.902 C554.218,321.263 549.113,320.85 544.017,321.258 C536.745,322.706 529.815,325.484 522.868,328.174 C522.005,330.698 519.547,333.694 520.137,332.881 C518.297,335.552 517.469,338.364 516.207,341.369 C515.672,342.741 515.137,344.113 514.597,345.483 C514.009,350.819 511.498,375.533 512.887,396.751 C516.285,448.631 547.893,448.237 564.351,439.331 C581.366,430.124 581.854,401.204 582.637,382.836 C582.961,375.237 580.052,337.47 570.905,332.543" id="Fill-194" fill="#57BCB8"></path>
        <path d="M514.453,289.582 C514.453,289.582 509.589,269.27 511.306,252.964 C513.022,236.657 524.036,206.475 530.187,204.472 C540.25,201.196 555.076,201.182 563.945,216.059 C572.814,230.935 578.535,246.098 581.682,256.969 C584.829,267.84 586.832,281 586.546,282.43 C586.26,283.861 581.396,294.732 581.396,294.732 C581.396,294.732 572.814,277.853 572.242,274.992 C571.669,272.131 573.386,258.971 559.94,254.68 C546.494,250.389 525.61,250.675 523.321,260.974 C521.032,271.273 519.888,281.572 514.453,289.582" id="Fill-195" fill="#FFFFFE"></path>
        <path d="M529.73,273.117 C529.549,274.155 528.561,274.849 527.524,274.668 C526.486,274.487 525.792,273.499 525.973,272.461 C526.154,271.424 527.141,270.729 528.179,270.91 C529.217,271.091 529.911,272.079 529.73,273.117" id="Fill-196" fill="#124A51"></path>
        <path d="M527.775,286.334 C527.594,287.372 526.606,288.066 525.568,287.885 C524.53,287.704 523.836,286.716 524.017,285.678 C524.198,284.641 525.186,283.946 526.224,284.127 C527.261,284.308 527.956,285.296 527.775,286.334" id="Fill-197" fill="#124A51"></path>
        <path d="M525.581,297.634 C525.401,298.672 524.412,299.366 523.375,299.185 C522.337,299.004 521.643,298.017 521.824,296.979 C522.005,295.941 522.993,295.247 524.03,295.428 C525.068,295.609 525.762,296.597 525.581,297.634" id="Fill-198" fill="#124A51"></path>
        <path d="M523.913,309.507 C523.732,310.544 522.744,311.239 521.706,311.058 C520.668,310.877 519.974,309.889 520.155,308.851 C520.336,307.814 521.324,307.119 522.362,307.3 C523.399,307.481 524.094,308.469 523.913,309.507" id="Fill-199" fill="#124A51"></path>
        <path d="M522.911,321.093 C522.73,322.131 521.742,322.825 520.705,322.644 C519.667,322.463 518.973,321.475 519.154,320.438 C519.335,319.4 520.323,318.706 521.36,318.887 C522.398,319.068 523.092,320.056 522.911,321.093" id="Fill-200" fill="#124A51"></path>
        <path d="M573.644,321.093 C573.463,322.131 572.475,322.825 571.437,322.644 C570.399,322.463 569.705,321.475 569.886,320.438 C570.067,319.4 571.055,318.706 572.092,318.887 C573.13,319.068 573.825,320.056 573.644,321.093" id="Fill-201" fill="#124A51"></path>
        <path d="M562.699,273.987 C562.88,275.025 563.867,275.719 564.905,275.538 C565.943,275.357 566.637,274.369 566.456,273.331 C566.275,272.294 565.287,271.599 564.25,271.78 C563.212,271.961 562.518,272.949 562.699,273.987" id="Fill-202" fill="#124A51"></path>
        <path d="M565.022,286.334 C565.203,287.372 566.191,288.066 567.229,287.885 C568.267,287.704 568.961,286.716 568.78,285.678 C568.599,284.641 567.611,283.946 566.574,284.127 C565.536,284.308 564.841,285.296 565.022,286.334" id="Fill-203" fill="#124A51"></path>
        <path d="M567.216,297.825 C567.397,298.863 568.385,299.557 569.422,299.376 C570.46,299.195 571.154,298.207 570.974,297.17 C570.792,296.132 569.805,295.437 568.767,295.618 C567.729,295.799 567.035,296.787 567.216,297.825" id="Fill-204" fill="#124A51"></path>
        <path d="M568.885,309.507 C569.066,310.544 570.053,311.239 571.091,311.058 C572.129,310.877 572.823,309.889 572.642,308.851 C572.461,307.814 571.473,307.119 570.436,307.3 C569.398,307.481 568.704,308.469 568.885,309.507" id="Fill-205" fill="#124A51"></path>
        <path d="M519.507,352.235 C519.507,352.235 514.357,385.802 520.651,407.354 C526.945,428.905 534.955,437.107 545.445,437.869 C555.935,438.632 564.517,434.627 570.239,419.56 C572.955,412.408 579.394,381.987 568.522,354.905 L519.507,352.235" id="Fill-206" fill="#124A51"></path>
        <path d="M560.655,194.889 C560.482,194.889 560.306,194.857 560.135,194.791 C543.245,188.198 527.833,193.742 527.679,193.798 C526.94,194.071 526.115,193.694 525.842,192.952 C525.568,192.211 525.947,191.388 526.688,191.115 C527.357,190.867 543.281,185.143 561.175,192.125 C561.911,192.413 562.275,193.242 561.988,193.978 C561.767,194.543 561.227,194.889 560.655,194.889" id="Fill-207" fill="#124A51"></path>
        <path d="M573.218,349.017 L570.067,337.49 C568.43,331.222 555.612,282.04 555.076,276.563 C554.614,271.832 553.028,268.923 547.904,267.835 C547.904,267.835 546.447,267.44 545.779,267.509 C545.111,267.44 543.654,267.835 543.654,267.835 C538.53,268.923 536.943,271.832 536.481,276.563 C535.909,282.415 521.319,338.149 521.319,338.149 L518.911,349.017 C518.911,349.017 517.481,355.983 530.069,356.541 C538.897,356.932 553.23,356.932 562.061,356.541 C574.649,355.983 573.218,349.017 573.218,349.017" id="Fill-208" fill="#C86358"></path>
        <path d="M539.723,272.894 C539.718,271.588 538.787,272.579 538.77,271.273 C538.765,270.911 538.791,270.57 538.83,270.238 C537.381,271.752 536.745,273.858 536.481,276.563 C536.072,280.743 528.511,310.373 524.224,326.962 C525.948,325.738 527.743,324.657 529.655,323.774 C532.074,307.499 537.039,289.129 539.723,272.894" id="Fill-209" fill="#C86358"></path>
        <path d="M555.076,276.563 C554.79,273.635 554.071,271.407 552.352,269.875 C552.403,270.132 552.435,270.402 552.459,270.678 C553.154,271.671 551.692,271.198 551.739,272.703 C552.074,283.546 556.205,295.833 558.081,306.479 C559.209,312.883 559.98,319.342 560.711,325.806 C561.685,326.2 562.628,326.676 563.517,327.258 C565.049,328.262 566.612,329.218 568.167,330.186 C564.12,314.569 555.513,281.031 555.076,276.563" id="Fill-210" fill="#C86358"></path>
        <path d="M557.651,267.268 C552.937,266.222 546.018,266.505 546.018,266.505 C546.016,266.505 539.097,266.222 534.383,267.268 C527.612,268.77 527.707963,274.134 527.707963,274.134 C530.187,272.227 534.002,272.608 534.002,272.608 L558.033,272.608 C558.033,272.608 561.847,272.227 564.326073,274.134 C564.326073,274.134 564.422,268.77 557.651,267.268" id="Fill-211" fill="#57BCB8"></path>
        <path d="M525.896,286.006 C525.896,286.006 525.896,282.287 527.755,281.143 C529.615,279.999 546.065,272.417 546.065,272.417 L559.797,272.417 L532.476,285.577 C532.476,285.577 529.043,287.437 525.896,286.006" id="Fill-212" fill="#57BCB8"></path>
        <path d="M523.464,297.593 C523.464,297.593 523.464,293.874 525.324,292.729 C527.183,291.585 550.213,280.714 550.213,280.714 L557.365,284.004 L530.044,297.164 C530.044,297.164 526.611,299.023 523.464,297.593" id="Fill-213" fill="#57BCB8"></path>
        <path d="M522.034,309.179 C522.034,309.179 522.034,305.46 523.893,304.316 C525.753,303.171 550.594,291.299 550.594,291.299 L557.651,294.446 L528.614,308.75 C528.614,308.75 525.181,310.609 522.034,309.179" id="Fill-214" fill="#57BCB8"></path>
        <path d="M521.032,320.766 C521.032,320.766 521.032,317.046 522.892,315.902 C524.752,314.758 550.881,302.361 550.881,302.361 L558.033,305.698 L527.612,320.336 C527.612,320.336 524.179,322.196 521.032,320.766" id="Fill-215" fill="#57BCB8"></path>
        <path d="M515.74,336.643 C515.74,336.643 515.597,331.637 520.031,327.488 C521.626,325.997 550.118,312.946 550.118,312.946 L556.984,316.284 L524.656,330.874 C524.656,330.874 519.364,333.782 515.74,336.643" id="Fill-216" fill="#57BCB8"></path>
        <path d="M566.901,286.006 C566.901,286.006 566.901,282.287 565.042,281.143 C563.182,279.999 546.732,272.417 546.732,272.417 L533,272.417 L560.321,285.577 C560.321,285.577 563.754,287.437 566.901,286.006" id="Fill-217" fill="#57BCB8"></path>
        <path d="M569.333,297.593 C569.333,297.593 569.333,293.874 567.474,292.729 C565.614,291.585 543.061,280.523 543.061,280.523 L535.432,284.004 L562.753,297.164 C562.753,297.164 566.186,299.023 569.333,297.593" id="Fill-218" fill="#57BCB8"></path>
        <path d="M570.763,309.179 C570.763,309.179 570.763,305.46 568.904,304.316 C567.044,303.171 541.344,291.776 541.344,291.776 L535.051,294.732 L564.184,308.75 C564.184,308.75 567.617,310.609 570.763,309.179" id="Fill-219" fill="#57BCB8"></path>
        <path d="M571.765,320.766 C571.765,320.766 571.765,317.046 569.905,315.902 C568.046,314.758 541.154,302.551 541.154,302.551 L534.955,305.698 L565.185,320.336 C565.185,320.336 568.618,322.196 571.765,320.766" id="Fill-220" fill="#57BCB8"></path>
        <path d="M576.676,336.5 C576.676,336.5 575.865,331.065 572.099,327.488 C570.515,325.985 542.012,312.946 542.012,312.946 L535.146,316.284 L567.474,330.874 C567.474,330.874 573.052,333.639 576.676,336.5" id="Fill-221" fill="#57BCB8"></path>
        <path d="M530.142,416.272 C530.923,417.082 531.837,416.997 529.54,415.674 C529.741,415.873 529.945,416.068 530.142,416.272" id="Fill-222" fill="#124A51"></path>
        <path d="M492.128,295.018 C492.128,295.018 500.351,276.781 495.583,250.579 C489.055,214.71 480.516,201.182 479.371,198.703 C478.227,196.223 474.772,192.6 471.529,191.265 C468.287,189.93 451.122,186.115 438.344,192.981 C425.565,199.847 414.313,220.827 405.539,244.476 C399.072,261.911 404.013,299.023 406.111,306.271 C408.209,313.518 410.309,327.979 410.593,331.637 C412.596,357.384 411.261,386.946 412.024,390.952 C412.787,394.957 408.019,443.782 450.073,448.073 C492.128,452.364 489.839,383.275 489.839,383.275 L489.182,349.609 L492.128,295.018" id="Fill-223" fill="#FFFFFE"></path>
        <path d="M488.122,345.083 L490.411,293.015 C490.411,293.015 496.705,264.979 489.267,234.368 C481.828,203.757 475.248,193.172 469.813,192.027 C464.377,190.883 446.068,188.022 436.627,196.319 C427.186,204.615 409.735,234.559 407.446,264.311 C405.158,294.064 410.307,314.472 411.738,331.923 C413.168,349.374 413.289,374.642 413.74,384.562 C414.599,403.444 415.132,433.173 433.766,442.637 C451.79,451.792 486.404,452.197 490.125,398.866 C491.841,374.263 488.122,345.083 488.122,345.083" id="Fill-224" fill="#C86358"></path>
        <path d="M419.789,291.694 C420.119,290.28 420.019,288.84 419.561,287.547 C419.614,287.191 419.651,286.825 419.653,286.435 C419.689,277.595 420.727,268.667 424.6,261.205 C428.167,254.335 433.466,249.408 440.717,245.945 C440.945,245.836 441.109,245.757 441.24,245.693 C441.296,245.672 441.37,245.643 441.486,245.596 C441.943,245.412 442.407,245.243 442.871,245.079 C443.674,244.796 444.485,244.538 445.305,244.307 C446.225,244.049 447.157,243.825 448.094,243.636 C448.441,243.566 448.79,243.505 449.139,243.442 C449.298,243.413 449.393,243.394 449.449,243.382 C451.26,243.164 453.095,243.1 454.917,243.165 C455.711,243.194 456.499,243.26 457.29,243.326 C458.689,243.442 457.774,243.391 457.471,243.342 C457.913,243.413 458.353,243.49 458.792,243.577 C460.532,243.922 462.248,244.398 463.915,245.002 C464.256,245.126 464.596,245.257 464.932,245.393 C465.03,245.441 465.155,245.502 465.319,245.581 C466.01,245.917 466.693,246.265 467.363,246.641 C468.222,247.124 469.061,247.643 469.875,248.2 C470.146,248.386 470.414,248.577 470.679,248.77 L470.74,248.814 L470.85,248.906 C472.122,249.964 473.322,251.103 474.427,252.337 C474.668,252.607 475.639,253.841 475.584,253.737 C476.065,254.408 476.523,255.097 476.952,255.803 C477.428,256.585 477.871,257.388 478.28,258.207 C478.435,258.518 478.584,258.832 478.73,259.148 L478.817,259.335 L478.861,259.447 C480.33,263.175 480.895,266.282 481.065,269.652 C481.123,270.796 481.431,271.885 481.939,272.847 C481.865,273.281 481.823,273.74 481.828,274.229 C481.891,279.948 483.154,285.03 486.35,289.584 C487.2,291.268 488.733,292.335 490.457,292.803 C490.427,292.941 490.411,293.015 490.411,293.015 L488.122,345.083 C488.122,345.083 491.841,374.263 490.125,398.866 C486.404,452.197 451.79,451.792 433.766,442.637 C415.132,433.173 414.599,403.444 413.74,384.562 C413.289,374.642 413.168,349.374 411.738,331.923 C411.085,323.958 409.658,315.374 408.517,305.57 C413.879,302.443 418.316,298.001 419.789,291.694" id="Fill-225" fill="#A1D6D1"></path>
        <path d="M426.475,333.725 C427.924,332.76 429.441,331.958 431.049,331.247 C434.847,329.569 437.584,325.786 439.303,321.924 C444.862,321.267 450.453,320.843 456.034,321.262 C463.998,322.751 471.587,325.606 479.194,328.372 C480.139,330.967 481.639,333.28 483.455,335.677 C482.809,334.84 482.832,334.047 482.186,333.21 C484.201,335.956 485.108,338.847 486.489,341.936 C487.075,343.347 487.661,344.757 488.253,346.164 C488.897,351.651 491.647,377.055 490.125,398.866 C486.404,452.197 451.79,451.792 433.766,442.637 C415.132,433.173 414.599,403.444 413.74,384.562 C413.385,376.751 416.458,338.789 426.475,333.725" id="Fill-226" fill="#C86358"></path>
        <path d="M429.651,332.3 C430.974,331.362 431.476,330.307 432.944,329.616 C436.413,327.984 439.135,325.659 440.705,321.902 C445.781,321.263 450.887,320.85 455.982,321.258 C463.255,322.706 470.185,325.484 477.132,328.174 C477.995,330.698 480.453,333.694 479.863,332.881 C481.703,335.552 482.531,338.364 483.793,341.369 C484.327,342.741 484.863,344.113 485.403,345.483 C485.991,350.819 488.502,375.533 487.113,396.751 C483.715,448.631 452.107,448.237 435.649,439.331 C418.634,430.124 418.146,401.204 417.363,382.836 C417.038,375.237 420.504,337.226 429.651,332.3" id="Fill-227" fill="#57BCB8"></path>
        <path d="M485.547,289.582 C485.547,289.582 490.411,269.27 488.694,252.964 C486.978,236.657 475.964,206.475 469.813,204.472 C459.75,201.196 444.923,201.182 436.055,216.059 C427.186,230.935 421.465,246.098 418.318,256.969 C415.171,267.84 413.168,281 413.454,282.43 C413.74,283.861 418.604,294.732 418.604,294.732 C418.604,294.732 427.186,277.853 427.758,274.992 C428.331,272.131 426.614,258.971 440.06,254.68 C453.506,250.389 474.39,250.675 476.679,260.974 C478.967,271.273 480.112,281.572 485.547,289.582" id="Fill-228" fill="#FFFFFE"></path>
        <path d="M470.27,273.117 C470.451,274.155 471.439,274.849 472.476,274.668 C473.514,274.487 474.208,273.499 474.027,272.461 C473.846,271.424 472.858,270.729 471.821,270.91 C470.783,271.091 470.089,272.079 470.27,273.117" id="Fill-229" fill="#124A51"></path>
        <path d="M472.225,286.334 C472.406,287.372 473.394,288.066 474.432,287.885 C475.469,287.704 476.164,286.716 475.983,285.678 C475.802,284.641 474.814,283.946 473.776,284.127 C472.739,284.308 472.044,285.296 472.225,286.334" id="Fill-230" fill="#124A51"></path>
        <path d="M474.418,297.634 C474.6,298.672 475.587,299.366 476.625,299.185 C477.663,299.004 478.357,298.017 478.176,296.979 C477.995,295.941 477.007,295.247 475.97,295.428 C474.932,295.609 474.238,296.597 474.418,297.634" id="Fill-231" fill="#124A51"></path>
        <path d="M476.087,309.507 C476.268,310.544 477.256,311.239 478.294,311.058 C479.332,310.877 480.026,309.889 479.845,308.851 C479.664,307.814 478.676,307.119 477.638,307.3 C476.601,307.481 475.906,308.469 476.087,309.507" id="Fill-232" fill="#124A51"></path>
        <path d="M477.089,321.093 C477.27,322.131 478.258,322.825 479.295,322.644 C480.333,322.463 481.027,321.475 480.846,320.438 C480.665,319.4 479.677,318.706 478.64,318.887 C477.602,319.068 476.908,320.056 477.089,321.093" id="Fill-233" fill="#124A51"></path>
        <path d="M426.356,321.093 C426.537,322.131 427.525,322.825 428.563,322.644 C429.601,322.463 430.295,321.475 430.114,320.438 C429.933,319.4 428.945,318.706 427.908,318.887 C426.87,319.068 426.175,320.056 426.356,321.093" id="Fill-234" fill="#124A51"></path>
        <path d="M437.301,273.987 C437.12,275.025 436.132,275.719 435.095,275.538 C434.057,275.357 433.363,274.369 433.544,273.331 C433.725,272.294 434.713,271.599 435.75,271.78 C436.788,271.961 437.482,272.949 437.301,273.987" id="Fill-235" fill="#124A51"></path>
        <path d="M434.978,286.334 C434.796,287.372 433.809,288.066 432.771,287.885 C431.733,287.704 431.039,286.716 431.22,285.678 C431.401,284.641 432.389,283.946 433.426,284.127 C434.464,284.308 435.158,285.296 434.978,286.334" id="Fill-236" fill="#124A51"></path>
        <path d="M432.784,297.825 C432.603,298.863 431.615,299.557 430.578,299.376 C429.54,299.195 428.845,298.207 429.026,297.17 C429.207,296.132 430.195,295.437 431.233,295.618 C432.271,295.799 432.965,296.787 432.784,297.825" id="Fill-237" fill="#124A51"></path>
        <path d="M431.115,309.507 C430.934,310.544 429.947,311.239 428.909,311.058 C427.871,310.877 427.177,309.889 427.358,308.851 C427.539,307.814 428.527,307.119 429.564,307.3 C430.602,307.481 431.296,308.469 431.115,309.507" id="Fill-238" fill="#124A51"></path>
        <path d="M480.493,352.235 C480.493,352.235 485.643,385.802 479.349,407.354 C473.055,428.905 465.045,437.107 454.555,437.869 C444.065,438.632 435.483,434.627 429.761,419.56 C427.045,412.408 420.606,381.987 431.478,354.905 L480.493,352.235" id="Fill-239" fill="#124A51"></path>
        <path d="M439.345,194.889 C439.518,194.889 439.694,194.857 439.865,194.791 C456.755,188.198 472.167,193.742 472.321,193.798 C473.06,194.071 473.885,193.694 474.158,192.952 C474.432,192.211 474.053,191.388 473.312,191.115 C472.643,190.867 456.719,185.143 438.825,192.125 C438.089,192.413 437.725,193.242 438.012,193.978 C438.233,194.543 438.773,194.889 439.345,194.889" id="Fill-240" fill="#124A51"></path>
        <path d="M437.939,356.541 C446.77,356.932 461.103,356.932 469.931,356.541 C482.519,355.983 481.089,349.017 481.089,349.017 L478.681,338.149 C478.681,338.149 464.091,282.415 463.519,276.563 C463.056,271.832 461.47,268.923 456.346,267.835 C456.346,267.835 454.889,267.44 454.221,267.509 C453.553,267.44 452.096,267.835 452.096,267.835 C446.972,268.923 445.386,271.832 444.923,276.563 C444.388,282.04 431.57,331.222 429.933,337.49 L426.782,349.017 C426.782,349.017 425.351,355.983 437.939,356.541" id="Fill-241" fill="#C86358"></path>
        <path d="M460.277,272.894 C460.282,271.588 461.213,272.579 461.23,271.273 C461.235,270.911 461.209,270.57 461.17,270.238 C462.619,271.752 463.255,273.858 463.519,276.563 C463.928,280.743 471.488,310.373 475.775,326.962 C474.052,325.738 472.257,324.657 470.345,323.774 C467.926,307.499 462.961,289.129 460.277,272.894" id="Fill-242" fill="#C86358"></path>
        <path d="M444.923,276.563 C445.21,273.635 445.929,271.407 447.648,269.875 C447.597,270.132 447.565,270.402 447.541,270.678 C446.846,271.671 448.308,271.198 448.261,272.703 C447.926,283.546 443.795,295.833 441.919,306.479 C440.791,312.883 440.02,319.342 439.29,325.806 C438.314,326.2 437.372,326.676 436.483,327.258 C434.951,328.262 433.388,329.218 431.833,330.186 C435.88,314.569 444.487,281.031 444.923,276.563" id="Fill-243" fill="#C86358"></path>
        <path d="M442.349,267.268 C447.063,266.222 453.982,266.505 453.982,266.505 C453.982,266.505 460.903,266.222 465.617,267.268 C472.388,268.77 472.292037,274.134 472.292037,274.134 C469.813,272.227 465.998,272.608 465.998,272.608 L441.967,272.608 C441.967,272.608 438.153,272.227 435.672929,274.134 C435.672929,274.134 435.578,268.77 442.349,267.268" id="Fill-244" fill="#57BCB8"></path>
        <path d="M474.104,286.006 C474.104,286.006 474.104,282.287 472.244,281.143 C470.385,279.999 453.935,272.417 453.935,272.417 L440.203,272.417 L467.524,285.577 C467.524,285.577 470.957,287.437 474.104,286.006" id="Fill-245" fill="#57BCB8"></path>
        <path d="M476.536,297.593 C476.536,297.593 476.536,293.874 474.676,292.729 C472.817,291.585 449.787,280.714 449.787,280.714 L442.635,284.004 L469.956,297.164 C469.956,297.164 473.389,299.023 476.536,297.593" id="Fill-246" fill="#57BCB8"></path>
        <path d="M477.966,309.179 C477.966,309.179 477.966,305.46 476.107,304.316 C474.247,303.171 449.405,291.299 449.405,291.299 L442.349,294.446 L471.386,308.75 C471.386,308.75 474.819,310.609 477.966,309.179" id="Fill-247" fill="#57BCB8"></path>
        <path d="M478.967,320.766 C478.967,320.766 478.967,317.046 477.108,315.902 C475.248,314.758 449.119,302.361 449.119,302.361 L441.967,305.698 L472.388,320.336 C472.388,320.336 475.821,322.196 478.967,320.766" id="Fill-248" fill="#57BCB8"></path>
        <path d="M484.26,336.643 C484.26,336.643 484.403,331.637 479.969,327.488 C478.374,325.997 449.882,312.946 449.882,312.946 L443.016,316.284 L475.344,330.874 C475.344,330.874 480.636,333.782 484.26,336.643" id="Fill-249" fill="#57BCB8"></path>
        <path d="M433.099,286.006 C433.099,286.006 433.099,282.287 434.958,281.143 C436.818,279.999 453.268,272.417 453.268,272.417 L467,272.417 L439.679,285.577 C439.679,285.577 436.246,287.437 433.099,286.006" id="Fill-250" fill="#57BCB8"></path>
        <path d="M430.667,297.593 C430.667,297.593 430.667,293.874 432.526,292.729 C434.386,291.585 456.939,280.523 456.939,280.523 L464.568,284.004 L437.247,297.164 C437.247,297.164 433.814,299.023 430.667,297.593" id="Fill-251" fill="#57BCB8"></path>
        <path d="M429.236,309.179 C429.236,309.179 429.236,305.46 431.096,304.316 C432.956,303.171 458.656,291.776 458.656,291.776 L464.949,294.732 L435.816,308.75 C435.816,308.75 432.383,310.609 429.236,309.179" id="Fill-252" fill="#57BCB8"></path>
        <path d="M428.235,320.766 C428.235,320.766 428.235,317.046 430.095,315.902 C431.954,314.758 458.846,302.551 458.846,302.551 L465.045,305.698 L434.815,320.336 C434.815,320.336 431.382,322.196 428.235,320.766" id="Fill-253" fill="#57BCB8"></path>
        <path d="M423.324,336.5 C423.324,336.5 424.135,331.065 427.901,327.488 C429.485,325.985 457.988,312.946 457.988,312.946 L464.854,316.284 L432.526,330.874 C432.526,330.874 426.948,333.639 423.324,336.5" id="Fill-254" fill="#57BCB8"></path>
        <polygon id="Fill-255" fill="#A1D6D1" points="700 413.741 880 413.741 880 397.879 700 397.879"></polygon>
        <path d="M713.973,439.393 C709.002,439.393 704.973,435.363 704.973,430.393 L704.973,381.228 C704.973,376.257 709.002,372.228 713.973,372.228 C718.943,372.228 722.973,376.257 722.973,381.228 L722.973,430.393 C722.973,435.363 718.943,439.393 713.973,439.393" id="Fill-256" fill="#124A51"></path>
        <path d="M732.027,448.265 C727.057,448.265 723.027,444.236 723.027,439.265 L723.027,372.356 C723.027,367.385 727.057,363.356 732.027,363.356 C736.998,363.356 741.027,367.385 741.027,372.356 L741.027,439.265 C741.027,444.236 736.998,448.265 732.027,448.265" id="Fill-257" fill="#124A51"></path>
        <path d="M848.772,448.265 C843.801,448.265 839.772,444.236 839.772,439.265 L839.772,372.356 C839.772,367.385 843.801,363.356 848.772,363.356 C853.742,363.356 857.772,367.385 857.772,372.356 L857.772,439.265 C857.772,444.236 853.742,448.265 848.772,448.265" id="Fill-258" fill="#124A51"></path>
        <path d="M866.027,372.228 C870.998,372.228 875.027,376.257 875.027,381.228 L875.027,430.393 C875.027,435.363 870.998,439.393 866.027,439.393 C861.057,439.393 857.027,435.363 857.027,430.393 L857.027,381.228 C857.027,376.257 861.057,372.228 866.027,372.228" id="Fill-259" fill="#124A51"></path>
        <polygon id="Fill-260" fill="#A1D6D1" points="700 418.575 704.973 418.575 704.973 393.046 700 393.046"></polygon>
        <polygon id="Fill-261" fill="#A1D6D1" points="875.027 418.575 880 418.575 880 393.046 875.027 393.046"></polygon>
        <path d="M293.53,79.514 C293.528,74.822 289.957,71.02 285.551,71.019 L218.278,71.033 C213.875,71.037 210.303,74.844 210.305,79.535 L210.337,219.763 C210.334,224.453 213.91,228.261 218.315,228.256 L285.585,228.242 C289.994,228.24 293.563,224.434 293.561,219.742 L293.53,79.514" id="Fill-274" fill="#000000"></path>
        <polyline id="Fill-275" fill="#124A51" points="286.801 90.603 217.046 90.603 217.065 208.672 286.82 208.672 286.801 90.603"></polyline>
        <path d="M260.756,81.472 L243.109,81.472 C242.541,81.472 242.079,81.011 242.079,80.442 L242.079,80.113 C242.079,79.544 242.541,79.083 243.109,79.083 L260.756,79.083 C261.325,79.083 261.786,79.544 261.786,80.113 L261.786,80.442 C261.786,81.011 261.325,81.472 260.756,81.472" id="Fill-276" fill="#FFFFFE"></path>
        <path d="M251.933,102.324 C240.26,102.324 230.764,111.821 230.764,123.493 C230.764,135.166 240.26,144.663 251.933,144.663 C263.606,144.663 273.102,135.166 273.102,123.493 C273.102,111.821 263.606,102.324 251.933,102.324 Z M251.933,146.684 C239.146,146.684 228.742,136.281 228.742,123.493 C228.742,110.706 239.146,100.303 251.933,100.303 C264.721,100.303 275.123,110.706 275.123,123.493 C275.123,136.281 264.721,146.684 251.933,146.684 Z" id="Fill-277" fill="#C86358"></path>
        <path d="M242.785,124.573 C243.477,124.552 244.169,124.537 244.862,124.519 L246.94,124.472 L249.016,124.432 L251.092,124.398 L252.132,124.384 L252.88,124.375 L252.982,124.109 L253.186,123.587 L253.391,123.065 C253.459,122.892 253.529,122.719 253.597,122.545 L254.015,121.504 L254.439,120.468 L255.041,118.993 L255.349,120.558 L255.45,121.075 L255.845,123.149 L255.943,123.668 L256.136,124.705 L256.326,125.743 L256.513,126.782 L256.641,127.502 C256.738,127.263 256.836,127.024 256.933,126.786 L257.139,126.283 L257.348,125.784 L257.767,124.781 L257.84,124.605 L261.166,124.605 L262.926,124.608 C263.472,123.426 263.799,122.215 263.799,121.015 C263.799,117.432 261.144,114.528 257.867,114.528 C254.59,114.528 251.934,117.432 251.934,121.015 C251.934,117.432 249.277,114.528 245.999,114.528 C242.722,114.528 240.066,117.432 240.066,121.015 C240.066,122.222 240.398,123.438 240.948,124.628 L241.748,124.604 L242.785,124.573" id="Fill-278" fill="#C86358"></path>
        <path d="M258.224,125.822 L257.933,126.678 L257.756,127.192 L257.578,127.703 C257.457,128.045 257.34,128.388 257.221,128.728 L256.397,131.055 L256.096,129.685 C256.02,129.343 255.948,128.997 255.875,128.653 L255.656,127.622 L255.335,126.072 L255.23,125.554 L254.918,124.002 L254.816,123.485 L254.713,122.959 L254.451,123.57 C254.379,123.742 254.306,123.915 254.231,124.087 L253.786,125.115 L253.56,125.628 L253.443,125.891 L253.169,125.888 L252.132,125.876 L251.093,125.863 L249.016,125.83 L246.94,125.792 L244.862,125.747 C244.169,125.729 243.478,125.714 242.785,125.694 L241.748,125.664 L241.114,125.646 C244.014,131.437 251.934,136.502 251.934,136.502 C251.934,136.502 259.834,131.447 262.743,125.664 L261.174,125.721 L258.224,125.822" id="Fill-279" fill="#C86358"></path>
        <polygon id="Fill-280" fill="#C86358" points="217.115 208.672 286.954 208.672 286.954 197.027 217.115 197.027"></polygon>
        <polygon id="Fill-281" fill="#57BCB8" points="225.358 189.568 230.136 189.568 230.136 176.406 225.358 176.406"></polygon>
        <polygon id="Fill-282" fill="#57BCB8" points="233.42 189.568 238.198 189.568 238.198 171.287 233.42 171.287"></polygon>
        <polygon id="Fill-283" fill="#57BCB8" points="241.482 189.568 246.26 189.568 246.26 165.681 241.482 165.681"></polygon>
        <polygon id="Fill-284" fill="#57BCB8" points="249.544 189.568 254.322 189.568 254.322 153.737 249.544 153.737"></polygon>
        <polygon id="Fill-285" fill="#57BCB8" points="257.606 189.568 262.384 189.568 262.384 159.343 257.606 159.343"></polygon>
        <polygon id="Fill-286" fill="#57BCB8" points="265.668 189.568 270.446 189.568 270.446 172.262 265.668 172.262"></polygon>
        <polygon id="Fill-287" fill="#57BCB8" points="273.73 189.568 278.508 189.568 278.508 165.681 273.73 165.681"></polygon>
        <path d="M653,390.737 C656.091,390.737 658.597,388.231 658.597,385.14 C658.597,382.049 656.091,379.543 653,379.543 C649.909,379.543 647.403,382.049 647.403,385.14 C647.403,388.231 649.909,390.737 653,390.737" id="Fill-290" fill="#72C1AA"></path>
        <path d="M661.876,384.329 L657.867,393.156 L648.133,393.156 L644.124,384.329 L642.007,373.411 L663.993,373.411 L661.876,384.329 Z M673.273,364.207 L672.962,364.207 C671.655,364.207 670.595,365.267 670.595,366.573 L670.595,370.923 L668.367,370.923 L668.461,369.947 C668.549,369.003 667.909,368.118 666.958,367.934 C665.945,367.738 664.965,368.4 664.769,369.412 L664.476,370.923 L641.524,370.923 L641.231,369.412 C641.048,368.482 640.183,367.816 639.219,367.909 C638.192,368.008 637.44,368.92 637.538,369.947 L637.633,370.923 L635.405,370.923 L635.405,366.573 C635.405,365.267 634.345,364.207 633.038,364.207 L632.727,364.207 C631.42,364.207 630.361,365.267 630.361,366.573 L630.361,378.259 C630.361,379.565 631.42,380.625 632.727,380.625 L633.038,380.625 C634.345,380.625 635.405,379.565 635.405,378.259 L635.405,373.411 L637.872,373.411 L639.039,385.514 C639.059,385.717 639.113,385.927 639.201,386.123 L639.246,386.22 L644.652,398.123 C644.716,398.264 644.795,398.392 644.879,398.515 L645.577,409.609 L645.157,446 C645.144,447.199 646.084,448.207 647.292,448.263 C648.527,448.32 649.575,447.365 649.632,446.129 L650.985,416.883 L655.015,416.883 L656.367,446.129 C656.424,447.327 657.421,448.279 658.63,448.265 C659.867,448.25 660.857,447.236 660.843,446 L660.423,409.609 L661.121,398.515 C661.205,398.392 661.284,398.264 661.348,398.123 L666.754,386.22 L666.802,386.116 C666.886,385.93 666.941,385.728 666.961,385.514 L668.128,373.411 L670.595,373.411 L670.595,378.259 C670.595,379.565 671.655,380.625 672.962,380.625 L673.273,380.625 C674.58,380.625 675.639,379.565 675.639,378.259 L675.639,366.573 C675.639,365.267 674.58,364.207 673.273,364.207 Z" id="Fill-291" fill="#72C1AA"></path>
        <path d="M368.898,322.599 C368.774,324.977 370.6,327.006 372.978,327.13 C375.356,327.255 377.385,325.428 377.51,323.05 C377.634,320.672 375.808,318.644 373.43,318.519 C371.052,318.394 369.023,320.221 368.898,322.599" id="Fill-292" fill="#72C1AA"></path>
        <path d="M370.82,343.138 L374.027,335.328 L376.486,339.55 L370.82,343.138 Z M380.982,339.274 L380.938,339.198 L375.405,329.697 C374.979,328.966 374.164,328.607 373.376,328.721 C373.231,328.689 373.084,328.664 372.93,328.656 L366.527,328.321 L366.596,318.354 L378.473,313.945 C379.166,313.686 379.561,312.932 379.357,312.207 C379.142,311.442 378.348,310.997 377.583,311.212 L363.971,315.039 C363.176,315.264 362.588,315.992 362.582,316.859 L362.582,316.939 L362.497,329.234 L359.298,342.326 C359.221,342.479 359.157,342.641 359.115,342.815 L352.657,369.65 C352.443,370.543 352.969,371.458 353.861,371.712 C354.777,371.973 355.732,371.442 355.993,370.526 L362.912,346.264 L364.854,346.366 L370.799,371.315 C371.014,372.208 371.897,372.786 372.808,372.608 C373.743,372.425 374.353,371.519 374.17,370.584 L369.641,347.379 L380.198,341.957 L380.287,341.908 C381.206,341.373 381.518,340.194 380.982,339.274 Z" id="Fill-293" fill="#72C1AA"></path>
        <path d="M721.696,71.296 C724.393,71.296 726.579,69.11 726.579,66.414 C726.579,63.717 724.393,61.531 721.696,61.531 C719,61.531 716.814,63.717 716.814,66.414 C716.814,69.11 719,71.296 721.696,71.296" id="Fill-294" fill="#72C1AA"></path>
        <path d="M721.301,105.588 L720.425,94.754 L724.794,94.754 L726.515,100.834 L721.301,105.588 Z M712.692,82.806 L715.605,79.183 L715.978,87.901 L712.692,82.806 Z M725.113,51.838 C724.593,51.19 723.65,51.027 722.943,51.494 C722.191,51.99 721.984,53 722.48,53.751 L729.705,64.704 L726.239,73.093 L715.345,73.093 L715.347,73.138 C714.824,73.232 714.331,73.497 713.972,73.943 L708.113,81.228 L708.028,81.333 C707.411,82.1 707.398,83.221 708.053,84.006 L714.87,92.176 L715.08,92.385 L718.687,121.71 C718.815,122.742 719.736,123.503 720.783,123.418 C721.858,123.331 722.659,122.389 722.573,121.314 L721.695,110.462 L721.913,110.315 L730.451,103.204 C731.043,102.71 731.345,101.907 731.162,101.103 L731.138,100.999 L728.693,90.264 L729.479,77.182 L734.377,65.331 L734.416,65.237 C734.697,64.553 734.608,63.741 734.114,63.122 L725.113,51.838 Z" id="Fill-295" fill="#72C1AA"></path>
        <path d="M339.078,80.226 L335.344,75.682 L342.95,71.058 L339.078,80.226 Z M364.528,69.53 L348.876,67.324 C349.366,66.739 349.51,65.902 349.161,65.169 C348.684,64.167 347.484,63.742 346.482,64.219 L333.7,70.307 L327.099,66.347 C326.496,65.985 325.813,65.888 325.17,66.001 C323.869,65.922 322.535,66.309 321.449,67.203 C319.164,69.079 318.834,72.453 320.711,74.737 L332.945,89.626 C334.434,91.439 336.865,92.016 338.946,91.241 C340.307,91.373 341.654,90.635 342.214,89.309 L348.857,73.582 L364.074,74.326 C365.302,74.383 366.405,73.496 366.58,72.254 C366.766,70.936 365.847,69.716 364.528,69.53 Z" id="Fill-296" fill="#72C1AA"></path>
        <path d="M320.886,62.79 C323.839,64.756 327.827,63.956 329.793,61.004 C331.76,58.051 330.96,54.063 328.007,52.096 C325.054,50.13 321.066,50.93 319.1,53.882 C317.134,56.835 317.933,60.823 320.886,62.79" id="Fill-297" fill="#72C1AA"></path>
    </g>
</svg>