<svg viewBox="-100 0 512 512" xmlns="http://www.w3.org/2000/svg"><path d="m272.886719 512h-232.785157c-8.8125 0-16.070312-6.917969-16.496093-15.71875l-23.5937502-487.625c-.2304688-4.710938 3.5273432-8.65625 8.2460932-8.65625h296.472657c4.71875 0 8.476562 3.945312 8.246093 8.65625l-23.59375 487.625c-.425781 8.800781-7.683593 15.71875-16.496093 15.71875zm0 0" fill="#edebed"/><path d="m100.167969 454.902344-9.738281-454.902344h-82.171876c-4.71875 0-8.476562 3.945312-8.2460932 8.65625l23.5937502 487.625c.425781 8.800781 7.6875 15.71875 16.496093 15.71875h232.785157c8.8125 0 16.070312-6.917969 16.5-15.71875l.4375-9.054688h-156.628907c-17.96875 0-32.640624-14.363281-33.027343-32.324218zm0 0" fill="#dbd9dc"/><path d="m100.167969 454.902344-9.738281-454.902344h-82.171876c-4.71875 0-8.476562 3.945312-8.2460932 8.65625l23.5937502 487.625c.425781 8.800781 7.6875 15.71875 16.496093 15.71875h232.785157c8.8125 0 16.070312-6.917969 16.5-15.71875l.4375-9.054688h-156.628907c-17.96875 0-32.640624-14.363281-33.027343-32.324218zm0 0" fill="#dbd9dc"/><path d="m273.285156 487.226562 18.628906-384.960937c.273438-5.640625-5.117187-9.953125-10.535156-8.363281-16.21875 4.773437-23.640625 13.453125-50.605468 13.453125-37.179688 0-37.179688-16.515625-74.363282-16.515625-37.15625 0-37.15625 16.515625-74.3125 16.515625-26.898437 0-34.320312-8.664063-50.488281-13.4375-5.414063-1.601563-10.808594 2.714843-10.535156 8.355469l18.628906 384.953124zm0 0" fill="#c4deff"/><path d="m133.195312 487.226562c-17.96875 0-32.640624-14.363281-33.027343-32.324218l-7.449219-348.058594c-3.203125.335938-6.664062.511719-10.621094.511719-26.898437 0-34.320312-8.664063-50.484375-13.4375-5.417969-1.601563-10.808593 2.714843-10.539062 8.355469l18.628906 384.953124zm0 0" fill="#a5cdff"/><path d="m304.050781 191.21875c-18.15625 3.59375-32.945312 14.359375-41.445312 28.691406-2.390625-3.972656-5.199219-7.734375-8.507813-11.160156-11.710937-12.136719-27.433594-18.816406-44.296875-18.816406-22.777343 0-42.660156 12.46875-53.308593 30.90625-10.648438-18.4375-30.53125-30.90625-53.304688-30.90625-16.863281 0-32.589844 6.679687-44.296875 18.816406-3.3125 3.429688-6.121094 7.191406-8.515625 11.167969-8.496094-14.332031-23.289062-25.105469-41.449219-28.699219-.03125-.007812-.0625.003906-.09375 0l.835938 17.296875c17.089843 4.882813 31.019531 20.378906 31.546875 34.316406l8.21875 244.394531h16.515625l-7.785157-234.121093c-.433593-12.332031 4.039063-24.007813 12.605469-32.886719 8.574219-8.878906 20.082031-13.765625 32.417969-13.765625 24.839844 0 45.050781 20.207031 45.050781 45.046875v235.726562h16.515625v-235.726562c0-24.839844 20.207032-45.046875 45.046875-45.046875 12.339844 0 23.847657 4.886719 32.417969 13.765625 8.566406 8.878906 13.042969 20.554688 12.605469 32.886719l-7.785157 234.121093h16.519532l8.261718-244.820312c1.0625-15.179688 14.550782-29.050781 31.488282-33.890625l.835937-17.296875c-.03125.003906-.0625-.007812-.09375 0zm0 0" fill="#edebed"/><path d="m9.679688 208.519531c17.082031 4.886719 31.007812 20.378907 31.53125 34.3125l8.21875 244.394531h16.519531l-7.785157-234.121093c-.433593-12.332031 4.039063-24.007813 12.605469-32.886719 6.605469-6.84375 14.964844-11.316406 24.09375-13.007812l-.359375-16.679688c-13.523437 1.894531-25.945312 8.195312-35.613281 18.21875-3.3125 3.429688-6.125 7.195312-8.515625 11.171875-8.5-14.335937-23.289062-25.109375-41.449219-28.703125-.027343-.003906-.054687.003906-.082031 0zm0 0" fill="#dbd9dc"/></svg>