<?xml version="1.0" encoding="UTF-8"?>
<svg width="220px" height="258px" viewBox="0 0 220 258" version="1.1" xmlns="http://www.w3.org/2000/svg" xmlns:xlink="http://www.w3.org/1999/xlink">
    <!-- Generator: Sketch 52.2 (67145) - http://www.bohemiancoding.com/sketch -->
    <title>Group</title>
    <desc>Created with Sketch.</desc>
    <g id="Page-1" stroke="none" stroke-width="1" fill="none" fill-rule="evenodd">
        <g id="shutterstock_501292645" transform="translate(-40.000000, -21.000000)">
            <g id="Group" transform="translate(40.000000, 21.000000)">
                <polygon id="Fill-3" fill="#1D3051" points="64.541 8.953 72.322 8.953 72.322 3.22 64.541 3.22"></polygon>
                <polyline id="Fill-4" fill="#0162B8" points="70.859 0.813 70.859 5.98 67.306 5.98 67.306 0.813 64.541 0.813 64.541 33.843 73.624 33.843 73.624 0.813 70.859 0.813"></polyline>
                <polygon id="Fill-5" fill="#D1CFCF" points="67.817 36.99 70.222 36.99 70.222 31.041 67.817 31.041"></polygon>
                <polygon id="Fill-6" fill="#D1CFCF" points="67.817 8.138 70.222 8.138 70.222 5.98 67.817 5.98"></polygon>
                <path d="M25.453,34.597 C17.633,38.722 13.249,42.381 11.077,45.519 C13.244,44.985 15.715,43.971 18.369,42.155 C22.49,39.336 24.491,36.658 25.453,34.597" id="Fill-7" fill="#F4D1C1"></path>
                <path d="M67.817,156.403 C67.817,156.403 67.973,156.416 68.253,156.426 C67.99,156.389 67.817,156.403 67.817,156.403" id="Fill-8" fill="#E3B198"></path>
                <path d="M60.95,34.946 C50.219,30.833 38.505,28.228 29.042,32.789 C27.772,33.4 26.578,34.003 25.453,34.597 C24.491,36.658 22.49,39.336 18.369,42.155 C15.715,43.971 13.244,44.985 11.077,45.519 C8.874,48.701 8.952,51.34 10.017,53.388 C10.937,55.162 12.596,56.495 14.184,57.337 C14.343,57.42 14.488,57.501 14.624,57.58 C21.921,57.472 31.435,54.959 43.408,47.303 C52.998,41.17 58.357,37.529 60.95,34.946" id="Fill-9" fill="#E5B9A2"></path>
                <path d="M155.652,137.436 C153.391,119.994 147.578,78.007 144.994,73.484 C142.41,68.964 136.596,62.181 135.303,57.659 C134.012,53.137 122.707,32.466 120.447,30.204 C118.51,28.268 108.528,24.356 105.292,20.706 C104.37,21.39 103.534,21.869 103.136,21.737 C102.089,21.388 94.919,15.679 91.316,3.22 C90.43,3.667 89.518,4.396 88.68,5.445 C85.104,9.928 82.914,20.136 90.086,37.957 C93.605,46.7 91.067,47.697 85.126,45.578 C85.736,47.227 86.387,48.919 87.064,50.637 C87.063,50.636 87.063,50.633 87.062,50.631 C83.969,72.552 45.578,87.721 18.751,95.719 C22.153,113.266 26.23,131.42 29.042,133.238 C34.533,136.789 36.132,153.586 43.407,160.368 C43.584,160.532 43.766,160.703 43.949,160.874 C51.276,167.686 63.31,178.29 90.409,184.591 C118.186,191.051 106.559,182.654 115.602,189.76 C124.646,196.865 163.082,151.971 163.082,151.971 C163.082,151.971 157.914,154.877 155.652,137.436" id="Fill-10" fill="#E5B9A2"></path>
                <path d="M85.126,45.578 C79.917,43.72 72.088,39.463 63.429,35.927 C62.609,35.592 61.782,35.265 60.95,34.946 C58.357,37.529 52.998,41.17 43.408,47.303 C31.435,54.959 21.921,57.472 14.624,57.58 C19.227,60.227 11.873,60.002 12.541,61.883 C12.877,62.829 15.508,78.998 18.751,95.719 C45.578,87.721 83.969,72.552 87.062,50.631 C86.386,48.916 85.735,47.226 85.126,45.578" id="Fill-11" fill="#E0AF96"></path>
                <path d="M69.234,33.758 C19.861,33.758 26.599,62.116 26.599,92.44 C26.599,95.425 26.854,98.351 27.315,101.206 C39.802,111.977 67.26,132.591 95.195,133.261 C104.591,123.211 111.869,108.646 111.869,92.44 C111.869,62.116 118.607,33.758 69.234,33.758" id="Fill-12" fill="#ECE9EA"></path>
                <path d="M103.799,43.684 C109.265,54.769 107.286,69.914 107.286,85.579 C107.286,102.001 99.043,116.756 88.402,126.939 C74.609,126.644 60.921,122.506 48.694,117.031 C61.958,125.326 78.49,132.859 95.195,133.261 C104.591,123.211 111.869,108.646 111.869,92.44 C111.869,73.109 114.604,54.579 103.799,43.684" id="Fill-13" fill="#E6E3E3"></path>
                <path d="M28.072,95.67 C28.072,65.346 21.334,36.988 70.707,36.988 C93.435,36.988 104.268,43 109.346,52.444 C105.032,41.161 94.457,33.758 69.234,33.758 C19.861,33.758 26.599,62.116 26.599,92.44 C26.599,95.425 26.854,98.351 27.315,101.206 C27.687,101.527 28.075,101.857 28.473,102.195 C28.213,100.056 28.072,97.88 28.072,95.67" id="Fill-14" fill="#F7F5F4"></path>
                <path d="M109.936,54.127 C111.416,64.305 110.452,76.322 110.452,88.645 C110.452,106.032 103.175,121.657 93.779,132.44 C66.644,131.74 41.218,111.988 28.267,100.201 C28.356,100.917 28.371,101.206 28.484,101.913 C40.972,112.686 67.26,132.591 95.195,133.261 C104.591,123.211 111.869,108.646 111.869,92.44 C111.869,78.364 113.316,64.715 109.936,54.127" id="Fill-15" fill="#D1CFCF"></path>
                <path d="M93.07,113.153 C96.25,111.453 98.326,113.016 97.683,116.623 L96.758,121.815 C96.116,125.423 92.809,127.572 89.406,126.591 L81.643,124.352 C78.242,123.369 78.06,121.176 81.239,119.477 L93.07,113.153" id="Fill-16" fill="#5C6160"></path>
                <path d="M81.023,34.406 C77.499,33.983 73.589,33.758 69.234,33.758 C64.879,33.758 60.97,33.983 57.445,34.406 L57.445,50.554 C57.445,50.554 66.178,48.143 69.234,48.143 C72.29,48.143 81.023,50.554 81.023,50.554 L81.023,34.406" id="Fill-17" fill="#D1CFCF"></path>
                <path d="M81.023,33.586 C77.499,33.163 73.589,32.937 69.234,32.937 C64.879,32.937 60.97,33.163 57.445,33.586 L57.445,49.732 C57.445,49.732 66.178,47.324 69.234,47.324 C72.29,47.324 81.023,49.732 81.023,49.732 L81.023,33.586" id="Fill-18" fill="#F7F5F4"></path>
                <path d="M58.265,35.138 C61.623,34.767 65.308,33.758 69.234,33.758 C73.157,33.758 76.843,34.767 80.202,35.138 L80.202,49.482 C77.768,48.84 71.755,47.324 69.234,47.324 C66.713,47.324 60.7,48.84 58.265,49.482 L58.265,35.138" id="Fill-19" fill="#ECE9EA"></path>
                <polygon id="Fill-20" fill="#72767D" points="42.587 108.367 95.881 108.367 95.881 60.243 42.587 60.243"></polygon>
                <polygon id="Fill-21" fill="#4F575C" points="43.408 107.547 95.06 107.547 95.06 61.063 43.408 61.063"></polygon>
                <polygon id="Fill-22" fill="#AAAFB4" points="44.228 106.728 94.24 106.728 94.24 61.883 44.228 61.883"></polygon>
                <path d="M63.329,104.292 C54.338,104.292 46.98,97.758 46.98,89.771 L46.98,65.895 C46.98,64.503 47.216,63.16 47.632,61.883 L44.228,61.883 L44.228,106.728 L94.24,106.728 L94.24,104.292 L63.329,104.292" id="Fill-23" fill="#A1A6AB"></path>
                <polygon id="Fill-24" fill="#A1A6AB" points="52.264 57.833 86.203 57.833 86.203 54.255 52.264 54.255"></polygon>
                <polygon id="Fill-25" fill="#AAAFB4" points="53.084 57.013 85.384 57.013 85.384 55.074 53.084 55.074"></polygon>
                <path d="M69.234,147.348 C77.223,147.348 87.013,142.015 95.195,133.261 C67.26,132.591 39.802,111.977 27.315,101.206 C31.54,127.361 53.761,147.348 69.234,147.348" id="Fill-26" fill="#6A7076"></path>
                <path d="M94.818,133.66 C67.196,132.998 40.992,113.444 27.4,101.721 L27.236,100.7 C40.744,112.354 68.15,132.259 95.517,132.915 L94.818,133.66" id="Fill-27" fill="#525A62"></path>
                <path d="M92.289,112.444 C95.429,110.836 97.506,112.365 96.904,115.84 L96.04,120.842 C95.438,124.318 92.175,126.358 88.788,125.377 L81.054,123.136 C77.667,122.153 77.464,120.035 80.603,118.428 L92.289,112.444" id="Fill-28" fill="#6F7574"></path>
                <path d="M92.289,112.444 L80.603,118.428 C79.288,119.101 78.568,119.863 78.414,120.594 L90.774,113.968 C94.518,111.962 96.958,113.802 96.2,118.057 L95.359,122.771 C95.68,122.195 95.918,121.551 96.04,120.842 L96.904,115.84 C97.506,112.365 95.429,110.836 92.289,112.444" id="Fill-29" fill="#858C8B"></path>
                <path d="M47.659,131.72 L34.827,118.702 C31.097,114.917 24.79,115.085 20.739,119.075 C19.589,120.21 18.755,121.533 18.221,122.931 C23.807,131.953 35.031,145.032 47.659,131.72" id="Fill-30" fill="#DBAB93"></path>
                <path d="M58.727,142.951 L47.659,131.72 C35.031,145.032 23.807,131.953 18.221,122.931 C16.875,126.45 17.49,130.448 20.161,133.156 L44.062,157.406 C47.793,161.19 54.1,161.022 58.149,157.033 C62.199,153.04 62.458,146.736 58.727,142.951" id="Fill-31" fill="#E0B59F"></path>
                <path d="M39.859,121.934 C40.749,119.265 40.512,116.319 38.936,113.866 L20.534,85.219 C17.663,80.748 11.456,79.616 6.672,82.688 C5.396,83.508 4.358,84.547 3.565,85.71 C7.367,94.69 17.754,113.745 39.859,121.934" id="Fill-32" fill="#E0AF96"></path>
                <path d="M3.565,85.71 C1.383,88.91 1.103,93.07 3.209,96.349 L21.611,124.995 C24.483,129.466 30.689,130.6 35.475,127.528 C37.634,126.14 39.127,124.128 39.859,121.934 C17.754,113.745 7.367,94.69 3.565,85.71" id="Fill-33" fill="#E5B9A2"></path>
                <path d="M35.514,91.322 C38.039,96.001 36.028,101.98 31.023,104.682 C26.02,107.382 19.917,105.777 17.393,101.103 L1.223,71.139 C-1.301,66.462 0.709,60.482 5.714,57.782 C10.718,55.082 16.821,56.683 19.345,61.359 L35.514,91.322" id="Fill-34" fill="#E5B9A2"></path>
                <polygon id="Fill-35" fill="#383A3D" points="90.269 93.964 93.154 93.964 93.154 88.915 90.269 88.915"></polygon>
                <polygon id="Fill-36" fill="#C1C6CA" points="90.269 103.547 93.154 103.547 93.154 93.448 90.269 93.448"></polygon>
                <path d="M56.134,80.288 C56.134,80.604 55.875,80.863 55.559,80.863 L55.199,80.863 C54.883,80.863 54.624,80.604 54.624,80.288 L54.624,73.893 C54.624,73.577 54.883,73.318 55.199,73.318 L55.559,73.318 C55.875,73.318 56.134,73.577 56.134,73.893 L56.134,80.288" id="Fill-37" fill="#131417"></path>
                <path d="M56.134,88.492 C56.134,88.808 55.875,89.066 55.559,89.066 L55.199,89.066 C54.883,89.066 54.624,88.808 54.624,88.492 L54.624,82.098 C54.624,81.78 54.883,81.522 55.199,81.522 L55.559,81.522 C55.875,81.522 56.134,81.78 56.134,82.098 L56.134,88.492" id="Fill-38" fill="#131417"></path>
                <path d="M71.077,80.288 C71.077,80.604 70.817,80.863 70.501,80.863 L70.141,80.863 C69.826,80.863 69.567,80.604 69.567,80.288 L69.567,73.893 C69.567,73.577 69.826,73.318 70.141,73.318 L70.501,73.318 C70.817,73.318 71.077,73.577 71.077,73.893 L71.077,80.288" id="Fill-39" fill="#131417"></path>
                <path d="M71.077,88.492 C71.077,88.808 70.817,89.066 70.501,89.066 L70.141,89.066 C69.826,89.066 69.567,88.808 69.567,88.492 L69.567,82.098 C69.567,81.78 69.826,81.522 70.141,81.522 L70.501,81.522 C70.817,81.522 71.077,81.78 71.077,82.098 L71.077,88.492" id="Fill-40" fill="#131417"></path>
                <path d="M85.665,80.673 C85.665,80.98 85.414,81.231 85.105,81.231 L84.755,81.231 C84.447,81.231 84.195,80.98 84.195,80.673 L84.195,74.444 C84.195,74.137 84.447,73.884 84.755,73.884 L85.105,73.884 C85.414,73.884 85.665,74.137 85.665,74.444 L85.665,80.673" id="Fill-41" fill="#131417"></path>
                <path d="M85.665,88.662 C85.665,88.97 85.414,89.222 85.105,89.222 L84.755,89.222 C84.447,89.222 84.195,88.97 84.195,88.662 L84.195,82.435 C84.195,82.126 84.447,81.875 84.755,81.875 L85.105,81.875 C85.414,81.875 85.665,82.126 85.665,82.435 L85.665,88.662" id="Fill-42" fill="#131417"></path>
                <path d="M78.79,80.673 C78.79,80.98 78.539,81.231 78.23,81.231 L77.879,81.231 C77.572,81.231 77.32,80.98 77.32,80.673 L77.32,74.444 C77.32,74.137 77.572,73.884 77.879,73.884 L78.23,73.884 C78.539,73.884 78.79,74.137 78.79,74.444 L78.79,80.673" id="Fill-43" fill="#131417"></path>
                <path d="M83.335,88.572 C83.517,88.572 83.666,88.823 83.666,89.132 L83.666,89.483 C83.666,89.791 83.517,90.043 83.335,90.043 L79.65,90.043 C79.467,90.043 79.319,89.791 79.319,89.483 L79.319,89.132 C79.319,88.823 79.467,88.572 79.65,88.572 L83.335,88.572" id="Fill-44" fill="#131417"></path>
                <path d="M83.335,73.064 C83.517,73.064 83.666,73.315 83.666,73.623 L83.666,73.974 C83.666,74.282 83.517,74.534 83.335,74.534 L79.65,74.534 C79.467,74.534 79.319,74.282 79.319,73.974 L79.319,73.623 C79.319,73.315 79.467,73.064 79.65,73.064 L83.335,73.064" id="Fill-45" fill="#131417"></path>
                <path d="M78.79,88.662 C78.79,88.97 78.539,89.222 78.23,89.222 L77.879,89.222 C77.572,89.222 77.32,88.97 77.32,88.662 L77.32,82.435 C77.32,82.126 77.572,81.875 77.879,81.875 L78.23,81.875 C78.539,81.875 78.79,82.126 78.79,82.435 L78.79,88.662" id="Fill-46" fill="#131417"></path>
                <polyline id="Fill-47" fill="#000000" points="74.394 103.547 72.421 103.547 72.421 103.158 73.228 103.158 73.228 100.865 72.476 101.273 72.322 100.917 73.322 100.391 73.692 100.391 73.692 103.158 74.394 103.158 74.394 103.547"></polyline>
                <path d="M76.775,101.992 C76.775,101.938 76.773,101.885 76.77,101.829 C76.766,101.777 76.762,101.724 76.756,101.673 L75.427,102.661 C75.451,102.744 75.481,102.82 75.518,102.891 C75.556,102.961 75.6,103.021 75.652,103.073 C75.704,103.123 75.764,103.163 75.83,103.19 C75.896,103.218 75.972,103.231 76.057,103.231 C76.166,103.231 76.265,103.206 76.354,103.152 C76.443,103.1 76.519,103.021 76.581,102.918 C76.644,102.813 76.691,102.685 76.725,102.529 C76.758,102.375 76.775,102.195 76.775,101.992 Z M75.338,101.964 C75.338,102.014 75.339,102.063 75.34,102.112 C75.34,102.161 75.343,102.211 75.348,102.257 L76.677,101.273 C76.653,101.192 76.622,101.117 76.586,101.051 C76.549,100.983 76.505,100.925 76.453,100.876 C76.402,100.826 76.343,100.789 76.277,100.762 C76.212,100.734 76.139,100.72 76.057,100.72 C75.948,100.72 75.849,100.747 75.76,100.801 C75.672,100.854 75.595,100.933 75.533,101.037 C75.47,101.142 75.422,101.271 75.389,101.426 C75.355,101.581 75.338,101.759 75.338,101.964 Z M77.199,101.978 C77.199,102.219 77.175,102.438 77.126,102.635 C77.079,102.834 77.005,103.003 76.908,103.146 C76.81,103.285 76.689,103.396 76.543,103.474 C76.399,103.552 76.228,103.591 76.032,103.591 C75.864,103.591 75.712,103.558 75.574,103.496 C75.436,103.432 75.318,103.335 75.221,103.203 C75.123,103.071 75.047,102.904 74.995,102.701 C74.942,102.498 74.915,102.257 74.915,101.978 C74.915,101.737 74.939,101.519 74.988,101.319 C75.038,101.121 75.11,100.95 75.207,100.809 C75.304,100.666 75.426,100.557 75.571,100.479 C75.717,100.401 75.887,100.363 76.081,100.363 C76.249,100.363 76.402,100.395 76.54,100.458 C76.678,100.52 76.796,100.618 76.893,100.751 C76.991,100.883 77.066,101.051 77.12,101.254 C77.171,101.457 77.199,101.699 77.199,101.978 Z" id="Fill-48" fill="#000000"></path>
                <path d="M78.764,102.852 C78.813,102.852 78.86,102.862 78.905,102.882 C78.95,102.902 78.989,102.93 79.023,102.963 C79.056,102.997 79.083,103.036 79.104,103.08 C79.124,103.126 79.133,103.174 79.133,103.223 C79.133,103.273 79.124,103.321 79.104,103.366 C79.083,103.41 79.056,103.448 79.023,103.482 C78.989,103.516 78.95,103.543 78.905,103.562 C78.86,103.581 78.813,103.591 78.764,103.591 C78.711,103.591 78.665,103.581 78.621,103.562 C78.577,103.543 78.538,103.516 78.504,103.482 C78.47,103.448 78.443,103.41 78.425,103.366 C78.405,103.321 78.396,103.273 78.396,103.223 C78.396,103.174 78.405,103.126 78.425,103.08 C78.443,103.036 78.47,102.997 78.504,102.963 C78.538,102.93 78.577,102.902 78.621,102.882 C78.665,102.862 78.711,102.852 78.764,102.852 Z M78.764,101.091 C78.813,101.091 78.86,101.1 78.905,101.121 C78.95,101.141 78.989,101.167 79.023,101.201 C79.056,101.234 79.083,101.274 79.104,101.319 C79.124,101.364 79.133,101.41 79.133,101.461 C79.133,101.513 79.124,101.561 79.104,101.604 C79.083,101.648 79.056,101.688 79.023,101.721 C78.989,101.755 78.95,101.78 78.905,101.8 C78.86,101.819 78.813,101.829 78.764,101.829 C78.711,101.829 78.665,101.819 78.621,101.8 C78.577,101.78 78.538,101.755 78.504,101.721 C78.47,101.688 78.443,101.648 78.425,101.604 C78.405,101.561 78.396,101.513 78.396,101.461 C78.396,101.41 78.405,101.364 78.425,101.319 C78.443,101.274 78.47,101.234 78.504,101.201 C78.538,101.167 78.577,101.141 78.621,101.121 C78.665,101.1 78.711,101.091 78.764,101.091 Z" id="Fill-49" fill="#000000"></path>
                <path d="M82.539,103.547 L80.47,103.547 L80.47,103.172 L81.282,102.364 C81.415,102.233 81.523,102.12 81.606,102.023 C81.69,101.927 81.755,101.84 81.801,101.761 C81.848,101.68 81.879,101.606 81.895,101.535 C81.911,101.465 81.918,101.389 81.918,101.308 C81.918,101.229 81.909,101.156 81.888,101.088 C81.867,101.018 81.835,100.956 81.792,100.904 C81.749,100.85 81.692,100.809 81.624,100.778 C81.555,100.748 81.471,100.731 81.376,100.731 C81.243,100.731 81.122,100.762 81.013,100.821 C80.904,100.881 80.804,100.958 80.712,101.052 L80.482,100.775 C80.6,100.651 80.737,100.551 80.892,100.475 C81.046,100.4 81.226,100.363 81.431,100.363 C81.57,100.363 81.697,100.384 81.812,100.426 C81.927,100.467 82.025,100.527 82.108,100.604 C82.192,100.684 82.256,100.78 82.302,100.894 C82.348,101.007 82.371,101.136 82.371,101.277 C82.371,101.398 82.354,101.509 82.323,101.612 C82.291,101.714 82.242,101.817 82.177,101.919 C82.112,102.021 82.031,102.125 81.932,102.234 C81.833,102.344 81.717,102.464 81.583,102.594 L81.013,103.147 L82.539,103.147 L82.539,103.547" id="Fill-50" fill="#000000"></path>
                <path d="M85.186,102.594 C85.186,102.731 85.157,102.861 85.101,102.981 C85.044,103.104 84.961,103.208 84.849,103.299 C84.737,103.389 84.595,103.461 84.426,103.511 C84.256,103.563 84.058,103.591 83.833,103.591 C83.708,103.591 83.596,103.586 83.496,103.578 C83.396,103.571 83.303,103.561 83.217,103.547 L83.217,103.172 C83.316,103.19 83.421,103.203 83.532,103.214 C83.642,103.223 83.755,103.228 83.871,103.228 C84.027,103.228 84.162,103.214 84.273,103.186 C84.385,103.158 84.475,103.116 84.546,103.064 C84.617,103.011 84.668,102.948 84.699,102.871 C84.731,102.797 84.748,102.712 84.748,102.617 C84.748,102.53 84.729,102.456 84.69,102.392 C84.651,102.327 84.598,102.273 84.528,102.23 C84.458,102.187 84.375,102.155 84.278,102.133 C84.181,102.112 84.074,102.101 83.959,102.101 L83.601,102.101 L83.601,101.757 L83.964,101.757 C84.059,101.757 84.145,101.744 84.222,101.719 C84.3,101.694 84.367,101.659 84.422,101.612 C84.477,101.566 84.52,101.509 84.549,101.44 C84.579,101.374 84.594,101.296 84.594,101.209 C84.594,101.04 84.542,100.917 84.44,100.841 C84.337,100.764 84.188,100.727 83.989,100.727 C83.882,100.727 83.773,100.736 83.661,100.758 C83.549,100.777 83.43,100.809 83.301,100.85 L83.301,100.485 C83.355,100.466 83.414,100.448 83.475,100.435 C83.537,100.418 83.598,100.404 83.66,100.396 C83.721,100.384 83.783,100.376 83.844,100.371 C83.905,100.366 83.963,100.363 84.02,100.363 C84.186,100.363 84.333,100.381 84.459,100.417 C84.585,100.452 84.692,100.505 84.776,100.572 C84.862,100.64 84.926,100.72 84.97,100.817 C85.012,100.913 85.034,101.021 85.034,101.142 C85.034,101.321 84.988,101.473 84.896,101.593 C84.804,101.714 84.677,101.812 84.517,101.885 C84.599,101.896 84.679,101.922 84.758,101.961 C84.838,102 84.909,102.049 84.972,102.108 C85.036,102.169 85.087,102.239 85.126,102.321 C85.166,102.403 85.186,102.493 85.186,102.594" id="Fill-51" fill="#000000"></path>
                <path d="M55.867,148.896 C55.408,148.151 54.879,147.41 54.27,146.695 C50.528,142.295 45.446,140.47 42.92,142.617 C40.395,144.766 41.38,150.075 45.123,154.475 C45.732,155.19 46.378,155.831 47.041,156.403 L55.867,148.896" id="Fill-52" fill="#F4D1C1"></path>
                <path d="M33.39,118.051 C32.818,117.175 32.174,116.297 31.444,115.438 C26.959,110.166 21.275,107.633 18.749,109.781 C16.223,111.931 17.812,117.948 22.297,123.221 C23.027,124.077 23.79,124.854 24.564,125.558 L33.39,118.051" id="Fill-53" fill="#F4D1C1"></path>
                <path d="M32.747,100.404 C32.391,99.367 31.962,98.311 31.447,97.244 C28.273,90.709 23.283,86.584 20.299,88.031 C17.317,89.48 17.471,95.954 20.644,102.49 C21.16,103.552 21.727,104.544 22.324,105.465 L32.747,100.404" id="Fill-54" fill="#F4D1C1"></path>
                <path d="M103.136,21.737 C103.534,21.869 104.37,21.39 105.292,20.706 C104.75,20.093 104.392,19.487 104.298,18.899 C103.651,14.81 98.484,3.719 93.962,2.751 C93.195,2.587 92.271,2.739 91.316,3.22 C94.919,15.679 102.089,21.388 103.136,21.737" id="Fill-55" fill="#F4D1C1"></path>
                <polyline id="Fill-56" fill="#D6E8FF" points="134.602 237.616 97.008 197.412 165.188 133.66 202.781 173.866 134.602 237.616"></polyline>
                <polyline id="Fill-57" fill="#3E4C5F" points="139.975 257.187 98.472 213.771 178.365 137.399 219.867 180.815 139.975 257.187"></polyline>
                <polyline id="Fill-58" fill="#2B3542" points="139.975 257.187 98.472 213.771 115.711 197.292 157.213 240.708 139.975 257.187"></polyline>
                <path d="M138.07,232.6 C140.078,234.568 140.109,237.793 138.143,239.802 C136.174,241.81 132.951,241.841 130.941,239.873 C128.934,237.904 128.9,234.683 130.869,232.676 C132.838,230.667 136.059,230.633 138.07,232.6" id="Fill-59" fill="#FFFFFF"></path>
                <path d="M124.744,219.54 C126.75,221.509 126.783,224.733 124.814,226.744 C122.85,228.75 119.623,228.782 117.615,226.813 C115.607,224.846 115.574,221.621 117.543,219.615 C119.512,217.606 122.736,217.573 124.744,219.54" id="Fill-60" fill="#FFFFFF"></path>
            </g>
        </g>
    </g>
</svg>