<?xml version="1.0" encoding="UTF-8"?>
<svg width="4206px" height="3357px" viewBox="0 0 4206 3357" version="1.1" xmlns="http://www.w3.org/2000/svg" xmlns:xlink="http://www.w3.org/1999/xlink">
    <!-- Generator: Sketch 52.2 (67145) - http://www.bohemiancoding.com/sketch -->
    <title>Complications</title>
    <desc>Created with Sketch.</desc>
    <g id="Page-1" stroke="none" stroke-width="1" fill="none" fill-rule="evenodd">
        <g id="Complications">
            <g id="-" fill="#27BCBD">
                <path d="M723.938828,1919.25169 C718.992976,1977.50008 758.52725,2285.80974 778.928888,2406.69955 C788.641629,2463.9717 815.274389,2557.28301 805.691802,2606.82667 C792.009364,2675.87867 788.055937,2765.23624 795.588599,2817.2693 C800.339219,2848.8666 815.290659,2994.60146 793.896597,3047.90361 C782.703354,3075.85632 762.187831,3219.10179 762.187831,3219.10179 C708.74335,3354.0493 738.906537,3347.41094 738.906537,3347.41094 C755.452362,3367.71652 783.793393,3349.00545 783.793393,3349.00545 C805.382686,3362.77029 820.334126,3345.73508 820.334126,3345.73508 C838.8648,3361.07816 860.470362,3343.8477 860.470362,3343.8477 C883.751657,3355.93668 905.340949,3333.6461 905.340949,3333.6461 C918.714272,3340.38208 921.984391,3331.87261 921.984391,3331.87261 C962.104358,3329.30187 899.597905,3200.8951 899.597905,3200.8951 C884.630196,3085.56981 914.451729,3021.3827 914.451729,3021.3827 C1012.1323,2731.68648 1017.09442,2654.80837 978.048221,2545.63333 C967.050209,2514.11737 964.268168,2501.6379 969.327904,2487.95441 C981.025494,2456.37338 972.500408,2329.3496 986.768539,2278.91105 C1014.29611,2181.62975 1041.44948,1934.92018 1055.60373,1819.80641 C1074.62248,1664.74856 988.232771,1456.84413 988.232771,1456.84413 C969.311635,1372.23754 997.050704,1070.79402 997.050704,1070.79402 C1035.78778,1131.07622 1034.30728,1237.48528 1034.30728,1237.48528 C1028.15751,1349.08462 1124.45519,1519.64826 1124.45519,1519.64826 C1170.72493,1590.13206 1188.24691,1657.0038 1188.24691,1661.9663 C1188.24691,1682.27189 1183.80541,1731.42506 1183.80541,1731.42506 L1185.57876,1774.23274 C1186.37595,1785.13398 1192.50946,1822.67001 1191.51703,1840.81162 C1184.29349,1952.45978 1202.02697,1931.45457 1202.02697,1931.45457 C1216.99468,1931.45457 1233.44289,1841.60887 1233.44289,1841.60887 C1233.44289,1864.77806 1227.78119,1934.1392 1240.27597,1960.30216 C1255.22741,1991.50897 1266.22542,1954.94916 1266.42065,1947.61117 C1270.37408,1805.45583 1278.91544,1842.699 1278.91544,1842.699 C1287.22902,1958.02429 1297.44611,1984.07336 1315.76528,1975.0595 C1329.64295,1968.43741 1316.95294,1836.66264 1316.95294,1836.66264 C1340.72231,1914.94001 1358.74864,1927.40321 1358.74864,1927.40321 C1397.9738,1954.94916 1373.71635,1878.86832 1368.26615,1863.80183 C1339.24181,1783.75098 1338.347,1756.00978 1338.347,1756.00978 C1374.61116,1827.94166 1401.94349,1825.27329 1401.94349,1825.27329 C1437.31284,1813.98157 1371.03192,1712.12825 1332.19722,1663.33303 C1312.38128,1638.47171 1286.82229,1605.18227 1279.40351,1585.41361 C1267.31546,1551.92893 1258.18841,1444.28331 1258.18841,1444.28331 C1254.52783,1317.25953 1223.12818,1262.08627 1223.12818,1262.08627 C1169.43966,1176.1455 1159.33646,1015.83228 1159.33646,1015.83228 L1156.96115,745.172545 C1138.13763,560.551202 1002.11044,559.217022 1002.11044,559.217022 C864.61902,538.748735 845.486384,494.330275 845.486384,494.330275 C816.364429,452.417472 833.00787,372.073752 833.00787,372.073752 C857.167704,352.41899 866.489984,300.239502 866.489984,300.239502 C906.609951,269.47199 904.641372,224.451522 886.110698,224.939637 C871.240604,225.330129 874.608339,213.013362 874.608339,213.013362 C899.69552,10.3480368 719.79017,0 719.79017,0 L692.327678,0 C692.327678,0 512.340981,10.3480368 537.395624,212.96455 C537.395624,212.96455 540.763358,225.297588 525.763111,224.890825 C507.281245,224.402711 505.556704,269.423179 545.530248,300.190691 C545.530248,300.190691 554.836258,352.353908 579.012362,372.02494 C579.012362,372.02494 595.655803,452.36866 566.533848,494.281463 C566.533848,494.281463 547.466289,538.699923 409.909792,559.16821 C409.909792,559.16821 273.654835,560.502391 255.124161,745.123733 L252.55362,1015.78347 C252.55362,1015.78347 242.645647,1176.09669 188.745627,1262.03746 C188.745627,1262.03746 157.4924,1317.22699 153.880627,1444.2345 C153.880627,1444.2345 144.72104,1551.88011 132.681796,1585.3648 C125.344365,1605.03583 99.801645,1638.32527 79.8230078,1663.28421 C40.6466572,1711.98182 -25.1949918,1813.62362 10.0279314,1825.22448 C10.0279314,1825.22448 37.5066922,1827.89284 73.6244241,1755.96097 C73.6244241,1755.96097 72.8760386,1783.50693 43.9005069,1863.75302 C38.2062699,1878.62426 13.9813588,1954.70511 53.2227863,1927.3544 C53.2227863,1927.3544 71.395537,1914.87493 95.0184859,1836.61383 C95.0184859,1836.61383 82.3447413,1968.3886 96.4501798,1975.01069 C114.883238,1984.04082 124.937634,1957.97548 133.25122,1842.65019 C133.25122,1842.65019 141.776306,1805.40702 145.729734,1947.56236 C145.924965,1954.90035 156.678938,1991.46016 171.695454,1960.25335 C184.369199,1934.09039 178.674962,1864.84315 178.674962,1841.56006 C178.674962,1841.56006 194.927941,1931.40575 210.12342,1931.40575 C210.12342,1931.40575 228.003324,1952.41097 220.665893,1840.76281 C219.478237,1822.52358 225.872052,1785.08516 226.669245,1774.18393 L228.393786,1731.37625 C228.393786,1731.37625 223.936012,1682.33697 223.936012,1661.91749 C223.936012,1656.85737 241.474262,1590.08324 287.727735,1519.59945 C287.727735,1519.59945 383.927802,1348.95446 377.729218,1237.43647 C377.729218,1237.43647 376.39514,1131.02741 415.132221,1070.74521 C415.132221,1070.74521 442.627251,1372.17246 423.998961,1456.79532 C423.998961,1456.79532 337.462828,1664.69975 356.546657,1819.7576 C370.603287,1935.18051 397.707856,2181.56466 425.300501,2278.86224 C439.715055,2329.20316 431.189969,2456.1944 442.741136,2487.9056 C447.947295,2501.68671 445.214061,2514.3777 434.020818,2545.58452 C395.186122,2654.75956 400.131974,2731.65394 497.812542,3021.33388 C497.812542,3021.33388 527.878113,3085.521 512.682635,3200.84629 C512.682635,3200.84629 450.273798,3329.25306 490.247341,3331.8238 C490.247341,3331.8238 493.371037,3340.33327 506.890783,3333.59728 C506.890783,3333.59728 528.480076,3355.88787 551.810178,3343.79889 C551.810178,3343.79889 573.41574,3361.04562 591.881337,3345.68626 C591.881337,3345.68626 606.686353,3362.72148 628.275646,3348.95664 C628.275646,3348.95664 656.616677,3368.07447 673.45535,3347.36213 C673.45535,3347.36213 703.374498,3354.00049 650.108978,3219.05298 C650.108978,3219.05298 629.70734,3075.98649 618.465289,3047.8548 C597.02242,2994.56891 612.16909,2848.52492 616.740749,2817.22048 C624.110719,2764.89456 620.157291,2675.7485 606.686353,2606.77786 C596.827189,2557.34809 623.525026,2464.02051 633.38419,2406.65073 C653.639405,2285.87483 693.336371,1977.54889 688.374251,1919.20288 L704.773653,1924.96264 C716.520051,1924.99518 723.938828,1919.25169 723.938828,1919.25169 Z" id="Shape"></path>
            </g>
            <g id="heart-(1)" transform="translate(3385.000000, 1881.000000)">
                <g id="Group">
                    <path d="M721.074176,476.456059 C647.372203,410.116814 472.975756,302.031133 581.050098,270.088224 C689.134619,238.155496 704.825744,219.100714 681.76493,193.947996 C648.980505,158.182424 507.358304,174.422381 489.094405,154.810234 C470.830505,135.185362 531.917994,12.2747708 531.917994,12.2747708 L460.67937,0 C460.67937,0 453.309682,137.564983 423.833474,137.564983 C394.357265,137.564983 406.643472,0 406.643472,0 C384.524228,17.1918053 335.404848,0 335.404848,0 C335.404848,0 386.987577,147.386327 352.59485,147.386327 C318.212302,147.386327 286.282923,24.5622669 286.282923,24.5622669 C271.533368,49.1245338 239.474205,51.5779609 239.474205,51.5779609 C268.82063,95.7981855 256.806715,177.326282 256.806715,177.326282 C212.603854,224.458042 223.289393,309.589928 223.289393,309.589928 L223.475162,309.612833 C219.138853,355.278646 244.225313,450.308226 224.877337,491.978312 C197.841574,550.14795 136.448711,650.875895 210.13796,771.246527 C283.827209,891.61716 457.172661,1064.53287 721.071631,889.176458 C868.404323,791.270972 794.76597,542.785123 721.074176,476.456059 Z" id="Shape" fill="#ED5145"></path>
                    <path d="M216.362833,215.435175 C216.362833,215.435175 246.481495,160.162911 175.248428,157.699126 C103.994998,155.245522 124.212402,277.872269 109.492869,331.940638 C94.7300669,385.9861 -13.3540097,471.979318 1.37570372,589.89484 C16.1385062,707.823087 163.542544,729.93352 163.542544,729.93352 C163.542544,729.93352 122.998288,626.966148 169.676743,543.43926 C216.365378,459.899646 224.963438,462.144541 207.757137,398.274482 C190.561018,334.381516 216.362833,215.435175 216.362833,215.435175 Z" id="Shape" fill="#ED5145"></path>
                    <path d="M636.696105,270.23075 C661.045762,269.912374 682.550512,319.405805 734.964999,309.57436 C787.356585,299.732726 803.046833,283.347833 803.046833,283.347833 C803.046833,283.347833 808.652675,324.334262 820.126455,330.877522 C820.126455,330.877522 731.679869,347.272603 741.512357,365.300315 C751.344845,383.31784 803.046833,404.621002 803.046833,404.621002 C803.046833,404.621002 766.060496,449.160506 772.620577,467.045586 C772.620577,467.045586 610.509218,375.108838 589.223307,342.328864 C567.937396,309.57436 577.670643,271.03051 636.696105,270.23075 Z" id="Shape" fill="#ED5145"></path>
                    <path d="M595.630991,876.316473 C626.981662,923.367066 510.050758,776.640994 488.998514,729.4275 C467.925917,682.214005 426.175056,787.868485 426.175056,817.32824 C426.175056,817.32824 413.904969,770.649266 448.298357,694.500357 C448.298357,694.500357 433.563058,583.928282 406.537319,537.249308 C379.54211,490.570335 313.228177,633.068598 313.228177,682.201278 C313.228177,682.201278 320.595827,532.321532 379.54211,490.562699 C379.54211,490.562699 337.801425,335.778084 357.441706,286.635222 C377.079442,237.505087 406.537319,205.555991 406.537319,205.555991 C406.537319,205.555991 372.164284,269.438912 379.54211,330.857944 C386.909759,392.276976 399.192567,443.764095 399.192567,443.764095 C399.192567,443.764095 509.686955,441.419837 546.535378,483.181216 C546.535378,483.181216 436.007917,458.112171 413.917689,466.972496 C413.917689,466.972496 431.115655,522.511795 454.432128,588.835696 C477.758778,655.172323 541.610043,677.283683 595.633536,687.118873 C595.633536,687.118873 512.515969,687.118873 489.001058,664.994786 C489.001058,665.017694 575.993255,846.83381 595.630991,876.316473 Z" id="Shape" fill="#DD423A"></path>
                </g>
            </g>
            <g id="medicine" transform="translate(1412.000000, 2041.000000)">
                <path d="M324.617045,220.932769 C350.802726,220.976967 376.863883,224.698455 402,232 L402,161 L201,161 L201,232 C226.136117,224.698455 252.188378,220.976967 278.382955,220.932769 L324.617045,220.932769 Z" id="Shape" fill="#EBBF00"></path>
                <path d="M543,161 L543,37.2689301 C543,16.6886431 526.311049,0 505.730383,0 L97.1894682,0 C76.6355188,0.0445266849 60,16.7153597 60,37.2689301 L60,161 L543,161 Z" id="Shape" fill="#27AAE1"></path>
                <path d="M443,1086.50445 C443,1130.96001 479.039992,1167 523.495548,1167 L604,1167 L604,1006 L523.495548,1006 C479.039992,1006 443,1042.03999 443,1086.50445 Z" id="Shape" fill="#5AAAE7"></path>
                <path d="M684.495548,1167 C728.960008,1167 765,1130.96001 765,1086.50445 C765,1042.03999 728.960008,1006 684.495548,1006 L604,1006 L604,1167 L684.495548,1167 Z" id="Shape" fill="#96C9EF"></path>
                <path d="M302,221 L278.845302,221 C252.61697,221.044483 226.513364,224.790017 201.336304,232.138738 C82.0882662,266.569182 0.00890908022,375.581129 0,499.539628 L0,603 L302,603 L302,221 Z M120.798219,542.679996 C120.896217,453.890374 192.952858,381.94231 281.865481,381.835549 C192.952858,381.94231 120.896217,453.890374 120.798219,542.679996 Z" id="Shape" fill="#FFD422" fill-rule="nonzero"></path>
                <path d="M402.663697,232.138738 C377.486638,224.790017 351.383032,221.044483 325.1547,221 L302,221 L302,603 L604,603 L604,499.459558 C603.955455,375.52775 521.885009,266.560285 402.663697,232.138738 Z" id="Shape" fill="#FFE57B"></path>
                <polygon id="Shape" fill="#27AAE1" points="302 946.219329 302 825.429749 181.201783 825.429749 302 825.429749 302 604 0 604 0 1067 302 1067"></polygon>
                <path d="M503.006637,1167 L523,1167 C478.818122,1167 443,1131.18188 443,1087 L443,1167 L503.006637,1167 Z" id="Shape" fill="#FFDE55"></path>
                <path d="M302,704.621661 L302,1066.87389 L442.932739,1066.87389 L442.932739,1087 C442.932739,1042.53554 478.987787,1006.49555 523.461915,1006.49555 L604,1006.49555 L604,604 L302,604 L302,704.621661 Z" id="Shape" fill="#6FC6EB"></path>
                <polygon id="Shape" fill="#FFD422" points="0 1066 302 1066 302 1167 0 1167"></polygon>
                <polygon id="Shape" fill="#FFDE55" points="302 1066 302 1167 443 1167 443 1066"></polygon>
                <path d="M141.2242,543 L101,543 C101.124587,443.084225 182.089139,362.115694 282,362 L282,402.217277 C204.292539,402.306274 141.31319,465.28872 141.2242,543 Z" id="Shape" fill="#F1F2F2"></path>
                <g id="Group" transform="translate(121.000000, 40.000000)" fill="#1A6FB0">
                    <polygon id="Shape" points="0.206511747 0.00390625 40.4842257 0.00390625 40.4842257 80.9194342 0.206511747 80.9194342"></polygon>
                    <polygon id="Shape" points="80.7619397 0.00390625 121.030743 0.00390625 121.030743 80.9194342 80.7619397 80.9194342"></polygon>
                    <polygon id="Shape" points="161.308457 0.00390625 201.586171 0.00390625 201.586171 80.9194342 161.308457 80.9194342"></polygon>
                    <polygon id="Shape" points="241.863885 0.00390625 282.132687 0.00390625 282.132687 80.9194342 241.863885 80.9194342"></polygon>
                    <polygon id="Shape" points="322.4104 0.00390625 362.688114 0.00390625 362.688114 80.9194342 322.4104 80.9194342"></polygon>
                </g>
                <polygon id="Shape" fill="#CD2A00" points="262 704 342 704 342 945 262 945"></polygon>
                <polygon id="Shape" fill="#CD2A00" points="181 785 422 785 422 865 181 865"></polygon>
            </g>
            <g id="blood-pressure-gauge-(1)" transform="translate(2286.000000, 207.000000)">
                <path d="M1481.6735,1409.66952 L1375.16409,1418 L1362,1251.39043 L1468.50942,1243.05995 C1491.24738,1241.86988 1510.39514,1258.53084 1512.78861,1281.14214 L1518.77229,1366.82706 C1521.16576,1388.24829 1504.41147,1407.28938 1481.6735,1409.66952 Z" id="Shape" fill="#BCBFC2"></path>
                <path d="M314.390644,843.807578 C269.181298,884.328441 214.454195,914.123194 170.434568,955.835848 C133.55326,991.589551 101.43083,1035.68578 77.6364369,1082.1656 C27.6682122,1177.50881 5.06353917,1284.76992 0.304660632,1390.83924 C-3.26449827,1507.63467 24.0990533,1614.89578 104.999989,1701.89645 C182.331765,1785.32176 290.596252,1827.03442 402.429897,1837.76053 C446.449524,1842.52769 445.259804,1774.59565 402.429897,1769.82849 C302.493448,1759.10238 204.936438,1716.19794 139.501858,1637.53979 C71.6878387,1554.11448 62.1700816,1452.81232 70.4981191,1349.12658 C78.8261565,1259.74232 102.620549,1169.16628 149.019615,1092.89171 C172.814008,1052.37085 202.556999,1016.61714 238.248588,986.822391 C277.509336,953.452268 323.908401,927.232885 361.97943,892.670972 C395.291579,862.876219 346.513074,815.204615 314.390644,843.807578 Z" id="Shape" fill="#0B2C48"></path>
                <path d="M256.070841,665.064413 C219.156128,716.325878 175.096631,766.395215 145.326701,822.425187 C121.510756,867.726016 114.365973,922.563862 107.22119,972.633199 C92.9316231,1071.57975 92.9316231,1176.48693 142.945106,1267.08859 C253.689247,1468.55806 512.092243,1470.94232 710.955377,1459.02105 C755.014874,1456.63679 755.014874,1388.68555 710.955377,1391.0698 C537.098984,1400.60682 298.939541,1411.33596 201.29417,1232.5169 C156.043875,1150.26013 161.997862,1050.12146 177.478225,960.711928 C184.623009,916.603226 191.767792,873.686651 216.774533,835.538585 C247.735261,789.045629 281.077583,744.936927 314.419905,699.636099 C340.617444,663.872286 282.26838,629.300601 256.070841,665.064413 Z" id="Shape" fill="#36505F"></path>
                <path d="M464.617774,674.804386 C428.854694,661.689813 399.052128,639.037369 369.249562,616.384925 C344.215406,597.309183 320.373353,578.23344 298.915505,555.580996 C276.265554,530.544084 259.576117,501.930471 241.694577,474.509091 C229.773551,454.241115 216.660421,432.780905 211.892011,408.936227 C199.970984,346.940064 246.462988,289.712837 292.954991,247.984651 C425.278387,129.953495 592.172759,48.8815898 767.411849,17.8835085 C842.514317,4.76893559 917.616784,0 993.911355,0 C1084.51116,0 1178.68727,5.96116949 1260.94235,46.497122 C1295.51333,63.1883966 1327.7001,87.0330745 1347.96584,119.22339 C1373,160.951576 1373,212.217634 1373,261.099224 C1373,379.130379 1373,498.353769 1373,616.384925 C1300.28174,591.348013 1225.17927,573.464505 1148.8847,565.118867 C1104.7769,560.349932 1059.477,557.965464 1015.3692,565.118867 C946.227248,575.848972 883.045807,609.231522 817.480161,634.268433 C753.106618,658.113111 686.348869,674.804386 617.206915,683.150023 C565.9465,691.49566 513.493983,692.687894 464.617774,674.804386 Z" id="Shape" fill="#2C424F"></path>
                <path d="M982.549296,246.980613 C978.974648,243.403841 974.208451,241.019327 970.633803,238.634813 C912.247887,204.059357 835.988732,231.48127 784.752113,275.594783 C733.515493,319.708296 696.577465,379.321151 645.340845,423.434664 C583.380282,475.893977 501.16338,503.31589 420.138028,497.354604 C339.112676,491.393319 267.619718,469.932691 214,409.127579 C254.512676,568.890031 277.152113,716.729912 293.833803,880.069135 C298.6,928.951676 305.749296,982.603246 342.687324,1013.60193 C371.284507,1036.25482 410.605634,1041.02384 446.352113,1039.83159 C613.169014,1037.44707 776.411268,961.142618 886.033803,834.763365 C900.332394,818.071765 913.439437,800.187909 932.504225,789.457595 C968.250704,767.996967 1014.72113,772.765995 1052.8507,790.649852 C1055.2338,779.919538 1057.6169,767.996967 1060,757.266653 L982.549296,246.980613 Z" id="Shape" fill="#9EA8AD"></path>
                <g id="Group" transform="translate(931.000000, 136.000000)" fill="#527F99">
                    <path d="M375.822743,681.263856 C397.272231,647.891368 413.955167,616.902629 423.488273,578.762642 C434.213017,537.047032 438.97957,486.988299 441.362847,444.080814 C444.937761,371.376465 443.746123,295.096491 441.362847,222.392142 C440.171208,146.112169 453.279229,73.4078191 423.488273,0.703469631 C443.746123,113.931555 381.780934,209.281522 292.408065,258.148379 C205.418473,307.015237 95.7877539,286.753369 0.456693847,254.572756 C14.7563529,401.173329 29.0560119,546.582028 43.3556709,693.182602 C45.7389474,713.44447 48.1222239,734.898212 61.2302446,750.392582 C73.1466271,763.503202 89.8295626,769.462575 106.512498,773.038199 C205.418473,795.683816 321.007383,767.078826 375.822743,681.263856 Z" id="Shape"></path>
                    <path d="M549.801927,1168.74056 L508.094589,1172.31618 C503.328036,1172.31618 499.753121,1168.74056 499.753121,1165.16494 C499.753121,1160.39744 503.328036,1156.82181 506.90295,1156.82181 L548.610289,1153.24619 C553.376842,1153.24619 556.951757,1156.82181 556.951757,1160.39744 C556.951757,1163.97306 554.56848,1168.74056 549.801927,1168.74056 Z" id="Shape"></path>
                    <path d="M553.376842,1225.95054 L511.669503,1229.52616 C506.90295,1229.52616 503.328036,1225.95054 503.328036,1222.37492 C503.328036,1217.60742 506.90295,1214.03179 510.477865,1214.03179 L552.185204,1210.45617 C556.951757,1210.45617 560.526672,1214.03179 560.526672,1217.60742 C561.71831,1222.37492 558.143395,1225.95054 553.376842,1225.95054 Z" id="Shape"></path>
                </g>
                <path d="M641.55088,1345.41012 L754.778798,1324 L781,1486.95477 L667.772082,1508.36488 C651.085863,1511.93324 635.591516,1500.03873 632.015898,1483.38642 L615.329678,1381.09364 C612.945933,1364.44133 623.672788,1348.97847 641.55088,1345.41012 Z" id="Shape" fill="#BCBFC2"></path>
                <g id="Group" transform="translate(644.000000, 1383.000000)" fill="#527F99">
                    <path d="M15.9235628,63.0285714 L57.5494737,55.9428571 C62.3067206,54.7619048 65.8746559,58.3047619 67.0639676,63.0285714 C68.2532794,67.752381 64.6853441,71.2952381 61.1174089,72.4761905 L19.491498,79.5619048 C14.734251,80.7428571 11.1663158,77.2 9.97700405,72.4761905 C8.78769231,67.752381 11.1663158,64.2095238 15.9235628,63.0285714 Z" id="Shape"></path>
                    <path d="M6.40906883,7.52380952 L48.0349798,0.438095238 C52.7922267,-0.742857143 56.3601619,2.8 57.5494737,7.52380952 C58.7387854,12.247619 55.1708502,15.7904762 51.602915,16.9714286 L9.97700405,24.0571429 C5.21975709,25.2380952 1.65182186,21.6952381 0.462510121,16.9714286 C-0.726801619,12.247619 2.8411336,8.7047619 6.40906883,7.52380952 Z" id="Shape"></path>
                </g>
                <ellipse id="Oval" fill="#0B2C48" transform="translate(1066.500000, 1367.500000) rotate(-95.227110) translate(-1066.500000, -1367.500000) " cx="1066.5" cy="1367.5" rx="214.5" ry="357.5"></ellipse>
                <path d="M523,1443.32733 C523,1461.1892 527.763992,1477.86027 530.145987,1494.53134 C532.527983,1512.39321 532.527983,1530.25507 533.718981,1548.11694 C534.909979,1576.69592 580.1679,1577.88671 578.976902,1548.11694 C577.785904,1530.25507 577.785904,1512.39321 575.403908,1494.53134 C573.021912,1477.86027 568.257921,1459.9984 568.257921,1443.32733 C568.257921,1413.55756 523,1413.55756 523,1443.32733 Z" id="Shape" fill="#2C424F"></path>
                <path d="M486.33209,1619.27708 C529.212006,1613.31465 566.136378,1594.2349 611.398511,1604.96726 C668.571732,1619.27708 692.393908,1531.03323 635.220687,1516.72342 C605.442967,1509.56851 576.856357,1508.37603 547.078637,1511.95348 C518.492027,1515.53093 491.096525,1526.26329 462.509914,1531.03323 C438.687739,1534.61068 424.394434,1565.61528 430.349977,1587.08 C437.49663,1613.31465 462.509914,1622.85453 486.33209,1619.27708 Z" id="Shape" fill="#4F6673"></path>
                <path d="M436.80412,1728 L553,1733.94406 L541.021043,1898 L424.825163,1892.05594 C408.054624,1890.86713 394.877772,1876.6014 396.075667,1859.95804 L403.263041,1756.53147 C405.658833,1739.88811 420.033581,1728 436.80412,1728 Z" id="Shape" fill="#BCBFC2"></path>
                <g id="Group" transform="translate(424.000000, 1774.000000)" fill="#527F99">
                    <path d="M8.89147287,57.0408163 L50.9457364,59.4081633 C55.751938,59.4081633 59.3565891,62.9591837 58.1550388,67.6938776 C58.1550388,72.4285714 54.5503876,74.7959184 49.744186,74.7959184 L7.68992248,72.4285714 C2.88372093,72.4285714 -0.720930233,68.877551 0.480620155,64.1428571 C0.480620155,59.4081633 4.08527132,55.8571429 8.89147287,57.0408163 Z" id="Shape"></path>
                    <path d="M12.496124,0.224489796 L54.5503876,2.59183673 C59.3565891,2.59183673 62.9612403,6.14285714 61.7596899,10.877551 C61.7596899,15.6122449 58.1550388,17.9795918 53.3488372,17.9795918 L11.2945736,15.6122449 C6.48837209,15.6122449 2.88372093,12.0612245 4.08527132,7.32653061 C4.08527132,3.7755102 7.68992248,0.224489796 12.496124,0.224489796 Z" id="Shape"></path>
                </g>
                <circle id="Oval" fill="#929EA5" cx="693" cy="1825" r="205"></circle>
                <circle id="Oval" fill="#BBC2C6" cx="692.5" cy="1824.5" r="176.5"></circle>
                <circle id="Oval" fill="#F7F8F9" cx="693" cy="1824" r="155"></circle>
                <rect id="Rectangle-path" fill="#2C424F" transform="translate(689.500000, 1756.500000) rotate(-92.722496) translate(-689.500000, -1756.500000) " x="623" y="1752" width="133" height="9"></rect>
            </g>
            <g id="footprint" transform="translate(2269.000000, 2333.000000)">
                <path d="M790.006991,330.842263 C634.248242,285.185428 507.113869,424.392993 572.607274,563.522591 C572.607274,563.522591 633.142691,674.072186 564.220679,814.703154 C526.416031,897.920223 567.167483,995.699178 648.838318,1019.63513 C722.040591,1041.09212 808.461497,980.707471 825.728486,898.392025 C825.794459,898.184112 934.0465,557.583084 934.098478,557.377171 C957.794856,462.532983 893.283053,361.111557 790.006991,330.842263 Z" id="Shape" fill="#ED694A"></path>
                <path d="M675.340413,814.752726 C744.342067,674.100333 683.736699,563.530325 683.736699,563.530325 C635.46056,461.080261 691.728681,358.598205 787,329.883475 C632.608425,287.194282 507.624864,425.385298 572.721595,563.530325 C572.721595,563.530325 633.326963,674.098334 564.325309,814.752726 C510.304871,933.546652 618.079549,1067.36877 737.036598,1010.49917 C671.003167,976.535769 641.238886,889.74774 675.340413,814.752726 Z" id="Shape" fill="#D8553A"></path>
                <circle id="Oval" fill="#ED694A" cx="631" cy="204" r="71"></circle>
                <path d="M631.322017,133 C561.499398,133.031942 533.255707,223.330922 591.123908,262.653931 C624.904909,285.610487 671.910924,275.798201 693,239.491747 C638.729147,239.515703 603.703604,180.54217 631.322017,133 Z" id="Shape" fill="#D8553A"></path>
                <circle id="Oval" fill="#ED694A" cx="791.5" cy="225.5" r="50.5"></circle>
                <path d="M788.374225,175 C740.524625,177.609819 723.497496,240.145021 762.812622,267.20557 C785.847336,283.059367 817.522058,276.971798 833,253.027362 C792.637479,255.225315 765.825375,209.908088 788.374225,175 Z" id="Shape" fill="#D8553A"></path>
                <circle id="Oval" fill="#ED694A" cx="907.5" cy="283.5" r="40.5"></circle>
                <path d="M928,248.599889 C893.53835,228.745883 853.919079,265.341462 871.175963,301.099462 C881.226609,321.926978 907.080865,330.516654 927.929842,318.548678 C901.155513,303.120445 900.874881,264.174049 928,248.599889 Z" id="Shape" fill="#D8553A"></path>
                <circle id="Oval" fill="#ED694A" cx="976.5" cy="368.5" r="32.5"></circle>
                <g id="Group" transform="translate(944.000000, 335.000000)" fill="#D8553A">
                    <path d="M49.14,4.998 C21.498,-10.972 -10.27,18.468 3.566,47.22 C11.35,63.396 30.774,70.198 46.95,62.414 C47.688,62.06 48.384,61.654 49.082,61.252 C27.61,48.846 27.386,17.524 49.14,4.998 Z" id="Shape"></path>
                    <circle id="Oval" cx="58.634" cy="121.71" r="21.366"></circle>
                </g>
                <path d="M233.993009,196.842263 C389.751758,151.185428 516.886131,290.392993 451.392726,429.522591 C451.392726,429.522591 390.857309,540.072186 459.779321,680.703154 C497.583969,763.920223 456.832517,861.699178 375.161682,885.635131 C301.959409,907.092124 215.538503,846.707471 198.271514,764.392025 C198.205541,764.184112 89.9535004,423.583084 89.9015215,423.377171 C66.2051442,328.534982 130.716947,227.113556 233.993009,196.842263 Z" id="Shape" fill="#ED694A"></path>
                <path d="M301.223487,735.538696 C301.157523,735.330768 192.921018,394.704535 192.869047,394.498606 C173.023955,315.050074 215.060849,230.997134 289.917702,188 C271.905602,188.357876 253.157908,191.166905 233.970455,196.79296 C130.707216,227.066493 66.2066701,328.497425 89.9016455,423.344633 C89.953617,423.550562 198.188123,764.176795 198.256086,764.384723 C215.520596,846.704262 301.929099,907.093383 375.120868,885.634803 C393.684664,880.192684 410.105637,870.901896 424,858.864058 C367.251193,847.841869 314.326285,798.013096 301.223487,735.538696 Z" id="Shape" fill="#D8553A"></path>
                <circle id="Oval" fill="#ED694A" cx="393" cy="71" r="71"></circle>
                <path d="M383.93529,40.8256059 C382.819174,26.0264237 386.339848,11.9484219 393.266979,0 C391.495621,0.00199772979 389.718252,0.0459477851 387.922849,0.179795681 C348.674449,3.12245166 319.250674,37.2276946 322.204272,76.3572279 C327.458232,145.982106 420.05576,166.800449 455,106.522948 C418.037935,106.560905 386.75263,78.1631757 383.93529,40.8256059 Z" id="Shape" fill="#D8553A"></path>
                <circle id="Oval" fill="#ED694A" cx="232.5" cy="91.5" r="50.5"></circle>
                <path d="M232.367091,41 C231.115631,41.0020088 229.860166,41.0321408 228.590685,41.128563 C200.852321,43.2217302 180.056057,67.4759529 182.144494,95.3058353 C185.856825,144.786539 251.277154,159.673738 276,116.761803 C237.034537,116.797961 213.176701,74.3118912 232.367091,41 Z" id="Shape" fill="#D8553A"></path>
                <circle id="Oval" fill="#ED694A" cx="116.5" cy="150.5" r="40.5"></circle>
                <path d="M136.929842,115.451541 C116.11685,103.495815 90.240427,112.045328 80.175703,132.898385 C62.9187405,168.661619 102.542202,205.252417 137,185.400835 C118.780865,174.940324 110.155391,130.875447 136.929842,115.451541 Z" id="Shape" fill="#D8553A"></path>
                <circle id="Oval" fill="#ED694A" cx="47.5" cy="234.5" r="32.5"></circle>
                <g id="Group" transform="translate(0.000000, 202.000000)" fill="#D8553A">
                    <path d="M63.364,4.566 C46.714,-5.032 25.934,1.792 17.85,18.598 C4.01,47.358 35.788,76.788 63.424,60.82 C41.672,48.296 41.892,16.972 63.364,4.566 Z" id="Shape"></path>
                    <circle id="Oval" cx="21.366" cy="121.27" r="21.366"></circle>
                </g>
            </g>
            <g id="kidneys" transform="translate(1304.000000, 427.000000)">
                <g id="kidney" transform="translate(736.500000, 397.500000) scale(-1, 1) translate(-736.500000, -397.500000) translate(491.000000, 0.000000)">
                    <path d="M253.166437,253.618975 L270.258209,378.416895 C438.57332,351.559248 396.864734,794.976709 396.864734,794.976709 L487.663997,794.976709 C520.390079,127.412725 253.166437,253.618975 253.166437,253.618975 Z" id="Shape" fill="#DA4453"></path>
                    <path d="M312.501301,349.205303 C312.501301,349.205303 318.910715,335.595586 318.279873,316.138271 C318.910715,296.68251 312.501301,283.046396 312.501301,283.046396 C408.323991,258.882744 408.323991,-32.4179883 213.280456,2.97814453 C19.7145823,38.1087598 1.07056646,244.156611 0.536060127,316.138271 C1.07056646,388.096641 19.7145823,594.167783 213.278902,629.298398 C408.323991,664.696084 408.323991,373.393799 312.501301,349.205303 Z" id="Shape" fill="#EC5564"></path>
                    <g id="Group" opacity="0.2" fill="#FFFFFF">
                        <path d="M246.443155,629.298398 C52.8788354,594.167783 34.2084051,388.096641 33.6738987,316.138271 C34.2084051,244.156611 52.8788354,38.1087598 246.443155,2.97969727 C251.419968,2.0822168 256.275585,1.40211914 260.985146,0.917666016 C246.612519,-0.731337891 230.735816,-0.197197266 213.280456,2.97969727 C19.7145823,38.1087598 1.07056646,244.156611 0.536060127,316.138271 C1.07056646,388.096641 19.7145823,594.167783 213.278902,629.298398 C230.734263,632.476846 246.612519,633.010986 260.983592,631.36043 C256.274032,630.875977 251.418415,630.195879 246.443155,629.298398 Z" id="Shape"></path>
                    </g>
                </g>
                <g id="kidney">
                    <path d="M253.166437,253.618975 L270.258209,378.416895 C438.57332,351.559248 396.864734,794.976709 396.864734,794.976709 L487.663997,794.976709 C520.390079,127.412725 253.166437,253.618975 253.166437,253.618975 Z" id="Shape" fill="#DA4453"></path>
                    <path d="M312.501301,349.205303 C312.501301,349.205303 318.910715,335.595586 318.279873,316.138271 C318.910715,296.68251 312.501301,283.046396 312.501301,283.046396 C408.323991,258.882744 408.323991,-32.4179883 213.280456,2.97814453 C19.7145823,38.1087598 1.07056646,244.156611 0.536060127,316.138271 C1.07056646,388.096641 19.7145823,594.167783 213.278902,629.298398 C408.323991,664.696084 408.323991,373.393799 312.501301,349.205303 Z" id="Shape" fill="#EC5564"></path>
                    <g id="Group" opacity="0.2" fill="#FFFFFF">
                        <path d="M246.443155,629.298398 C52.8788354,594.167783 34.2084051,388.096641 33.6738987,316.138271 C34.2084051,244.156611 52.8788354,38.1087598 246.443155,2.97969727 C251.419968,2.0822168 256.275585,1.40211914 260.985146,0.917666016 C246.612519,-0.731337891 230.735816,-0.197197266 213.280456,2.97969727 C19.7145823,38.1087598 1.07056646,244.156611 0.536060127,316.138271 C1.07056646,388.096641 19.7145823,594.167783 213.278902,629.298398 C230.734263,632.476846 246.612519,633.010986 260.983592,631.36043 C256.274032,630.875977 251.418415,630.195879 246.443155,629.298398 Z" id="Shape"></path>
                    </g>
                </g>
            </g>
            <g id="reading-glasses" transform="translate(1588.000000, 1506.000000)">
                <path d="M303.684,47.136 C304.658,45.028 309.71,37.585 333.934,30.27 C361.244,22.02 397.486,18.417 425.098,18.417 C444.219,18.417 459.192,20.145 464.227,23.249 C477.597,31.486 483.434,80.701 465.132,123.491 C449.555,159.935 367.244,163.595 345.571,156.457 C335.114,152.995 321.062,135.064 311.407,112.845 C300.202,87.075 297.176,61.282 303.684,47.136 Z" id="Shape" fill="#EFF2FA"></path>
                <path d="M447.585,141.088 C465.887,98.3 460.051,49.084 446.68,40.846 C441.645,37.742 426.671,36.014 407.551,36.014 C379.939,36.014 343.698,39.618 316.387,47.867 C310.359,49.687 305.525,51.515 301.638,53.267 C302.165,51.048 302.834,48.982 303.684,47.134 C304.658,45.026 309.71,37.583 333.934,30.268 C361.244,22.018 397.486,18.415 425.098,18.415 C444.219,18.415 459.192,20.143 464.227,23.247 C477.597,31.484 483.434,80.699 465.132,123.489 C461.731,131.445 455.038,137.757 446.602,142.816 C446.9,142.224 447.324,141.698 447.585,141.088 Z" id="Shape" fill="#E4EAF6"></path>
                <path d="M200.698,112.997 C191.043,135.217 176.992,153.148 166.534,156.609 C144.861,163.747 62.552,160.087 46.973,123.643 C28.671,80.855 34.507,31.639 47.878,23.401 C52.913,20.298 67.887,18.569 87.007,18.569 C114.619,18.569 150.86,22.173 178.171,30.422 C202.395,37.737 207.447,45.181 208.421,47.288 C214.931,61.437 211.905,87.23 200.698,112.997 Z" id="Shape" fill="#EFF2FA"></path>
                <path d="M503.172,9.531 L475.104,9.531 C474.528,9.108 473.997,8.591 473.396,8.22 C454.181,-3.617 375.775,-0.84 328.724,13.366 C324.478,14.648 320.555,15.992 316.95,17.401 C308.736,20.614 300.335,23.409 291.607,24.682 C280.592,26.288 268.599,27.186 256,27.186 C243.402,27.186 231.41,26.289 220.394,24.683 C211.665,23.412 203.263,20.616 195.048,17.402 C191.443,15.992 187.521,14.648 183.276,13.367 C136.242,-0.84 57.828,-3.616 38.612,8.216 C38.008,8.588 37.477,9.106 36.898,9.53 L8.828,9.53 C3.953,9.53 0,13.483 0,18.358 L0,38.092 C0,42.307 2.108,46.244 5.614,48.584 L13.778,54.027 C16.325,55.725 17.733,58.579 17.638,61.637 C16.967,83.31 21.204,108.134 30.732,130.426 C46.103,166.37 99.465,177.193 137.706,177.193 C152.396,177.193 164.861,175.598 172.068,173.211 C190.706,167.052 207.439,141.625 216.896,119.879 C224.995,101.245 229.175,83.078 229.386,67.37 C229.427,64.331 230.898,61.56 233.459,59.923 C239.54,56.038 247.364,53.668 255.999,53.668 C264.635,53.668 272.459,56.038 278.539,59.923 C281.1,61.559 282.571,64.33 282.612,67.37 C282.823,83.078 287.003,101.245 295.102,119.879 C304.559,141.625 321.291,167.051 339.93,173.211 C347.137,175.599 359.593,177.193 374.292,177.193 C412.533,177.193 465.896,166.365 481.266,130.426 C490.793,108.133 495.032,83.309 494.361,61.636 C494.266,58.577 495.674,55.724 498.221,54.026 L506.384,48.584 C509.892,46.245 511.998,42.308 511.998,38.092 L511.998,18.358 C512,13.484 508.047,9.531 503.172,9.531 Z M200.698,112.842 C191.043,135.062 176.992,152.993 166.534,156.454 C144.861,163.592 62.552,159.932 46.973,123.488 C28.671,80.7 34.507,31.484 47.878,23.246 C52.913,20.142 67.887,18.414 87.007,18.414 C114.619,18.414 150.86,22.018 178.171,30.267 C202.395,37.582 207.447,45.026 208.421,47.133 C214.931,61.282 211.905,87.075 200.698,112.842 Z M465.026,123.489 C449.449,159.941 367.138,163.584 345.465,156.455 C335.008,152.994 320.956,135.062 311.301,112.843 C300.094,87.075 297.069,61.282 303.577,47.136 C304.551,45.028 309.603,37.585 333.827,30.27 C380.043,16.309 451.81,15.649 464.129,23.253 C477.491,31.485 483.328,80.701 465.026,123.489 Z" id="Shape" fill="#5B5D6E" fill-rule="nonzero"></path>
                <path d="M64.522,141.088 C46.22,98.3 52.056,49.084 65.427,40.846 C70.462,37.742 85.436,36.014 104.556,36.014 C132.168,36.014 168.409,39.618 195.72,47.867 C201.748,49.687 206.582,51.515 210.469,53.267 C209.942,51.048 209.273,48.982 208.423,47.134 C207.449,45.026 202.397,37.583 178.173,30.268 C150.863,22.018 114.621,18.415 87.009,18.415 C67.888,18.415 52.915,20.143 47.88,23.247 C34.51,31.484 28.673,80.699 46.975,123.489 C50.376,131.445 57.069,137.757 65.505,142.816 C65.207,142.224 64.782,141.698 64.522,141.088 Z" id="Shape" fill="#E4EAF6"></path>
                <g id="Group" transform="translate(101.000000, 75.000000)" fill="#FFFFFF">
                    <circle id="Oval" cx="44.655" cy="45.029" r="22.069"></circle>
                    <circle id="Oval" cx="11.519" cy="11.892" r="10.996"></circle>
                    <circle id="Oval" cx="305.069" cy="45.029" r="22.069"></circle>
                    <circle id="Oval" cx="271.921" cy="11.892" r="10.996"></circle>
                </g>
            </g>
        </g>
    </g>
</svg>