<?xml version="1.0" encoding="UTF-8"?>
<svg width="5149px" height="5720px" viewBox="0 0 5149 5720" version="1.1" xmlns="http://www.w3.org/2000/svg" xmlns:xlink="http://www.w3.org/1999/xlink">
    <!-- Generator: Sketch 51.3 (57544) - http://www.bohemiancoding.com/sketch -->
    <title>Artboard</title>
    <desc>Created with Sketch.</desc>
    <defs></defs>
    <g id="Artboard" stroke="none" stroke-width="1" fill="none" fill-rule="evenodd">
        <g id="glass-of-water-(1)" transform="translate(754.000000, 831.000000)" fill-rule="nonzero">
            <path d="M810.847593,1522 L119.152407,1522 C92.9670445,1522 71.401264,1501.43526 70.1361031,1475.27356 L0.0299003094,25.7320557 C-0.654912079,11.7280564 10.511008,0 24.5322485,0 L905.467752,0 C919.488993,0 930.654913,11.7280564 929.9701,25.7320557 L859.863897,1475.27356 C858.598737,1501.43526 837.032956,1522 810.847593,1522 Z" id="Shape" fill="#EDEBED"></path>
            <path d="M297.572399,1352.2683 L268.642078,0 L24.5272493,0 C10.5088661,0 -0.654778622,11.7280564 0.0298942164,25.7320557 L70.1218109,1475.27356 C71.3867139,1501.43526 92.9597067,1522 119.128127,1522 L810.68236,1522 C836.862387,1522 858.423772,1501.43526 859.700282,1475.27356 L861,1448.35708 L395.689475,1448.35708 C342.308214,1448.35708 298.721258,1405.65999 297.572399,1352.2683 Z" id="Shape" fill="#DBD9DC"></path>
            <path d="M297.572399,1352.2683 L268.642078,0 L24.5272493,0 C10.5088661,0 -0.654778622,11.7280564 0.0298942164,25.7320557 L70.1218109,1475.27356 C71.3867139,1501.43526 92.9597067,1522 119.128127,1522 L810.68236,1522 C836.862387,1522 858.423772,1501.43526 859.700282,1475.27356 L861,1448.35708 L395.689475,1448.35708 C342.308214,1448.35708 298.721258,1405.65999 297.572399,1352.2683 Z" id="Shape" fill="#DBD9DC"></path>
            <path d="M812.604906,1448 L867.970336,303.955653 C868.782998,287.192589 852.761968,274.376506 836.65967,279.101276 C788.457265,293.287192 766.399324,319.081882 686.259345,319.081882 C575.76067,319.081882 575.76067,270 465.250386,270 C354.82137,270 354.82137,319.081882 244.392353,319.081882 C164.449733,319.081882 142.391793,293.333628 94.3403093,279.147711 C78.2496206,274.388114 62.2169813,287.215805 63.0296437,303.978872 L118.395074,1448 L812.604906,1448 Z" id="Shape" fill="#C4DEFF"></path>
            <path d="M396,1448 C342.637374,1448 299.065633,1405.30927 297.917176,1351.92553 L275.794886,317.421166 C266.282418,318.419646 256.004314,318.942104 244.252933,318.942104 C164.371404,318.942104 142.330319,293.190662 94.3271557,279.002989 C78.2371631,274.242802 62.2283783,287.072081 63.028817,303.837225 L118.351939,1448 L396,1448 Z" id="Shape" fill="#A5CDFF"></path>
            <path d="M902.721587,568.821409 C848.802328,579.507416 804.882726,611.518979 779.639975,654.135243 C772.540451,642.322558 764.19967,631.137095 754.374021,620.950543 C719.595636,584.862035 672.903505,565 622.824021,565 C555.181338,565 496.134644,602.075801 464.511603,656.899668 C432.888559,602.075801 373.841867,565 306.210781,565 C256.131298,565 209.427566,584.862035 174.660781,620.950543 C164.823532,631.148713 156.482751,642.334173 149.371628,654.158474 C124.140476,611.542211 80.2092747,579.507416 26.2784127,568.821409 C26.1856085,568.79818 26.0928042,568.833023 26,568.821409 L28.4825147,620.253629 C79.2348273,634.772663 120.602316,680.850262 122.168388,722.293388 L146.575901,1449 L195.622938,1449 L172.503081,752.841434 C171.215425,716.172167 184.49803,681.454254 209.937989,655.052846 C235.401152,628.651438 269.576309,614.12079 306.210781,614.12079 C379.978546,614.12079 439.999683,674.206353 439.999683,748.067576 L439.999683,1449 L489.04672,1449 L489.04672,748.067576 C489.04672,674.206353 549.056259,614.12079 622.824021,614.12079 C659.470093,614.12079 693.645254,628.651438 719.096813,655.052846 C744.536772,681.454254 757.83098,716.172167 756.531721,752.841434 L733.411864,1449 L782.470504,1449 L807.005621,721.02733 C810.160965,675.89056 850.217594,634.644895 900.517488,620.253629 L903,568.821409 C902.907196,568.833023 902.814392,568.79818 902.721587,568.821409 Z" id="Shape" fill="#EDEBED"></path>
            <path d="M28.4878086,619.474602 C79.3250997,634.00158 120.769175,680.05593 122.326962,721.476972 L146.786524,1448 L195.949776,1448 L172.780617,752.017301 C171.490215,715.357297 184.801145,680.648155 210.295354,654.253417 C229.953681,633.908682 254.831752,620.612608 282,615.584487 L280.930475,566 C240.683803,571.631961 203.715455,590.362586 174.942919,620.159728 C165.084692,630.355322 156.7145,641.549568 149.599837,653.370883 C124.303256,610.753774 80.2899976,578.727072 26.2441299,568.043763 C26.1627552,568.032152 26.0813776,568.055375 26,568.043763 L28.4878086,619.474602 Z" id="Shape" fill="#DBD9DC"></path>
        </g>
        <g id="patch" transform="translate(1900.000000, 831.000000)" fill-rule="nonzero">
            <path d="M1580,611.030211 L1580,967.969789 C1580,1058.40396 1506.39557,1132 1415.95108,1132 L164.048919,1132 C73.6044296,1132 0,1058.40396 0,967.969789 L0,611.030211 C0,520.596036 73.6044296,447 164.048919,447 L1415.95108,447 C1506.39557,447 1580,520.596036 1580,611.030211 Z" id="Shape" fill="#FFB64F"></path>
            <path d="M1580,790 L1580,968.730329 C1580,1059.29652 1506.39557,1133 1415.95108,1133 L164.048919,1133 C73.6044296,1133 0,1059.29652 0,968.730329 L0,790 L1580,790 Z" id="Shape" fill="#FF9900"></path>
            <path d="M1132,164.048919 L1132,1415.95108 C1132,1506.39557 1058.40396,1580 967.969789,1580 L611.030211,1580 C520.596036,1580 447,1506.39557 447,1415.95108 L447,164.048919 C447,73.6044296 520.596036,0 611.030211,0 L967.969789,0 C1058.40396,0 1132,73.6044296 1132,164.048919 Z" id="Shape" fill="#FFDAA8"></path>
            <polygon id="Shape" fill="#FFF4CA" points="601 509 979 509 979 1071 601 1071"></polygon>
            <path d="M1133,164.048919 L1133,1415.95108 C1133,1506.39557 1059.29652,1580 968.730329,1580 L790,1580 L790,0 L968.730329,0 C1059.29652,0 1133,73.6044296 1133,164.048919 Z" id="Shape" fill="#FFC373"></path>
            <polygon id="Shape" fill="#FFE570" points="790 509 979 509 979 1071 790 1071"></polygon>
        </g>
        <g id="doser" transform="translate(1081.000000, 2586.000000)" fill-rule="nonzero">
            <rect id="Rectangle-path" fill="#7F000D" x="427" y="17" width="103" height="274"></rect>
            <g id="Group" transform="translate(255.000000, 0.000000)" fill="#FF4F19">
                <polygon id="Shape" points="589.310937 135.68311 423.214834 102.508648 0.602847534 102.508648 0.602847534 0 433.377161 0 609.438318 35.1664615"></polygon>
                <path d="M223.004108,222.105264 C128.52104,222.105264 51.9268475,298.597516 51.9268475,392.954835 L51.9268475,495.463484 L394.081368,495.463484 L394.081368,392.954835 C394.081368,298.597516 317.487175,222.105264 223.004108,222.105264 Z" id="Shape"></path>
            </g>
            <path d="M478.498632,410 C214.653694,410 0,624.654308 0,888.5 C0,1038.21172 69.7813355,1178.37145 187.982094,1268.74039 L187.982094,1367 L769.017906,1367 L769.017906,1268.74039 C887.218664,1178.36597 957,1038.21172 957,888.5 C956.997263,624.654308 742.343569,410 478.498632,410 Z" id="Shape" fill="#FFE981"></path>
            <path d="M478,410 L478,1367 L768.820939,1367 L768.820939,1268.74068 C887.145548,1178.36651 957,1038.21266 957,888.501368 C957,624.653694 742.121393,410 478,410 Z" id="Shape" fill="#FFC266"></path>
            <circle id="Oval" fill="#FFFFFF" cx="477.5" cy="888.5" r="307.5"></circle>
            <rect id="Rectangle-path" fill="#FFC266" x="307" y="838" width="342" height="103"></rect>
        </g>
        <g id="Group-2" transform="translate(2296.000000, 2411.000000)">
            <g id="cream" fill-rule="nonzero">
                <path d="M1056,248.621915 L1016.24567,426 C1016.21788,425.97221 807.679017,376.344141 807.679017,376.344141 L758,167.702456 L935.389333,128 L1035.42584,148.57608 L1056,248.621915 Z" id="Shape" fill="#C6F2EA"></path>
                <polygon id="Shape" fill="#83C7C3" points="1031.6064 0 919 112.606396 1071.3936 265 1184 152.421337"></polygon>
                <path d="M758.215463,168 L1016,425.804444 L443.243594,1081 L233.457303,950.546661 L103,740.766744 C103,740.766744 758.159982,167.97226 758.215463,168 Z" id="Shape" fill="#FC7576"></path>
                <polygon id="Shape" fill="#F9545B" points="459 1098.66267 85.3373325 725 0 810.279585 373.720415 1184"></polygon>
            </g>
            <path d="M389.910209,679.910209 L389.910209,583.410209 C389.910209,580.648785 392.148785,578.410209 394.910209,578.410209 L492.910209,578.410209 C495.671633,578.410209 497.910209,580.648785 497.910209,583.410209 L497.910209,679.910209 L594.410209,679.910209 C597.171633,679.910209 599.410209,682.148785 599.410209,684.910209 L599.410209,782.910209 C599.410209,785.671633 597.171633,787.910209 594.410209,787.910209 L497.910209,787.910209 L497.910209,884.410209 C497.910209,887.171633 495.671633,889.410209 492.910209,889.410209 L394.910209,889.410209 C392.148785,889.410209 389.910209,887.171633 389.910209,884.410209 L389.910209,787.910209 L293.410209,787.910209 C290.648785,787.910209 288.410209,785.671633 288.410209,782.910209 L288.410209,684.910209 C288.410209,682.148785 290.648785,679.910209 293.410209,679.910209 L389.910209,679.910209 Z" id="Combined-Shape" fill="#FFFFFF" transform="translate(443.910209, 733.910209) rotate(45.000000) translate(-443.910209, -733.910209) "></path>
        </g>
    </g>
</svg>