<?xml version="1.0" encoding="UTF-8"?>
<svg width="5149px" height="5720px" viewBox="0 0 5149 5720" version="1.1" xmlns="http://www.w3.org/2000/svg" xmlns:xlink="http://www.w3.org/1999/xlink">
    <!-- Generator: Sketch 51.3 (57544) - http://www.bohemiancoding.com/sketch -->
    <title>Artboard</title>
    <desc>Created with Sketch.</desc>
    <defs></defs>
    <g id="Artboard" stroke="none" stroke-width="1" fill="none" fill-rule="evenodd">
        <g id="dumbell-(1)" transform="translate(446.000000, 722.000000)" fill-rule="nonzero">
            <path d="M754.034432,431.818732 C773.119556,391.067373 783.528047,346.844677 783.528047,301.751979 C783.528047,143.937651 659.493533,0 479.947069,0 C300.400605,0 176.366092,143.937651 176.366092,301.751979 C176.366092,346.844677 186.774582,391.067373 205.859707,431.818732 C79.2201789,520.267015 0,672.589636 0,827.799738 C0,965.673388 62.7400687,1096.60436 166.824975,1187.65398 C189.376705,1207.59466 218.864537,1218 250.957384,1218 L479.947069,1218 C594.440467,1218 708.933864,1218 708.933864,1218 C741.02671,1218 770.514542,1207.59466 793.066272,1187.65398 C897.151179,1096.60436 957,965.673388 957,827.799738 C957.002891,672.589636 880.67396,520.267015 754.034432,431.818732 Z M479.947069,433.555846 C407.952118,433.555846 349.840936,375.462253 349.840936,303.489092 C349.840936,231.515931 407.952118,173.422338 479.947069,173.422338 C551.942021,173.422338 610.053203,231.515931 610.053203,303.489092 C610.053203,375.462253 551.942021,433.555846 479.947069,433.555846 Z" id="Shape" fill="#6E6E6E"></path>
            <path d="M754.056952,431.818732 C773.139958,391.067373 783.547294,346.844677 783.547294,301.751979 C783.547294,143.937651 659.526543,0 480,0 L480,173.422338 C551.986964,173.422338 610.091698,231.515931 610.091698,303.489092 C610.091698,375.462253 551.986964,433.555846 480,433.555846 L480,1218 C594.480694,1218 708.961388,1218 708.961388,1218 C741.050673,1218 770.535234,1207.59466 793.084461,1187.65398 C897.157819,1096.60436 957,965.673388 957,827.799738 C957.002891,672.589636 880.682428,520.267015 754.056952,431.818732 Z" id="Shape" fill="#5A5A5A"></path>
            <path d="M1220,960 L1350,960 C1421.79756,960 1480,1018.29199 1480,1090.2 L1480,1263.8 C1480,1335.70801 1421.79756,1394 1350,1394 L1220,1394 L1220,960 Z" id="Shape" fill="#00AB94"></path>
            <rect id="Rectangle-path" fill="#C5D3DD" x="610" y="1090" width="610" height="173"></rect>
            <rect id="Rectangle-path" fill="#B6C4CF" x="913" y="1090" width="306" height="173"></rect>
            <g id="Group" transform="translate(436.000000, 873.000000)" fill="#00CCB2">
                <path d="M260.13289,520.285714 L130.066445,520.285714 C58.2321927,520.285714 0,462.05129 0,390.214286 L0,216.785714 C0,144.94871 58.2321927,86.7142857 130.066445,86.7142857 L260.13289,86.7142857 L260.13289,520.285714 Z" id="Shape"></path>
                <path d="M783.289037,607 C735.398571,607 696.578073,568.178014 696.578073,520.285714 L696.578073,86.7142857 C696.578073,38.8219857 735.398571,0 783.289037,0 C831.179502,0 870,38.8219857 870,86.7142857 L870,520.285714 C870,568.178014 831.179502,607 783.289037,607 Z" id="Shape"></path>
            </g>
            <path d="M696.5,1480 C648.72605,1480 610,1441.17801 610,1393.28571 L610,959.714286 C610,911.821986 648.72605,873 696.5,873 C744.27395,873 783,911.821986 783,959.714286 L783,1393.28571 C783,1441.17801 744.27395,1480 696.5,1480 Z" id="Shape" fill="#00DDC1"></path>
        </g>
        <g id="running-shoe-(1)" transform="translate(955.000000, 2588.000000)" fill-rule="nonzero">
            <path d="M881,154.330882 L687.941672,9.82592817 C670.159984,-3.4844364 645.649884,-3.24959217 628.126397,10.3940997 C580.719953,47.3100966 558.750094,108.119599 571.63356,166.747323 L585.09418,228" id="Shape" fill="#333F61"></path>
            <path d="M1942,753.966273 L1942,751.933334 C1942,656.58623 1875.44478,574.199111 1782.28946,554.233831 L1567.14848,508.121015 C1311.01689,453.22029 1074.03979,331.240171 880.442871,154.647579 C834.039691,145.173174 765.770047,139.150214 699.829285,170.08426 C609.230434,212.590127 615.386422,281.535576 522.564891,338.230294 C449.591965,382.803235 319.030395,417.617312 239.469082,364.711597 C203.045203,340.490801 175.576523,296.729518 95.275582,260.117656 C79.6371719,252.987199 66.4110898,248.140006 57.9034609,245.223345 L52.9346719,247.464888 L22.1812813,360.585035 C7.46076953,414.738579 0,470.614053 0,526.739852 L0,753.966273 L25.4963359,891 L1906.74436,891 L1942,753.966273 Z" id="Shape" fill="#F56C6C"></path>
            <g id="Group" transform="translate(0.000000, 197.000000)" fill="#DB4D4D">
                <path d="M1740.93473,386.435213 C1740.93473,450.321137 1695.15739,505.00682 1632.30789,516.209421 L1515.28343,537.063552 C1452.43394,548.262361 1406.6566,602.951836 1406.6566,666.83776 L1406.6566,680.865661 L1907.3664,691.017781 L1942,556.423497 L1942,554.390798 C1942,459.054918 1875.44478,376.677497 1782.28946,356.714568 L1742.60743,348.208328 L1740.93093,348.462415 L1740.93473,386.435213 Z" id="Shape"></path>
                <path d="M736.404883,556.423497 L736.351781,555.900153 C718.964812,378.937738 628.82491,217.178852 487.525445,109.366142 L480.060883,103.670033 L479.958473,103.628317 C374.449461,147.247923 248.67841,128.71471 159.634676,45.8594536 L133.55043,15.6002951 C110.470215,-11.173694 66.873832,-1.2756612 57.5962305,32.8441093 L22.1812812,163.088568 C7.46076953,217.235738 0,273.104634 0,329.223825 L0,556.423497 L0,603.122492 L736.404883,556.423497 Z" id="Shape"></path>
            </g>
            <path d="M278.576173,754.289615 L278.576173,527.034525 C278.576173,470.901645 286.042068,415.019122 300.772691,360.858745 L312,319.584122 C256.857897,309.80506 203.807156,284.583576 159.744334,243.601036 L133.64217,213.334497 C110.5461,186.553977 66.9197698,196.454424 57.6357952,230.582517 L22.1965183,360.858745 C7.46589458,415.019122 0,470.901645 0,527.034525 L0,754.289615 L0,801 L278.576173,783.342306 L278.576173,754.289615 Z" id="Shape" fill="#BC4444"></path>
            <path d="M1667.62423,1028 L169.856727,1028 C76.0490234,1028 0,951.904899 0,858.037337 L0,754 L736.404883,754 C773.92493,754 804.336953,784.43349 804.336953,821.972931 C804.336953,859.921893 835.389988,877.01561 873.31209,876.431663 L1752.48052,876.431663 C1804.45557,875.63158 1850.94599,843.905065 1870.65805,795.778743 C1876.36647,781.843648 1887.95778,771.154387 1902.30658,766.60036 L1942,754 L1936.71639,847.492167 C1891.89868,956.694022 1785.60452,1028 1667.62423,1028 Z" id="Shape" fill="#E6E9ED"></path>
            <path d="M281.271425,858.037337 L281.271425,754 L0,754 L0,858.041129 C0,951.908691 75.9916466,1028 169.728575,1028 L451,1028 C357.263072,1028 281.271425,951.904899 281.271425,858.037337 Z" id="Shape" fill="#CFD2DC"></path>
            <path d="M450.379917,869 L0,869 C5.7267262,957.765195 79.3214115,1028 169.32311,1028 L609,1028 C609,940.187515 537.982531,869 450.379917,869 Z" id="Shape" fill="#333F61"></path>
            <path d="M282.519838,869 L1,869 C6.7319096,957.765195 80.3932071,1028 170.480162,1028 L452,1028 C361.913045,1028 288.251747,957.765195 282.519838,869 Z" id="Shape" fill="#253551"></path>
            <g id="Group" transform="translate(52.000000, 106.000000)" fill="#AF3838">
                <path d="M1045.80085,384.069655 C1077.82765,399.454483 1105.5794,412.013448 1129.60614,422.254828 C1210.36162,456.681034 1304.15087,429.677931 1354.46515,357.696207 L1354.46894,357.684828 C1160.03975,292.435862 980.669955,187.264483 828.209799,48.197931 C763.757905,-16.3075862 660.102296,-14.5589655 597.861894,52.0896552 L586.781676,63.9544828 C685.51738,145.032069 897.953341,313.043793 1045.80085,384.069655 Z" id="Shape"></path>
                <path d="M81.2491061,193.314483 C92.0827598,202.611379 102.920207,211.908276 113.75386,221.208966 C137.181257,238.103448 214.29138,289.23069 324.771128,286.09 C435.907117,282.930345 510.28986,226.864483 532.594441,208.653793 L592.668872,144.322759 C655.364469,77.1848276 760.343939,72.9744828 828.206006,134.877931 C905.433721,205.319655 992.800916,229.576552 1086.18428,236.787241 C994.029944,183.645862 907.478307,120.509655 828.206006,48.2017241 C760.343939,-13.697931 655.364469,-9.49137931 592.668872,57.6465517 L532.594441,121.977586 C419.186268,243.421379 228.967642,250.097241 107.335603,136.907241 L81.2491061,106.642069 C58.1668994,79.8627586 14.5667542,89.7627586 5.28835196,123.88931 L0.630184358,141.026552 C34.6788101,157.094138 69.9185307,180.167586 81.2491061,193.314483 Z" id="Shape"></path>
            </g>
            <g id="Group" transform="translate(785.000000, 161.000000)" fill="#333F61">
                <path d="M166.658761,27.3063253 C165.169688,11.4196988 151.229991,-0.0151807229 135.638294,0.337771084 C131.542394,0.428855422 127.438917,0.728674699 123.346807,0.926024096 C102.624817,1.91656627 81.9028257,2.90710843 61.1770459,3.8976506 C52.5911927,4.30753012 44.0053394,4.71740964 35.4232752,5.12728916 C29.0426147,5.43090361 22.8173028,5.50301205 16.8799541,8.36078313 C2.67502752,15.203494 -3.81930275,32.6081928 2.46284404,47.1133735 C7.57798165,58.9201807 19.395844,65.4896386 31.9828716,64.9810843 C50.0146789,64.2486145 68.0389083,63.2580723 86.0631376,62.3965663 C93.3872569,62.0474096 101.245624,60.8215663 108.569743,61.3187349 C110.342991,61.4401807 109.63445,60.8974699 110.217954,62.203012 C111.218248,64.4573494 110.816615,68.5371687 111.043954,70.9660843 C112.798257,89.5510843 114.499514,108.13988 116.303073,126.721084 C117.485239,138.888434 124.600963,149.499759 136.437771,153.553012 C151.650569,158.763795 168.697239,150.456145 174.070028,135.298193 C176.449514,128.584518 175.589413,121.958133 174.941495,115.104036 C174.081394,105.999398 173.225083,96.894759 172.364982,87.7939157 C170.572789,68.8142169 168.784385,49.8345181 166.992193,30.8548193 C166.878523,29.6707229 166.768642,28.4866265 166.658761,27.3063253 Z" id="Shape"></path>
                <path d="M409.555807,277.757892 C403.701817,247.677289 397.844037,217.596687 391.990046,187.516084 C390.595697,180.346988 388.439761,173.656084 383.093495,168.316265 C375.780743,161.014337 365.660349,158.479157 355.653624,160.274277 C340.42567,163.003012 325.265917,166.175783 310.079642,169.124639 C295.999752,171.860964 281.859239,174.373373 267.824817,177.329819 C255.048339,180.020602 245.083294,190.411807 243.74578,203.60006 C242.24155,218.435422 252.327844,232.454819 266.83589,235.718675 C274.144853,237.361988 281.287101,235.441627 288.444505,234.05259 C298.163266,232.166386 307.878239,230.276386 317.597,228.390181 C321.999807,227.536265 326.406404,226.678554 330.809211,225.824639 C332.449844,225.505843 336.390394,223.919458 338.015872,224.424217 C339.789119,224.974518 340.34989,233.464337 340.743945,235.490964 C344.100991,252.73247 347.458037,269.973976 350.811294,287.211687 C352.85356,297.701566 358.718917,306.646807 368.812789,310.927771 C382.650183,316.79512 399.124716,311.034036 406.388211,297.891325 C409.756624,291.79247 410.885743,284.608193 409.555807,277.757892 Z" id="Shape"></path>
            </g>
        </g>
        <g id="salad-(2)" transform="translate(2113.000000, 1004.000000)" fill-rule="nonzero">
            <path d="M1373.48963,201.094024 C1350.65777,180.79523 1320.2153,178.257881 1294.84658,188.407278 C1302.45719,155.421738 1289.77283,119.898849 1259.33036,104.674753 C1226.35102,86.9133088 1185.76106,94.5253565 1162.9292,122.436198 C1162.9292,89.450658 1140.09735,56.465118 1104.58114,48.8530703 C1086.82303,43.7783719 1069.06492,46.3157211 1056.38056,53.9277688 C1038.62245,36.1663242 1018.32747,26.0169272 995.495617,20.9422288 C957.442529,15.8675303 924.463187,33.6289749 904.168206,61.5398165 C888.946971,20.9422288 848.35701,-4.43126353 805.230177,0.643434929 C757.029599,5.71813339 721.513384,43.7783719 718.976511,89.450658 C693.607786,53.9277688 647.94408,38.7036734 604.817247,53.9277688 C554.079797,71.6892134 528.711071,127.510897 549.006051,178.257881 L673.312806,513.18798 C620.038482,556.322917 584.522267,624.831346 584.522267,703.489172 C584.522267,835.431332 685.997168,942 810.303922,942 C934.610677,942 1036.08558,835.431332 1036.08558,703.489172 C1036.08558,685.727728 1033.54871,665.428934 1031.01183,647.667489 C1056.38056,652.742188 1081.74928,642.592791 1099.50739,622.293997 L1378.56337,307.662692 C1406.46897,277.214501 1403.9321,229.004866 1373.48963,201.094024 Z" id="Shape" fill="#0F8433"></path>
            <path d="M1305.3883,262.262412 C1285.09768,244.508073 1257.19807,239.435404 1234.37112,249.580741 C1241.9801,219.14473 1229.29846,188.708718 1201.39885,173.490713 C1170.96292,155.736373 1132.918,163.345375 1112.62738,188.708718 C1112.62738,158.272707 1092.33675,127.836696 1059.36449,120.227693 C1044.14652,115.155024 1028.92856,117.691358 1013.71059,125.300361 C1001.02895,110.082356 980.738325,99.9370185 957.911374,97.4006842 C924.939111,92.3280156 891.966848,110.082356 874.212552,135.445698 C861.530913,99.9370185 823.485994,74.5736756 782.904747,79.6463442 C739.787173,84.7190128 706.81491,117.691358 701.742254,160.809041 C678.915302,127.836696 635.797728,112.61869 597.752809,127.836696 C552.098906,145.591036 529.271955,196.317721 547.026251,241.971738 L661.161007,548.868186 C610.434449,589.449535 579.998514,652.857892 579.998514,723.875252 C579.998514,845.619297 673.842647,942 787.977403,942 C902.112159,942 995.956293,843.082963 995.956293,723.875252 C995.956293,706.120912 993.419965,690.902906 990.883637,673.148566 C1013.71059,675.6849 1039.07387,670.612232 1054.29183,650.321558 L1310.46095,361.179449 C1335.82423,330.743438 1333.28791,287.625755 1305.3883,262.262412 Z" id="Shape" fill="#026824"></path>
            <path d="M1193.65814,360.567289 C1175.90057,345.33527 1153.0694,342.7966 1132.77502,350.41261 C1137.84862,325.025912 1127.70143,297.100545 1104.87026,284.407196 C1079.50229,269.175178 1046.52394,276.791187 1028.76636,299.639215 C1028.76636,271.713847 1011.00879,248.86582 983.104025,241.249811 C970.420042,238.711141 955.199262,238.711141 945.052076,246.32715 C932.368093,233.633801 917.147313,223.479122 899.389737,220.940453 C868.948178,218.401783 843.580212,231.095132 828.359433,253.943159 C815.67545,223.479122 785.233891,200.631095 749.718738,205.708434 C711.66679,208.247104 683.762027,238.711141 681.225231,274.252517 C660.930858,246.32715 625.415706,233.633801 592.43735,246.32715 C554.385401,261.559168 534.091028,304.716554 546.775011,345.33527 L645.710078,609.356924 C602.584536,642.35963 574.679774,698.210365 574.679774,759.138439 C574.679774,863.223898 653.320468,947 752.255535,947 C851.190602,947 929.831296,863.223898 929.831296,759.138439 C929.831296,743.90642 927.2945,728.674402 924.757703,715.981053 C945.052076,718.519723 965.346448,713.442383 978.030431,695.671695 L1196.19494,449.42073 C1221.5629,418.956693 1219.02611,380.876647 1193.65814,360.567289 Z" id="Shape" fill="#003F12"></path>
            <circle id="Oval" fill="#00A057" cx="417" cy="386" r="302"></circle>
            <path d="M417,84 C584.495798,84 719,218.504202 719,386 C719,553.495798 584.495798,688 417,688" id="Shape" fill="#008730"></path>
            <circle id="Oval" fill="#E9F98C" cx="417" cy="386" r="241"></circle>
            <path d="M587.580645,216 C681.473118,309.892473 681.473118,464.688172 587.580645,558.580645 C493.688172,652.473118 338.892473,652.473118 245,558.580645" id="Shape" fill="#BEE874"></path>
            <g id="Group" transform="translate(217.000000, 185.000000)" fill="#80C612">
                <path d="M162.487094,59.2751406 L200.549594,148.087641 L238.612094,59.2751406 C241.149594,54.2001406 241.149594,49.1251406 241.149594,41.5126406 C241.149594,18.6751406 223.387094,0.912640625 200.549594,0.912640625 C177.712094,0.912640625 159.949594,18.6751406 159.949594,41.5126406 C159.949594,49.1251406 159.949594,54.2001406 162.487094,59.2751406 Z" id="Shape"></path>
                <path d="M78.7495938,132.862641 L167.562094,168.387641 L132.037094,79.5751406 C129.499594,74.5001406 126.962094,69.4251406 121.887094,64.3501406 C106.662094,49.1251406 81.2870938,49.1251406 63.5245938,64.3501406 C48.2995938,79.5751406 48.2995938,104.950141 63.5245938,122.712641 C68.5995938,127.787641 73.6745938,130.325141 78.7495938,132.862641 Z" id="Shape"></path>
                <path d="M281.749594,74.5001406 L246.224594,163.312641 L335.037094,127.787641 C340.112094,125.250141 345.187094,122.712641 350.262094,117.637641 C365.487094,102.412641 365.487094,77.0376406 350.262094,59.2751406 C335.037094,44.0501406 309.662094,44.0501406 291.899594,59.2751406 C286.824594,64.3501406 284.287094,69.4251406 281.749594,74.5001406 Z" id="Shape"></path>
                <path d="M329.962094,277.500141 L241.149594,241.975141 L276.674594,330.787641 C279.212094,335.862641 281.749594,340.937641 286.824594,346.012641 C302.049594,361.237641 327.424594,361.237641 345.187094,346.012641 C360.412094,330.787641 360.412094,305.412641 345.187094,287.650141 C340.112094,282.575141 335.037094,280.037641 329.962094,277.500141 Z" id="Shape"></path>
                <path d="M238.612094,343.475141 L200.549594,254.662641 L162.487094,343.475141 C159.949594,348.550141 159.949594,353.625141 159.949594,361.237641 C159.949594,384.075141 177.712094,401.837641 200.549594,401.837641 C223.387094,401.837641 241.149594,384.075141 241.149594,361.237641 C241.149594,353.625141 238.612094,348.550141 238.612094,343.475141 Z" id="Shape"></path>
                <path d="M342.649594,163.312641 L253.837094,201.375141 L342.649594,239.437641 C347.724594,241.975141 352.799594,241.975141 360.412094,241.975141 C383.249594,241.975141 401.012094,224.212641 401.012094,201.375141 C401.012094,178.537641 383.249594,160.775141 360.412094,160.775141 C352.799594,160.775141 347.724594,160.775141 342.649594,163.312641 Z" id="Shape"></path>
                <path d="M58.4495938,239.437641 L147.262094,201.375141 L58.4495938,163.312641 C53.3745938,160.775141 48.2995938,160.775141 40.6870938,160.775141 C17.8495938,160.775141 0.08709375,178.537641 0.08709375,201.375141 C0.08709375,224.212641 17.8495938,241.975141 40.6870938,241.975141 C48.2995938,241.975141 53.3745938,241.975141 58.4495938,239.437641 Z" id="Shape"></path>
                <path d="M126.962094,328.250141 L162.487094,239.437641 L73.6745938,274.962641 C68.5995938,277.500141 63.5245938,280.037641 58.4495938,285.112641 C43.2245938,300.337641 43.2245938,325.712641 58.4495938,343.475141 C73.6745938,358.700141 99.0495938,358.700141 116.812094,343.475141 C121.887094,338.400141 124.424594,333.325141 126.962094,328.250141 Z" id="Shape"></path>
            </g>
            <path d="M1018.32637,145 C1008.17377,292.208122 883.804425,365.812183 944.720024,515.558376 C980.254123,601.852792 1076.70382,624.695431 1188.38242,645 L1190.92057,645 C1267.06507,568.857868 1327.98067,485.101523 1305.13732,393.730964 C1259.45062,238.908629 1114.77607,256.675127 1018.32637,145 Z" id="Shape" fill="#82C60A"></path>
            <path d="M1188.30203,645 C1264.31763,568.857868 1327.66396,482.563452 1302.32543,393.730964 C1259.24992,238.908629 1114.82028,256.675127 1018.53385,145 L1016,145" id="Shape" fill="#5EA304"></path>
            <g id="Group" transform="translate(995.000000, 290.000000)" fill="#74B208">
                <polygon id="Shape" points="99.7668 76.4164138 0.818228571 53.5750345 109.915371 106.871586 160.658229 0.278482759"></polygon>
                <polygon id="Shape" points="155.583943 243.919862 59.1725143 221.078483 165.732514 274.375034 219.012514 167.781931"></polygon>
                <polygon id="Shape" points="127.675371 160.168138 16.0410857 132.250897 137.823943 193.161241 198.715371 71.3405517"></polygon>
            </g>
            <path d="M1418.99742,135 C1368.20649,231.534161 1253.92689,244.236025 1246.30825,366.173913 C1241.22915,437.304348 1299.63873,493.192547 1368.20649,544 C1446.93244,493.192547 1515.5002,475.409938 1528.19793,406.819876 C1553.5934,287.42236 1444.39289,244.236025 1418.99742,135 Z" id="Shape" fill="#82C60A"></path>
            <path d="M1369,544 C1450.17606,493.192547 1516.13161,475.409938 1528.81537,406.819876 C1551.64613,287.42236 1445.10256,244.236025 1419.73504,135 L1419.73504,137.540373" id="Shape" fill="#5EA304"></path>
            <g id="Group" transform="translate(1322.000000, 261.000000)" fill="#74B208">
                <polygon id="Shape" points="76.5370638 51.5761667 18.2051489 0.9095 74.0008936 74.3761667 145.01366 18.6428333"></polygon>
                <polygon id="Shape" points="58.7838723 183.3095 0.451957447 135.176167 56.2477021 206.1095 127.260468 152.9095"></polygon>
                <polygon id="Shape" points="68.9285532 114.9095 2.98812766 59.1761667 63.8562128 142.776167 145.01366 79.4428333"></polygon>
            </g>
            <path d="M1523.44032,713.817362 C1487.90293,858.428507 1396.52106,812.76183 1274.67858,782.317378 C1152.83609,754.409964 1051.30068,751.872926 1084.29969,607.261781 C1119.83708,462.650635 1259.44826,310.428376 1381.29075,338.33579 C1503.13324,368.780242 1558.97771,569.206216 1523.44032,713.817362 Z" id="Shape" fill="#AF0547"></path>
            <path d="M1383.48003,338 C1505.1715,365.899913 1560.94675,566.272014 1525.45341,710.84429 C1489.96006,855.416565 1398.69146,809.762163 1277,779.325894" id="Shape" fill="#84003C"></path>
            <ellipse id="Oval" fill="#5EA304" transform="translate(1275.000000, 784.500000) rotate(-76.484878) translate(-1275.000000, -784.500000) " cx="1275" cy="784.5" rx="15" ry="101.5"></ellipse>
            <path d="M1279.64198,770 C1333.13585,782.720848 1376.44041,800.530035 1373.89308,810.706714 C1371.34576,818.339223 1325.49387,815.795053 1272,803.074205" id="Shape" fill="#527C00"></path>
            <ellipse id="Oval" fill="#D12269" transform="translate(1285.000000, 397.500000) rotate(-30.051881) translate(-1285.000000, -397.500000) " cx="1285" cy="397.5" rx="81" ry="25.5"></ellipse>
            <g id="Group" transform="translate(1127.000000, 375.000000)" fill="#680034">
                <ellipse id="Oval" cx="64.1496571" cy="247.116791" rx="17.76" ry="17.7672727"></ellipse>
                <ellipse id="Oval" cx="18.4810857" cy="310.571336" rx="17.76" ry="17.7672727"></ellipse>
                <ellipse id="Oval" cx="135.189657" cy="193.814973" rx="17.76" ry="17.7672727"></ellipse>
                <ellipse id="Oval" cx="89.5210857" cy="120.2077" rx="15.2228571" ry="15.2290909"></ellipse>
                <ellipse id="Oval" cx="38.7782286" cy="173.509518" rx="15.2228571" ry="15.2290909"></ellipse>
                <ellipse id="Oval" cx="180.858229" cy="110.054973" rx="12.6857143" ry="12.6909091"></ellipse>
                <ellipse id="Oval" cx="145.338229" cy="51.6767909" rx="12.6857143" ry="12.6909091"></ellipse>
                <ellipse id="Oval" cx="208.7668" cy="11.0658818" rx="10.1485714" ry="10.1527273"></ellipse>
                <ellipse id="Oval" cx="125.041086" cy="328.338609" rx="17.76" ry="17.7672727"></ellipse>
            </g>
            <g id="Group" transform="translate(1317.000000, 393.000000)" fill="#C1145A">
                <ellipse id="Oval" cx="107.315034" cy="284.994645" rx="17.7655172" ry="17.7719008"></ellipse>
                <ellipse id="Oval" cx="120.00469" cy="363.698777" rx="17.7655172" ry="17.7719008"></ellipse>
                <ellipse id="Oval" cx="66.7081379" cy="206.290512" rx="17.7655172" ry="17.7719008"></ellipse>
                <ellipse id="Oval" cx="142.846069" cy="160.591339" rx="15.2275862" ry="15.2330579"></ellipse>
                <ellipse id="Oval" cx="165.687448" cy="231.678942" rx="15.2275862" ry="15.2330579"></ellipse>
                <ellipse id="Oval" cx="66.7081379" cy="109.814479" rx="12.6896552" ry="12.6942149"></ellipse>
                <ellipse id="Oval" cx="125.080552" cy="74.2706777" rx="12.6896552" ry="12.6942149"></ellipse>
                <ellipse id="Oval" cx="84.4736552" cy="10.7996033" rx="10.1517241" ry="10.1553719"></ellipse>
                <ellipse id="Oval" cx="18.4874483" cy="330.693818" rx="17.7655172" ry="17.7719008"></ellipse>
            </g>
            <path d="M1200.74438,687.623575 C1195.67013,801.706621 1119.5564,781.425191 1025.6828,776.354833 C931.809196,773.819654 853.158342,786.495548 858.23259,674.947681 C863.306839,560.864635 944.494818,426.500158 1038.36842,429.035337 C1134.77914,434.105694 1205.81862,576.075707 1200.74438,687.623575 Z" id="Shape" fill="#AF0547"></path>
            <path d="M1038.66325,429 C1132.37134,431.535433 1205.81822,573.5197 1200.75291,687.6142 C1195.68761,801.7087 1119.70808,781.425234 1026,776.354367" id="Shape" fill="#84003C"></path>
            <ellipse id="Oval" fill="#5EA304" transform="translate(1025.500000, 779.500000) rotate(-87.799384) translate(-1025.500000, -779.500000) " cx="1025.5" cy="779.5" rx="12.5" ry="78.5"></ellipse>
            <path d="M1026.54839,767 C1069.87097,769.5 1103,774.5 1103,782 C1103,789.5 1067.32258,792 1024,792" id="Shape" fill="#527C00"></path>
            <ellipse id="Oval" fill="#D12269" transform="translate(976.000000, 489.000000) rotate(-41.359476) translate(-976.000000, -489.000000) " cx="976" cy="489" rx="61" ry="18"></ellipse>
            <g id="Group" transform="translate(896.000000, 464.000000)" fill="#680034">
                <ellipse id="Oval" cx="43.4254359" cy="206.357239" rx="12.7179487" ry="12.6818182"></ellipse>
                <ellipse id="Oval" cx="17.9895385" cy="262.157239" rx="12.7179487" ry="12.6818182"></ellipse>
                <ellipse id="Oval" cx="89.2100513" cy="155.629966" rx="12.7179487" ry="12.6818182"></ellipse>
                <ellipse id="Oval" cx="43.4254359" cy="107.439057" rx="10.174359" ry="10.1454545"></ellipse>
                <ellipse id="Oval" cx="10.3587692" cy="155.629966" rx="10.174359" ry="10.1454545"></ellipse>
                <ellipse id="Oval" cx="109.558769" cy="87.1481477" rx="10.174359" ry="10.1454545"></ellipse>
                <ellipse id="Oval" cx="73.9485128" cy="46.5663295" rx="10.174359" ry="10.1454545"></ellipse>
                <ellipse id="Oval" cx="114.645949" cy="8.520875" rx="7.63076923" ry="7.60909091"></ellipse>
                <ellipse id="Oval" cx="99.3844103" cy="257.084511" rx="12.7179487" ry="12.6818182"></ellipse>
            </g>
            <g id="Group" transform="translate(1049.000000, 467.000000)" fill="#C1145A">
                <ellipse id="Oval" cx="73.5455676" cy="210.667933" rx="12.6486486" ry="12.6741573"></ellipse>
                <ellipse id="Oval" cx="93.7834054" cy="266.434225" rx="12.6486486" ry="12.6741573"></ellipse>
                <ellipse id="Oval" cx="30.5401622" cy="157.436472" rx="12.6486486" ry="12.6741573"></ellipse>
                <ellipse id="Oval" cx="81.1347568" cy="111.809506" rx="10.1189189" ry="10.1393258"></ellipse>
                <ellipse id="Oval" cx="106.432054" cy="162.506135" rx="10.1189189" ry="10.1393258"></ellipse>
                <ellipse id="Oval" cx="15.3617838" cy="86.461191" rx="10.1189189" ry="10.1393258"></ellipse>
                <path d="M45.7185405,48.4387191 C45.7185405,53.508382 48.2482703,58.5780449 53.3077297,58.5780449 C58.3671892,58.5780449 63.4266486,56.0432135 63.4266486,50.9735506 C63.4266486,45.9038876 60.8969189,40.8342247 55.8374595,40.8342247 C50.778,40.8342247 45.7185405,43.3690562 45.7185405,48.4387191 Z" id="Shape"></path>
                <ellipse id="Oval" cx="15.3617838" cy="7.88141573" rx="7.58918919" ry="7.60449438"></ellipse>
                <ellipse id="Oval" cx="12.8320541" cy="256.294899" rx="12.6486486" ry="12.6741573"></ellipse>
            </g>
            <path d="M957.420213,807.331417 C957.420213,807.331417 602.207447,432.090502 462.659574,465.050852 C323.111702,498.011203 373.856383,609.569313 373.856383,609.569313 C373.856383,609.569313 259.680851,576.608963 226.696809,639.994252 C193.712766,703.379542 132.819149,733.804481 132.819149,733.804481 L77,792.118948 L163.265957,873.252119 L1031,891 L957.420213,807.331417 Z" id="Shape" fill="#E9F98C"></path>
            <path d="M883.678571,789.478766 C883.678571,789.478766 592.071429,479.864301 477.964286,507.78036 C363.857143,535.696418 404.428571,627.058063 404.428571,627.058063 C404.428571,627.058063 310.607143,599.142005 282.714286,652.436298 C254.821429,705.730591 206.642857,728.571003 206.642857,728.571003 L161,776.789649 L229.464286,845.310883 L942,858 L883.678571,789.478766 Z" id="Shape" fill="#BEE874"></path>
            <path d="M891.125828,823.039697 C891.125828,823.039697 604.509934,521.144465 492.907285,546.513812 C381.304636,574.420094 421.887417,663.21281 421.887417,663.21281 C421.887417,663.21281 330.576159,635.306528 302.675497,686.045222 C274.774834,736.783917 229.119205,759.616329 229.119205,759.616329 L186,807.818089 L254.483444,876.315326 L952,889 L891.125828,823.039697 Z" id="Shape" fill="#80C612"></path>
            <path d="M894.697917,853.545984 C894.697917,853.545984 623.111111,564.19567 513.96875,589.577277 C407.364583,614.958883 445.4375,698.718184 445.4375,698.718184 C445.4375,698.718184 356.600694,673.336578 331.21875,721.56163 C305.836806,769.786682 260.149306,792.630128 260.149306,792.630128 L217,838.31702 L282.993056,904.309197 L948,917 L894.697917,853.545984 Z" id="Shape" fill="#008730"></path>
            <path d="M922.697917,893.545984 C922.697917,893.545984 651.111111,604.19567 541.96875,629.577277 C435.364583,654.958883 473.4375,738.718184 473.4375,738.718184 C473.4375,738.718184 384.600694,713.336578 359.21875,761.56163 C333.836806,809.786682 288.149306,832.630128 288.149306,832.630128 L245,878.31702 L310.993056,944.309197 L976,957 L922.697917,893.545984 Z" id="Shape" fill="#026824"></path>
            <circle id="Oval" fill="#D32E26" cx="148" cy="577" r="89"></circle>
            <path d="M176.329553,493 C222.040599,508.201116 247.435624,558.871503 234.738111,604.474851 C219.501096,650.0782 168.711046,675.413393 123,662.745796" id="Shape" fill="#B20202"></path>
            <ellipse id="Oval" fill="#F24141" transform="translate(94.000000, 549.500000) rotate(-151.928187) translate(-94.000000, -549.500000) " cx="94" cy="549.5" rx="15" ry="40.5"></ellipse>
            <g id="Group" transform="translate(73.000000, 394.000000)" fill="#3D1704">
                <path d="M52.3836667,113.79 C54.917,118.863171 52.3836667,123.936341 47.317,126.472927 C42.2503333,129.009512 37.1836667,126.472927 34.6503333,121.399756 L4.25033333,63.0582927 C1.717,57.985122 4.25033333,52.9119512 9.317,50.3753659 C14.3836667,47.8387805 19.4503333,50.3753659 21.9836667,55.4485366 L52.3836667,113.79 Z" id="Shape"></path>
                <path d="M27.0503333,4.71682927 C29.5836667,-0.356341463 34.6503333,-0.356341463 39.717,2.1802439 C44.7836667,4.71682927 47.317,9.79 44.7836667,14.8631707 L19.4503333,60.5217073 C16.917,65.594878 11.8503333,65.594878 6.78366667,63.0582927 C1.717,60.5217073 -0.816333333,55.4485366 1.717,52.9119512 L27.0503333,4.71682927 Z" id="Shape"></path>
            </g>
            <circle id="Oval" fill="#D32E26" cx="128" cy="699" r="89"></circle>
            <path d="M108,612.078664 C156.368165,601.906821 204.736331,629.87939 214.919103,678.195646 C225.101874,726.511901 197.099252,774.828157 148.731087,785" id="Shape" fill="#B20202"></path>
            <ellipse id="Oval" fill="#F24141" transform="translate(68.000000, 702.500000) rotate(177.162773) translate(-68.000000, -702.500000) " cx="68" cy="702.5" rx="15" ry="40.5"></ellipse>
            <path d="M71.8095026,650.600742 C76.8678804,653.134323 76.8678804,660.735065 74.3386915,665.802226 C71.8095026,670.869387 66.7511248,670.869387 61.692747,668.335807 L6.05059089,632.865677 C0.992213065,630.332097 -1.53697585,625.264935 0.992213065,620.197774 C3.52140198,615.130613 11.1089687,615.130613 16.1673465,617.664193 L71.8095026,650.600742 Z" id="Shape" fill="#3D1704"></path>
            <path d="M29,797 C100.019868,1304.74411 414.536424,1551 795,1551 C1175.46358,1551 1489.98013,1304.74411 1561,797 L29,797 Z" id="Shape" fill="#1BE2D8"></path>
            <path d="M792.5,1551 C1172.94554,1551 1489.9835,1304.74411 1561,797 L24,797" id="Shape" fill="#06C6C1"></path>
            <path d="M795.072368,1539 C1175.5,1539 1489.98684,1300.36027 1561,785 L790,790.077441" id="Shape" fill="#07A5A5"></path>
            <rect id="Rectangle-path" fill="#1BE2D8" x="582" y="1508" width="431" height="76"></rect>
            <path d="M828,1551 C1185.88542,1538.31164 1487.93056,1294.69521 1559,810 L828,1551 Z" id="Shape" fill="#058A91"></path>
            <rect id="Rectangle-path" fill="#028399" x="582" y="1508" width="431" height="76"></rect>
            <polyline id="Shape" fill="#006177" points="582 1508 1013 1508 1013 1584"></polyline>
            <polygon id="Shape" fill="#07A5A5" points="927.556164 1005 32 797 958 797"></polygon>
            <path d="M1569,785 C1569,800.2 1551.24223,823 1538.5581,823 L62.1260229,823 C46.9050736,823 19,802.733333 19,787.533333 C19,762.2 36.7577741,747 54.5155483,747 L1536.02128,747 C1551.24223,747 1569,762.2 1569,785 Z" id="Shape" fill="#028399"></path>
            <path d="M1569,785 C1569,802.733333 1553.77905,823 1538.5581,823 L49.4418985,823 C31.6841244,823 19,805.266667 19,787.533333" id="Shape" fill="#006177"></path>
            <g id="Group" transform="translate(277.000000, 926.000000)" fill="#028399">
                <ellipse id="Oval" cx="41.3129847" cy="41.0094615" rx="40.5920489" ry="40.3692308"></ellipse>
                <ellipse id="Oval" cx="279.791272" cy="41.0094615" rx="40.5920489" ry="40.3692308"></ellipse>
                <ellipse id="Oval" cx="518.26956" cy="41.0094615" rx="40.5920489" ry="40.3692308"></ellipse>
                <ellipse id="Oval" cx="754.210844" cy="41.0094615" rx="40.5920489" ry="40.3692308"></ellipse>
                <ellipse id="Oval" cx="992.689131" cy="41.0094615" rx="40.5920489" ry="40.3692308"></ellipse>
            </g>
            <g id="Group" transform="translate(250.000000, 929.000000)" fill="#006177">
                <path d="M68.6590925,0.00950769231 C91.4841672,0.00950769231 109.237003,17.7572 109.237003,40.5756615 C109.237003,63.3941231 91.4841672,81.1418154 68.6590925,81.1418154" id="Shape"></path>
                <path d="M307.054316,0.00950769231 C329.879391,0.00950769231 347.632227,17.7572 347.632227,40.5756615 C347.632227,63.3941231 329.879391,81.1418154 307.054316,81.1418154" id="Shape"></path>
                <path d="M545.44954,0.00950769231 C568.274615,0.00950769231 586.027451,17.7572 586.027451,40.5756615 C586.027451,63.3941231 568.274615,81.1418154 545.44954,81.1418154" id="Shape"></path>
                <path d="M781.308645,0.00950769231 C804.133719,0.00950769231 821.886555,17.7572 821.886555,40.5756615 C821.886555,63.3941231 804.133719,81.1418154 781.308645,81.1418154" id="Shape"></path>
                <path d="M1019.70387,0.00950769231 C1042.52894,0.00950769231 1060.28178,17.7572 1060.28178,40.5756615 C1060.28178,63.3941231 1042.52894,81.1418154 1019.70387,81.1418154" id="Shape"></path>
                <polygon id="Shape" points="233.506854 180.021815 154.887152 103.960277 0.183868657 256.083354 154.887152 410.741815 233.506854 332.144892 154.887152 256.083354"></polygon>
            </g>
            <polygon id="Shape" fill="#028399" points="638 1109.1157 559.229508 1033 483 1109.1157 559.229508 1185.2314 483 1261.34711 559.229508 1340 638 1261.34711 561.770492 1185.2314"></polygon>
            <g id="Group" transform="translate(637.000000, 1033.000000)" fill="#006177">
                <polygon id="Shape" points="157.769818 76.7115612 79.1112323 0.548295918 0.452646465 76.7115612 76.5738586 152.874827 0.452646465 229.038092 79.1112323 307.740133 157.769818 229.038092 81.6486061 152.874827"></polygon>
                <polygon id="Shape" points="312.549616 76.7115612 233.89103 0.548295918 157.769818 76.7115612 233.89103 152.874827 157.769818 229.038092 233.89103 307.740133 312.549616 229.038092 236.428404 152.874827"></polygon>
            </g>
            <polygon id="Shape" fill="#028399" points="1107 1109.1157 1028.5 1033 950 1109.1157 1025.96774 1185.2314 950 1261.34711 1028.5 1340 1107 1261.34711 1031.03226 1185.2314"></polygon>
            <polygon id="Shape" fill="#006177" points="1338 1185.2314 1185.69231 1033 1107 1109.1157 1183.15385 1185.2314 1107 1261.34711 1185.69231 1340"></polygon>
            <path d="M1545.92617,873 C1548.46309,873 1548.46309,848 1551,848 L39,848 C41.5369128,848 41.5369128,873 44.0738255,873 L1545.92617,873 Z" id="Shape" fill="#1BE2D8"></path>
            <path d="M227,784.5 C227,792 221.914286,797 214.285714,797 L61.7142857,797 C54.0857143,797 49,792 49,784.5 C49,777 54.0857143,772 61.7142857,772 L214.285714,772 C221.914286,772 227,777 227,784.5 Z" id="Shape" fill="#42BAC6"></path>
            <ellipse id="Oval" fill="#9DFCF3" transform="translate(160.500000, 1036.000000) rotate(-120.796714) translate(-160.500000, -1036.000000) " cx="160.5" cy="1036" rx="124.5" ry="43"></ellipse>
            <g id="Group" transform="translate(835.000000, 484.000000)" fill="#F4F1E6">
                <path d="M274.563492,56.985122 C414.021119,49.3753659 533.194,110.253415 556.014339,191.424146 C558.549932,181.277805 558.549932,173.668049 558.549932,163.521707 C553.478746,67.1314634 426.699085,-6.4295122 272.027898,1.1802439 C117.356712,8.79 -4.35176271,92.4973171 0.719423729,188.887561 C0.719423729,199.033902 3.25501695,206.643659 5.79061017,216.79 C21.0041695,133.082683 135.105864,64.594878 274.563492,56.985122 Z" id="Shape"></path>
                <path d="M226.38722,125.472927 C337.953322,133.082683 426.699085,188.887561 439.377051,257.375366 C441.912644,249.76561 441.912644,242.155854 444.448237,237.082683 C449.519424,158.448537 353.166881,89.9607317 231.458407,82.3509756 C109.749932,74.7412195 5.79061017,130.546098 0.719423729,209.180244 C0.719423729,216.79 0.719423729,224.399756 3.25501695,232.009512 C18.4685763,163.521707 114.821119,117.863171 226.38722,125.472927 Z" id="Shape"></path>
            </g>
            <path d="M148.502335,66.4986192 C115.478344,51.3076762 77.373738,63.9667954 64.6722028,91.8168576 C54.5109746,117.135096 74.8334309,122.198744 100.236501,132.326039 C97.6961943,137.389687 95.1558873,142.453334 92.6155802,147.516982 C82.4543521,167.771573 95.1558873,165.239749 102.776808,170.303396 C112.938037,175.367044 118.018651,182.962516 128.179879,162.707925 C130.720186,157.644277 133.260493,152.58063 133.260493,147.516982 C158.663563,160.176101 176.445713,170.303396 189.147248,144.985158 C199.308476,117.135096 181.526327,81.6895622 148.502335,66.4986192 Z" id="Shape" fill="#77003C"></path>
            <path d="M92.7659258,148.387283 C82.6467647,168.734104 95.2957161,166.190751 102.885087,171.277457 C113.004248,176.364162 118.063829,183.99422 128.18299,163.647399 C130.71278,158.560694 133.24257,153.473988 133.24257,148.387283 C158.540473,161.104046 176.249005,171.277457 188.897956,145.843931 C201.546908,117.867052 183.838376,82.2601156 150.951102,67" id="Shape" fill="#440029"></path>
            <path d="M54.4870871,216.826028 C28.9994598,229.567947 16.2556462,260.148553 28.9994598,280.535623 C39.1945108,298.37431 51.9383244,290.729159 72.3284262,277.98724 C72.3284262,283.084007 74.877189,285.632391 77.4259517,290.729159 C85.0722399,306.019462 90.1697653,298.37431 97.8160535,295.825926 C105.462342,290.729159 113.10863,293.277543 105.462342,277.98724 C100.364816,272.890472 97.8160535,270.342088 95.2672908,265.245321 C115.657393,255.051785 130.949969,249.955018 120.754918,232.116331 C110.559867,209.180877 79.9747144,204.084109 54.4870871,216.826028 Z" id="Shape" fill="#77003C"></path>
            <path d="M74.23965,290.729159 C81.8295187,306.019462 86.8894312,298.37431 94.4793,295.825926 C102.069169,290.729159 109.659037,293.277543 102.069169,277.98724 C99.5392125,272.890472 97.0092562,270.342088 94.4793,265.245321 C114.71895,255.051785 129.898687,249.955018 119.778862,232.116331 C109.659037,209.180877 79.2995625,204.084109 54,216.826028" id="Shape" fill="#440029"></path>
            <path d="M1350.48709,38.8260281 C1324.99946,51.5679471 1312.25565,82.1485529 1324.99946,102.535623 C1332.64575,120.37431 1347.93832,112.729159 1368.32843,99.9872396 C1368.32843,105.084007 1370.87719,107.632391 1373.42595,112.729159 C1381.07224,128.019462 1386.16977,120.37431 1393.81605,117.825926 C1401.46234,112.729159 1409.10863,115.277543 1401.46234,99.9872396 C1396.36482,94.890472 1393.81605,92.3420882 1391.26729,87.2453205 C1411.65739,77.0517853 1426.94997,71.9550177 1416.75492,54.116331 C1406.55987,31.1808766 1375.97471,26.084109 1350.48709,38.8260281 Z" id="Shape" fill="#77003C"></path>
            <path d="M1370.91923,112.729159 C1378.55898,128.019462 1383.65214,120.37431 1391.29188,117.825926 C1398.93163,112.729159 1406.57137,115.277543 1398.93163,99.9872396 C1396.38504,94.890472 1393.83846,92.3420882 1391.29188,87.2453205 C1411.66453,77.0517853 1426.94402,71.9550177 1416.7577,54.116331 C1406.57137,31.1808766 1376.01239,26.084109 1348,38.8260281" id="Shape" fill="#440029"></path>
        </g>
    </g>
</svg>