<?xml version="1.0" encoding="UTF-8"?>
<svg width="5149px" height="5720px" viewBox="0 0 5149 5720" version="1.1" xmlns="http://www.w3.org/2000/svg" xmlns:xlink="http://www.w3.org/1999/xlink">
    <!-- Generator: Sketch 51.3 (57544) - http://www.bohemiancoding.com/sketch -->
    <title>Artboard</title>
    <desc>Created with Sketch.</desc>
    <defs></defs>
    <g id="Artboard" stroke="none" stroke-width="1" fill="none" fill-rule="evenodd">
        <g id="blood-pressure-gauge-(1)" transform="translate(2891.000000, 3006.000000)" fill-rule="nonzero">
            <path d="M1481.6735,1409.66952 L1375.16409,1418 L1362,1251.39043 L1468.50942,1243.05995 C1491.24738,1241.86988 1510.39514,1258.53084 1512.78861,1281.14214 L1518.77229,1366.82706 C1521.16576,1388.24829 1504.41147,1407.28938 1481.6735,1409.66952 Z" id="Shape" fill="#BCBFC2"></path>
            <path d="M314.390644,843.807578 C269.181298,884.328441 214.454195,914.123194 170.434568,955.835848 C133.55326,991.589551 101.43083,1035.68578 77.6364369,1082.1656 C27.6682122,1177.50881 5.06353917,1284.76992 0.304660632,1390.83924 C-3.26449827,1507.63467 24.0990533,1614.89578 104.999989,1701.89645 C182.331765,1785.32176 290.596252,1827.03442 402.429897,1837.76053 C446.449524,1842.52769 445.259804,1774.59565 402.429897,1769.82849 C302.493448,1759.10238 204.936438,1716.19794 139.501858,1637.53979 C71.6878387,1554.11448 62.1700816,1452.81232 70.4981191,1349.12658 C78.8261565,1259.74232 102.620549,1169.16628 149.019615,1092.89171 C172.814008,1052.37085 202.556999,1016.61714 238.248588,986.822391 C277.509336,953.452268 323.908401,927.232885 361.97943,892.670972 C395.291579,862.876219 346.513074,815.204615 314.390644,843.807578 Z" id="Shape" fill="#0B2C48"></path>
            <path d="M256.070841,665.064413 C219.156128,716.325878 175.096631,766.395215 145.326701,822.425187 C121.510756,867.726016 114.365973,922.563862 107.22119,972.633199 C92.9316231,1071.57975 92.9316231,1176.48693 142.945106,1267.08859 C253.689247,1468.55806 512.092243,1470.94232 710.955377,1459.02105 C755.014874,1456.63679 755.014874,1388.68555 710.955377,1391.0698 C537.098984,1400.60682 298.939541,1411.33596 201.29417,1232.5169 C156.043875,1150.26013 161.997862,1050.12146 177.478225,960.711928 C184.623009,916.603226 191.767792,873.686651 216.774533,835.538585 C247.735261,789.045629 281.077583,744.936927 314.419905,699.636099 C340.617444,663.872286 282.26838,629.300601 256.070841,665.064413 Z" id="Shape" fill="#36505F"></path>
            <path d="M464.617774,674.804386 C428.854694,661.689813 399.052128,639.037369 369.249562,616.384925 C344.215406,597.309183 320.373353,578.23344 298.915505,555.580996 C276.265554,530.544084 259.576117,501.930471 241.694577,474.509091 C229.773551,454.241115 216.660421,432.780905 211.892011,408.936227 C199.970984,346.940064 246.462988,289.712837 292.954991,247.984651 C425.278387,129.953495 592.172759,48.8815898 767.411849,17.8835085 C842.514317,4.76893559 917.616784,0 993.911355,0 C1084.51116,0 1178.68727,5.96116949 1260.94235,46.497122 C1295.51333,63.1883966 1327.7001,87.0330745 1347.96584,119.22339 C1373,160.951576 1373,212.217634 1373,261.099224 C1373,379.130379 1373,498.353769 1373,616.384925 C1300.28174,591.348013 1225.17927,573.464505 1148.8847,565.118867 C1104.7769,560.349932 1059.477,557.965464 1015.3692,565.118867 C946.227248,575.848972 883.045807,609.231522 817.480161,634.268433 C753.106618,658.113111 686.348869,674.804386 617.206915,683.150023 C565.9465,691.49566 513.493983,692.687894 464.617774,674.804386 Z" id="Shape" fill="#2C424F"></path>
            <path d="M982.549296,246.980613 C978.974648,243.403841 974.208451,241.019327 970.633803,238.634813 C912.247887,204.059357 835.988732,231.48127 784.752113,275.594783 C733.515493,319.708296 696.577465,379.321151 645.340845,423.434664 C583.380282,475.893977 501.16338,503.31589 420.138028,497.354604 C339.112676,491.393319 267.619718,469.932691 214,409.127579 C254.512676,568.890031 277.152113,716.729912 293.833803,880.069135 C298.6,928.951676 305.749296,982.603246 342.687324,1013.60193 C371.284507,1036.25482 410.605634,1041.02384 446.352113,1039.83159 C613.169014,1037.44707 776.411268,961.142618 886.033803,834.763365 C900.332394,818.071765 913.439437,800.187909 932.504225,789.457595 C968.250704,767.996967 1014.72113,772.765995 1052.8507,790.649852 C1055.2338,779.919538 1057.6169,767.996967 1060,757.266653 L982.549296,246.980613 Z" id="Shape" fill="#9EA8AD"></path>
            <g id="Group" transform="translate(931.000000, 136.000000)" fill="#527F99">
                <path d="M375.822743,681.263856 C397.272231,647.891368 413.955167,616.902629 423.488273,578.762642 C434.213017,537.047032 438.97957,486.988299 441.362847,444.080814 C444.937761,371.376465 443.746123,295.096491 441.362847,222.392142 C440.171208,146.112169 453.279229,73.4078191 423.488273,0.703469631 C443.746123,113.931555 381.780934,209.281522 292.408065,258.148379 C205.418473,307.015237 95.7877539,286.753369 0.456693847,254.572756 C14.7563529,401.173329 29.0560119,546.582028 43.3556709,693.182602 C45.7389474,713.44447 48.1222239,734.898212 61.2302446,750.392582 C73.1466271,763.503202 89.8295626,769.462575 106.512498,773.038199 C205.418473,795.683816 321.007383,767.078826 375.822743,681.263856 Z" id="Shape"></path>
                <path d="M549.801927,1168.74056 L508.094589,1172.31618 C503.328036,1172.31618 499.753121,1168.74056 499.753121,1165.16494 C499.753121,1160.39744 503.328036,1156.82181 506.90295,1156.82181 L548.610289,1153.24619 C553.376842,1153.24619 556.951757,1156.82181 556.951757,1160.39744 C556.951757,1163.97306 554.56848,1168.74056 549.801927,1168.74056 Z" id="Shape"></path>
                <path d="M553.376842,1225.95054 L511.669503,1229.52616 C506.90295,1229.52616 503.328036,1225.95054 503.328036,1222.37492 C503.328036,1217.60742 506.90295,1214.03179 510.477865,1214.03179 L552.185204,1210.45617 C556.951757,1210.45617 560.526672,1214.03179 560.526672,1217.60742 C561.71831,1222.37492 558.143395,1225.95054 553.376842,1225.95054 Z" id="Shape"></path>
            </g>
            <path d="M641.55088,1345.41012 L754.778798,1324 L781,1486.95477 L667.772082,1508.36488 C651.085863,1511.93324 635.591516,1500.03873 632.015898,1483.38642 L615.329678,1381.09364 C612.945933,1364.44133 623.672788,1348.97847 641.55088,1345.41012 Z" id="Shape" fill="#BCBFC2"></path>
            <g id="Group" transform="translate(644.000000, 1383.000000)" fill="#527F99">
                <path d="M15.9235628,63.0285714 L57.5494737,55.9428571 C62.3067206,54.7619048 65.8746559,58.3047619 67.0639676,63.0285714 C68.2532794,67.752381 64.6853441,71.2952381 61.1174089,72.4761905 L19.491498,79.5619048 C14.734251,80.7428571 11.1663158,77.2 9.97700405,72.4761905 C8.78769231,67.752381 11.1663158,64.2095238 15.9235628,63.0285714 Z" id="Shape"></path>
                <path d="M6.40906883,7.52380952 L48.0349798,0.438095238 C52.7922267,-0.742857143 56.3601619,2.8 57.5494737,7.52380952 C58.7387854,12.247619 55.1708502,15.7904762 51.602915,16.9714286 L9.97700405,24.0571429 C5.21975709,25.2380952 1.65182186,21.6952381 0.462510121,16.9714286 C-0.726801619,12.247619 2.8411336,8.7047619 6.40906883,7.52380952 Z" id="Shape"></path>
            </g>
            <ellipse id="Oval" fill="#0B2C48" transform="translate(1066.500000, 1367.500000) rotate(-95.227110) translate(-1066.500000, -1367.500000) " cx="1066.5" cy="1367.5" rx="214.5" ry="357.5"></ellipse>
            <path d="M523,1443.32733 C523,1461.1892 527.763992,1477.86027 530.145987,1494.53134 C532.527983,1512.39321 532.527983,1530.25507 533.718981,1548.11694 C534.909979,1576.69592 580.1679,1577.88671 578.976902,1548.11694 C577.785904,1530.25507 577.785904,1512.39321 575.403908,1494.53134 C573.021912,1477.86027 568.257921,1459.9984 568.257921,1443.32733 C568.257921,1413.55756 523,1413.55756 523,1443.32733 Z" id="Shape" fill="#2C424F"></path>
            <path d="M486.33209,1619.27708 C529.212006,1613.31465 566.136378,1594.2349 611.398511,1604.96726 C668.571732,1619.27708 692.393908,1531.03323 635.220687,1516.72342 C605.442967,1509.56851 576.856357,1508.37603 547.078637,1511.95348 C518.492027,1515.53093 491.096525,1526.26329 462.509914,1531.03323 C438.687739,1534.61068 424.394434,1565.61528 430.349977,1587.08 C437.49663,1613.31465 462.509914,1622.85453 486.33209,1619.27708 Z" id="Shape" fill="#4F6673"></path>
            <path d="M436.80412,1728 L553,1733.94406 L541.021043,1898 L424.825163,1892.05594 C408.054624,1890.86713 394.877772,1876.6014 396.075667,1859.95804 L403.263041,1756.53147 C405.658833,1739.88811 420.033581,1728 436.80412,1728 Z" id="Shape" fill="#BCBFC2"></path>
            <g id="Group" transform="translate(424.000000, 1774.000000)" fill="#527F99">
                <path d="M8.89147287,57.0408163 L50.9457364,59.4081633 C55.751938,59.4081633 59.3565891,62.9591837 58.1550388,67.6938776 C58.1550388,72.4285714 54.5503876,74.7959184 49.744186,74.7959184 L7.68992248,72.4285714 C2.88372093,72.4285714 -0.720930233,68.877551 0.480620155,64.1428571 C0.480620155,59.4081633 4.08527132,55.8571429 8.89147287,57.0408163 Z" id="Shape"></path>
                <path d="M12.496124,0.224489796 L54.5503876,2.59183673 C59.3565891,2.59183673 62.9612403,6.14285714 61.7596899,10.877551 C61.7596899,15.6122449 58.1550388,17.9795918 53.3488372,17.9795918 L11.2945736,15.6122449 C6.48837209,15.6122449 2.88372093,12.0612245 4.08527132,7.32653061 C4.08527132,3.7755102 7.68992248,0.224489796 12.496124,0.224489796 Z" id="Shape"></path>
            </g>
            <circle id="Oval" fill="#929EA5" cx="693" cy="1825" r="205"></circle>
            <circle id="Oval" fill="#BBC2C6" cx="692.5" cy="1824.5" r="176.5"></circle>
            <circle id="Oval" fill="#F7F8F9" cx="693" cy="1824" r="155"></circle>
            <rect id="Rectangle-path" fill="#2C424F" transform="translate(689.500000, 1756.500000) rotate(-92.722496) translate(-689.500000, -1756.500000) " x="623" y="1752" width="133" height="9"></rect>
        </g>
        <g id="burger" transform="translate(740.000000, 2747.000000)" fill-rule="nonzero">
            <path d="M1758,1019 C1758,1052.71259 1744.36927,1083.20439 1722.33164,1105.27624 C1700.25764,1127.3481 1669.81313,1141 1636.1892,1141 L226.810798,1141 C159.562944,1141 105,1086.39238 105,1019 C105,1000.94684 108.899692,983.844617 115.906041,968.447514 C122.002947,955.06158 130.409838,943.001852 140.668355,932.723757 C162.742356,910.651904 193.186871,897 226.810798,897 L1636.19284,897 C1685.45555,897 1727.90107,926.274899 1747.0976,968.447514 C1754.10031,983.844617 1758,1000.94684 1758,1019 Z" id="Shape" fill="#884D00"></path>
            <path d="M1747,968.516412 C1740.90381,981.879466 1732.46153,993.987911 1722.24059,1004.23997 C1700.16918,1026.33423 1669.72825,1040 1636.10827,1040 L226.891734,1040 C177.67482,1040 135.23428,1010.69538 116,968.520059 C122.09619,955.120534 130.498457,943.04856 140.759407,932.76003 C162.830816,910.665766 193.271755,897 226.891734,897 L1636.10827,897 C1685.36155,896.996353 1727.80209,926.304624 1747,968.516412 Z" id="Shape" fill="#AA6100"></path>
            <path d="M1862,1239.38516 C1862,1396.38877 1789.36018,1513.04976 1671.9378,1590.43437 C1554.47906,1667.85537 1392.2414,1706 1213.04209,1706 L648.954277,1706 C290.562918,1706 0,1553.39238 0,1239.38516 C0,1221.88492 4.35315234,1205.29445 12.2266484,1190.37066 C18.8891172,1177.64487 28.0863789,1166.16727 39.2547422,1156.39276 C63.4825625,1135.14428 97.0203828,1122 134.002176,1122 L1728.00146,1122 C1782.01764,1122 1828.57855,1150.02804 1849.77699,1190.37066 C1857.64685,1205.29809 1862,1221.88856 1862,1239.38516 Z" id="Shape" fill="#FFA733"></path>
            <path d="M1850,1190.25911 C1824.70766,1294.63145 1761.32584,1375.93347 1672.12058,1434.62293 C1554.63287,1511.91761 1392.35518,1550 1213.11166,1550 L648.884701,1550 C333.488854,1550 70.6492808,1432.09064 12,1190.25911 C18.6641123,1177.55408 27.8636428,1166.09521 39.0347612,1156.33664 C63.2685582,1135.12284 96.8146518,1122 133.805568,1122 L1728.19807,1122 C1782.22758,1122 1828.79634,1149.98594 1850,1190.25911 Z" id="Shape" fill="#FFB655"></path>
            <path d="M1448,846 L1133.15766,1160.81693 C1125.25216,1168.68544 1116.81236,1175.64536 1107.88551,1181.66032 C1041.2249,1226.78889 949.899137,1219.86895 890.842344,1160.81693 L576,846 L1448,846 Z" id="Shape" fill="#EEBF00"></path>
            <path d="M1449,846 L1133.9361,1161.13552 C1126.02504,1169.012 1117.5793,1175.97895 1108.64616,1182 C1084.60745,1173.82156 1062.04183,1160.1496 1042.88433,1140.95136 L748,846 L1449,846 Z" id="Shape" fill="#FFD422"></path>
            <path d="M1826,889.802249 C1826,906.284864 1823.27656,923.145222 1817.37154,939.591517 C1794.24594,1004.05097 1732.33044,1029.07636 1684.07576,993.463302 L1626.20723,950.782116 C1585.82471,920.955046 1534.31572,933.166275 1505.09603,979.515914 L1502.63439,983.40956 C1474.58915,1027.94313 1425.69088,1041.17499 1385.76287,1015.08902 L1256.17592,930.442176 C1226.27627,910.933994 1190.43524,913.051527 1162.1282,936.075613 L1058.27756,1020.45731 C1028.45427,1044.69089 990.457028,1045.71152 959.837432,1023.06518 L841.376942,935.356451 C811.099141,912.938931 773.556412,913.654461 743.845842,937.245159 L635.984582,1022.80367 C607.03032,1045.75148 570.622055,1047.07357 540.686046,1026.31957 L401.030731,929.385225 C373.552726,910.33106 340.438767,909.800768 312.582608,927.986854 L182.315702,1013.08771 C95.5692728,1024.24199 53.3723365,960.614298 53.3723365,960.614298 C32.5956631,924.547225 30.512178,881.789765 41.7549981,845.911563 C55.1140282,803.041507 87.475315,770 129.559532,770 L1731.50141,770 C1772.75296,770 1805.71784,802.551169 1819.26958,845.722692 C1823.65472,859.557484 1826,874.492811 1826,889.802249 Z" id="Shape" fill="#6DC82A"></path>
            <path d="M1820,845.816237 C1819.43261,847.707098 1818.78885,849.561595 1818.10871,851.456092 C1794.97675,916.025345 1733.04421,941.082884 1684.77626,905.429253 L1626.89181,862.659441 C1586.49818,832.834752 1534.97502,845.059893 1505.74728,891.425976 L1503.28496,895.360421 C1475.23201,939.944731 1426.32029,953.191664 1386.38129,927.075971 L1256.75869,842.33269 C1226.85081,822.765919 1190.99992,824.922227 1162.68509,847.972545 L1058.80588,932.450378 C1028.97438,956.711574 990.966687,957.697003 960.338668,935.024858 L841.845585,847.216201 C811.559453,824.77314 774.006395,825.529485 744.28765,849.107062 L636.393077,934.795773 C607.430849,957.733366 571.012566,959.093331 541.068321,938.315682 L401.374582,841.270899 C373.889017,822.158662 340.765947,821.627767 312.902124,839.870935 L182.599377,925.02875 C95.8290808,936.232099 53.6205347,872.495553 53.6205347,872.495553 C48.7359093,863.979407 44.8769461,855.08509 42,846.001687 C55.3627056,803.082788 87.7328961,770 129.828692,770 L1732.21132,770 C1773.47058,770.003636 1806.44453,802.591891 1820,845.816237 Z" id="Shape" fill="#7ED63E"></path>
            <path d="M1794.97251,692.460964 C1795.23803,705.057608 1793.57215,717.199959 1790.31677,728.662687 C1775.66575,779.6562 1728.64279,816.955497 1672.91579,816.955497 C1454.08884,816.955497 871.245014,812.038226 783.338863,814.949338 C781.371086,815.025659 779.403309,815.10198 777.471905,815.138324 C666.46893,819.335994 641.178816,837.115216 641.178816,896.242396 L641.178816,1112.58413 C641.178816,1123.70523 636.672207,1133.80508 629.368518,1141.10648 C622.061192,1148.40788 611.989522,1152.9072 600.859398,1152.9072 C578.559141,1152.9072 560.49997,1170.95173 560.49997,1193.23391 L560.49997,1287.46524 C560.49997,1297.03447 559.365134,1306.30569 557.168208,1315.23165 C544.714109,1366.75577 498.182191,1405 442.302425,1405 L439.312568,1405 C375.783569,1405 324.370401,1353.43953 324.559541,1289.96204 L325.090586,1119.39489 C325.126959,1106.30761 330.466508,1094.42694 339.061437,1085.87895 C347.692738,1077.29099 359.543046,1071.99575 372.680957,1071.99575 C398.956777,1071.99575 420.271327,1050.69848 420.271327,1024.44396 L420.271327,896.242396 C420.271327,852.43762 384.760414,816.955497 340.920095,816.955497 L192.431154,816.955497 C125.610403,816.955497 69.3887311,764.261109 68.0247454,697.494533 C66.6607596,628.987105 121.860352,573 190.121472,573 L1670.49336,573 C1737.35048,573 1793.64854,625.694387 1794.97251,692.460964 Z" id="Shape" fill="#FF3501"></path>
            <path d="M1793.97252,692.584629 C1794.23793,705.194313 1792.57279,717.349234 1789.31886,728.823828 C1557.76288,728.598266 1004.46804,724.014249 919.022468,726.815592 C803.073598,730.639245 776.925841,748.022127 776.925841,808.232824 L776.925841,815.388984 C665.972386,819.590999 640.693554,837.388626 640.693554,896.577015 L640.693554,1113.1427 C640.693554,1124.27532 636.188956,1134.38562 628.888525,1141.69458 C621.584459,1149.00354 611.517282,1153.50752 600.392124,1153.50752 C578.101815,1153.50752 560.050701,1171.57073 560.050701,1193.87597 L560.050701,1288.20485 C560.050701,1297.78399 558.916371,1307.06481 556.720425,1316 C501.999917,1307.17759 460.25876,1259.57657 460.447815,1202.32002 L460.978623,1031.61269 C461.01498,1018.47184 466.352147,1006.61888 474.943241,998.062053 C483.570693,989.465203 495.415714,984.164479 508.547763,984.164479 C534.811862,984.164479 556.116903,962.845162 556.116903,936.563466 L556.116903,808.229186 C556.116903,764.379063 520.621832,728.860209 476.80107,728.860209 L328.378373,728.860209 C261.587432,728.860209 205.390841,676.111273 204.027464,609.275581 C203.76206,596.665896 205.427198,584.510976 208.721117,573 L1669.5489,573 C1736.3762,573 1792.64914,625.748936 1793.97252,692.584629 Z" id="Shape" fill="#FF5023"></path>
            <path d="M1096,449 L825.930658,719.54449 C798.867722,746.643728 766.957312,765.935822 732.966817,777.344302 C649.163354,805.696179 552.872102,786.404085 486.178437,719.54449 L216,449 L1096,449 Z" id="Shape" fill="#EEBF00"></path>
            <path d="M1096,449 L825.968869,719.260796 C798.909761,746.331618 767.003866,765.603482 733.01818,777 C699.068854,765.603482 667.166595,746.331618 640.143847,719.260796 L370,449 L1096,449 Z" id="Shape" fill="#FFD422"></path>
            <path d="M1862,487.354649 C1862,489.36348 1861.92363,491.33228 1861.81089,493.30108 C1860.33438,518.717161 1849.4315,541.63312 1832.54985,558.529865 C1814.3408,576.751273 1789.20744,588 1761.42291,588 L100.577094,588 C45.0443984,587.996361 0,542.921393 0,487.354649 C0,366.748357 55.8709102,275.950645 140.246422,207.654026 C208.722199,152.200097 296.010723,111.554019 387.390555,81.7454393 C643.051883,-1.5482693 931,0.00202429576 931,0.00202429576 C931,0.00202429576 1862,-5.0346103 1862,487.354649 Z" id="Shape" fill="#FFA733"></path>
            <path d="M1862,487.057198 C1862,489.064803 1861.92361,491.032402 1861.81084,493 L304.601693,493 C249.059053,493 204,447.952543 204,392.416076 C204,271.883395 259.884575,181.141101 344.280723,112.889802 C357.834452,101.909802 372.108426,91.5408132 387.026257,81.695547 C642.753753,-1.54732434 930.772296,0.00202306026 930.772296,0.00202306026 C930.772296,0.00202306026 1862,-5.03153749 1862,487.057198 Z" id="Shape" fill="#FFB655"></path>
            <g id="Group" transform="translate(424.000000, 124.000000)" fill="#FFF5CC">
                <path d="M1007.63416,52.0788764 C1023.77885,69.1817079 1023.01508,96.1465169 1005.93204,112.310112 C988.845367,128.470067 961.906028,127.705573 945.761338,110.606382 C929.616648,93.507191 899.898633,34.2515955 916.98531,18.088 C934.071986,1.92440449 991.489473,34.9724045 1007.63416,52.0788764 Z" id="Shape"></path>
                <path d="M782.012206,262.638831 C790.43916,284.605303 779.480847,309.251146 757.535125,317.686067 C735.589402,326.120989 710.96684,315.152315 702.539886,293.185843 C694.112932,271.219371 689.162961,205.105169 711.105046,196.670247 C733.050769,188.238966 773.585253,240.67236 782.012206,262.638831 Z" id="Shape"></path>
                <path d="M549.745431,87.4057978 C549.745431,110.937663 530.687495,130.009978 507.181495,130.009978 C483.671858,130.009978 464.617559,110.934022 464.617559,87.4057978 C464.617559,63.8739326 483.675495,0.380853933 507.181495,0.380853933 C530.691132,0.377213483 549.745431,63.8739326 549.745431,87.4057978 Z" id="Shape"></path>
                <path d="M315.707431,289.337888 C309.830021,312.11982 286.611345,325.818831 263.850932,319.935865 C241.09052,314.052899 227.404448,290.81227 233.281858,268.030337 C239.159267,245.248404 273.474463,188.541124 296.238512,194.42409 C318.998925,200.307056 321.58484,266.559596 315.707431,289.337888 Z" id="Shape"></path>
                <path d="M81.5384982,103.755056 C71.2894021,124.92791 45.8339644,133.781483 24.6738363,123.522697 C3.52098221,113.26391 -5.32422776,87.7844045 4.92486833,66.6042697 C15.1739644,45.4314157 59.9782989,-3.40157303 81.138427,6.86085393 C102.294918,17.1232809 91.7875943,82.5822022 81.5384982,103.755056 Z" id="Shape"></path>
            </g>
        </g>
        <g id="sugar-blood-level-(3)" transform="translate(2602.000000, 391.000000)" fill-rule="nonzero">
            <path d="M1132.90892,0 L396.095678,0 C177.335119,0 0,177.351018 0,396.120911 L0,1359.17877 C0,1481.66819 37.0215132,1601.29511 106.209636,1702.37097 C249.127863,1911.16351 485.849263,2036 738.861049,2036 L790.143553,2036 C1043.15534,2036 1279.87674,1911.16351 1422.79497,1702.37097 C1491.98309,1601.29511 1529,1481.66819 1529,1359.17877 L1529,396.120911 C1529.0046,177.351018 1351.66488,0 1132.90892,0 Z" id="Shape" fill="#FFB123"></path>
            <path d="M1298.15764,36 L1298.15764,1481.73084 C1298.15764,1524.35914 1285.26862,1565.99791 1261.18456,1601.17477 L1073.89789,1874.724 C1004.79432,1975.6567 890.335219,2036 768,2036 L789.911335,2036 C1043.00106,2036 1279.79539,1911.15275 1422.75764,1702.34219 C1491.96248,1601.25761 1529,1481.62038 1529,1359.1204 L1529,395.984075 C1529,236.236108 1434.37618,98.6675596 1298.15764,36 Z" id="Shape" fill="#FF901D"></path>
            <path d="M371,1941.95295 C482.211325,2002.73194 608.346576,2036 738.850366,2036 L790.149634,2036 C920.658027,2036 1046.78867,2002.73194 1158,1941.95295 L1158,1602.03796 C1158,1583.79092 1143.20497,1569 1124.95285,1569 L404.051754,1569 C385.799636,1569 371.004603,1583.79092 371.004603,1602.03796 L371.004603,1941.95295 L371,1941.95295 Z" id="Shape" fill="#2C5871"></path>
            <path d="M1124.94844,1569 L404.046957,1569 C385.794946,1569 371,1583.80758 371,1602.07517 L371,1804 L1158,1804 L1158,1602.07517 C1158,1583.80758 1143.20045,1569 1124.94844,1569 Z" id="Shape" fill="#1D4859"></path>
            <path d="M899.585925,2356 L630.414075,2356 C620.794872,2356 613,2348.21607 613,2338.61038 L613,1569 L917,1569 L917,2338.61038 C917,2348.21607 909.205128,2356 899.585925,2356 Z" id="Shape" fill="#E1EFFB"></path>
            <path d="M682,1569 L682,2356 L898.600177,2356 C908.211508,2356 916,2348.21607 916,2338.61038 L916,1569 L682,1569 Z" id="Shape" fill="#BACED8"></path>
            <rect id="Rectangle-path" fill="#F9644B" x="613" y="1721" width="304" height="215"></rect>
            <rect id="Rectangle-path" fill="#DB3F2E" x="682" y="1721" width="234" height="215"></rect>
            <path d="M1287.08561,1059 L242.914394,1059 C224.183008,1059 209,1043.82495 209,1025.10338 L209,441.896619 C209,423.17505 224.183008,408 242.914394,408 L1287.08561,408 C1305.81699,408 1321,423.17505 1321,441.896619 L1321,1025.10798 C1321,1043.82495 1305.81699,1059 1287.08561,1059 Z" id="Shape" fill="#E1EFFB"></path>
            <path d="M1287.07955,408 L1087,408 L1087,1059 L1287.07955,1059 C1305.81428,1059 1321,1043.82495 1321,1025.10338 L1321,441.896619 C1321,423.17505 1305.81428,408 1287.07955,408 Z" id="Shape" fill="#BACED8"></path>
            <g id="Group" transform="translate(451.000000, 537.000000)" fill="#11B9C1">
                <path d="M122.755794,146.6748 C191.873559,146.6748 245.806221,176.5012 245.806221,258.6572 L245.806221,268.5978 C245.806221,354.42 191.348824,386.3394 123.800662,386.3394 C43.6864706,386.3394 0.2255,340.2888 0.2255,291.6254 C0.2255,267.5536 12.7915294,260.7502 34.2596471,260.7502 C63.0556471,260.7502 68.2937941,272.264 68.2937941,286.915 C68.2937941,312.5554 91.85625,326.6866 122.226456,326.6866 C156.785338,326.6866 177.728721,308.374 177.728721,268.6024 L177.728721,258.6618 C177.728721,218.8902 156.785338,200.0532 122.746588,200.0532 L45.2514706,200.0532 C23.7833529,200.0532 18.0204706,189.5882 18.0204706,173.364 C18.0204706,169.178 18.5452059,164.4676 18.5452059,159.7618 L32.1607059,22.1344 C33.2055735,9.052 37.39425,0.68 45.2514706,0.68 L206.524721,0.68 C220.140221,0.68 226.947971,15.8554 226.947971,30.511 C226.947971,45.6864 220.144824,60.3374 206.524721,60.3374 L88.7124412,60.3374 L82.4248235,146.6794 L122.755794,146.6748 Z" id="Shape"></path>
                <path d="M342.665912,350.7538 C342.665912,369.5954 326.431338,386.3394 307.577691,386.3394 C287.159044,386.3394 271.973941,369.5954 271.973941,350.7538 C271.973941,331.3924 287.163647,315.1728 307.577691,315.1728 C326.431338,315.1728 342.665912,331.3924 342.665912,350.7538 Z" id="Shape"></path>
                <path d="M607.611206,93.2964 C607.611206,137.254 587.192559,163.4188 557.347088,173.8792 C595.045176,187.486 619.657103,218.3566 619.657103,272.2594 L619.657103,278.5384 C619.657103,356.5084 566.249176,386.3348 497.136015,386.3348 C428.013647,386.3348 374.080985,356.5038 374.080985,278.5384 L374.080985,272.2594 C374.080985,218.3612 399.217647,187.486 436.395603,173.8792 C406.545529,163.4142 386.131485,137.2494 386.131485,93.2964 C386.131485,26.8402 432.731662,0.6754 497.140618,0.6754 C561.006426,0.6754 607.611206,26.8402 607.611206,93.2964 Z M551.579603,260.2258 C551.579603,220.4542 531.160956,202.666 497.126809,202.666 C462.563324,202.666 442.144676,220.4588 442.144676,260.2258 L442.144676,270.6908 C442.144676,312.031 463.083456,330.868 497.126809,330.868 C531.685691,330.868 551.579603,311.5066 551.579603,270.6908 L551.579603,260.2258 Z M452.091632,101.673 C452.091632,134.1168 468.326206,147.1992 497.126809,147.1992 C525.398074,147.1992 542.157382,134.1168 542.157382,101.673 C542.157382,69.2292 525.398074,56.1468 497.126809,56.1468 C468.326206,56.1422 452.091632,69.2292 452.091632,101.673 Z" id="Shape"></path>
            </g>
            <path d="M1320.43738,1263 L208.562616,1263 C188.917584,1263 173,1247.10585 173,1227.5 C173,1207.89415 188.922186,1192 208.562616,1192 L1320.43738,1192 C1340.08242,1192 1356,1207.89415 1356,1227.5 C1356,1247.10585 1340.08242,1263 1320.43738,1263 Z" id="Shape" fill="#E1EFFB"></path>
        </g>
        <g id="no-smoking" transform="translate(282.000000, 548.000000)" fill-rule="nonzero">
            <path d="M1653.79412,1232 L527.205882,1232 C507.763434,1232 492,1216.27278 492,1196.875 L492,986.125 C492,966.727219 507.763434,951 527.205882,951 L1653.79412,951 C1673.23657,951 1689,966.727219 1689,986.125 L1689,1196.875 C1689,1216.27278 1673.23657,1232 1653.79412,1232 Z" id="Shape" fill="#E6E6E6"></path>
            <polygon id="Shape" fill="#FBB03B" points="353 951 423 951 423 1232 353 1232"></polygon>
            <path d="M1021,0 C457.117543,0 0,457.117543 0,1021 C0,1584.88246 457.117543,2042 1021,2042 C1584.88246,2042 2042,1584.88246 2042,1021 C2042,457.117543 1584.88246,0 1021,0 Z M140.827586,1021 C140.770375,535.012802 534.69594,140.990418 1020.68314,140.933207 C1229.82091,140.906802 1432.13294,215.373789 1591.35172,350.977552 L350.977552,1591.35172 C215.149345,1432.37938 140.616345,1230.09376 140.827586,1021 Z M1021,1901.17241 C811.906241,1901.38366 609.620616,1826.85066 450.648276,1691.02245 L1691.02245,450.648276 C2006.13737,820.633151 1961.65346,1376.01754 1591.66859,1691.12807 C1432.4498,1826.73183 1230.13777,1901.19882 1021,1901.17241 Z" id="Shape" fill="#DA4836"></path>
            <path d="M423.3,882 L353,882 L353,846.733333 C353,788.300875 400.210844,740.933333 458.45,740.933333 L950.55,740.933333 C969.961588,740.933333 985.7,725.142683 985.7,705.666667 C985.7,686.19065 969.961588,670.4 950.55,670.4 L669.35,670.4 C611.110844,670.4 563.9,623.032458 563.9,564.6 C563.9,506.167542 611.110844,458.8 669.35,458.8 L845.1,458.8 C864.511588,458.8 880.25,443.00935 880.25,423.533333 L880.25,353 L950.55,353 L950.55,423.533333 C950.55,481.965792 903.339156,529.333333 845.1,529.333333 L669.35,529.333333 C649.938413,529.333333 634.2,545.123983 634.2,564.6 C634.2,584.076017 649.938413,599.866667 669.35,599.866667 L950.55,599.866667 C1008.78916,599.866667 1056,647.234208 1056,705.666667 C1056,764.099125 1008.78916,811.466667 950.55,811.466667 L458.45,811.466667 C439.038412,811.466667 423.3,827.257317 423.3,846.733333 L423.3,882 Z" id="Shape" fill="#B3B3B3"></path>
            <path d="M1656.7,1232 L1374.3,1232 C1354.80558,1232 1339,1216.27278 1339,1196.875 L1339,986.125 C1339,966.727219 1354.80558,951 1374.3,951 L1656.7,951 C1676.19443,951 1692,966.727219 1692,986.125 L1692,1196.875 C1692,1216.27278 1676.19443,1232 1656.7,1232 Z" id="Shape" fill="#F29200"></path>
        </g>
    </g>
</svg>