<?xml version="1.0" encoding="UTF-8"?>
<svg width="5709px" height="4421px" viewBox="0 0 5709 4421" version="1.1" xmlns="http://www.w3.org/2000/svg" xmlns:xlink="http://www.w3.org/1999/xlink">
    <!-- Generator: Sketch 51.3 (57544) - http://www.bohemiancoding.com/sketch -->
    <title>Artboard</title>
    <desc>Created with Sketch.</desc>
    <defs></defs>
    <g id="Artboard" stroke="none" stroke-width="1" fill="none" fill-rule="evenodd">
        <g id="temperature" transform="translate(4038.000000, 358.000000)" fill-rule="nonzero">
            <path d="M749.159001,2112.58597 L749.159001,299.619337 C749.159001,134.139107 615.000424,0 449.496182,0 C283.991934,0 149.833352,134.139107 149.833352,299.619337 L149.833352,2112.58597 C-35.190092,2278.0441 -51.0397694,2562.16969 114.464473,2747.18839 C279.968721,2932.18499 564.135557,2948.03236 749.159001,2782.55214 C934.204554,2617.07191 950.032127,2332.94631 784.527879,2147.94972 C773.408792,2135.5061 761.604426,2123.70345 749.159001,2112.58597 Z" id="Shape" fill="#B8EAEE"></path>
            <path d="M549.977915,2218.45152 L549.977915,299.874984 C549.977915,244.710577 505.219151,200 449.995282,200 C394.793537,200 350.034767,244.710577 350.034767,299.874984 L350.034767,2218.45152 C223.502191,2273.59383 165.711828,2420.76522 220.935697,2547.13945 C276.137442,2673.51368 423.467469,2731.24182 549.977915,2676.09951 C676.488368,2620.93511 734.27873,2473.78582 679.076985,2347.41159 C653.854545,2289.68345 607.746155,2243.6247 549.977915,2218.45152 Z" id="Shape" fill="#A8D6DA"></path>
            <path d="M450.027569,2697 C587.820127,2696.71264 699.286559,2584.66221 698.999447,2446.74888 C698.800677,2347.85094 640.295704,2258.39186 549.832756,2218.647 L549.832756,949 L350.244461,949 L350.244461,2218.647 C224.068968,2274.08643 166.712451,2421.4165 222.125428,2547.68047 C261.83548,2638.22271 351.216231,2696.77895 450.027569,2697 Z" id="Shape" fill="#E06661"></path>
            <polygon id="Shape" fill="#FBB540" points="999 1798 1149 1798 1149 1898 999 1898"></polygon>
            <polygon id="Shape" fill="#FD9226" points="999 1498 1299 1498 1299 1598 999 1598"></polygon>
            <polygon id="Shape" fill="#FBB540" points="999 1198 1149 1198 1149 1298 999 1298"></polygon>
            <polygon id="Shape" fill="#FD9226" points="999 899 1299 899 1299 999 999 999"></polygon>
            <polygon id="Shape" fill="#FBB540" points="999 599 1149 599 1149 699 999 699"></polygon>
            <polygon id="Shape" fill="#FD9226" points="999 300 1299 300 1299 400 999 400"></polygon>
            <path d="M450,2547 C394.77645,2547 350,2502.21133 350,2447 L450,2447 L450,2547 Z" id="Shape" fill="#C7463B"></path>
        </g>
        <g id="medicine" transform="translate(2681.000000, 1572.000000)" fill-rule="nonzero">
            <path d="M652.464111,443.709661 C705.096026,443.798679 757.477655,451.294071 808,466 L808,323 L404,323 L404,466 C454.522345,451.294071 506.886093,443.798679 559.535889,443.709661 L652.464111,443.709661 Z" id="Shape" fill="#EBBF00"></path>
            <path d="M1574,2099 C1574,2232.64525 1682.3369,2341 1816,2341 L1816,1857 C1682.3369,1857 1574,1965.3369 1574,2099 Z" id="Shape" fill="#FF7754"></path>
            <path d="M1816,1857 L1816,2341 C1949.64526,2341 2058,2232.64525 2058,2099 C2058,1965.3369 1949.64526,1857 1816,1857 Z" id="Shape" fill="#FF977C"></path>
            <path d="M1090,323 L1090,74.7693442 C1090,33.4809423 1056.51844,0 1015.22928,0 L195.609927,0 C154.374364,0.0893299331 121,33.5345416 121,74.7693442 L121,323 L1090,323 Z" id="Shape" fill="#27AAE1"></path>
            <path d="M888,2179.50893 C888,2268.69617 960.303834,2341 1049.49107,2341 L1211,2341 L1211,2018 L1049.49107,2018 C960.303834,2018 888,2090.30383 888,2179.50893 Z" id="Shape" fill="#5AAAE7"></path>
            <path d="M1372.49107,2341 C1461.69617,2341 1534,2268.69617 1534,2179.50893 C1534,2090.30383 1461.69617,2018 1372.49107,2018 L1211,2018 L1211,2341 L1372.49107,2341 Z" id="Shape" fill="#96C9EF"></path>
            <path d="M605,444 L558.613933,444 C506.07042,444.089316 453.776772,451.609798 403.339285,466.364953 C164.448348,535.496237 0.0178476607,754.376246 0,1003.26674 L0,1211 L605,1211 L605,444 Z M241.996433,1089.88628 C242.192753,911.60973 386.544633,767.148565 564.664291,766.934204 C386.544633,767.148565 242.192753,911.60973 241.996433,1089.88628 Z" id="Shape" fill="#FFD422"></path>
            <path d="M806.660718,466.364953 C756.223231,451.609798 703.929584,444.089316 651.386071,444 L605,444 L605,1211 L1210,1211 L1210,1003.10597 C1209.91076,754.269068 1045.49811,535.478374 806.660718,466.364953 Z" id="Shape" fill="#FFE57B"></path>
            <polygon id="Shape" fill="#27AAE1" points="605 1896.91693 605 1654.816 363.003572 1654.816 605 1654.816 605 1211 0 1211 0 2139 605 2139"></polygon>
            <path d="M1008.76336,2341 L1049,2341 C960.08397,2341 888,2268.91603 888,2180 L888,2341 L1008.76336,2341 Z" id="Shape" fill="#FFDE55"></path>
            <path d="M605,1412.8683 L605,2139.62277 L887.332144,2139.62277 L887.332144,2180 C887.332144,2090.7949 959.561627,2018.49107 1048.65715,2018.49107 L1210,2018.49107 L1210,1211 L605,1211 L605,1412.8683 Z" id="Shape" fill="#6FC6EB"></path>
            <polygon id="Shape" fill="#FFD422" points="0 2139 605 2139 605 2341 0 2341"></polygon>
            <polygon id="Shape" fill="#FFDE55" points="605 2139 605 2341 888 2341 888 2139"></polygon>
            <path d="M282.670633,1090 L202,1090 C202.249863,889.61643 364.626284,727.232028 565,727 L565,807.656748 C409.155756,807.835234 282.849105,934.148096 282.670633,1090 Z" id="Shape" fill="#F1F2F2"></path>
            <g id="Group" transform="translate(242.000000, 81.000000)" fill="#1A6FB0">
                <polygon id="Shape" points="0.4141613 0.0078125 81.191505 0.0078125 81.191505 161.838868 0.4141613 161.838868"></polygon>
                <polygon id="Shape" points="161.968849 0.0078125 242.728323 0.0078125 242.728323 161.838868 161.968849 161.838868"></polygon>
                <polygon id="Shape" points="323.505666 0.0078125 404.28301 0.0078125 404.28301 161.838868 323.505666 161.838868"></polygon>
                <polygon id="Shape" points="485.060354 0.0078125 565.819823 0.0078125 565.819823 161.838868 485.060354 161.838868"></polygon>
                <polygon id="Shape" points="646.597167 0.0078125 727.374511 0.0078125 727.374511 161.838868 646.597167 161.838868"></polygon>
            </g>
            <polygon id="Shape" fill="#CD2A00" points="525 1413 686 1413 686 1897 525 1897"></polygon>
            <polygon id="Shape" fill="#CD2A00" points="363 1574 847 1574 847 1735 363 1735"></polygon>
        </g>
        <g id="emergency" transform="translate(404.000000, 478.000000)" fill-rule="nonzero">
            <g id="Group" transform="translate(662.000000, 0.000000)" fill="#3C6A7C">
                <path d="M894.606133,455.830013 C862.655537,455.830013 836.751396,429.918648 836.751396,397.959142 L836.751396,161.550285 C836.751396,136.60459 816.464131,116.311667 791.525391,116.311667 L161.474609,116.311667 C136.535869,116.311667 116.248604,136.60459 116.248604,161.550285 L116.248604,397.959142 C116.248604,429.918648 90.3444629,455.830013 58.3938672,455.830013 C26.4432715,455.830013 0.539130859,429.918648 0.539130859,397.959142 L0.539130859,161.550285 C0.539130859,72.7826078 72.7362988,0.56992686 161.474609,0.56992686 L791.525391,0.56992686 C880.26832,0.56992686 952.460869,72.7872282 952.460869,161.550285 L952.460869,397.959142 C952.460869,429.918648 926.556729,455.830013 894.606133,455.830013 Z" id="Shape"></path>
            </g>
            <path d="M2118.10261,1956 L159.897391,1956 C136.756578,1956 118,1937.24496 118,1914.10605 L118,507.893951 C118,484.755038 136.756578,466 159.897391,466 L2118.10261,466 C2141.24342,466 2160,484.755038 2160,507.893951 L2160,1914.10605 C2160,1937.24496 2141.2388,1956 2118.10261,1956 Z" id="Shape" fill="#F33A3A"></path>
            <path d="M2118.10261,466 L1924.7343,466 L1924.7343,1823.84627 C1924.7343,1846.98519 1905.97772,1865.74022 1882.83691,1865.74022 L118,1865.74022 L118,1914.10605 C118,1937.24496 136.756578,1956 159.897391,1956 L2118.10261,1956 C2141.24342,1956 2160,1937.24496 2160,1914.10605 L2160,507.893951 C2160,484.755038 2141.2388,466 2118.10261,466 Z" id="Shape" fill="#DD172F"></path>
            <path d="M2243.97918,674 L33.0208187,674 C14.7806155,674 0,659.197285 0,640.940141 L0,367.059859 C0,348.79809 14.7852344,334 33.0208187,334 L2243.97918,334 C2262.21938,334 2277,348.802715 2277,367.059859 L2277,640.940141 C2277,659.197285 2262.21477,674 2243.97918,674 Z" id="Shape" fill="#FF4C4C"></path>
            <path d="M2243.97463,334 L2008.66309,334 C2026.90326,334 2041.68384,348.802715 2041.68384,367.059859 L2041.68384,592.911089 L33.0207517,592.911089 C14.7805855,592.911089 0,578.108374 0,559.85123 L0,640.940141 C0,659.20191 14.7852044,674 33.0207517,674 L2008.66309,674 L2243.97463,674 C2262.2148,674 2277,659.197285 2277,640.940141 L2277,559.85123 L2277,367.059859 C2276.99538,348.79809 2262.21018,334 2243.97463,334 Z" id="Shape" fill="#F33A3A"></path>
            <path d="M1024.80636,1646.01945 L1024.80636,1375.19826 L753.985166,1375.19826 C735.766857,1375.19826 721,1360.4314 721,1342.21309 L721,1179.79615 C721,1161.57784 735.766857,1146.81098 753.985166,1146.81098 L1024.80636,1146.81098 L1024.80636,875.985166 C1024.80636,857.766857 1039.57322,843 1057.79153,843 L1220.20847,843 C1238.42678,843 1253.19364,857.766857 1253.19364,875.985166 L1253.19364,1146.80636 L1524.01483,1146.80636 C1542.23314,1146.80636 1557,1161.57322 1557,1179.79153 L1557,1342.20847 C1557,1360.42678 1542.23314,1375.19364 1524.01483,1375.19364 L1253.19364,1375.19364 L1253.19364,1646.01483 C1253.19364,1664.23314 1238.42678,1679 1220.20847,1679 L1057.79153,1679 C1039.57322,1679.00462 1024.80636,1664.23776 1024.80636,1646.01945 Z" id="Shape" fill="#FFFFFF"></path>
            <path d="M1522.09375,1146.8093 L1251.92045,1146.8093 L1251.92045,875.984984 C1251.92045,857.766775 1237.18892,843 1219.01419,843 L1138,843 L1138,1679 L1219.01419,1679 C1237.18892,1679 1251.92045,1664.23322 1251.92045,1646.01502 L1251.92045,1375.19532 L1522.09375,1375.19532 C1540.26847,1375.19532 1555,1360.42854 1555,1342.21033 L1555,1179.79429 C1555,1161.57608 1540.26847,1146.8093 1522.09375,1146.8093 Z" id="Shape" fill="#CCDFED"></path>
        </g>
        <g id="tissues" transform="translate(679.000000, 2743.000000)" fill-rule="nonzero">
            <rect id="Rectangle-path" fill="#EDC92F" x="0" y="874" width="1728" height="553"></rect>
            <polygon id="Shape" fill="#F4D44E" points="1551.84616 454 176.153843 454 0 874 1728 874"></polygon>
            <path d="M1203.79334,623 C1191.76751,623 535.238914,623 523.206655,623 C472.278225,623 431,635.088489 431,650 C431,664.911511 472.284645,677 523.206655,677 C535.238914,677 1191.76751,677 1203.79334,677 C1254.72178,677 1296,664.911511 1296,650 C1296,635.088489 1254.72178,623 1203.79334,623 Z" id="Shape" fill="#D1AE19"></path>
            <path d="M864.210559,60.0399803 C663.000577,-62.7028628 406,45.5128332 406,45.5128332 L510.947259,675.724087 C515.067754,675.884501 519.233246,676 523.514446,676 C535.560946,676 1192.8666,676 1204.90667,676 C1209.18787,676 1213.35336,675.884501 1217.47386,675.724087 L1330,0 C1330,0 1040.45973,167.549852 864.210559,60.0399803 Z" id="Shape" fill="#F7F6F2"></path>
            <g id="Group" transform="translate(601.000000, 285.000000)" fill="#E5E4E1">
                <path d="M24.6308746,8.98922939 C22.1013259,2.49871935 14.8144281,-0.685425806 8.34289237,1.82329462 C1.87777684,4.3513129 -1.32589014,11.6523326 1.19723836,18.13641 L146.395901,391.665584 L173.386313,391.665584 L24.6308746,8.98922939 Z" id="Shape"></path>
                <path d="M516.210781,1.82329462 C509.745666,-0.685425806 502.452348,2.49871935 499.929219,8.98922939 L351.17378,391.665584 L378.157773,391.665584 L523.362856,18.13641 C525.885984,11.6587652 522.682317,4.3513129 516.210781,1.82329462 Z" id="Shape"></path>
            </g>
            <g id="Group" transform="translate(692.000000, 992.000000)" fill="#EA4949">
                <path d="M214.63284,92.7440936 C214.63284,116.95764 194.999021,136.597872 170.779061,136.597872 C146.565515,136.597872 126.925282,116.95764 126.925282,92.7440936 C126.925282,68.5177191 146.565515,0.232312057 170.779061,0.232312057 C194.999021,0.232312057 214.63284,68.5177191 214.63284,92.7440936 Z" id="Shape"></path>
                <path d="M126.925282,248.435591 C126.925282,224.215631 146.565515,204.581813 170.779061,204.581813 C194.999021,204.581813 214.63284,224.215631 214.63284,248.435591 C214.63284,272.655552 194.999021,340.947373 170.779061,340.947373 C146.565515,340.947373 126.925282,272.661966 126.925282,248.435591 Z" id="Shape"></path>
                <path d="M248.628017,214.446828 C224.414471,214.446828 204.780652,194.81301 204.780652,170.59305 C204.780652,146.373089 224.414471,126.732857 248.628017,126.732857 C272.854391,126.732857 341.146213,146.373089 341.146213,170.59305 C341.146213,194.81301 272.854391,214.446828 248.628017,214.446828 Z" id="Shape"></path>
                <path d="M92.930105,126.732857 C117.143651,126.732857 136.77747,146.373089 136.77747,170.59305 C136.77747,194.81301 117.143651,214.446828 92.930105,214.446828 C68.7037305,214.446828 0.424737589,194.81301 0.424737589,170.59305 C0.424737589,146.373089 68.7037305,126.732857 92.930105,126.732857 Z" id="Shape"></path>
                <path d="M256.831759,146.552687 C239.712301,163.678559 211.945296,163.678559 194.819424,146.552687 C177.687138,129.426814 177.687138,101.65981 194.819424,84.5339376 C211.945296,67.4016511 274.117986,33.0023801 291.237444,50.1282525 C308.36973,67.2541248 273.964045,129.426814 256.831759,146.552687 Z" id="Shape"></path>
                <path d="M84.7263631,194.626999 C101.839407,177.501126 129.612826,177.501126 146.738698,194.626999 C163.870984,211.752871 163.870984,239.519875 146.738698,256.645748 C129.612826,273.778034 67.4529645,308.177305 50.3142638,291.051433 C33.1883915,273.92556 67.5940766,211.752871 84.7263631,194.626999 Z" id="Shape"></path>
                <path d="M194.819424,256.645748 C177.693552,239.519875 177.693552,211.752871 194.819424,194.633413 C211.945296,177.501126 239.718715,177.501126 256.844587,194.626999 C273.97046,211.752871 308.36973,273.92556 291.237444,291.051433 C274.117986,308.177305 211.945296,273.778034 194.819424,256.645748 Z" id="Shape"></path>
                <path d="M146.738698,84.5275234 C163.870984,101.65981 163.870984,129.4204 146.738698,146.552687 C129.612826,163.678559 101.839407,163.678559 84.7263631,146.552687 C67.5940766,129.4204 33.1883915,67.260539 50.3142638,50.1346667 C67.4529645,33.0023801 129.612826,67.4016511 146.738698,84.5275234 Z" id="Shape"></path>
            </g>
            <circle id="Oval" fill="#EB9783" cx="863.5" cy="1164.5" r="44.5"></circle>
        </g>
    </g>
</svg>